<?xml version="1.0" encoding="UTF-8" standalone="no"?>
<!-- Created with Inkscape (http://www.inkscape.org/) -->

<svg
   version="1.1"
   id="svg2"
   width="392.71387"
   height="328.46201"
   viewBox="0 0 392.71387 328.46201"
   xmlns="http://www.w3.org/2000/svg"
   xmlns:svg="http://www.w3.org/2000/svg">
  <defs
     id="defs6" />
  <g
     id="g8"
     transform="matrix(1.3333333,0,0,-1.3333333,1.3333333,327.12867)">
    <g
       id="g10">
      <g
         id="g12" />
    </g>
    <g
       id="g14">
      <g
         id="g16" />
    </g>
    <g
       id="g18">
      <g
         id="g20" />
      <g
         id="g22" />
    </g>
    <g
       id="g24">
      <g
         id="g26" />
      <g
         id="g28" />
    </g>
    <g
       id="g30">
      <g
         id="g32" />
      <g
         id="g34" />
    </g>
    <g
       id="g36">
      <g
         id="g38" />
      <g
         id="g40" />
    </g>
    <g
       id="g42">
      <g
         id="g44" />
      <g
         id="g46" />
    </g>
    <g
       id="g48">
      <g
         id="g50" />
      <g
         id="g52" />
    </g>
    <g
       id="g54">
      <g
         id="g56" />
      <g
         id="g58" />
    </g>
    <g
       id="g60">
      <g
         id="g62" />
      <g
         id="g64" />
    </g>
    <g
       id="g66">
      <g
         id="g68">
        <path
           d="m 14.4567,244.063 h 263.622 c 7.7953,0 14.1733,-6.3777 14.1733,-14.1735 V 14.457 c 0,-7.7959 -6.378,-14.1735 -14.1733,-14.1735 H 14.4567 C 6.6614,0.2835 0.2835,6.6611 0.2835,14.457 v 215.4325 c 0,7.7958 6.3779,14.1735 14.1732,14.1735 z"
           style="fill:none;stroke:#1a1a18;stroke-width:0.5669;stroke-linecap:butt;stroke-linejoin:miter;stroke-miterlimit:22.9256;stroke-dasharray:none;stroke-opacity:1"
           id="path70" />
        <path
           d="m 131.3861,219.9685 h 7.795 c 0,3.9141 3.1725,7.0866 7.0866,7.0866 3.9141,0 7.0866,-3.1725 7.0866,-7.0866 h 7.7953 c 2.7284,0 4.9606,-2.2323 4.9606,-4.9606 v 0 c 0,-2.7284 -2.2322,-4.9607 -4.9606,-4.9607 h -29.7635 c -2.7286,0 -4.9609,2.2323 -4.9609,4.9607 v 0 c 0,2.7283 2.2323,4.9606 4.9609,4.9606 z"
           style="fill:none;stroke:#1a1a18;stroke-width:0.5669;stroke-linecap:butt;stroke-linejoin:miter;stroke-miterlimit:22.9256;stroke-dasharray:none;stroke-opacity:1"
           id="path72" />
      </g>
      <path
         d="m 109.0653,164.2626 h 2.3839 v -4.7282 l 4.432,4.7282 h 3.1093 l -4.7038,-4.752 4.9464,-6.768 H 116.14 l -3.5442,5.0188 -1.1466,-1.1654 v -3.8534 h -2.3839 z"
         style="fill:#000003;fill-opacity:1;fill-rule:nonzero;stroke:none"
         id="path74" />
      <path
         d="m 124.2173,154.3107 c 0.648,0 1.1466,0.2319 1.4958,0.6931 0.3493,0.464 0.5227,1.1228 0.5227,1.976 0,0.8507 -0.1734,1.5095 -0.5227,1.9681 -0.3492,0.4612 -0.8478,0.6906 -1.4958,0.6906 -0.6508,0 -1.152,-0.2294 -1.5041,-0.6906 -0.3495,-0.4586 -0.5252,-1.1174 -0.5252,-1.9681 0,-0.8532 0.1757,-1.512 0.5252,-1.976 0.3521,-0.4612 0.8533,-0.6931 1.5041,-0.6931 z m 4.3546,2.6771 c 0,-1.2478 -0.36,-2.3171 -1.0775,-3.2026 -0.72,-0.8878 -1.8105,-1.3306 -3.2746,-1.3306 -1.4641,0 -2.5545,0.4428 -3.2745,1.3306 -0.7175,0.8855 -1.0775,1.9548 -1.0775,3.2026 0,1.2268 0.36,2.2907 1.0775,3.1895 0.72,0.8986 1.8104,1.3493 3.2745,1.3493 1.4641,0 2.5546,-0.4507 3.2746,-1.3493 0.7175,-0.8988 1.0775,-1.9627 1.0775,-3.1895"
         style="fill:#000003;fill-opacity:1;fill-rule:nonzero;stroke:none"
         id="path76" />
      <path
         d="m 132.4412,152.7426 h -2.2241 v 11.5039 h 2.2241 z"
         style="fill:#000003;fill-opacity:1;fill-rule:nonzero;stroke:none"
         id="path78" />
      <path
         d="m 138.4359,154.3107 c 0.648,0 1.1466,0.2319 1.4958,0.6931 0.3492,0.464 0.5227,1.1228 0.5227,1.976 0,0.8507 -0.1735,1.5095 -0.5227,1.9681 -0.3492,0.4612 -0.8478,0.6906 -1.4958,0.6906 -0.6509,0 -1.152,-0.2294 -1.5041,-0.6906 -0.3495,-0.4586 -0.5252,-1.1174 -0.5252,-1.9681 0,-0.8532 0.1757,-1.512 0.5252,-1.976 0.3521,-0.4612 0.8532,-0.6931 1.5041,-0.6931 z m 4.3546,2.6771 c 0,-1.2478 -0.36,-2.3171 -1.0775,-3.2026 -0.72,-0.8878 -1.8105,-1.3306 -3.2746,-1.3306 -1.4641,0 -2.5546,0.4428 -3.2746,1.3306 -0.7174,0.8855 -1.0774,1.9548 -1.0774,3.2026 0,1.2268 0.36,2.2907 1.0774,3.1895 0.72,0.8986 1.8105,1.3493 3.2746,1.3493 1.4641,0 2.5546,-0.4507 3.2746,-1.3493 0.7175,-0.8988 1.0775,-1.9627 1.0775,-3.1895"
         style="fill:#000003;fill-opacity:1;fill-rule:nonzero;stroke:none"
         id="path80" />
      <path
         d="m 149.1103,161.4626 c 0.8773,0 1.5948,-0.2319 2.1521,-0.6934 0.5573,-0.464 0.8373,-1.2266 0.8373,-2.2961 v -5.7305 h -2.2881 v 5.1761 c 0,0.4479 -0.0587,0.792 -0.1786,1.0318 -0.216,0.4374 -0.6318,0.6559 -1.2427,0.6559 -0.7492,0 -1.2665,-0.3197 -1.544,-0.9598 -0.1466,-0.3387 -0.2186,-0.7707 -0.2186,-1.296 v -4.608 h -2.224 v 8.496 h 2.16 v -1.2427 c 0.2854,0.4399 0.5547,0.7574 0.8107,0.9493 0.4561,0.3442 1.0346,0.5174 1.7359,0.5174"
         style="fill:#000003;fill-opacity:1;fill-rule:nonzero;stroke:none"
         id="path82" />
      <path
         d="m 158.8836,161.4626 c 0.8773,0 1.5948,-0.2319 2.1521,-0.6934 0.5572,-0.464 0.8373,-1.2266 0.8373,-2.2961 v -5.7305 h -2.2881 v 5.1761 c 0,0.4479 -0.0587,0.792 -0.1786,1.0318 -0.216,0.4374 -0.6318,0.6559 -1.2427,0.6559 -0.7492,0 -1.2665,-0.3197 -1.544,-0.9598 -0.1466,-0.3387 -0.2186,-0.7707 -0.2186,-1.296 v -4.608 h -2.2241 v 8.496 h 2.16 v -1.2427 c 0.2855,0.4399 0.5548,0.7574 0.8108,0.9493 0.456,0.3442 1.0346,0.5174 1.7359,0.5174"
         style="fill:#000003;fill-opacity:1;fill-rule:nonzero;stroke:none"
         id="path84" />
      <path
         d="m 167.4595,159.6385 c -0.5731,0 -1.0159,-0.1574 -1.3306,-0.4746 -0.3146,-0.3146 -0.5147,-0.7441 -0.5947,-1.2852 h 3.8401 c -0.0399,0.576 -0.2372,1.0131 -0.5947,1.3119 -0.3546,0.2988 -0.7945,0.4479 -1.3201,0.4479 z m 0.0134,1.8561 c 0.7415,0 1.4079,-0.1332 2.0001,-0.3974 0.5947,-0.2668 1.0825,-0.6855 1.4692,-1.2586 0.3495,-0.5066 0.576,-1.0933 0.6775,-1.76 0.0612,-0.3892 0.0853,-0.9519 0.0745,-1.6881 h -6.2079 c 0.0346,-0.8586 0.3306,-1.4612 0.8907,-1.8054 0.3387,-0.216 0.7466,-0.3225 1.2265,-0.3225 0.5069,0 0.9173,0.1306 1.2348,0.3894 0.1732,0.1412 0.3254,0.3359 0.4586,0.5865 h 2.2853 c -0.0586,-0.5065 -0.3359,-1.0185 -0.824,-1.5412 -0.7625,-0.8294 -1.8292,-1.2427 -3.2,-1.2427 -1.1333,0 -2.1331,0.3492 -2.9971,1.048 -0.8668,0.6987 -1.2988,1.8374 -1.2988,3.4132 0,1.4774 0.3894,2.6081 1.1707,3.3973 0.7812,0.7869 1.7946,1.1815 3.0399,1.1815"
         style="fill:#000003;fill-opacity:1;fill-rule:nonzero;stroke:none"
         id="path86" />
      <path
         d="m 177.3422,160.5506 v 1.52 c 0.7013,0.032 1.192,0.0774 1.4746,0.1411 0.4453,0.099 0.8107,0.2963 1.0905,0.5922 0.1922,0.2052 0.3387,0.4745 0.4374,0.8133 0.0561,0.2026 0.0853,0.3546 0.0853,0.4532 h 1.8561 v -11.3278 h -2.2719 v 7.808 z"
         style="fill:#000003;fill-opacity:1;fill-rule:nonzero;stroke:none"
         id="path88" />
      <path
         d="m 109.065,142.2626 h 2.3839 v -4.7281 l 4.432,4.7281 h 3.1093 l -4.7038,-4.752 4.9465,-6.768 h -3.0932 l -3.5442,5.0188 -1.1466,-1.1653 v -3.8535 h -2.3839 z"
         style="fill:#000003;fill-opacity:1;fill-rule:nonzero;stroke:none"
         id="path90" />
      <path
         d="m 124.217,132.3108 c 0.648,0 1.1466,0.2318 1.4959,0.693 0.3492,0.4641 0.5227,1.1228 0.5227,1.9761 0,0.8507 -0.1735,1.5094 -0.5227,1.9681 -0.3493,0.4612 -0.8479,0.6905 -1.4959,0.6905 -0.6508,0 -1.152,-0.2293 -1.5041,-0.6905 -0.3495,-0.4587 -0.5252,-1.1174 -0.5252,-1.9681 0,-0.8533 0.1757,-1.512 0.5252,-1.9761 0.3521,-0.4612 0.8533,-0.693 1.5041,-0.693 z m 4.3546,2.677 c 0,-1.2478 -0.36,-2.317 -1.0775,-3.2026 -0.72,-0.8878 -1.8104,-1.3306 -3.2745,-1.3306 -1.4641,0 -2.5546,0.4428 -3.2746,1.3306 -0.7175,0.8856 -1.0775,1.9548 -1.0775,3.2026 0,1.2268 0.36,2.2907 1.0775,3.1896 0.72,0.8985 1.8105,1.3492 3.2746,1.3492 1.4641,0 2.5545,-0.4507 3.2745,-1.3492 0.7175,-0.8989 1.0775,-1.9628 1.0775,-3.1896"
         style="fill:#000003;fill-opacity:1;fill-rule:nonzero;stroke:none"
         id="path92" />
      <path
         d="m 132.4409,130.7426 h -2.2241 v 11.5039 h 2.2241 z"
         style="fill:#000003;fill-opacity:1;fill-rule:nonzero;stroke:none"
         id="path94" />
      <path
         d="m 138.4356,132.3108 c 0.648,0 1.1466,0.2318 1.4958,0.693 0.3493,0.4641 0.5227,1.1228 0.5227,1.9761 0,0.8507 -0.1734,1.5094 -0.5227,1.9681 -0.3492,0.4612 -0.8478,0.6905 -1.4958,0.6905 -0.6508,0 -1.152,-0.2293 -1.5041,-0.6905 -0.3495,-0.4587 -0.5252,-1.1174 -0.5252,-1.9681 0,-0.8533 0.1757,-1.512 0.5252,-1.9761 0.3521,-0.4612 0.8533,-0.693 1.5041,-0.693 z m 4.3546,2.677 c 0,-1.2478 -0.36,-2.317 -1.0775,-3.2026 -0.72,-0.8878 -1.8105,-1.3306 -3.2746,-1.3306 -1.4641,0 -2.5545,0.4428 -3.2745,1.3306 -0.7175,0.8856 -1.0775,1.9548 -1.0775,3.2026 0,1.2268 0.36,2.2907 1.0775,3.1896 0.72,0.8985 1.8104,1.3492 3.2745,1.3492 1.4641,0 2.5546,-0.4507 3.2746,-1.3492 0.7175,-0.8989 1.0775,-1.9628 1.0775,-3.1896"
         style="fill:#000003;fill-opacity:1;fill-rule:nonzero;stroke:none"
         id="path96" />
      <path
         d="m 149.11,139.4626 c 0.8773,0 1.5948,-0.2319 2.1521,-0.6934 0.5573,-0.464 0.8373,-1.2265 0.8373,-2.296 v -5.7306 h -2.2881 v 5.1761 c 0,0.4479 -0.0587,0.792 -0.1786,1.0318 -0.216,0.4374 -0.6318,0.656 -1.2427,0.656 -0.7492,0 -1.2665,-0.3198 -1.544,-0.9599 -0.1466,-0.3387 -0.2186,-0.7707 -0.2186,-1.296 v -4.608 h -2.224 v 8.496 h 2.16 v -1.2427 c 0.2854,0.44 0.5547,0.7575 0.8107,0.9494 0.4561,0.3441 1.0346,0.5173 1.7359,0.5173"
         style="fill:#000003;fill-opacity:1;fill-rule:nonzero;stroke:none"
         id="path98" />
      <path
         d="m 158.8833,139.4626 c 0.8773,0 1.5948,-0.2319 2.1521,-0.6934 0.5573,-0.464 0.8373,-1.2265 0.8373,-2.296 v -5.7306 h -2.2881 v 5.1761 c 0,0.4479 -0.0587,0.792 -0.1786,1.0318 -0.216,0.4374 -0.6318,0.656 -1.2427,0.656 -0.7492,0 -1.2665,-0.3198 -1.544,-0.9599 -0.1466,-0.3387 -0.2186,-0.7707 -0.2186,-1.296 v -4.608 h -2.224 v 8.496 h 2.16 v -1.2427 c 0.2854,0.44 0.5547,0.7575 0.8107,0.9494 0.4561,0.3441 1.0346,0.5173 1.7359,0.5173"
         style="fill:#000003;fill-opacity:1;fill-rule:nonzero;stroke:none"
         id="path100" />
      <path
         d="m 167.4592,137.6385 c -0.5731,0 -1.0159,-0.1573 -1.3305,-0.4745 -0.3147,-0.3147 -0.5148,-0.7441 -0.5947,-1.2853 h 3.84 c -0.0399,0.576 -0.2372,1.0131 -0.5947,1.3119 -0.3546,0.2988 -0.7945,0.4479 -1.3201,0.4479 z m 0.0134,1.8561 c 0.7415,0 1.4079,-0.1332 2.0001,-0.3974 0.5947,-0.2667 1.0825,-0.6854 1.4692,-1.2586 0.3495,-0.5065 0.576,-1.0933 0.6775,-1.76 0.0612,-0.3892 0.0853,-0.9519 0.0745,-1.688 h -6.2079 c 0.0346,-0.8587 0.3306,-1.4613 0.8907,-1.8054 0.3387,-0.216 0.7466,-0.3226 1.2265,-0.3226 0.5069,0 0.9173,0.1307 1.2348,0.3895 0.1732,0.1411 0.3254,0.3359 0.4587,0.5865 h 2.2853 c -0.0587,-0.5066 -0.336,-1.0185 -0.8241,-1.5412 -0.7625,-0.8295 -1.8292,-1.2428 -3.2,-1.2428 -1.1333,0 -2.1331,0.3493 -2.9971,1.048 -0.8668,0.6988 -1.2988,1.8374 -1.2988,3.4132 0,1.4774 0.3895,2.6082 1.1707,3.3973 0.7812,0.7869 1.7946,1.1815 3.0399,1.1815"
         style="fill:#000003;fill-opacity:1;fill-rule:nonzero;stroke:none"
         id="path102" />
      <path
         d="m 176.7339,130.7426 c 0.0213,0.8133 0.1973,1.5574 0.5253,2.2295 0.3172,0.7546 1.0692,1.5545 2.2532,2.3944 1.0267,0.7333 1.6935,1.2589 1.9948,1.5761 0.4666,0.4932 0.6987,1.0321 0.6987,1.6214 0,0.4774 -0.1335,0.8745 -0.3999,1.192 -0.2668,0.3172 -0.648,0.4745 -1.1441,0.4745 -0.68,0 -1.1441,-0.2531 -1.3893,-0.7571 -0.1414,-0.2909 -0.2242,-0.7521 -0.2508,-1.3868 h -2.16 c 0.0374,0.9627 0.2106,1.7414 0.5255,2.3361 0.5919,1.1304 1.6478,1.6959 3.1652,1.6959 1.1999,0 2.152,-0.3308 2.8613,-0.9946 0.7092,-0.6642 1.0641,-1.5415 1.0641,-2.6348 0,-0.8374 -0.2509,-1.5812 -0.752,-2.232 -0.328,-0.432 -0.8669,-0.9119 -1.6186,-1.4426 l -0.891,-0.6321 c -0.5598,-0.3946 -0.9411,-0.6798 -1.1466,-0.8558 -0.2077,-0.176 -0.3812,-0.3815 -0.5224,-0.616 h 4.9465 v -1.9681 z"
         style="fill:#000003;fill-opacity:1;fill-rule:nonzero;stroke:none"
         id="path104" />
      <path
         d="m 109.065,61.1209 h 2.3839 v -4.7282 l 4.432,4.7282 h 3.1093 l -4.7038,-4.752 4.9465,-6.768 h -3.0932 l -3.5442,5.0188 -1.1466,-1.1654 v -3.8534 h -2.3839 z"
         style="fill:#000003;fill-opacity:1;fill-rule:nonzero;stroke:none"
         id="path106" />
      <path
         d="m 124.217,51.169 c 0.648,0 1.1466,0.2319 1.4959,0.6931 0.3492,0.464 0.5227,1.1228 0.5227,1.976 0,0.8507 -0.1735,1.5095 -0.5227,1.9681 -0.3493,0.4612 -0.8479,0.6906 -1.4959,0.6906 -0.6508,0 -1.152,-0.2294 -1.5041,-0.6906 -0.3495,-0.4586 -0.5252,-1.1174 -0.5252,-1.9681 0,-0.8532 0.1757,-1.512 0.5252,-1.976 0.3521,-0.4612 0.8533,-0.6931 1.5041,-0.6931 z m 4.3546,2.6771 c 0,-1.2478 -0.36,-2.3171 -1.0775,-3.2026 -0.72,-0.8878 -1.8104,-1.3306 -3.2745,-1.3306 -1.4641,0 -2.5546,0.4428 -3.2746,1.3306 -0.7175,0.8855 -1.0775,1.9548 -1.0775,3.2026 0,1.2268 0.36,2.2907 1.0775,3.1895 0.72,0.8986 1.8105,1.3493 3.2746,1.3493 1.4641,0 2.5545,-0.4507 3.2745,-1.3493 0.7175,-0.8988 1.0775,-1.9627 1.0775,-3.1895"
         style="fill:#000003;fill-opacity:1;fill-rule:nonzero;stroke:none"
         id="path108" />
      <path
         d="m 132.4409,49.6009 h -2.2241 v 11.5039 h 2.2241 z"
         style="fill:#000003;fill-opacity:1;fill-rule:nonzero;stroke:none"
         id="path110" />
      <path
         d="m 138.4356,51.169 c 0.648,0 1.1466,0.2319 1.4958,0.6931 0.3493,0.464 0.5227,1.1228 0.5227,1.976 0,0.8507 -0.1734,1.5095 -0.5227,1.9681 -0.3492,0.4612 -0.8478,0.6906 -1.4958,0.6906 -0.6508,0 -1.152,-0.2294 -1.5041,-0.6906 -0.3495,-0.4586 -0.5252,-1.1174 -0.5252,-1.9681 0,-0.8532 0.1757,-1.512 0.5252,-1.976 0.3521,-0.4612 0.8533,-0.6931 1.5041,-0.6931 z m 4.3546,2.6771 c 0,-1.2478 -0.36,-2.3171 -1.0775,-3.2026 -0.72,-0.8878 -1.8105,-1.3306 -3.2746,-1.3306 -1.4641,0 -2.5545,0.4428 -3.2745,1.3306 -0.7175,0.8855 -1.0775,1.9548 -1.0775,3.2026 0,1.2268 0.36,2.2907 1.0775,3.1895 0.72,0.8986 1.8104,1.3493 3.2745,1.3493 1.4641,0 2.5546,-0.4507 3.2746,-1.3493 0.7175,-0.8988 1.0775,-1.9627 1.0775,-3.1895"
         style="fill:#000003;fill-opacity:1;fill-rule:nonzero;stroke:none"
         id="path112" />
      <path
         d="m 149.11,58.3209 c 0.8773,0 1.5948,-0.2319 2.1521,-0.6934 0.5573,-0.464 0.8373,-1.2266 0.8373,-2.2961 v -5.7305 h -2.2881 v 5.1761 c 0,0.4479 -0.0587,0.792 -0.1786,1.0318 -0.216,0.4374 -0.6318,0.6559 -1.2427,0.6559 -0.7492,0 -1.2665,-0.3197 -1.544,-0.9598 -0.1466,-0.3387 -0.2186,-0.7707 -0.2186,-1.296 v -4.608 h -2.224 v 8.496 h 2.16 v -1.2427 c 0.2854,0.4399 0.5547,0.7574 0.8107,0.9493 0.4561,0.3442 1.0346,0.5174 1.7359,0.5174"
         style="fill:#000003;fill-opacity:1;fill-rule:nonzero;stroke:none"
         id="path114" />
      <path
         d="m 158.8833,58.3209 c 0.8773,0 1.5948,-0.2319 2.1521,-0.6934 0.5573,-0.464 0.8373,-1.2266 0.8373,-2.2961 v -5.7305 h -2.2881 v 5.1761 c 0,0.4479 -0.0587,0.792 -0.1786,1.0318 -0.216,0.4374 -0.6318,0.6559 -1.2427,0.6559 -0.7492,0 -1.2665,-0.3197 -1.544,-0.9598 -0.1466,-0.3387 -0.2186,-0.7707 -0.2186,-1.296 v -4.608 h -2.224 v 8.496 h 2.16 v -1.2427 c 0.2854,0.4399 0.5547,0.7574 0.8107,0.9493 0.4561,0.3442 1.0346,0.5174 1.7359,0.5174"
         style="fill:#000003;fill-opacity:1;fill-rule:nonzero;stroke:none"
         id="path116" />
      <path
         d="m 167.4592,56.4968 c -0.5731,0 -1.0159,-0.1574 -1.3305,-0.4746 -0.3147,-0.3146 -0.5148,-0.7441 -0.5947,-1.2852 h 3.84 c -0.0399,0.576 -0.2372,1.0131 -0.5947,1.3119 -0.3546,0.2988 -0.7945,0.4479 -1.3201,0.4479 z m 0.0134,1.8561 c 0.7415,0 1.4079,-0.1332 2.0001,-0.3974 0.5947,-0.2668 1.0825,-0.6855 1.4692,-1.2586 0.3495,-0.5066 0.576,-1.0933 0.6775,-1.76 0.0612,-0.3892 0.0853,-0.9519 0.0745,-1.6881 h -6.2079 c 0.0346,-0.8586 0.3306,-1.4612 0.8907,-1.8054 0.3387,-0.216 0.7466,-0.3225 1.2265,-0.3225 0.5069,0 0.9173,0.1306 1.2348,0.3894 0.1732,0.1412 0.3254,0.3359 0.4587,0.5865 h 2.2853 c -0.0587,-0.5065 -0.336,-1.0185 -0.8241,-1.5412 -0.7625,-0.8294 -1.8292,-1.2427 -3.2,-1.2427 -1.1333,0 -2.1331,0.3492 -2.9971,1.048 -0.8668,0.6987 -1.2988,1.8374 -1.2988,3.4132 0,1.4774 0.3895,2.6081 1.1707,3.3973 0.7812,0.7869 1.7946,1.1815 3.0399,1.1815"
         style="fill:#000003;fill-opacity:1;fill-rule:nonzero;stroke:none"
         id="path118" />
      <path
         d="m 178.8457,53.0728 c 0,-0.4533 0.072,-0.832 0.2189,-1.1279 0.2693,-0.5494 0.7571,-0.824 1.4692,-0.824 0.4348,0 0.8132,0.1493 1.1386,0.4481 0.3226,0.2985 0.4853,0.7305 0.4853,1.2906 0,0.7438 -0.2985,1.2399 -0.8986,1.4905 -0.3412,0.1414 -0.8798,0.2109 -1.6131,0.2109 v 1.5999 c 0.7171,0.0107 1.2186,0.0799 1.5037,0.2106 0.4907,0.2214 0.7362,0.6641 0.7362,1.3334 0,0.432 -0.1253,0.784 -0.3762,1.0559 -0.2506,0.2721 -0.6052,0.4082 -1.0613,0.4082 -0.5227,0 -0.9065,-0.1681 -1.152,-0.5015 -0.248,-0.3333 -0.3653,-0.7812 -0.3546,-1.3388 h -2.08 c 0.0215,0.5627 0.1173,1.0962 0.288,1.6002 0.1814,0.4425 0.4694,0.8532 0.8586,1.2265 0.2908,0.2668 0.6347,0.4695 1.0349,0.6109 0.4,0.1412 0.8932,0.2106 1.4746,0.2106 1.08,0 1.9519,-0.28 2.6132,-0.8402 0.6639,-0.5627 0.9947,-1.3144 0.9947,-2.2586 0,-0.6664 -0.1973,-1.232 -0.5947,-1.6906 -0.2506,-0.2852 -0.5094,-0.4827 -0.7812,-0.5865 0.2027,0 0.4958,-0.1735 0.8745,-0.5227 0.568,-0.5255 0.8535,-1.2427 0.8535,-2.1521 0,-0.9572 -0.3308,-1.8 -0.9947,-2.5253 -0.6641,-0.7254 -1.6455,-1.088 -2.9441,-1.088 -1.6027,0 -2.7147,0.5227 -3.3386,1.5707 -0.328,0.5573 -0.5094,1.2881 -0.5465,2.1892 z"
         style="fill:#000003;fill-opacity:1;fill-rule:nonzero;stroke:none"
         id="path120" />
      <path
         d="m 121.9918,121.5386 h 1.1381 l -0.892,-4.1962 5.0859,4.1962 h 1.612 l -4.318,-3.4699 2.59,-5.1381 h -1.5179 l -2.0982,4.318 -1.658,-1.3181 -0.6338,-2.9999 h -1.1362 z"
         style="fill:#000003;fill-opacity:1;fill-rule:nonzero;stroke:none"
         id="path122" />
      <path
         d="m 133.0316,116.1706 c 0.1242,0.5859 0.1321,1.0618 0.0221,1.4301 -0.174,0.5779 -0.6259,0.8679 -1.3521,0.8679 -0.6457,0 -1.1659,-0.248 -1.5619,-0.7401 -0.396,-0.4921 -0.6701,-1.0859 -0.8181,-1.7799 -0.1397,-0.6681 -0.1119,-1.226 0.0862,-1.6701 0.1959,-0.4459 0.614,-0.6679 1.2498,-0.6679 0.7002,0 1.2362,0.2639 1.6081,0.794 0.3739,0.5281 0.6282,1.118 0.7659,1.766 z m 1.1061,0.03 c -0.214,-1.0119 -0.6381,-1.8482 -1.2699,-2.5081 -0.6341,-0.6599 -1.4681,-0.9898 -2.5022,-0.9898 -0.864,0 -1.4859,0.2919 -1.87,0.8759 -0.3818,0.5839 -0.47,1.368 -0.2639,2.3519 0.2279,1.0539 0.6741,1.8941 1.3419,2.52 0.6682,0.6239 1.4542,0.938 2.3562,0.938 0.8079,0 1.434,-0.2699 1.8779,-0.8099 0.444,-0.538 0.5539,-1.332 0.33,-2.378"
         style="fill:#000003;fill-opacity:1;fill-rule:nonzero;stroke:none"
         id="path124" />
      <path
         d="m 136.5576,121.5386 h 1.0559 l -1.8277,-8.608 h -1.0562 z"
         style="fill:#000003;fill-opacity:1;fill-rule:nonzero;stroke:none"
         id="path126" />
      <path
         d="m 142.3715,116.1706 c 0.1242,0.5859 0.1321,1.0618 0.0221,1.4301 -0.174,0.5779 -0.6259,0.8679 -1.3521,0.8679 -0.6458,0 -1.1659,-0.248 -1.5619,-0.7401 -0.396,-0.4921 -0.6701,-1.0859 -0.8181,-1.7799 -0.1397,-0.6681 -0.112,-1.226 0.0862,-1.6701 0.1959,-0.4459 0.614,-0.6679 1.2498,-0.6679 0.7001,0 1.2362,0.2639 1.6081,0.794 0.3739,0.5281 0.6281,1.118 0.7659,1.766 z m 1.1061,0.03 c -0.214,-1.0119 -0.6381,-1.8482 -1.2699,-2.5081 -0.6342,-0.6599 -1.4681,-0.9898 -2.5022,-0.9898 -0.864,0 -1.4859,0.2919 -1.87,0.8759 -0.3818,0.5839 -0.47,1.368 -0.2639,2.3519 0.2279,1.0539 0.6741,1.8941 1.3419,2.52 0.6681,0.6239 1.4542,0.938 2.3562,0.938 0.8078,0 1.434,-0.2699 1.8779,-0.8099 0.4439,-0.538 0.5539,-1.332 0.33,-2.378"
         style="fill:#000003;fill-opacity:1;fill-rule:nonzero;stroke:none"
         id="path128" />
      <path
         d="m 145.3714,119.2065 h 1.002 l -0.1879,-0.8921 c 0.3759,0.3682 0.7461,0.6322 1.1101,0.792 0.3659,0.1602 0.752,0.2401 1.1579,0.2401 0.8901,0 1.4258,-0.3101 1.6058,-0.932 0.1001,-0.3399 0.0842,-0.826 -0.0479,-1.4579 l -0.856,-4.026 h -1.0718 l 0.8379,3.956 c 0.0819,0.3818 0.0919,0.69 0.0301,0.9238 -0.1061,0.3921 -0.404,0.5862 -0.8961,0.5862 -0.25,0 -0.462,-0.0241 -0.6341,-0.0759 -0.3078,-0.0862 -0.5998,-0.2583 -0.8719,-0.5142 -0.22,-0.2078 -0.3779,-0.4218 -0.4779,-0.6421 -0.1001,-0.2219 -0.1922,-0.5357 -0.2781,-0.9459 l -0.6979,-3.2879 h -1.0542 z"
         style="fill:#000003;fill-opacity:1;fill-rule:nonzero;stroke:none"
         id="path130" />
      <path
         d="m 152.0453,119.2065 h 1.002 l -0.1879,-0.8921 c 0.3759,0.3682 0.7461,0.6322 1.11,0.792 0.366,0.1602 0.7521,0.2401 1.158,0.2401 0.8901,0 1.4258,-0.3101 1.6058,-0.932 0.1001,-0.3399 0.0842,-0.826 -0.0479,-1.4579 l -0.856,-4.026 h -1.0718 l 0.8379,3.956 c 0.0819,0.3818 0.0918,0.69 0.03,0.9238 -0.106,0.3921 -0.4039,0.5862 -0.896,0.5862 -0.25,0 -0.462,-0.0241 -0.6341,-0.0759 -0.3078,-0.0862 -0.5998,-0.2583 -0.8719,-0.5142 -0.22,-0.2078 -0.3779,-0.4218 -0.478,-0.6421 -0.1,-0.2219 -0.1921,-0.5357 -0.278,-0.9459 l -0.6979,-3.2879 h -1.0542 z"
         style="fill:#000003;fill-opacity:1;fill-rule:nonzero;stroke:none"
         id="path132" />
      <path
         d="m 163.3711,118.2226 c 0.144,-0.3181 0.2061,-0.686 0.1882,-1.1081 0.004,-0.29 -0.064,-0.75 -0.2001,-1.3839 h -4.6001 c -0.1159,-0.636 -0.0739,-1.146 0.1262,-1.5321 0.2021,-0.3838 0.5981,-0.576 1.188,-0.576 0.5499,0 1.0258,0.182 1.4281,0.544 0.2358,0.212 0.4198,0.4561 0.5578,0.7322 h 1.0361 c -0.0779,-0.2302 -0.2239,-0.4862 -0.436,-0.7702 -0.212,-0.282 -0.4339,-0.5139 -0.6641,-0.6939 -0.3878,-0.3121 -0.83,-0.5241 -1.3261,-0.6321 -0.2678,-0.0638 -0.5638,-0.0939 -0.8838,-0.0939 -0.7821,0 -1.3819,0.2841 -1.804,0.8518 -0.4221,0.5681 -0.5241,1.3641 -0.3061,2.3882 0.216,1.008 0.6622,1.8258 1.3422,2.454 0.68,0.6298 1.4618,0.9439 2.344,0.9439 0.4458,0 0.8557,-0.104 1.2299,-0.3141 0.3759,-0.2077 0.6358,-0.4779 0.7798,-0.8098 z m -0.9198,-1.654 c 0.0538,0.458 0.034,0.824 -0.0641,1.0958 -0.18,0.508 -0.608,0.7623 -1.2838,0.7623 -0.4842,0 -0.9281,-0.1741 -1.33,-0.5241 -0.4023,-0.3501 -0.6721,-0.794 -0.8082,-1.334 z"
         style="fill:#000003;fill-opacity:1;fill-rule:nonzero;stroke:none"
         id="path134" />
      <path
         d="m 171.2171,115.9004 0.8082,3.8041 -3.498,-3.8041 z m -0.6097,-2.9698 0.434,2.05 h -3.6802 l 0.2182,1.0321 4.9799,5.3317 h 0.8898 l -1.1599,-5.444 h 1.2362 l -0.1942,-0.9198 h -1.2359 l -0.432,-2.05 z"
         style="fill:#000003;fill-opacity:1;fill-rule:nonzero;stroke:none"
         id="path136" />
      <path
         d="m 121.9921,103.5386 h 1.1381 l -0.8921,-4.1962 5.086,4.1962 h 1.612 l -4.318,-3.4699 2.59,-5.1381 h -1.5179 l -2.0982,4.318 -1.658,-1.3181 -0.6338,-2.9999 h -1.1362 z"
         style="fill:#000003;fill-opacity:1;fill-rule:nonzero;stroke:none"
         id="path138" />
      <path
         d="m 133.0319,98.1706 c 0.1242,0.5859 0.1321,1.0618 0.0221,1.4301 -0.174,0.5779 -0.6259,0.8679 -1.3521,0.8679 -0.6457,0 -1.1659,-0.248 -1.5619,-0.7401 -0.396,-0.4921 -0.6701,-1.0859 -0.8181,-1.7799 -0.1397,-0.6681 -0.1119,-1.226 0.0862,-1.6701 0.1959,-0.4459 0.614,-0.6679 1.2498,-0.6679 0.7001,0 1.2362,0.2639 1.6081,0.794 0.3739,0.5281 0.6281,1.118 0.7659,1.766 z m 1.1061,0.03 c -0.214,-1.0119 -0.6381,-1.8482 -1.2699,-2.5081 -0.6341,-0.6599 -1.4681,-0.9898 -2.5022,-0.9898 -0.864,0 -1.4859,0.2919 -1.87,0.8759 -0.3818,0.5839 -0.47,1.368 -0.2639,2.3519 0.2279,1.0539 0.6741,1.8941 1.3419,2.52 0.6681,0.6239 1.4542,0.938 2.3562,0.938 0.8079,0 1.434,-0.2699 1.8779,-0.8099 0.4439,-0.538 0.5539,-1.332 0.33,-2.378"
         style="fill:#000003;fill-opacity:1;fill-rule:nonzero;stroke:none"
         id="path140" />
      <path
         d="m 136.5579,103.5386 h 1.0559 l -1.8278,-8.608 h -1.0561 z"
         style="fill:#000003;fill-opacity:1;fill-rule:nonzero;stroke:none"
         id="path142" />
      <path
         d="m 142.3718,98.1706 c 0.1241,0.5859 0.1321,1.0618 0.0221,1.4301 -0.1741,0.5779 -0.6259,0.8679 -1.3521,0.8679 -0.6458,0 -1.1659,-0.248 -1.5619,-0.7401 -0.396,-0.4921 -0.6701,-1.0859 -0.8181,-1.7799 -0.1398,-0.6681 -0.112,-1.226 0.0862,-1.6701 0.1958,-0.4459 0.614,-0.6679 1.2498,-0.6679 0.7001,0 1.2362,0.2639 1.6081,0.794 0.3738,0.5281 0.6281,1.118 0.7659,1.766 z m 1.1061,0.03 c -0.2141,-1.0119 -0.6381,-1.8482 -1.27,-2.5081 -0.6341,-0.6599 -1.468,-0.9898 -2.5021,-0.9898 -0.864,0 -1.4859,0.2919 -1.87,0.8759 -0.3818,0.5839 -0.47,1.368 -0.2639,2.3519 0.2279,1.0539 0.6741,1.8941 1.3419,2.52 0.6681,0.6239 1.4542,0.938 2.3562,0.938 0.8078,0 1.434,-0.2699 1.8779,-0.8099 0.4439,-0.538 0.5539,-1.332 0.33,-2.378"
         style="fill:#000003;fill-opacity:1;fill-rule:nonzero;stroke:none"
         id="path144" />
      <path
         d="m 145.3717,101.2065 h 1.002 l -0.1879,-0.8921 c 0.3759,0.3682 0.7461,0.6322 1.11,0.792 0.366,0.1602 0.7521,0.2401 1.158,0.2401 0.8901,0 1.4258,-0.3101 1.6058,-0.932 0.1001,-0.3399 0.0842,-0.826 -0.0479,-1.4579 l -0.856,-4.026 h -1.0718 l 0.8379,3.956 c 0.0819,0.3818 0.0918,0.69 0.03,0.9238 -0.106,0.3921 -0.4039,0.5862 -0.896,0.5862 -0.25,0 -0.462,-0.0241 -0.6341,-0.0759 -0.3078,-0.0862 -0.5998,-0.2583 -0.8719,-0.5142 -0.22,-0.2078 -0.3779,-0.4218 -0.478,-0.6421 -0.1,-0.2219 -0.1921,-0.5357 -0.278,-0.9459 l -0.6979,-3.2879 h -1.0542 z"
         style="fill:#000003;fill-opacity:1;fill-rule:nonzero;stroke:none"
         id="path146" />
      <path
         d="m 152.0456,101.2065 h 1.002 l -0.1879,-0.8921 c 0.3759,0.3682 0.7461,0.6322 1.11,0.792 0.366,0.1602 0.7521,0.2401 1.158,0.2401 0.8901,0 1.4258,-0.3101 1.6058,-0.932 0.1001,-0.3399 0.0842,-0.826 -0.0479,-1.4579 l -0.8561,-4.026 h -1.0717 l 0.8379,3.956 c 0.0819,0.3818 0.0918,0.69 0.03,0.9238 -0.106,0.3921 -0.4039,0.5862 -0.896,0.5862 -0.25,0 -0.462,-0.0241 -0.6341,-0.0759 -0.3079,-0.0862 -0.5998,-0.2583 -0.8719,-0.5142 -0.22,-0.2078 -0.3779,-0.4218 -0.478,-0.6421 -0.1,-0.2219 -0.1922,-0.5357 -0.278,-0.9459 l -0.6979,-3.2879 h -1.0542 z"
         style="fill:#000003;fill-opacity:1;fill-rule:nonzero;stroke:none"
         id="path148" />
      <path
         d="m 163.3714,100.2226 c 0.144,-0.3181 0.2061,-0.686 0.1882,-1.1081 0.004,-0.29 -0.064,-0.75 -0.2001,-1.3839 h -4.6001 c -0.1159,-0.636 -0.074,-1.146 0.1262,-1.5321 0.2021,-0.3838 0.5981,-0.576 1.188,-0.576 0.5499,0 1.0258,0.182 1.4281,0.544 0.2358,0.212 0.4198,0.4561 0.5578,0.7322 h 1.0361 c -0.078,-0.2302 -0.2239,-0.4862 -0.436,-0.7702 -0.212,-0.282 -0.434,-0.5139 -0.6641,-0.6939 -0.3878,-0.3121 -0.83,-0.5241 -1.3261,-0.6321 -0.2679,-0.0638 -0.5638,-0.0939 -0.8838,-0.0939 -0.7821,0 -1.3819,0.2841 -1.804,0.8518 -0.4221,0.5681 -0.5241,1.3641 -0.3061,2.3882 0.216,1.008 0.6621,1.8258 1.3422,2.454 0.68,0.6298 1.4618,0.9439 2.3439,0.9439 0.4459,0 0.8558,-0.104 1.23,-0.3141 0.3759,-0.2077 0.6358,-0.4779 0.7798,-0.8098 z m -0.9198,-1.654 c 0.0538,0.458 0.034,0.824 -0.0641,1.0958 -0.18,0.508 -0.608,0.7623 -1.2838,0.7623 -0.4842,0 -0.9281,-0.1741 -1.33,-0.5241 -0.4023,-0.3501 -0.6721,-0.794 -0.8082,-1.334 z"
         style="fill:#000003;fill-opacity:1;fill-rule:nonzero;stroke:none"
         id="path150" />
      <path
         d="m 168.5577,97.0685 c -0.0581,-0.5998 0.1318,-1.016 0.574,-1.2478 0.2219,-0.1163 0.4977,-0.1761 0.826,-0.1761 0.6239,0 1.1299,0.1999 1.518,0.5979 0.3857,0.4002 0.6298,0.8401 0.7319,1.324 0.1238,0.5859 0.0419,1.0401 -0.2461,1.3601 -0.29,0.32 -0.684,0.4799 -1.184,0.4799 -0.362,0 -0.69,-0.07 -0.978,-0.2101 -0.29,-0.14 -0.5519,-0.3359 -0.792,-0.5859 l -0.902,0.0522 1.6002,4.5178 h 4.36 l -0.2183,-1.0199 h -3.568 l -0.8557,-2.332 c 0.2279,0.1479 0.4359,0.2599 0.6278,0.3339 0.3402,0.1301 0.7141,0.1942 1.124,0.1942 0.7701,0 1.3699,-0.2481 1.8,-0.7441 0.43,-0.4961 0.5641,-1.126 0.4039,-1.8879 -0.1678,-0.792 -0.5618,-1.4922 -1.1798,-2.0962 -0.6199,-0.6058 -1.4661,-0.908 -2.5401,-0.908 -0.684,0 -1.2478,0.1922 -1.692,0.576 -0.4419,0.3841 -0.612,0.976 -0.506,1.772 z"
         style="fill:#000003;fill-opacity:1;fill-rule:nonzero;stroke:none"
         id="path152" />
    </g>
    <g
       id="g154">
      <g
         id="g156" />
      <g
         id="g158" />
    </g>
    <g
       id="g160">
      <g
         id="g162" />
      <g
         id="g164" />
    </g>
    <g
       id="g166">
      <g
         id="g168" />
      <g
         id="g170" />
    </g>
    <g
       id="g172">
      <g
         id="g174" />
      <g
         id="g176" />
    </g>
    <g
       id="g178">
      <g
         id="g180" />
    </g>
    <g
       id="g182">
      <g
         id="g184" />
      <g
         id="g186" />
    </g>
    <g
       id="g188">
      <g
         id="g190" />
      <g
         id="g192" />
    </g>
    <g
       id="g194">
      <g
         id="g196" />
      <g
         id="g198" />
    </g>
    <g
       id="g200">
      <g
         id="g202" />
      <g
         id="g204" />
    </g>
    <g
       id="g206">
      <g
         id="g208" />
    </g>
    <g
       id="g210">
      <g
         id="g212" />
      <g
         id="g214" />
    </g>
    <g
       id="g216">
      <g
         id="g218" />
      <g
         id="g220" />
    </g>
    <g
       id="g222">
      <g
         id="g224" />
      <g
         id="g226" />
    </g>
    <g
       id="g228">
      <g
         id="g230" />
      <g
         id="g232" />
    </g>
    <g
       id="g234">
      <g
         id="g236" />
    </g>
    <g
       id="g238">
      <g
         id="g240" />
      <g
         id="g242" />
    </g>
    <g
       id="g244">
      <g
         id="g246" />
      <g
         id="g248" />
    </g>
    <g
       id="g250">
      <g
         id="g252" />
      <g
         id="g254" />
    </g>
    <g
       id="g256">
      <g
         id="g258" />
      <g
         id="g260" />
    </g>
    <g
       id="g262">
      <g
         id="g264" />
    </g>
    <g
       id="g266">
      <g
         id="g268" />
      <g
         id="g270" />
    </g>
    <g
       id="g272">
      <g
         id="g274" />
      <g
         id="g276" />
    </g>
    <g
       id="g278">
      <g
         id="g280" />
      <g
         id="g282" />
    </g>
    <g
       id="g284">
      <g
         id="g286" />
      <g
         id="g288" />
    </g>
    <g
       id="g290">
      <g
         id="g292" />
      <g
         id="g294" />
    </g>
    <g
       id="g296" />
    <g
       id="g298">
      <g
         id="g300" />
      <g
         id="g302" />
    </g>
    <g
       id="g304">
      <g
         id="g306" />
      <g
         id="g308" />
    </g>
    <g
       id="g310">
      <g
         id="g312" />
      <g
         id="g314" />
    </g>
    <g
       id="g316">
      <g
         id="g318" />
    </g>
    <g
       id="g320">
      <g
         id="g322" />
      <g
         id="g324" />
    </g>
    <g
       id="g326">
      <g
         id="g328" />
      <g
         id="g330" />
    </g>
    <g
       id="g332">
      <g
         id="g334" />
      <g
         id="g336" />
    </g>
    <g
       id="g338">
      <g
         id="g340" />
      <g
         id="g342" />
    </g>
    <g
       id="g344">
      <g
         id="g346" />
    </g>
    <g
       id="g348">
      <g
         id="g350" />
      <g
         id="g352" />
    </g>
    <g
       id="g354">
      <g
         id="g356" />
      <g
         id="g358" />
    </g>
    <g
       id="g360">
      <g
         id="g362" />
      <g
         id="g364" />
    </g>
    <g
       id="g366">
      <g
         id="g368" />
      <g
         id="g370" />
    </g>
    <g
       id="g372">
      <g
         id="g374" />
      <g
         id="g376" />
    </g>
    <g
       id="g378">
      <g
         id="g380" />
      <g
         id="g382" />
      <g
         id="g384" />
    </g>
    <g
       id="g386">
      <g
         id="g388" />
      <g
         id="g390" />
      <g
         id="g392" />
    </g>
    <g
       id="g394">
      <g
         id="g396" />
      <g
         id="g398" />
      <g
         id="g400" />
    </g>
    <g
       id="g402">
      <g
         id="g404" />
      <g
         id="g406" />
      <g
         id="g408" />
    </g>
    <g
       id="g410">
      <g
         id="g412" />
      <g
         id="g414" />
    </g>
    <g
       id="g416">
      <g
         id="g418" />
      <g
         id="g420" />
      <g
         id="g422" />
    </g>
    <g
       id="g424">
      <g
         id="g426" />
      <g
         id="g428" />
      <g
         id="g430" />
    </g>
    <g
       id="g432">
      <g
         id="g434" />
      <g
         id="g436" />
      <g
         id="g438" />
    </g>
    <g
       id="g440">
      <g
         id="g442" />
      <g
         id="g444" />
      <g
         id="g446" />
    </g>
  </g>
</svg>
