<?xml version="1.0" encoding="utf-8"?>
<!-- Generator: Adobe Illustrator 27.1.1, SVG Export Plug-In . SVG Version: 6.00 Build 0)  -->
<svg version="1.1" id="Lag_1" xmlns:xodm="http://www.corel.com/coreldraw/odm/2003"
	 xmlns="http://www.w3.org/2000/svg" xmlns:xlink="http://www.w3.org/1999/xlink" x="0px" y="0px" viewBox="0 0 292.5 244.3"
	 style="enable-background:new 0 0 292.5 244.3;" xml:space="preserve">
<style type="text/css">
	.st0{fill:none;stroke:#2B2A29;stroke-width:0.5673;stroke-miterlimit:3.4408;}
	.st1{fill:none;stroke:#000000;stroke-linecap:round;stroke-linejoin:round;stroke-miterlimit:10;}
	.st2{font-family:'Helvetica-Bold';}
	.st3{font-size:18px;}
	.st4{font-family:'Helvetica';}
	.st5{font-size:14px;}
	.st6{font-size:16px;}
	.st7{fill:none;}
	.st8{fill:#D9DADA;}
	.st9{fill:none;stroke:#FEFEFE;stroke-width:0.992;stroke-miterlimit:10;}
	.st10{font-family:'Arial-BoldMT';}
	.st11{font-size:8.0301px;}
</style>
<g id="Layer_x0020_1">
	<g id="_2353784030448">
		<path class="st0" d="M7.6,0.3h277.2c4.1,0,7.4,6.3,7.1,26.6v215.4c0.3-4.6-3,1.7-7.1,1.7H7.6c-4.1,0-7.4-6.3-7.6-1.7V26.9
			C0.3,6.6,3.6,0.3,7.6,0.3z"/>
		<path class="st0" d="M131.4,24.4h7.8c0-3.9,3.2-7.1,7.1-7.1c3.9,0,7.1,3.2,7.1,7.1h7.8c2.7,0,5,2.2,5,5l0,0c0,2.7-2.2,5-5,5h-29.8
			c-2.7,0-5-2.2-5-5l0,0C126.4,26.6,128.7,24.4,131.4,24.4L131.4,24.4z"/>
	</g>
</g>
<path class="st1" d="M217.6,239.7"/>
<path class="st1" d="M8.8,239.7"/>
<path class="st1" d="M283.7,239.7"/>
<path class="st1" d="M8.8,239.7"/>
<path class="st1" d="M283.7,239.7"/>
<path class="st1" d="M9.3,241.3"/>
<path class="st1" d="M284.2,241.3"/>
<path class="st1" d="M9.3,241.3"/>
<path class="st1" d="M9.3,241.3"/>
<path class="st1" d="M284.2,241.3"/>
<text transform="matrix(1 0 0 1 101.8354 95.4902)" class="st2 st3">Kolonne 1</text>
<text transform="matrix(1 0 0 1 113.8208 113.4902)" class="st4 st5">Kolonne 2</text>
<text transform="matrix(1 0 0 1 107.8279 176.8996)" class="st2 st6">Kolonne 3</text>
<polyline class="st7" points="164.3,246.6 164.3,197 114.7,197 114.7,246.6 "/>
<path class="st1" d="M284,142.1"/>
<path class="st1" d="M9,142.1"/>
<path class="st1" d="M284,191.7"/>
<path class="st1" d="M9,191.7"/>
<path class="st1" d="M284,42.9"/>
<path class="st1" d="M284,241.3"/>
<path class="st8" d="M114.9,208.9c0.4-1.5,1.4-2.2,2.7-2.6c1.2-0.4,2.6-0.4,3.9-0.4c0.3,0,0.6,0,0.9,0c0.3,0,0.6,0,0.8-0.1l0.4-0.1
	c-0.4-0.4-0.8-1-1.1-1.5c-0.5-0.8-0.9-1.8-1.2-2.7c-0.3-1.1-0.5-2.2-0.6-3.4c0-1.1,0.1-2.2,0.4-3.1c0.2-0.8,0.7-1.5,1.3-2
	c0.7-0.6,1.5-1,2.5-1.3c1-0.3,2.2-0.5,3.4-0.5c1.2,0,2.4,0.1,3.4,0.3c0.9,0.2,1.6,0.8,2.2,1.4c0.6,0.6,0.9,1.5,1.2,2.4
	c0.2,0.8,0.4,1.7,0.5,2.5c0.1,0.6,0.1,1.3,0.1,1.9h0.1c0.2-0.1,0.4-0.1,0.6-0.1c1.1-0.3,2.4-0.3,3.5-0.2c1.1,0.1,2,0.3,2.9,0.8l0,0
	c-0.4-0.7-0.8-1.5-1.2-2.2c-0.4-1.1-0.8-2.1-0.9-3.2c-0.1-1.1-0.1-2.1,0.1-3.2c0.2-0.9,0.6-1.8,1.3-2.7c0.6-0.7,1.3-1.2,2.2-1.6
	s2-0.7,3.1-0.8c1.1-0.1,2.3-0.1,3.4,0.2c1.1,0.2,2,0.6,2.8,1.1c0.6,0.4,1.1,1,1.5,1.7c0.4,0.7,0.6,1.5,0.8,2.5c0.1,1,0.1,2,0,3.1
	c-0.1,1.2-0.3,2.4-0.7,3.3c-0.1,0.4-0.2,0.6-0.4,0.9l-0.1,0.3c1-0.2,2-0.4,3.1-0.3c1.1,0,2.2,0.2,3.2,0.6c0.7,0.3,1.3,0.7,1.8,1.2
	c0.5,0.6,0.9,1.3,1.2,2.1c0.3,0.9,0.5,1.9,0.6,2.9c0.1,1.3,0.1,2.5,0,3.5c0,0.5-0.1,1-0.2,1.5c-0.1,0.5-0.2,0.9-0.4,1.3
	c-0.1,0.3-0.3,0.6-0.4,0.8l0,0h0.3c0.6,0,1.2,0,1.8,0.1c0.6,0.1,1.3,0.1,2,0.4c0.6,0.1,1.3,0.4,1.9,0.8c0.6,0.4,1.1,0.8,1.5,1.3
	c0.6,0.8,0.8,1.9,0.9,2.9c0.1,1.1,0,2.1-0.1,2.9v0.1c-0.1,0.9-0.1,2-0.3,3c-0.1,1.1-0.2,2.1-0.4,3.1c-0.1,1.1-0.4,2.1-0.6,3.1
	c-0.2,1-0.5,2-0.8,2.9c-0.1,0.4-0.2,0.6-0.3,1l0,0c-0.2,0.6-0.4,1.3-0.6,1.9c-0.3,0.6-0.6,1.1-1,1.6c-0.1,0.1-0.1,0.1-0.2,0.1
	c-0.1,0.1-0.1,0.1-0.3,0.1h-45.3c-0.1,0-0.2-0.1-0.3-0.1l0,0c-0.1-0.1-0.1-0.1-0.2-0.3c-0.2-0.6-0.5-1.4-0.8-2.3
	c-0.3-1-0.7-2.1-1-3.2c-0.3-1.2-0.8-2.4-1.1-3.5c-0.3-1.1-0.6-2-0.7-2.6v-0.1c-0.1-0.1-0.1-0.1-0.1-0.2c-0.3-1.4-0.8-2.9-1.3-4.3
	l0,0c-0.4-1.4-0.8-2.7-1.2-4.1"/>
<path class="st8" d="M130.9,234.8c0.2,0.8,0.4,1.5,0.8,2.2h16.4c0.6-0.8,0.9-1.8,1.2-2.8c0.1-0.3,0.2-0.7,0.3-1
	c0.3-0.9,0.6-1.8,0.8-2.8s0.4-2,0.6-3c0.1-1.1,0.3-2,0.4-3.1c0.1-1,0.2-2,0.3-2.9v-0.1c0.1-1.5,0.3-3.8-0.6-5
	c-0.1-0.1-0.1-0.1-0.2-0.2c-0.2-0.2-0.4-0.3-0.6-0.6c-0.1-0.1-0.1-0.1-0.3-0.1l-0.6-0.3c-0.3-0.1-0.7-0.3-1.1-0.3
	c-0.4-0.1-0.8-0.2-1.2-0.2c-0.2,0-0.5-0.1-0.8-0.1s-0.5-0.1-0.7-0.1h-2c-0.1,0-0.4-0.1-0.4-0.1c-0.1-0.1-0.2-0.3-0.2-0.4
	c0-0.1,0-0.1,0.1-0.2l0,0c0-0.1,0.1-0.1,0.1-0.2c0.1-0.1,0.2-0.3,0.3-0.4c0.1-0.1,0.2-0.4,0.3-0.6c0.1-0.2,0.1-0.4,0.2-0.7
	s0.1-0.6,0.2-0.9c0.1-0.3,0.1-0.6,0.1-0.9c0.1-0.8,0.2-1.7,0.2-2.6c0-0.8-0.1-1.5-0.2-2.3c-0.1-0.8-0.4-1.5-0.7-2
	c-0.3-0.5-0.6-1-1-1.3c-0.1-0.1-0.1-0.1-0.2-0.1l-0.2-0.1c-0.7-0.3-1.6-0.6-2.6-0.7s-2.1,0-3.1,0.2c-0.2,0.1-0.4,0.1-0.6,0.1
	c-0.2,0.1-0.4,0.1-0.6,0.2c-0.4,0.1-1.3,0.6-1.5,0.8c-0.1,0.1-0.1,0.1-0.3,0.1c-0.1,0.1-0.2,0.1-0.3,0.2c-0.2,0.1-0.4,0.4-0.5,0.5
	s-0.3,0.4-0.3,0.6c-0.2,0.4-0.4,1-0.6,1.3c-0.8,3.1,0.1,6.6,2.3,9l0,0c0.1,0.1,0.1,0.2,0.2,0.3l0.1,0.1v0.3c0,0.1,0,0.1-0.1,0.2v0.1
	l0,0v0.1h-0.1v0.1l0,0l0,0l0,0l0,0l0,0l0,0h-0.1l0,0H134l0,0h-0.2l0,0h-0.1l0,0c-0.4,0-0.9,0-1.3,0.1c-1.3,0.1-2.5,0.1-3.6,0.4
	c-1,0.3-1.8,0.8-2,1.8c-0.5,1.7,0.2,3.7,0.8,5.5l0,0c0.3,0.8,0.5,1.5,0.7,2.2c0.3,1.3,0.7,2.6,1.1,3.9c0.4,1.5,0.8,2.9,1.2,4.4
	c0.1,0.3,0.1,0.6,0.2,0.8C130.7,234.2,130.8,234.5,130.9,234.8L130.9,234.8L130.9,234.8z"/>
<path class="st8" d="M153.6,201.2L153.6,201.2c-0.3,0.1-0.5,0.3-0.7,0.4c-0.2,0.1-0.4,0.3-0.6,0.5l-0.1,0.1
	c-0.3,0.3-0.4,0.6-0.6,0.9c-0.4,0.8-0.5,1.8-0.6,2.8c-0.1,1,0.1,2,0.3,3.1c0.2,1,0.6,1.9,1.1,2.7c0.5,0.8,1.1,1.5,1.7,2
	c0.1,0.1,0.2,0.3,0.2,0.4c0,0.1,0,0.3-0.1,0.4c-0.1,0.1-0.1,0.1-0.2,0.1l0,0c-0.1,0.1-0.1,0.1-0.2,0.1l-0.6,0.1
	c-0.3,0-0.6,0.1-0.9,0.1h-0.7c0.3,0.3,0.4,0.5,0.6,0.8l0,0c0.1,0.2,0.2,0.4,0.3,0.6l0,0l0,0c0.1,0.2,0.1,0.4,0.1,0.5l0,0l0.1,0.2
	l0,0l0.1,0.4l0,0c0,0.2,0.1,0.4,0.1,0.6l0,0v0.1l0,0c0,0.6,0.1,1.1,0.1,1.6l0,0c0,0.6-0.1,1.2-0.1,1.8c-0.1,0.9-0.1,2-0.3,3
	c-0.1,1.1-0.2,2.1-0.4,3.1c-0.1,1.1-0.3,2.1-0.6,3.1c-0.2,1.1-0.5,2-0.8,2.9l-0.1,0.5c-0.3,0.9-0.6,2.1-1.1,2.9H167
	c0.3-0.3,0.4-0.7,0.6-1.1c0.2-0.5,0.4-1.1,0.6-1.7l0.4-1c0.3-0.9,0.6-1.8,0.8-2.8c0.2-1,0.4-2,0.6-3c0.1-1,0.3-2,0.4-3.1
	c0.1-1,0.2-2,0.3-2.9v-0.1c0.1-0.8,0.1-1.8,0.1-2.7c-0.1-0.9-0.2-1.8-0.7-2.4c-0.3-0.4-0.7-0.8-1.2-1c-0.5-0.3-1-0.5-1.5-0.6
	c-0.6-0.1-1.2-0.3-1.8-0.3c-0.6-0.1-1.2-0.1-1.7-0.1h-0.8h-0.8c-0.1,0-0.4-0.1-0.4-0.1c-0.1-0.1-0.2-0.3-0.2-0.4
	c0-0.1,0-0.2,0.1-0.3c0.1-0.1,0.1-0.1,0.1-0.2c0.2-0.2,0.4-0.4,0.6-0.6c0.2-0.2,0.4-0.5,0.5-0.8c0.1-0.3,0.2-0.6,0.3-1.1
	c0.1-0.4,0.1-0.8,0.1-1.3c0.1-1,0.1-2.2,0-3.3c-0.1-0.9-0.2-1.8-0.5-2.6c-0.2-0.6-0.6-1.3-0.9-1.7c-0.3-0.4-0.8-0.7-1.3-0.9
	c-0.8-0.3-1.8-0.5-2.8-0.5s-2,0.1-2.9,0.4c-0.3,0.1-0.5,0.1-0.8,0.2C154,201,153.8,201.1,153.6,201.2L153.6,201.2z"/>
<path class="st8" d="M149.6,214.6L149.6,214.6L149.6,214.6z"/>
<path class="st8" d="M144.5,201.6c0.2,0.3,0.4,0.6,0.5,0.8c0.3,0.6,0.5,1.2,0.6,1.8c0.1,0.7,0.3,1.5,0.3,2.2c0.1,0.8,0,1.8-0.1,2.5
	c0,0.3-0.1,0.6-0.1,0.8l0,0c-0.1,0.4-0.1,0.7-0.2,1.1c-0.1,0.4-0.1,0.7-0.2,1c-0.1,0.3-0.2,0.6-0.3,0.8l-0.1,0.3
	c0.6,0,1.1,0,1.7,0.1c0.4,0,0.7,0.1,1.1,0.1c0.4,0.1,0.7,0.1,1.1,0.2c0.2,0.1,0.4,0.1,0.6,0.2c0.2,0.1,0.4,0.1,0.6,0.2
	c0.8-0.1,1.7-0.1,2.5-0.1c-0.4-0.5-0.8-1-1.1-1.6c-0.5-0.8-0.8-1.8-1.1-2.8c-0.3-1.1-0.3-2.2-0.3-3.4c0.1-1.1,0.3-2.2,0.6-3.1
	c0.1-0.2,0.4-0.8,0.5-0.9c0.3-0.4,0.6-0.7,1-1l0,0c0.3-0.2,0.6-0.4,0.9-0.6c0.1-0.1,0.2-0.2,0.3-0.3c0.1-0.1,0.2-0.3,0.4-0.5
	c0.1-0.2,0.2-0.4,0.3-0.6s0.2-0.5,0.3-0.8c0.3-0.8,0.5-2,0.6-3c0.1-0.9,0.1-1.9,0-2.8c-0.1-0.7-0.3-1.4-0.6-2
	c-0.3-0.5-0.6-0.9-1.1-1.3c-0.7-0.4-1.5-0.8-2.4-1c-1-0.2-2-0.3-3.1-0.1c-1,0.1-2,0.3-2.7,0.7c-0.7,0.3-1.3,0.8-1.8,1.3
	c-0.6,0.7-0.9,1.5-1.1,2.2c-0.2,0.8-0.2,1.8-0.1,2.7c0.1,1,0.5,2.1,0.9,3.1c0.5,1.1,1.2,2.2,1.8,3l0,0c0.1,0.1,0.1,0.1,0.1,0.1
	c0,0.1,0,0.1,0,0.2l0,0c0,0.1-0.1,0.3-0.1,0.4C144.6,201.5,144.5,201.5,144.5,201.6L144.5,201.6z"/>
<path class="st8" d="M116.2,215.3c0.1,0.7,0.3,1.3,0.4,2c0.1,0.7,0.3,1.3,0.6,2c0.2,0.6,0.4,1.3,0.6,2c0.2,0.7,0.4,1.3,0.6,2.1
	c0.2,0.7,0.3,1.3,0.6,2l0.1,0.1c0,0.1,0.1,0.1,0.1,0.2l0,0c0.1,0.4,0.3,1.3,0.7,2.5c0.3,1.1,0.7,2.5,1.1,3.9c0.3,1.1,0.7,2.1,1,3.1
	c0.2,0.7,0.5,1.4,0.7,2h7.8c-0.1-0.1-0.1-0.3-0.2-0.4c-0.1-0.2-0.2-0.5-0.3-0.7c-0.1-0.2-0.1-0.5-0.2-0.8c-0.6-2-1.1-4-1.7-5.9
	c-0.4-1.3-0.8-2.6-1.1-3.9c-0.1-0.6-0.4-1.3-0.6-2.1l0,0c-0.7-2-1.5-4.3-0.8-6.2c0.4-1.5,1.5-2.2,2.7-2.6c1.2-0.4,2.7-0.4,4-0.4h0.5
	c-0.4-0.6-0.8-1.3-1.2-2c-0.4-0.9-0.8-1.9-0.9-2.9c-0.4-2.1-0.1-4.3,1-6.2c0.1-0.2,0.3-0.3,0.4-0.6c0.1-0.1,0.3-0.3,0.4-0.4
	c0.1-0.1,0.3-0.3,0.5-0.4c0.3-0.2,0.6-0.4,0.9-0.6c0.3-0.1,0.6-0.3,0.8-0.4c0-0.6-0.1-1.4-0.1-2.1c-0.1-0.8-0.2-1.6-0.4-2.4
	c-0.2-0.7-0.5-1.4-0.9-2c-0.4-0.5-0.9-0.8-1.5-1c-0.9-0.2-2-0.4-3.1-0.4c-1.1,0-2.1,0.2-3.1,0.5c-0.8,0.3-1.5,0.6-2.1,1.1
	c-0.5,0.4-0.8,0.8-1,1.4c-0.3,0.8-0.4,1.8-0.4,2.8c0,1,0.2,2,0.5,3c0.3,1,0.7,1.9,1.2,2.7c0.5,0.8,1,1.4,1.7,1.9
	c0.1,0.1,0.2,0.3,0.2,0.4s0,0.3-0.1,0.4c-0.1,0.1-0.1,0.1-0.2,0.1l0,0c-0.1,0.1-0.1,0.1-0.2,0.1l-1.7,0.1c-0.3,0-0.6,0.1-0.9,0.1h-1
	c-1.2,0-2.5,0.1-3.4,0.4c-0.9,0.3-1.7,0.8-2,1.8"/>
<g>
	<polygon class="st9" points="117.4,214.4 117.4,208.7 118.6,208.7 118.6,213.4 121.5,213.4 121.5,214.4 	"/>
</g>
<g>
	<path id="_x31__00000123419795581193173880000007795495111412869028_" class="st9" d="M122.1,212.3c0-0.3,0.1-0.7,0.3-1
		c0.2-0.4,0.4-0.6,0.8-0.8c0.3-0.2,0.7-0.3,1.1-0.3c0.6,0,1.1,0.2,1.5,0.6c0.4,0.4,0.6,0.9,0.6,1.5s-0.2,1.1-0.6,1.5
		s-0.9,0.6-1.5,0.6c-0.3,0-0.8-0.1-1.1-0.3c-0.4-0.1-0.6-0.4-0.8-0.8C122.1,213.1,122.1,212.7,122.1,212.3L122.1,212.3z
		 M123.2,212.3c0,0.4,0.1,0.7,0.3,1c0.2,0.2,0.4,0.3,0.7,0.3c0.3,0,0.6-0.1,0.7-0.3c0.2-0.2,0.3-0.6,0.3-1s-0.1-0.7-0.3-0.9
		c-0.2-0.2-0.4-0.3-0.7-0.3c-0.3,0-0.6,0.1-0.7,0.3C123.3,211.6,123.2,211.9,123.2,212.3L123.2,212.3z"/>
</g>
<g>
	<path id="_x32__00000132078874029929789270000001687726302929418155_" class="st9" d="M127.1,214.7l1.3,0.1c0,0.1,0.1,0.3,0.1,0.3
		c0.1,0.1,0.3,0.1,0.5,0.1c0.3,0,0.5-0.1,0.6-0.1c0.1-0.1,0.1-0.1,0.2-0.3c0-0.1,0.1-0.3,0.1-0.5v-0.6c-0.4,0.4-0.8,0.7-1.3,0.7
		c-0.6,0-1-0.2-1.3-0.7c-0.3-0.4-0.4-0.8-0.4-1.4c0-0.7,0.1-1.3,0.5-1.6c0.3-0.3,0.8-0.6,1.3-0.6c0.5,0,0.9,0.2,1.3,0.7v-0.6h1v3.7
		c0,0.5-0.1,0.8-0.1,1.1c-0.1,0.2-0.2,0.4-0.4,0.6s-0.4,0.3-0.6,0.4c-0.2,0.1-0.6,0.1-0.9,0.1c-0.7,0-1.2-0.1-1.5-0.4
		c-0.3-0.2-0.4-0.6-0.4-0.9C127.1,214.7,127.1,214.7,127.1,214.7L127.1,214.7z M128.1,212.2c0,0.4,0.1,0.8,0.3,1
		c0.1,0.2,0.3,0.3,0.6,0.3s0.5-0.1,0.7-0.3c0.2-0.2,0.3-0.5,0.3-0.9s-0.1-0.8-0.3-1c-0.2-0.2-0.4-0.3-0.7-0.3s-0.5,0.1-0.6,0.3
		C128.2,211.5,128.1,211.8,128.1,212.2L128.1,212.2z"/>
</g>
<g>
	<path id="_x33__00000176737699263602290630000007684258186140299944_" class="st9" d="M131.9,212.3c0-0.3,0.1-0.7,0.3-1
		c0.2-0.4,0.4-0.6,0.8-0.8c0.4-0.2,0.7-0.3,1.1-0.3c0.6,0,1.1,0.2,1.5,0.6c0.4,0.4,0.6,0.9,0.6,1.5s-0.2,1.1-0.6,1.5
		s-0.9,0.6-1.5,0.6c-0.4,0-0.8-0.1-1.1-0.3c-0.3-0.1-0.6-0.4-0.8-0.8C132,213.1,131.9,212.7,131.9,212.3L131.9,212.3z M133,212.3
		c0,0.4,0.1,0.7,0.3,1c0.2,0.2,0.4,0.3,0.7,0.3s0.6-0.1,0.7-0.3c0.2-0.2,0.3-0.6,0.3-1s-0.1-0.7-0.3-0.9c-0.2-0.2-0.4-0.3-0.7-0.3
		s-0.6,0.1-0.7,0.3C133.1,211.6,133,211.9,133,212.3L133,212.3z"/>
</g>
<g>
	<polygon id="_x34__00000079474614247867074970000012809474833888864415_" class="st9" points="138.7,214.5 140.1,208.6 141,208.6 
		139.5,214.5 	"/>
</g>
<g>
	<path id="_x35__00000172438785454659738820000005243518164728310656_" class="st9" d="M143.8,208.6h2.3c0.5,0,0.8,0,1.1,0.1
		c0.2,0.1,0.4,0.1,0.6,0.2c0.2,0.1,0.4,0.3,0.4,0.5c0.1,0.2,0.2,0.4,0.2,0.7s-0.1,0.5-0.2,0.8c-0.1,0.2-0.4,0.4-0.6,0.5
		c0.4,0.1,0.6,0.3,0.8,0.5c0.2,0.3,0.3,0.6,0.3,0.8s-0.1,0.5-0.2,0.8c-0.1,0.3-0.3,0.4-0.5,0.6s-0.5,0.2-0.8,0.3
		c-0.2,0-0.6,0-1.4,0.1h-2L143.8,208.6L143.8,208.6z M144.9,209.6v1.3h0.8c0.4,0,0.7,0,0.8,0c0.2,0,0.3-0.1,0.5-0.2s0.1-0.3,0.1-0.4
		c0-0.2-0.1-0.4-0.1-0.4c-0.1-0.1-0.2-0.2-0.4-0.2c-0.1,0-0.4,0-1,0L144.9,209.6L144.9,209.6z M144.9,211.9v1.5h1c0.4,0,0.7,0,0.8,0
		c0.1,0,0.3-0.1,0.4-0.2c0.1-0.1,0.1-0.3,0.1-0.5c0-0.1-0.1-0.3-0.1-0.4c-0.1-0.1-0.2-0.2-0.4-0.3c-0.1-0.1-0.5-0.1-1.1-0.1
		L144.9,211.9L144.9,211.9z"/>
</g>
<g>
	<path id="_x36__00000162317188710274090380000003966724034162400670_" class="st9" d="M149.5,209.6v-1.1h1.1v1.1H149.5z
		 M149.5,214.4v-4.2h1.1v4.2H149.5z"/>
</g>
<g>
	<polygon id="_x37__00000086688985033847438960000004815469166452105606_" class="st9" points="151.7,214.4 151.7,208.6 
		152.9,208.6 152.9,214.4 	"/>
</g>
<g>
	<polygon id="_x38__00000089537039967326369860000016924771918448589983_" class="st9" points="154,214.4 154,208.6 155.1,208.6 
		155.1,214.4 	"/>
</g>
<g>
	<path id="_x39__00000040565036536678885000000006803004351898622623_" class="st9" d="M158.6,213.1l1.1,0.2
		c-0.1,0.4-0.3,0.7-0.7,0.9c-0.3,0.2-0.7,0.4-1.1,0.4c-0.7,0-1.3-0.2-1.6-0.7c-0.3-0.3-0.4-0.8-0.4-1.5c0-0.7,0.2-1.3,0.6-1.6
		c0.4-0.4,0.8-0.6,1.4-0.6c0.6,0,1.1,0.2,1.5,0.6s0.6,1.1,0.5,1.9h-2.7c0,0.3,0.1,0.6,0.3,0.8c0.1,0.2,0.4,0.3,0.6,0.3
		c0.1,0,0.3-0.1,0.4-0.1C158.5,213.4,158.6,213.3,158.6,213.1z M158.7,211.9c0-0.4-0.1-0.6-0.3-0.7c-0.1-0.1-0.4-0.3-0.6-0.3
		c-0.2,0-0.4,0.1-0.6,0.3c-0.1,0.2-0.2,0.4-0.2,0.7H158.7L158.7,211.9z"/>
</g>
<g>
	<path id="_x31_0_00000105419761653481894720000006450622052361993645_" class="st9" d="M164.5,214.4h-1v-0.6
		c-0.1,0.2-0.3,0.4-0.6,0.6c-0.2,0.1-0.5,0.2-0.7,0.2c-0.5,0-0.9-0.2-1.3-0.6c-0.4-0.4-0.5-0.9-0.5-1.6s0.1-1.3,0.5-1.6
		c0.3-0.4,0.8-0.6,1.3-0.6c0.5,0,0.8,0.2,1.2,0.6v-2.1h1.1L164.5,214.4L164.5,214.4z M161.5,212.2c0,0.4,0.1,0.8,0.2,1
		c0.2,0.3,0.4,0.4,0.8,0.4c0.3,0,0.5-0.1,0.6-0.3c0.2-0.2,0.3-0.6,0.3-1c0-0.5-0.1-0.8-0.3-1c-0.1-0.2-0.4-0.4-0.6-0.4
		c-0.3,0-0.5,0.1-0.6,0.3C161.7,211.5,161.5,211.8,161.5,212.2L161.5,212.2z"/>
</g>
<g>
	<path id="_x31_1_00000165929905248153990510000013215389987651349407_" class="st9" d="M168,213.1l1.1,0.2
		c-0.1,0.4-0.4,0.7-0.7,0.9c-0.3,0.2-0.7,0.4-1.1,0.4c-0.7,0-1.3-0.2-1.6-0.7c-0.3-0.3-0.4-0.8-0.4-1.5c0-0.7,0.2-1.3,0.6-1.6
		c0.3-0.4,0.8-0.6,1.4-0.6c0.6,0,1.1,0.2,1.5,0.6c0.4,0.4,0.6,1.1,0.5,1.9h-2.7c0,0.3,0.1,0.6,0.3,0.8c0.1,0.2,0.4,0.3,0.6,0.3
		c0.1,0,0.3-0.1,0.4-0.1C167.8,213.4,167.9,213.3,168,213.1z M168.1,211.9c0-0.4-0.1-0.6-0.3-0.7c-0.1-0.1-0.3-0.3-0.6-0.3
		s-0.4,0.1-0.6,0.3c-0.1,0.2-0.2,0.4-0.2,0.7H168.1L168.1,211.9z"/>
</g>
<g transform="matrix(0.999999 0 0 0.999999 5404.11 3503.57)">
	
		<text id="_x31_1_00000179619095873290224180000007604831826088105116_" transform="matrix(1 0 0 1 -5287.2773 -3289.1831)" class="st10 st11">Logo / Billede</text>
</g>
</svg>
