<?xml version="1.0" encoding="UTF-8" standalone="no"?>
<!-- Created with Inkscape (http://www.inkscape.org/) -->

<svg
   version="1.1"
   id="svg2"
   width="392.71387"
   height="328.46201"
   viewBox="0 0 392.71387 328.46201"
   xmlns="http://www.w3.org/2000/svg"
   xmlns:svg="http://www.w3.org/2000/svg">
  <defs
     id="defs6" />
  <g
     id="g8"
     transform="matrix(1.3333333,0,0,-1.3333333,1.3333333,327.12867)">
    <g
       id="g10">
      <g
         id="g12" />
    </g>
    <g
       id="g14">
      <g
         id="g16" />
    </g>
    <g
       id="g18">
      <g
         id="g20" />
      <g
         id="g22" />
    </g>
    <g
       id="g24">
      <g
         id="g26" />
      <g
         id="g28" />
    </g>
    <g
       id="g30">
      <g
         id="g32" />
      <g
         id="g34" />
    </g>
    <g
       id="g36">
      <g
         id="g38" />
      <g
         id="g40" />
    </g>
    <g
       id="g42">
      <g
         id="g44" />
      <g
         id="g46" />
    </g>
    <g
       id="g48">
      <g
         id="g50" />
      <g
         id="g52" />
    </g>
    <g
       id="g54">
      <g
         id="g56" />
      <g
         id="g58" />
    </g>
    <g
       id="g60">
      <g
         id="g62" />
      <g
         id="g64" />
    </g>
    <g
       id="g66">
      <g
         id="g68" />
    </g>
    <g
       id="g70">
      <g
         id="g72" />
      <g
         id="g74" />
    </g>
    <g
       id="g76">
      <g
         id="g78" />
      <g
         id="g80" />
    </g>
    <g
       id="g82">
      <g
         id="g84" />
      <g
         id="g86" />
    </g>
    <g
       id="g88">
      <g
         id="g90" />
      <g
         id="g92" />
    </g>
    <g
       id="g94">
      <g
         id="g96" />
    </g>
    <g
       id="g98">
      <g
         id="g100" />
      <g
         id="g102" />
    </g>
    <g
       id="g104">
      <g
         id="g106" />
      <g
         id="g108" />
    </g>
    <g
       id="g110">
      <g
         id="g112" />
      <g
         id="g114" />
    </g>
    <g
       id="g116">
      <g
         id="g118" />
      <g
         id="g120" />
    </g>
    <g
       id="g122">
      <g
         id="g124" />
    </g>
    <g
       id="g126">
      <g
         id="g128" />
      <g
         id="g130" />
    </g>
    <g
       id="g132">
      <g
         id="g134" />
      <g
         id="g136" />
    </g>
    <g
       id="g138">
      <g
         id="g140" />
      <g
         id="g142" />
    </g>
    <g
       id="g144">
      <g
         id="g146" />
      <g
         id="g148" />
    </g>
    <g
       id="g150">
      <g
         id="g152" />
    </g>
    <g
       id="g154">
      <g
         id="g156" />
      <g
         id="g158" />
    </g>
    <g
       id="g160">
      <g
         id="g162" />
      <g
         id="g164" />
    </g>
    <g
       id="g166">
      <g
         id="g168" />
      <g
         id="g170" />
    </g>
    <g
       id="g172">
      <g
         id="g174" />
      <g
         id="g176" />
    </g>
    <g
       id="g178">
      <g
         id="g180" />
    </g>
    <g
       id="g182">
      <g
         id="g184" />
      <g
         id="g186" />
    </g>
    <g
       id="g188">
      <g
         id="g190" />
      <g
         id="g192" />
    </g>
    <g
       id="g194">
      <g
         id="g196" />
      <g
         id="g198" />
    </g>
    <g
       id="g200">
      <g
         id="g202" />
      <g
         id="g204" />
    </g>
    <g
       id="g206">
      <g
         id="g208" />
      <g
         id="g210" />
    </g>
    <g
       id="g212" />
    <g
       id="g214">
      <g
         id="g216" />
      <g
         id="g218" />
    </g>
    <g
       id="g220">
      <g
         id="g222" />
      <g
         id="g224" />
    </g>
    <g
       id="g226">
      <g
         id="g228" />
      <g
         id="g230" />
    </g>
    <g
       id="g232">
      <g
         id="g234" />
    </g>
    <g
       id="g236">
      <g
         id="g238" />
      <g
         id="g240" />
    </g>
    <g
       id="g242">
      <g
         id="g244" />
      <g
         id="g246" />
    </g>
    <g
       id="g248">
      <g
         id="g250" />
      <g
         id="g252" />
    </g>
    <g
       id="g254">
      <g
         id="g256" />
      <g
         id="g258" />
    </g>
    <g
       id="g260">
      <g
         id="g262" />
    </g>
    <g
       id="g264">
      <g
         id="g266" />
      <g
         id="g268" />
    </g>
    <g
       id="g270">
      <g
         id="g272" />
      <g
         id="g274" />
    </g>
    <g
       id="g276">
      <g
         id="g278" />
      <g
         id="g280" />
    </g>
    <g
       id="g282">
      <g
         id="g284" />
      <g
         id="g286" />
    </g>
    <g
       id="g288">
      <g
         id="g290" />
      <g
         id="g292" />
    </g>
    <g
       id="g294">
      <g
         id="g296" />
      <g
         id="g298" />
      <g
         id="g300" />
    </g>
    <g
       id="g302">
      <g
         id="g304" />
      <g
         id="g306" />
      <g
         id="g308" />
    </g>
    <g
       id="g310">
      <g
         id="g312" />
      <g
         id="g314" />
      <g
         id="g316" />
    </g>
    <g
       id="g318">
      <g
         id="g320" />
      <g
         id="g322" />
      <g
         id="g324" />
    </g>
    <g
       id="g326">
      <g
         id="g328" />
      <g
         id="g330" />
    </g>
    <g
       id="g332">
      <g
         id="g334" />
      <g
         id="g336" />
      <g
         id="g338" />
    </g>
    <g
       id="g340">
      <g
         id="g342" />
      <g
         id="g344" />
      <g
         id="g346" />
    </g>
    <g
       id="g348">
      <g
         id="g350" />
      <g
         id="g352" />
      <g
         id="g354" />
    </g>
    <g
       id="g356">
      <g
         id="g358" />
      <g
         id="g360" />
      <g
         id="g362" />
    </g>
    <g
       id="g364" />
    <g
       id="g366" />
    <g
       id="g368" />
    <g
       id="g370" />
    <g
       id="g372" />
    <g
       id="g374" />
    <g
       id="g376" />
    <g
       id="g378">
      <path
         d="m 14.4567,244.063 h 263.622 c 7.7953,0 14.1733,-6.378 14.1733,-14.1735 V 14.457 c 0,-7.7961 -6.378,-14.1735 -14.1733,-14.1735 H 14.4567 C 6.6614,0.2835 0.2835,6.6609 0.2835,14.457 v 215.4325 c 0,7.7955 6.3779,14.1735 14.1732,14.1735 z"
         style="fill:none;stroke:#1a1a18;stroke-width:0.5669;stroke-linecap:butt;stroke-linejoin:miter;stroke-miterlimit:22.9256;stroke-dasharray:none;stroke-opacity:1"
         id="path380" />
      <path
         d="m 131.3861,219.9682 h 7.795 c 0,3.9144 3.1725,7.0866 7.0866,7.0866 3.9141,0 7.0866,-3.1722 7.0866,-7.0866 h 7.7953 c 2.7284,0 4.9606,-2.2323 4.9606,-4.9603 v 0 c 0,-2.7287 -2.2322,-4.9609 -4.9606,-4.9609 h -29.7635 c -2.7286,0 -4.9609,2.2322 -4.9609,4.9609 v 0 c 0,2.728 2.2323,4.9603 4.9609,4.9603 z"
         style="fill:none;stroke:#1a1a18;stroke-width:0.5669;stroke-linecap:butt;stroke-linejoin:miter;stroke-miterlimit:22.9256;stroke-dasharray:none;stroke-opacity:1"
         id="path382" />
      <path
         d="m 108.5613,174.6009 h 2.3839 v -4.7282 l 4.432,4.7282 h 3.1093 l -4.7038,-4.752 4.9464,-6.768 h -3.0931 l -3.5442,5.019 -1.1466,-1.1656 v -3.8534 h -2.3839 z"
         style="fill:#000004;fill-opacity:1;fill-rule:nonzero;stroke:none"
         id="path384" />
      <path
         d="m 123.7133,164.6493 c 0.648,0 1.1466,0.2316 1.4958,0.6927 0.3493,0.4644 0.5227,1.1229 0.5227,1.9764 0,0.8504 -0.1734,1.5091 -0.5227,1.9681 -0.3492,0.4612 -0.8478,0.6905 -1.4958,0.6905 -0.6508,0 -1.152,-0.2293 -1.5041,-0.6905 -0.3495,-0.459 -0.5252,-1.1177 -0.5252,-1.9681 0,-0.8535 0.1757,-1.512 0.5252,-1.9764 0.3521,-0.4611 0.8533,-0.6927 1.5041,-0.6927 z m 4.3546,2.677 c 0,-1.2478 -0.36,-2.317 -1.0775,-3.2029 -0.72,-0.8878 -1.8105,-1.3305 -3.2746,-1.3305 -1.4641,0 -2.5545,0.4427 -3.2745,1.3305 -0.7175,0.8859 -1.0775,1.9551 -1.0775,3.2029 0,1.2266 0.36,2.2907 1.0775,3.1893 0.72,0.8985 1.8104,1.3493 3.2745,1.3493 1.4641,0 2.5546,-0.4508 3.2746,-1.3493 0.7175,-0.8986 1.0775,-1.9627 1.0775,-3.1893"
         style="fill:#000004;fill-opacity:1;fill-rule:nonzero;stroke:none"
         id="path386" />
      <path
         d="m 131.9372,163.0809 h -2.2241 v 11.5041 h 2.2241 z"
         style="fill:#000004;fill-opacity:1;fill-rule:nonzero;stroke:none"
         id="path388" />
      <path
         d="m 137.9319,164.6493 c 0.648,0 1.1466,0.2316 1.4958,0.6927 0.3492,0.4644 0.5227,1.1229 0.5227,1.9764 0,0.8504 -0.1735,1.5091 -0.5227,1.9681 -0.3492,0.4612 -0.8478,0.6905 -1.4958,0.6905 -0.6509,0 -1.152,-0.2293 -1.5041,-0.6905 -0.3495,-0.459 -0.5252,-1.1177 -0.5252,-1.9681 0,-0.8535 0.1757,-1.512 0.5252,-1.9764 0.3521,-0.4611 0.8532,-0.6927 1.5041,-0.6927 z m 4.3546,2.677 c 0,-1.2478 -0.36,-2.317 -1.0775,-3.2029 -0.72,-0.8878 -1.8105,-1.3305 -3.2746,-1.3305 -1.4641,0 -2.5546,0.4427 -3.2746,1.3305 -0.7174,0.8859 -1.0774,1.9551 -1.0774,3.2029 0,1.2266 0.36,2.2907 1.0774,3.1893 0.72,0.8985 1.8105,1.3493 3.2746,1.3493 1.4641,0 2.5546,-0.4508 3.2746,-1.3493 0.7175,-0.8986 1.0775,-1.9627 1.0775,-3.1893"
         style="fill:#000004;fill-opacity:1;fill-rule:nonzero;stroke:none"
         id="path390" />
      <path
         d="m 148.6063,171.8011 c 0.8773,0 1.5948,-0.2319 2.1521,-0.6937 0.5573,-0.4637 0.8373,-1.2262 0.8373,-2.2957 v -5.7308 h -2.2881 v 5.1763 c 0,0.4479 -0.0587,0.792 -0.1786,1.0315 -0.216,0.4377 -0.6318,0.656 -1.2427,0.656 -0.7492,0 -1.2665,-0.3195 -1.544,-0.9598 -0.1466,-0.3385 -0.2186,-0.7705 -0.2186,-1.296 v -4.608 h -2.224 v 8.496 h 2.16 v -1.2428 c 0.2854,0.4403 0.5547,0.7575 0.8107,0.9494 0.4561,0.3444 1.0346,0.5176 1.7359,0.5176"
         style="fill:#000004;fill-opacity:1;fill-rule:nonzero;stroke:none"
         id="path392" />
      <path
         d="m 158.3796,171.8011 c 0.8773,0 1.5948,-0.2319 2.1521,-0.6937 0.5572,-0.4637 0.8373,-1.2262 0.8373,-2.2957 v -5.7308 h -2.2881 v 5.1763 c 0,0.4479 -0.0587,0.792 -0.1786,1.0315 -0.216,0.4377 -0.6318,0.656 -1.2427,0.656 -0.7492,0 -1.2665,-0.3195 -1.544,-0.9598 -0.1466,-0.3385 -0.2186,-0.7705 -0.2186,-1.296 v -4.608 h -2.2241 v 8.496 h 2.16 v -1.2428 c 0.2855,0.4403 0.5548,0.7575 0.8108,0.9494 0.456,0.3444 1.0346,0.5176 1.7359,0.5176"
         style="fill:#000004;fill-opacity:1;fill-rule:nonzero;stroke:none"
         id="path394" />
      <path
         d="m 166.9555,169.977 c -0.5731,0 -1.0159,-0.1573 -1.3306,-0.4745 -0.3146,-0.315 -0.5147,-0.7441 -0.5947,-1.2856 h 3.8401 c -0.0399,0.576 -0.2372,1.0131 -0.5947,1.3122 -0.3546,0.2988 -0.7945,0.4479 -1.3201,0.4479 z m 0.0134,1.8561 c 0.7415,0 1.4079,-0.1332 2.0001,-0.3974 0.5947,-0.267 1.0825,-0.6854 1.4692,-1.2586 0.3495,-0.5068 0.576,-1.0933 0.6775,-1.76 0.0612,-0.3892 0.0853,-0.9519 0.0745,-1.6883 h -6.2079 c 0.0346,-0.8587 0.3306,-1.461 0.8907,-1.8051 0.3387,-0.216 0.7466,-0.3226 1.2265,-0.3226 0.5069,0 0.9173,0.1304 1.2348,0.3892 0.1732,0.1411 0.3254,0.3362 0.4586,0.5865 h 2.2853 c -0.0586,-0.5063 -0.3359,-1.0185 -0.824,-1.5412 -0.7625,-0.8295 -1.8292,-1.2427 -3.2,-1.2427 -1.1333,0 -2.1331,0.3495 -2.9971,1.0482 -0.8668,0.6985 -1.2988,1.8371 -1.2988,3.4132 0,1.4771 0.3894,2.6082 1.1707,3.397 0.7812,0.7869 1.7946,1.1818 3.0399,1.1818"
         style="fill:#000004;fill-opacity:1;fill-rule:nonzero;stroke:none"
         id="path396" />
      <path
         d="m 178.342,166.5527 c 0,-0.4532 0.072,-0.8319 0.2189,-1.1276 0.2692,-0.5496 0.7571,-0.824 1.4691,-0.824 0.4349,0 0.8133,0.1494 1.1387,0.4478 0.3226,0.2985 0.4853,0.7305 0.4853,1.2907 0,0.7441 -0.2985,1.2398 -0.8986,1.4907 -0.3413,0.1412 -0.8798,0.2109 -1.6132,0.2109 v 1.5999 c 0.7172,0.0105 1.2187,0.0796 1.5038,0.2106 0.4907,0.2214 0.7362,0.6639 0.7362,1.3334 0,0.432 -0.1253,0.7841 -0.3762,1.0556 -0.2506,0.2722 -0.6052,0.4085 -1.0613,0.4085 -0.5227,0 -0.9065,-0.1681 -1.152,-0.5017 -0.248,-0.3331 -0.3654,-0.7813 -0.3546,-1.3388 h -2.0801 c 0.0216,0.5626 0.1174,1.0964 0.288,1.6004 0.1815,0.4425 0.4695,0.8529 0.8587,1.2266 0.2908,0.2667 0.6346,0.4694 1.0349,0.6105 0.4,0.1415 0.8932,0.2107 1.4746,0.2107 1.08,0 1.9519,-0.2798 2.6132,-0.8402 0.6639,-0.5624 0.9947,-1.3145 0.9947,-2.2584 0,-0.6664 -0.1973,-1.2319 -0.5947,-1.6909 -0.2506,-0.2851 -0.5094,-0.4824 -0.7812,-0.5865 0.2027,0 0.4958,-0.1734 0.8745,-0.5227 0.568,-0.5252 0.8535,-1.2427 0.8535,-2.1517 0,-0.9573 -0.3308,-1.8 -0.9947,-2.5254 -0.6642,-0.7254 -1.6455,-1.0882 -2.9441,-1.0882 -1.6027,0 -2.7147,0.5227 -3.3386,1.5706 -0.328,0.5576 -0.5094,1.2884 -0.5465,2.1892 z"
         style="fill:#000004;fill-opacity:1;fill-rule:nonzero;stroke:none"
         id="path398" />
      <path
         d="m 109.6574,116.3996 h 2.384 v -4.7282 l 4.4319,4.7282 h 3.1093 l -4.7038,-4.752 4.9465,-6.768 h -3.0932 l -3.5441,5.0188 -1.1466,-1.1654 v -3.8534 h -2.384 z"
         style="fill:#000004;fill-opacity:1;fill-rule:nonzero;stroke:none"
         id="path400" />
      <path
         d="m 124.8094,106.4477 c 0.648,0 1.1467,0.2319 1.4959,0.6934 0.3492,0.4638 0.5227,1.1225 0.5227,1.9758 0,0.8506 -0.1735,1.5097 -0.5227,1.968 -0.3492,0.4612 -0.8479,0.6906 -1.4959,0.6906 -0.6508,0 -1.152,-0.2294 -1.504,-0.6906 -0.3495,-0.4583 -0.5253,-1.1174 -0.5253,-1.968 0,-0.8533 0.1758,-1.512 0.5253,-1.9758 0.352,-0.4615 0.8532,-0.6934 1.504,-0.6934 z m 4.3546,2.6774 c 0,-1.2478 -0.36,-2.3174 -1.0774,-3.2026 -0.72,-0.8878 -1.8105,-1.3309 -3.2746,-1.3309 -1.4641,0 -2.5546,0.4431 -3.2746,1.3309 -0.7174,0.8852 -1.0774,1.9548 -1.0774,3.2026 0,1.2265 0.36,2.2904 1.0774,3.1892 0.72,0.8989 1.8105,1.3493 3.2746,1.3493 1.4641,0 2.5546,-0.4504 3.2746,-1.3493 0.7174,-0.8988 1.0774,-1.9627 1.0774,-3.1892"
         style="fill:#000004;fill-opacity:1;fill-rule:nonzero;stroke:none"
         id="path402" />
      <path
         d="m 133.0333,104.8796 h -2.224 v 11.5039 h 2.224 z"
         style="fill:#000004;fill-opacity:1;fill-rule:nonzero;stroke:none"
         id="path404" />
      <path
         d="m 139.028,106.4477 c 0.648,0 1.1466,0.2319 1.4959,0.6934 0.3492,0.4638 0.5227,1.1225 0.5227,1.9758 0,0.8506 -0.1735,1.5097 -0.5227,1.968 -0.3493,0.4612 -0.8479,0.6906 -1.4959,0.6906 -0.6508,0 -1.152,-0.2294 -1.504,-0.6906 -0.3495,-0.4583 -0.5253,-1.1174 -0.5253,-1.968 0,-0.8533 0.1758,-1.512 0.5253,-1.9758 0.352,-0.4615 0.8532,-0.6934 1.504,-0.6934 z m 4.3546,2.6774 c 0,-1.2478 -0.36,-2.3174 -1.0774,-3.2026 -0.72,-0.8878 -1.8105,-1.3309 -3.2746,-1.3309 -1.4641,0 -2.5546,0.4431 -3.2746,1.3309 -0.7174,0.8852 -1.0774,1.9548 -1.0774,3.2026 0,1.2265 0.36,2.2904 1.0774,3.1892 0.72,0.8989 1.8105,1.3493 3.2746,1.3493 1.4641,0 2.5546,-0.4504 3.2746,-1.3493 0.7174,-0.8988 1.0774,-1.9627 1.0774,-3.1892"
         style="fill:#000004;fill-opacity:1;fill-rule:nonzero;stroke:none"
         id="path406" />
      <path
         d="m 149.7025,113.5996 c 0.8773,0 1.5947,-0.2316 2.152,-0.6931 0.5573,-0.464 0.8374,-1.2268 0.8374,-2.2964 v -5.7305 h -2.2882 v 5.1764 c 0,0.4476 -0.0586,0.792 -0.1785,1.0318 -0.216,0.4374 -0.6319,0.6556 -1.2427,0.6556 -0.7492,0 -1.2666,-0.3194 -1.5441,-0.9598 -0.1465,-0.3384 -0.2185,-0.7704 -0.2185,-1.296 v -4.608 h -2.2241 v 8.496 h 2.16 v -1.2424 c 0.2855,0.4397 0.5548,0.7571 0.8107,0.949 0.4561,0.3442 1.0347,0.5174 1.736,0.5174"
         style="fill:#000004;fill-opacity:1;fill-rule:nonzero;stroke:none"
         id="path408" />
      <path
         d="m 159.4757,113.5996 c 0.8774,0 1.5948,-0.2316 2.1521,-0.6931 0.5573,-0.464 0.8374,-1.2268 0.8374,-2.2964 v -5.7305 h -2.2882 v 5.1764 c 0,0.4476 -0.0586,0.792 -0.1785,1.0318 -0.216,0.4374 -0.6319,0.6556 -1.2428,0.6556 -0.7491,0 -1.2665,-0.3194 -1.544,-0.9598 -0.1465,-0.3384 -0.2185,-0.7704 -0.2185,-1.296 v -4.608 h -2.2241 v 8.496 h 2.16 v -1.2424 c 0.2855,0.4397 0.5547,0.7571 0.8107,0.949 0.4561,0.3442 1.0347,0.5174 1.7359,0.5174"
         style="fill:#000004;fill-opacity:1;fill-rule:nonzero;stroke:none"
         id="path410" />
      <path
         d="m 168.0517,111.7755 c -0.5732,0 -1.016,-0.1574 -1.3306,-0.4746 -0.3146,-0.3143 -0.5148,-0.744 -0.5947,-1.2849 h 3.8401 c -0.04,0.576 -0.2373,1.0131 -0.5947,1.3119 -0.3546,0.2985 -0.7946,0.4476 -1.3201,0.4476 z m 0.0133,1.8564 c 0.7416,0 1.408,-0.1335 2.0001,-0.3974 0.5947,-0.2671 1.0826,-0.6857 1.4692,-1.2586 0.3495,-0.5069 0.576,-1.0936 0.6775,-1.7603 0.0612,-0.3892 0.0853,-0.9516 0.0746,-1.6881 h -6.2079 c 0.0346,-0.8583 0.3305,-1.4612 0.8906,-1.8054 0.3388,-0.216 0.7467,-0.3225 1.2266,-0.3225 0.5068,0 0.9173,0.1306 1.2348,0.3894 0.1732,0.1415 0.3254,0.3359 0.4586,0.5865 h 2.2853 c -0.0587,-0.5062 -0.3359,-1.0185 -0.824,-1.5412 -0.7626,-0.8291 -1.8292,-1.2427 -3.2001,-1.2427 -1.1333,0 -2.133,0.3493 -2.997,1.0483 -0.8669,0.6984 -1.2989,1.8374 -1.2989,3.4132 0,1.4774 0.3895,2.6078 1.1707,3.3973 0.7813,0.7869 1.7946,1.1815 3.0399,1.1815"
         style="fill:#000004;fill-opacity:1;fill-rule:nonzero;stroke:none"
         id="path412" />
      <path
         d="m 177.9344,112.6877 v 1.5202 c 0.7013,0.0317 1.192,0.0774 1.4746,0.1409 0.4453,0.0992 0.8107,0.2965 1.0905,0.5924 0.1922,0.2049 0.3387,0.4742 0.4374,0.8133 0.0561,0.2024 0.0853,0.3546 0.0853,0.4529 h 1.8561 v -11.3278 h -2.272 v 7.8081 z"
         style="fill:#000004;fill-opacity:1;fill-rule:nonzero;stroke:none"
         id="path414" />
      <path
         d="m 108.5533,94.3997 h 2.384 v -4.7282 l 4.4319,4.7282 h 3.1094 l -4.7039,-4.752 4.9465,-6.768 h -3.0932 l -3.5441,5.019 -1.1466,-1.1653 v -3.8537 h -2.384 z"
         style="fill:#000004;fill-opacity:1;fill-rule:nonzero;stroke:none"
         id="path416" />
      <path
         d="m 123.7054,84.4481 c 0.648,0 1.1466,0.2316 1.4958,0.6928 0.3492,0.4643 0.5227,1.1228 0.5227,1.9763 0,0.8504 -0.1735,1.5091 -0.5227,1.9681 -0.3492,0.4612 -0.8478,0.6905 -1.4958,0.6905 -0.6509,0 -1.152,-0.2293 -1.5041,-0.6905 -0.3495,-0.459 -0.5253,-1.1177 -0.5253,-1.9681 0,-0.8535 0.1758,-1.512 0.5253,-1.9763 0.3521,-0.4612 0.8532,-0.6928 1.5041,-0.6928 z m 4.3545,2.677 c 0,-1.2478 -0.36,-2.317 -1.0774,-3.2029 -0.72,-0.8878 -1.8105,-1.3305 -3.2746,-1.3305 -1.4641,0 -2.5546,0.4427 -3.2746,1.3305 -0.7174,0.8859 -1.0774,1.9551 -1.0774,3.2029 0,1.2266 0.36,2.2907 1.0774,3.1893 0.72,0.8985 1.8105,1.3493 3.2746,1.3493 1.4641,0 2.5546,-0.4508 3.2746,-1.3493 0.7174,-0.8986 1.0774,-1.9627 1.0774,-3.1893"
         style="fill:#000004;fill-opacity:1;fill-rule:nonzero;stroke:none"
         id="path418" />
      <path
         d="m 131.9292,82.8797 h -2.224 v 11.5041 h 2.224 z"
         style="fill:#000004;fill-opacity:1;fill-rule:nonzero;stroke:none"
         id="path420" />
      <path
         d="m 137.9239,84.4481 c 0.648,0 1.1467,0.2316 1.4959,0.6928 0.3492,0.4643 0.5227,1.1228 0.5227,1.9763 0,0.8504 -0.1735,1.5091 -0.5227,1.9681 -0.3492,0.4612 -0.8479,0.6905 -1.4959,0.6905 -0.6508,0 -1.152,-0.2293 -1.504,-0.6905 -0.3495,-0.459 -0.5253,-1.1177 -0.5253,-1.9681 0,-0.8535 0.1758,-1.512 0.5253,-1.9763 0.352,-0.4612 0.8532,-0.6928 1.504,-0.6928 z m 4.3546,2.677 c 0,-1.2478 -0.36,-2.317 -1.0774,-3.2029 -0.72,-0.8878 -1.8105,-1.3305 -3.2746,-1.3305 -1.4641,0 -2.5546,0.4427 -3.2746,1.3305 -0.7174,0.8859 -1.0774,1.9551 -1.0774,3.2029 0,1.2266 0.36,2.2907 1.0774,3.1893 0.72,0.8985 1.8105,1.3493 3.2746,1.3493 1.4641,0 2.5546,-0.4508 3.2746,-1.3493 0.7174,-0.8986 1.0774,-1.9627 1.0774,-3.1893"
         style="fill:#000004;fill-opacity:1;fill-rule:nonzero;stroke:none"
         id="path422" />
      <path
         d="m 148.5984,91.5999 c 0.8773,0 1.5947,-0.2319 2.152,-0.6937 0.5573,-0.4637 0.8374,-1.2262 0.8374,-2.2957 v -5.7308 h -2.2881 v 5.1763 c 0,0.4479 -0.0587,0.792 -0.1786,1.0315 -0.216,0.4377 -0.6319,0.656 -1.2427,0.656 -0.7492,0 -1.2666,-0.3195 -1.5441,-0.9598 -0.1465,-0.3385 -0.2185,-0.7705 -0.2185,-1.296 v -4.608 h -2.2241 v 8.496 h 2.16 v -1.2428 c 0.2855,0.4403 0.5548,0.7575 0.8107,0.9494 0.4561,0.3444 1.0347,0.5176 1.736,0.5176"
         style="fill:#000004;fill-opacity:1;fill-rule:nonzero;stroke:none"
         id="path424" />
      <path
         d="m 158.3717,91.5999 c 0.8773,0 1.5947,-0.2319 2.152,-0.6937 0.5573,-0.4637 0.8374,-1.2262 0.8374,-2.2957 v -5.7308 h -2.2882 v 5.1763 c 0,0.4479 -0.0586,0.792 -0.1785,1.0315 -0.216,0.4377 -0.6319,0.656 -1.2427,0.656 -0.7492,0 -1.2666,-0.3195 -1.5441,-0.9598 -0.1465,-0.3385 -0.2185,-0.7705 -0.2185,-1.296 v -4.608 h -2.2241 v 8.496 h 2.16 v -1.2428 c 0.2855,0.4403 0.5547,0.7575 0.8107,0.9494 0.4561,0.3444 1.0347,0.5176 1.736,0.5176"
         style="fill:#000004;fill-opacity:1;fill-rule:nonzero;stroke:none"
         id="path426" />
      <path
         d="m 166.9476,89.7758 c -0.5732,0 -1.0159,-0.1573 -1.3306,-0.4745 -0.3146,-0.315 -0.5148,-0.7441 -0.5947,-1.2856 h 3.8401 c -0.04,0.576 -0.2373,1.0132 -0.5947,1.3119 -0.3546,0.2991 -0.7946,0.4482 -1.3201,0.4482 z m 0.0133,1.8558 c 0.7416,0 1.408,-0.1329 2.0001,-0.3971 0.5947,-0.267 1.0826,-0.6854 1.4692,-1.2589 0.3495,-0.5062 0.576,-1.093 0.6775,-1.7597 0.0612,-0.3892 0.0853,-0.9519 0.0746,-1.6883 h -6.2079 c 0.0346,-0.8587 0.3305,-1.461 0.8906,-1.8051 0.3388,-0.216 0.7467,-0.3226 1.2266,-0.3226 0.5068,0 0.9173,0.1304 1.2348,0.3895 0.1732,0.1408 0.3254,0.3359 0.4586,0.5862 h 2.2853 c -0.0587,-0.5063 -0.3359,-1.0182 -0.824,-1.5412 -0.7626,-0.8295 -1.8292,-1.2427 -3.2001,-1.2427 -1.1333,0 -2.133,0.3495 -2.997,1.0479 -0.8669,0.6988 -1.2989,1.8374 -1.2989,3.4135 0,1.4771 0.3895,2.6082 1.1707,3.397 0.7813,0.7869 1.7947,1.1815 3.0399,1.1815"
         style="fill:#000004;fill-opacity:1;fill-rule:nonzero;stroke:none"
         id="path428" />
      <path
         d="m 176.2223,82.8797 c 0.0212,0.8135 0.1973,1.5576 0.5252,2.2297 0.3172,0.7546 1.0693,1.5542 2.2533,2.3941 1.0267,0.7334 1.6934,1.2592 1.9947,1.5764 0.4666,0.4932 0.6988,1.0321 0.6988,1.6214 0,0.4771 -0.1335,0.8745 -0.4,1.192 -0.2667,0.3172 -0.648,0.4745 -1.1441,0.4745 -0.68,0 -1.144,-0.2534 -1.3892,-0.7574 -0.1415,-0.2909 -0.2242,-0.7521 -0.2509,-1.3867 h -2.16 c 0.0374,0.9629 0.2106,1.7416 0.5256,2.3363 0.5918,1.1301 1.6477,1.6957 3.1651,1.6957 1.1999,0 2.1521,-0.3308 2.8613,-0.9944 0.7092,-0.6642 1.0641,-1.5415 1.0641,-2.6348 0,-0.8374 -0.2508,-1.5812 -0.752,-2.232 -0.328,-0.432 -0.8668,-0.9122 -1.6186,-1.4429 l -0.8909,-0.6318 c -0.5598,-0.3946 -0.9411,-0.6801 -1.1466,-0.8558 -0.2078,-0.176 -0.3813,-0.3815 -0.5224,-0.6163 h 4.9464 v -1.968 z"
         style="fill:#000004;fill-opacity:1;fill-rule:nonzero;stroke:none"
         id="path430" />
    </g>
    <g
       id="g432" />
    <g
       id="g434" />
    <g
       id="g436" />
    <g
       id="g438" />
    <g
       id="g440" />
    <g
       id="g442" />
    <g
       id="g444" />
  </g>
</svg>
