<?xml version="1.0" encoding="UTF-8" standalone="no"?>
<!-- Created with Inkscape (http://www.inkscape.org/) -->

<svg
   version="1.1"
   id="svg2"
   width="392.71387"
   height="328.46201"
   viewBox="0 0 392.71387 328.46201"
   xmlns="http://www.w3.org/2000/svg"
   xmlns:svg="http://www.w3.org/2000/svg">
  <defs
     id="defs6" />
  <g
     id="g8"
     transform="matrix(1.3333333,0,0,-1.3333333,1.3333333,327.12867)">
    <g
       id="g10">
      <g
         id="g12" />
    </g>
    <g
       id="g14">
      <g
         id="g16" />
    </g>
    <g
       id="g18">
      <g
         id="g20" />
      <g
         id="g22" />
    </g>
    <g
       id="g24">
      <g
         id="g26" />
      <g
         id="g28" />
    </g>
    <g
       id="g30">
      <g
         id="g32" />
      <g
         id="g34" />
    </g>
    <g
       id="g36">
      <g
         id="g38" />
      <g
         id="g40" />
    </g>
    <g
       id="g42">
      <g
         id="g44" />
      <g
         id="g46" />
    </g>
    <g
       id="g48">
      <g
         id="g50" />
      <g
         id="g52" />
    </g>
    <g
       id="g54">
      <g
         id="g56" />
      <g
         id="g58" />
    </g>
    <g
       id="g60">
      <g
         id="g62" />
      <g
         id="g64" />
    </g>
    <g
       id="g66">
      <g
         id="g68" />
    </g>
    <g
       id="g70">
      <g
         id="g72" />
      <g
         id="g74" />
    </g>
    <g
       id="g76">
      <g
         id="g78" />
      <g
         id="g80" />
    </g>
    <g
       id="g82">
      <g
         id="g84" />
      <g
         id="g86" />
    </g>
    <g
       id="g88">
      <g
         id="g90" />
      <g
         id="g92" />
    </g>
    <g
       id="g94">
      <g
         id="g96" />
    </g>
    <g
       id="g98">
      <g
         id="g100" />
      <g
         id="g102" />
    </g>
    <g
       id="g104">
      <g
         id="g106" />
      <g
         id="g108" />
    </g>
    <g
       id="g110">
      <g
         id="g112" />
      <g
         id="g114" />
    </g>
    <g
       id="g116">
      <g
         id="g118" />
      <g
         id="g120" />
    </g>
    <g
       id="g122">
      <g
         id="g124" />
    </g>
    <g
       id="g126">
      <g
         id="g128" />
      <g
         id="g130" />
    </g>
    <g
       id="g132">
      <g
         id="g134" />
      <g
         id="g136" />
    </g>
    <g
       id="g138">
      <g
         id="g140" />
      <g
         id="g142" />
    </g>
    <g
       id="g144">
      <g
         id="g146" />
      <g
         id="g148" />
    </g>
    <g
       id="g150">
      <g
         id="g152" />
    </g>
    <g
       id="g154">
      <g
         id="g156" />
      <g
         id="g158" />
    </g>
    <g
       id="g160">
      <g
         id="g162" />
      <g
         id="g164" />
    </g>
    <g
       id="g166">
      <g
         id="g168" />
      <g
         id="g170" />
    </g>
    <g
       id="g172">
      <g
         id="g174" />
      <g
         id="g176" />
    </g>
    <g
       id="g178">
      <g
         id="g180" />
    </g>
    <g
       id="g182">
      <g
         id="g184" />
      <g
         id="g186" />
    </g>
    <g
       id="g188">
      <g
         id="g190" />
      <g
         id="g192" />
    </g>
    <g
       id="g194">
      <g
         id="g196" />
      <g
         id="g198" />
    </g>
    <g
       id="g200">
      <g
         id="g202" />
      <g
         id="g204" />
    </g>
    <g
       id="g206">
      <g
         id="g208" />
      <g
         id="g210" />
    </g>
    <g
       id="g212" />
    <g
       id="g214">
      <g
         id="g216" />
      <g
         id="g218" />
    </g>
    <g
       id="g220">
      <g
         id="g222" />
      <g
         id="g224" />
    </g>
    <g
       id="g226">
      <g
         id="g228" />
      <g
         id="g230" />
    </g>
    <g
       id="g232">
      <g
         id="g234" />
    </g>
    <g
       id="g236">
      <g
         id="g238" />
      <g
         id="g240" />
    </g>
    <g
       id="g242">
      <g
         id="g244" />
      <g
         id="g246" />
    </g>
    <g
       id="g248">
      <g
         id="g250" />
      <g
         id="g252" />
    </g>
    <g
       id="g254">
      <g
         id="g256" />
      <g
         id="g258" />
    </g>
    <g
       id="g260">
      <g
         id="g262" />
    </g>
    <g
       id="g264">
      <g
         id="g266" />
      <g
         id="g268" />
    </g>
    <g
       id="g270">
      <g
         id="g272" />
      <g
         id="g274" />
    </g>
    <g
       id="g276">
      <g
         id="g278" />
      <g
         id="g280" />
    </g>
    <g
       id="g282">
      <g
         id="g284" />
      <g
         id="g286" />
    </g>
    <g
       id="g288">
      <g
         id="g290" />
      <g
         id="g292" />
    </g>
    <g
       id="g294">
      <g
         id="g296" />
      <g
         id="g298" />
      <g
         id="g300" />
    </g>
    <g
       id="g302">
      <g
         id="g304" />
      <g
         id="g306" />
      <g
         id="g308" />
    </g>
    <g
       id="g310">
      <g
         id="g312" />
      <g
         id="g314" />
      <g
         id="g316" />
    </g>
    <g
       id="g318">
      <g
         id="g320" />
      <g
         id="g322" />
      <g
         id="g324" />
    </g>
    <g
       id="g326">
      <g
         id="g328" />
      <g
         id="g330" />
    </g>
    <g
       id="g332">
      <g
         id="g334" />
      <g
         id="g336" />
      <g
         id="g338" />
    </g>
    <g
       id="g340">
      <g
         id="g342" />
      <g
         id="g344" />
      <g
         id="g346" />
    </g>
    <g
       id="g348">
      <g
         id="g350" />
      <g
         id="g352" />
      <g
         id="g354" />
    </g>
    <g
       id="g356">
      <g
         id="g358" />
      <g
         id="g360" />
      <g
         id="g362" />
    </g>
    <g
       id="g364" />
    <g
       id="g366" />
    <g
       id="g368" />
    <g
       id="g370" />
    <g
       id="g372" />
    <g
       id="g374" />
    <g
       id="g376" />
    <g
       id="g378" />
    <g
       id="g380">
      <path
         d="m 14.4567,244.063 h 263.622 c 7.7953,0 14.1733,-6.3774 14.1733,-14.1735 V 14.457 c 0,-7.7956 -6.378,-14.1735 -14.1733,-14.1735 H 14.4567 C 6.6614,0.2835 0.2835,6.6614 0.2835,14.457 v 215.4325 c 0,7.7961 6.3779,14.1735 14.1732,14.1735 z"
         style="fill:none;stroke:#1a1a18;stroke-width:0.5669;stroke-linecap:butt;stroke-linejoin:miter;stroke-miterlimit:22.9256;stroke-dasharray:none;stroke-opacity:1"
         id="path382" />
      <path
         d="m 131.3861,219.9685 h 7.795 c 0,3.9141 3.1725,7.0869 7.0866,7.0869 3.9141,0 7.0866,-3.1728 7.0866,-7.0869 h 7.7953 c 2.7284,0 4.9606,-2.232 4.9606,-4.9606 v 0 c 0,-2.7281 -2.2322,-4.9604 -4.9606,-4.9604 h -29.7635 c -2.7286,0 -4.9609,2.2323 -4.9609,4.9604 v 0 c 0,2.7286 2.2323,4.9606 4.9609,4.9606 z"
         style="fill:none;stroke:#1a1a18;stroke-width:0.5669;stroke-linecap:butt;stroke-linejoin:miter;stroke-miterlimit:22.9256;stroke-dasharray:none;stroke-opacity:1"
         id="path384" />
      <path
         d="m 109.6574,116.3999 h 2.384 v -4.7279 l 4.4319,4.7279 h 3.1093 l -4.7038,-4.752 4.9465,-6.768 h -3.0932 l -3.5441,5.019 -1.1466,-1.1653 v -3.8537 h -2.384 z"
         style="fill:#000004;fill-opacity:1;fill-rule:nonzero;stroke:none"
         id="path386" />
      <path
         d="m 124.8094,106.4483 c 0.648,0 1.1467,0.2316 1.4959,0.6928 0.3492,0.4643 0.5227,1.1228 0.5227,1.9763 0,0.8507 -0.1735,1.5092 -0.5227,1.9681 -0.3492,0.4612 -0.8479,0.6905 -1.4959,0.6905 -0.6508,0 -1.152,-0.2293 -1.504,-0.6905 -0.3495,-0.4589 -0.5253,-1.1174 -0.5253,-1.9681 0,-0.8535 0.1758,-1.512 0.5253,-1.9763 0.352,-0.4612 0.8532,-0.6928 1.504,-0.6928 z m 4.3546,2.6768 c 0,-1.2476 -0.36,-2.3168 -1.0774,-3.2026 -0.72,-0.8878 -1.8105,-1.3306 -3.2746,-1.3306 -1.4641,0 -2.5546,0.4428 -3.2746,1.3306 -0.7174,0.8858 -1.0774,1.955 -1.0774,3.2026 0,1.2268 0.36,2.2909 1.0774,3.1898 0.72,0.8983 1.8105,1.349 3.2746,1.349 1.4641,0 2.5546,-0.4507 3.2746,-1.349 0.7174,-0.8989 1.0774,-1.963 1.0774,-3.1898"
         style="fill:#000004;fill-opacity:1;fill-rule:nonzero;stroke:none"
         id="path388" />
      <path
         d="m 133.0333,104.8799 h -2.224 v 11.5041 h 2.224 z"
         style="fill:#000004;fill-opacity:1;fill-rule:nonzero;stroke:none"
         id="path390" />
      <path
         d="m 139.028,106.4483 c 0.648,0 1.1466,0.2316 1.4959,0.6928 0.3492,0.4643 0.5227,1.1228 0.5227,1.9763 0,0.8507 -0.1735,1.5092 -0.5227,1.9681 -0.3493,0.4612 -0.8479,0.6905 -1.4959,0.6905 -0.6508,0 -1.152,-0.2293 -1.504,-0.6905 -0.3495,-0.4589 -0.5253,-1.1174 -0.5253,-1.9681 0,-0.8535 0.1758,-1.512 0.5253,-1.9763 0.352,-0.4612 0.8532,-0.6928 1.504,-0.6928 z m 4.3546,2.6768 c 0,-1.2476 -0.36,-2.3168 -1.0774,-3.2026 -0.72,-0.8878 -1.8105,-1.3306 -3.2746,-1.3306 -1.4641,0 -2.5546,0.4428 -3.2746,1.3306 -0.7174,0.8858 -1.0774,1.955 -1.0774,3.2026 0,1.2268 0.36,2.2909 1.0774,3.1898 0.72,0.8983 1.8105,1.349 3.2746,1.349 1.4641,0 2.5546,-0.4507 3.2746,-1.349 0.7174,-0.8989 1.0774,-1.963 1.0774,-3.1898"
         style="fill:#000004;fill-opacity:1;fill-rule:nonzero;stroke:none"
         id="path392" />
      <path
         d="m 149.7025,113.6001 c 0.8773,0 1.5947,-0.2321 2.152,-0.6936 0.5573,-0.4638 0.8374,-1.2263 0.8374,-2.2958 v -5.7308 h -2.2882 v 5.1761 c 0,0.4481 -0.0586,0.792 -0.1785,1.0318 -0.216,0.4374 -0.6319,0.6562 -1.2427,0.6562 -0.7492,0 -1.2666,-0.32 -1.5441,-0.9601 -0.1465,-0.3387 -0.2185,-0.7707 -0.2185,-1.296 v -4.608 h -2.2241 v 8.496 h 2.16 v -1.2427 c 0.2855,0.4402 0.5548,0.7577 0.8107,0.9496 0.4561,0.3441 1.0347,0.5173 1.736,0.5173"
         style="fill:#000004;fill-opacity:1;fill-rule:nonzero;stroke:none"
         id="path394" />
      <path
         d="m 159.4757,113.6001 c 0.8774,0 1.5948,-0.2321 2.1521,-0.6936 0.5573,-0.4638 0.8374,-1.2263 0.8374,-2.2958 v -5.7308 h -2.2882 v 5.1761 c 0,0.4481 -0.0586,0.792 -0.1785,1.0318 -0.216,0.4374 -0.6319,0.6562 -1.2428,0.6562 -0.7491,0 -1.2665,-0.32 -1.544,-0.9601 -0.1465,-0.3387 -0.2185,-0.7707 -0.2185,-1.296 v -4.608 h -2.2241 v 8.496 h 2.16 v -1.2427 c 0.2855,0.4402 0.5547,0.7577 0.8107,0.9496 0.4561,0.3441 1.0347,0.5173 1.7359,0.5173"
         style="fill:#000004;fill-opacity:1;fill-rule:nonzero;stroke:none"
         id="path396" />
      <path
         d="m 168.0517,111.776 c -0.5732,0 -1.016,-0.1573 -1.3306,-0.4745 -0.3146,-0.3149 -0.5148,-0.7441 -0.5947,-1.2855 h 3.8401 c -0.04,0.576 -0.2373,1.0131 -0.5947,1.3119 -0.3546,0.299 -0.7946,0.4481 -1.3201,0.4481 z m 0.0133,1.8559 c 0.7416,0 1.408,-0.133 2.0001,-0.3972 0.5947,-0.2667 1.0826,-0.6854 1.4692,-1.2588 0.3495,-0.5063 0.576,-1.0931 0.6775,-1.7598 0.0612,-0.3892 0.0853,-0.9521 0.0746,-1.688 h -6.2079 c 0.0346,-0.8589 0.3305,-1.4613 0.8906,-1.8054 0.3388,-0.216 0.7467,-0.3226 1.2266,-0.3226 0.5068,0 0.9173,0.1307 1.2348,0.3895 0.1732,0.1409 0.3254,0.3359 0.4586,0.5865 h 2.2853 c -0.0587,-0.5066 -0.3359,-1.0185 -0.824,-1.5412 -0.7626,-0.8297 -1.8292,-1.243 -3.2001,-1.243 -1.1333,0 -2.133,0.3495 -2.997,1.048 -0.8669,0.699 -1.2989,1.8374 -1.2989,3.4132 0,1.4774 0.3895,2.6084 1.1707,3.3973 0.7813,0.7869 1.7946,1.1815 3.0399,1.1815"
         style="fill:#000004;fill-opacity:1;fill-rule:nonzero;stroke:none"
         id="path398" />
      <path
         d="m 177.9344,112.6882 v 1.5197 c 0.7013,0.032 1.192,0.0776 1.4746,0.1414 0.4453,0.0987 0.8107,0.2962 1.0905,0.5919 0.1922,0.2055 0.3387,0.4748 0.4374,0.8135 0.0561,0.2027 0.0853,0.3544 0.0853,0.4533 h 1.8561 v -11.3281 h -2.272 v 7.8083 z"
         style="fill:#000004;fill-opacity:1;fill-rule:nonzero;stroke:none"
         id="path400" />
      <path
         d="m 108.5533,94.4002 h 2.384 V 89.672 l 4.4319,4.7282 h 3.1094 l -4.7039,-4.752 4.9465,-6.768 h -3.0932 l -3.5441,5.0185 -1.1466,-1.1651 v -3.8534 h -2.384 z"
         style="fill:#000004;fill-opacity:1;fill-rule:nonzero;stroke:none"
         id="path402" />
      <path
         d="m 123.7054,84.4481 c 0.648,0 1.1466,0.2321 1.4958,0.6933 0.3492,0.4638 0.5227,1.1228 0.5227,1.9758 0,0.8509 -0.1735,1.5097 -0.5227,1.9683 -0.3492,0.4612 -0.8478,0.6903 -1.4958,0.6903 -0.6509,0 -1.152,-0.2291 -1.5041,-0.6903 -0.3495,-0.4586 -0.5253,-1.1174 -0.5253,-1.9683 0,-0.853 0.1758,-1.512 0.5253,-1.9758 0.3521,-0.4612 0.8532,-0.6933 1.5041,-0.6933 z m 4.3545,2.677 c 0,-1.2478 -0.36,-2.317 -1.0774,-3.2023 -0.72,-0.8881 -1.8105,-1.3306 -3.2746,-1.3306 -1.4641,0 -2.5546,0.4425 -3.2746,1.3306 -0.7174,0.8853 -1.0774,1.9545 -1.0774,3.2023 0,1.2271 0.36,2.2907 1.0774,3.1898 0.72,0.8986 1.8105,1.3493 3.2746,1.3493 1.4641,0 2.5546,-0.4507 3.2746,-1.3493 0.7174,-0.8991 1.0774,-1.9627 1.0774,-3.1898"
         style="fill:#000004;fill-opacity:1;fill-rule:nonzero;stroke:none"
         id="path404" />
      <path
         d="m 131.9292,82.8802 h -2.224 v 11.5036 h 2.224 z"
         style="fill:#000004;fill-opacity:1;fill-rule:nonzero;stroke:none"
         id="path406" />
      <path
         d="m 137.9239,84.4481 c 0.648,0 1.1467,0.2321 1.4959,0.6933 0.3492,0.4638 0.5227,1.1228 0.5227,1.9758 0,0.8509 -0.1735,1.5097 -0.5227,1.9683 -0.3492,0.4612 -0.8479,0.6903 -1.4959,0.6903 -0.6508,0 -1.152,-0.2291 -1.504,-0.6903 -0.3495,-0.4586 -0.5253,-1.1174 -0.5253,-1.9683 0,-0.853 0.1758,-1.512 0.5253,-1.9758 0.352,-0.4612 0.8532,-0.6933 1.504,-0.6933 z m 4.3546,2.677 c 0,-1.2478 -0.36,-2.317 -1.0774,-3.2023 -0.72,-0.8881 -1.8105,-1.3306 -3.2746,-1.3306 -1.4641,0 -2.5546,0.4425 -3.2746,1.3306 -0.7174,0.8853 -1.0774,1.9545 -1.0774,3.2023 0,1.2271 0.36,2.2907 1.0774,3.1898 0.72,0.8986 1.8105,1.3493 3.2746,1.3493 1.4641,0 2.5546,-0.4507 3.2746,-1.3493 0.7174,-0.8991 1.0774,-1.9627 1.0774,-3.1898"
         style="fill:#000004;fill-opacity:1;fill-rule:nonzero;stroke:none"
         id="path408" />
      <path
         d="m 148.5984,91.5999 c 0.8773,0 1.5947,-0.2319 2.152,-0.6931 0.5573,-0.4643 0.8374,-1.2268 0.8374,-2.2961 v -5.7305 h -2.2881 v 5.1758 c 0,0.4479 -0.0587,0.792 -0.1786,1.0321 -0.216,0.4371 -0.6319,0.6559 -1.2427,0.6559 -0.7492,0 -1.2666,-0.32 -1.5441,-0.9598 -0.1465,-0.339 -0.2185,-0.771 -0.2185,-1.296 v -4.608 h -2.2241 v 8.496 h 2.16 v -1.2427 c 0.2855,0.4397 0.5548,0.7574 0.8107,0.9493 0.4561,0.3439 1.0347,0.5171 1.736,0.5171"
         style="fill:#000004;fill-opacity:1;fill-rule:nonzero;stroke:none"
         id="path410" />
      <path
         d="m 158.3717,91.5999 c 0.8773,0 1.5947,-0.2319 2.152,-0.6931 0.5573,-0.4643 0.8374,-1.2268 0.8374,-2.2961 v -5.7305 h -2.2882 v 5.1758 c 0,0.4479 -0.0586,0.792 -0.1785,1.0321 -0.216,0.4371 -0.6319,0.6559 -1.2427,0.6559 -0.7492,0 -1.2666,-0.32 -1.5441,-0.9598 -0.1465,-0.339 -0.2185,-0.771 -0.2185,-1.296 v -4.608 h -2.2241 v 8.496 h 2.16 v -1.2427 c 0.2855,0.4397 0.5547,0.7574 0.8107,0.9493 0.4561,0.3439 1.0347,0.5171 1.736,0.5171"
         style="fill:#000004;fill-opacity:1;fill-rule:nonzero;stroke:none"
         id="path412" />
      <path
         d="m 166.9476,89.7758 c -0.5732,0 -1.0159,-0.1571 -1.3306,-0.4743 -0.3146,-0.3146 -0.5148,-0.7443 -0.5947,-1.2852 h 3.8401 c -0.04,0.576 -0.2373,1.0131 -0.5947,1.3116 -0.3546,0.2988 -0.7946,0.4479 -1.3201,0.4479 z m 0.0133,1.8561 c 0.7416,0 1.408,-0.1332 2.0001,-0.3974 0.5947,-0.2665 1.0826,-0.6854 1.4692,-1.2586 0.3495,-0.5063 0.576,-1.0933 0.6775,-1.76 0.0612,-0.3892 0.0853,-0.9519 0.0746,-1.6878 h -6.2079 c 0.0346,-0.8586 0.3305,-1.4615 0.8906,-1.8054 0.3388,-0.216 0.7467,-0.3228 1.2266,-0.3228 0.5068,0 0.9173,0.1309 1.2348,0.3897 0.1732,0.1412 0.3254,0.3359 0.4586,0.5865 h 2.2853 c -0.0587,-0.5068 -0.3359,-1.0185 -0.824,-1.5412 -0.7626,-0.8294 -1.8292,-1.2427 -3.2001,-1.2427 -1.1333,0 -2.133,0.349 -2.997,1.0477 -0.8669,0.699 -1.2989,1.8377 -1.2989,3.4132 0,1.4777 0.3895,2.6084 1.1707,3.3976 0.7813,0.7869 1.7947,1.1812 3.0399,1.1812"
         style="fill:#000004;fill-opacity:1;fill-rule:nonzero;stroke:none"
         id="path414" />
      <path
         d="m 176.2223,82.8802 c 0.0212,0.813 0.1973,1.5571 0.5252,2.2292 0.3172,0.7546 1.0693,1.5545 2.2533,2.3947 1.0267,0.7333 1.6934,1.2586 1.9947,1.5758 0.4666,0.4932 0.6988,1.0321 0.6988,1.6214 0,0.4776 -0.1335,0.8745 -0.4,1.1922 -0.2667,0.3172 -0.648,0.4743 -1.1441,0.4743 -0.68,0 -1.144,-0.2529 -1.3892,-0.7569 -0.1415,-0.2908 -0.2242,-0.752 -0.2509,-1.3867 h -2.16 c 0.0374,0.9624 0.2106,1.7413 0.5256,2.3358 0.5918,1.1307 1.6477,1.6962 3.1651,1.6962 1.1999,0 2.1521,-0.3308 2.8613,-0.9947 0.7092,-0.6644 1.0641,-1.5417 1.0641,-2.6348 0,-0.8376 -0.2508,-1.5814 -0.752,-2.232 -0.328,-0.432 -0.8668,-0.9119 -1.6186,-1.4428 l -0.8909,-0.6321 c -0.5598,-0.3946 -0.9411,-0.6795 -1.1466,-0.8558 -0.2078,-0.176 -0.3813,-0.3813 -0.5224,-0.6157 h 4.9464 v -1.9681 z"
         style="fill:#000004;fill-opacity:1;fill-rule:nonzero;stroke:none"
         id="path416" />
    </g>
    <g
       id="g418" />
    <g
       id="g420" />
    <g
       id="g422" />
    <g
       id="g424" />
    <g
       id="g426" />
    <g
       id="g428" />
  </g>
</svg>
