<?xml version="1.0" encoding="UTF-8" standalone="no"?>
<!-- Created with Inkscape (http://www.inkscape.org/) -->

<svg
   version="1.1"
   id="svg2"
   width="392.71387"
   height="328.46161"
   viewBox="0 0 392.71387 328.46161"
   xmlns="http://www.w3.org/2000/svg"
   xmlns:svg="http://www.w3.org/2000/svg">
  <defs
     id="defs6" />
  <g
     id="g8"
     transform="matrix(1.3333333,0,0,-1.3333333,1.3333333,327.12827)">
    <g
       id="g10">
      <g
         id="g12" />
    </g>
    <g
       id="g14">
      <g
         id="g16" />
    </g>
    <g
       id="g18">
      <g
         id="g20" />
      <g
         id="g22" />
    </g>
    <g
       id="g24">
      <g
         id="g26" />
      <g
         id="g28" />
    </g>
    <g
       id="g30">
      <g
         id="g32" />
      <g
         id="g34" />
    </g>
    <g
       id="g36">
      <g
         id="g38" />
      <g
         id="g40" />
    </g>
    <g
       id="g42">
      <g
         id="g44" />
      <g
         id="g46" />
    </g>
    <g
       id="g48">
      <g
         id="g50" />
      <g
         id="g52" />
    </g>
    <g
       id="g54">
      <g
         id="g56" />
      <g
         id="g58" />
    </g>
    <g
       id="g60">
      <g
         id="g62" />
      <g
         id="g64" />
    </g>
    <g
       id="g66">
      <g
         id="g68" />
    </g>
    <g
       id="g70">
      <g
         id="g72" />
      <g
         id="g74" />
    </g>
    <g
       id="g76">
      <g
         id="g78" />
      <g
         id="g80" />
    </g>
    <g
       id="g82">
      <g
         id="g84" />
      <g
         id="g86" />
    </g>
    <g
       id="g88">
      <g
         id="g90" />
      <g
         id="g92" />
    </g>
    <g
       id="g94">
      <g
         id="g96" />
    </g>
    <g
       id="g98">
      <g
         id="g100" />
      <g
         id="g102" />
    </g>
    <g
       id="g104">
      <g
         id="g106" />
      <g
         id="g108" />
    </g>
    <g
       id="g110">
      <g
         id="g112" />
      <g
         id="g114" />
    </g>
    <g
       id="g116">
      <g
         id="g118" />
      <g
         id="g120" />
    </g>
    <g
       id="g122">
      <g
         id="g124" />
    </g>
    <g
       id="g126">
      <g
         id="g128" />
      <g
         id="g130" />
    </g>
    <g
       id="g132">
      <g
         id="g134" />
      <g
         id="g136" />
    </g>
    <g
       id="g138">
      <g
         id="g140" />
      <g
         id="g142" />
    </g>
    <g
       id="g144">
      <g
         id="g146" />
      <g
         id="g148" />
    </g>
    <g
       id="g150">
      <g
         id="g152" />
    </g>
    <g
       id="g154">
      <g
         id="g156" />
      <g
         id="g158" />
    </g>
    <g
       id="g160">
      <g
         id="g162" />
      <g
         id="g164" />
    </g>
    <g
       id="g166">
      <g
         id="g168" />
      <g
         id="g170" />
    </g>
    <g
       id="g172">
      <g
         id="g174" />
      <g
         id="g176" />
    </g>
    <g
       id="g178">
      <g
         id="g180" />
    </g>
    <g
       id="g182">
      <g
         id="g184" />
      <g
         id="g186" />
    </g>
    <g
       id="g188">
      <g
         id="g190" />
      <g
         id="g192" />
    </g>
    <g
       id="g194">
      <g
         id="g196" />
      <g
         id="g198" />
    </g>
    <g
       id="g200">
      <g
         id="g202" />
      <g
         id="g204" />
    </g>
    <g
       id="g206">
      <g
         id="g208" />
      <g
         id="g210" />
    </g>
    <g
       id="g212" />
    <g
       id="g214">
      <g
         id="g216" />
      <g
         id="g218" />
    </g>
    <g
       id="g220">
      <g
         id="g222" />
      <g
         id="g224" />
    </g>
    <g
       id="g226">
      <g
         id="g228" />
      <g
         id="g230" />
    </g>
    <g
       id="g232">
      <g
         id="g234" />
    </g>
    <g
       id="g236">
      <g
         id="g238" />
      <g
         id="g240" />
    </g>
    <g
       id="g242">
      <g
         id="g244" />
      <g
         id="g246" />
    </g>
    <g
       id="g248">
      <g
         id="g250" />
      <g
         id="g252" />
    </g>
    <g
       id="g254">
      <g
         id="g256" />
      <g
         id="g258" />
    </g>
    <g
       id="g260">
      <g
         id="g262" />
    </g>
    <g
       id="g264">
      <g
         id="g266" />
      <g
         id="g268" />
    </g>
    <g
       id="g270">
      <g
         id="g272" />
      <g
         id="g274" />
    </g>
    <g
       id="g276">
      <g
         id="g278" />
      <g
         id="g280" />
    </g>
    <g
       id="g282">
      <g
         id="g284" />
      <g
         id="g286" />
    </g>
    <g
       id="g288">
      <g
         id="g290" />
      <g
         id="g292" />
    </g>
    <g
       id="g294">
      <g
         id="g296" />
      <g
         id="g298" />
      <g
         id="g300" />
    </g>
    <g
       id="g302">
      <g
         id="g304" />
      <g
         id="g306" />
      <g
         id="g308" />
    </g>
    <g
       id="g310">
      <g
         id="g312" />
      <g
         id="g314" />
      <g
         id="g316" />
    </g>
    <g
       id="g318">
      <g
         id="g320" />
      <g
         id="g322" />
      <g
         id="g324" />
    </g>
    <g
       id="g326">
      <g
         id="g328" />
      <g
         id="g330" />
    </g>
    <g
       id="g332">
      <g
         id="g334" />
      <g
         id="g336" />
      <g
         id="g338" />
    </g>
    <g
       id="g340">
      <g
         id="g342" />
      <g
         id="g344" />
      <g
         id="g346" />
    </g>
    <g
       id="g348">
      <g
         id="g350" />
      <g
         id="g352" />
      <g
         id="g354" />
    </g>
    <g
       id="g356">
      <g
         id="g358" />
      <g
         id="g360" />
      <g
         id="g362" />
    </g>
    <g
       id="g364" />
    <g
       id="g366" />
    <g
       id="g368" />
    <g
       id="g370" />
    <g
       id="g372" />
    <g
       id="g374">
      <path
         d="m 14.4567,244.0627 h 263.622 c 7.7953,0 14.1733,-6.3777 14.1733,-14.1732 V 14.457 c 0,-7.7961 -6.378,-14.1735 -14.1733,-14.1735 H 14.4567 C 6.6614,0.2835 0.2835,6.6609 0.2835,14.457 v 215.4325 c 0,7.7955 6.3779,14.1732 14.1732,14.1732 z"
         style="fill:none;stroke:#1a1a18;stroke-width:0.5669;stroke-linecap:butt;stroke-linejoin:miter;stroke-miterlimit:22.9256;stroke-dasharray:none;stroke-opacity:1"
         id="path376" />
      <path
         d="m 131.3861,219.9682 h 7.795 c 0,3.9144 3.1725,7.0866 7.0866,7.0866 3.9141,0 7.0866,-3.1722 7.0866,-7.0866 h 7.7953 c 2.7284,0 4.9606,-2.2323 4.9606,-4.9603 v 0 c 0,-2.7287 -2.2322,-4.9607 -4.9606,-4.9607 h -29.7635 c -2.7286,0 -4.9609,2.232 -4.9609,4.9607 v 0 c 0,2.728 2.2323,4.9603 4.9609,4.9603 z"
         style="fill:none;stroke:#1a1a18;stroke-width:0.5669;stroke-linecap:butt;stroke-linejoin:miter;stroke-miterlimit:22.9256;stroke-dasharray:none;stroke-opacity:1"
         id="path378" />
      <path
         d="m 108.5613,174.6009 h 2.3839 v -4.728 l 4.432,4.728 h 3.1093 l -4.7038,-4.752 4.9464,-6.768 h -3.0931 l -3.5442,5.019 -1.1466,-1.1653 v -3.8537 h -2.3839 z"
         style="fill:#000004;fill-opacity:1;fill-rule:nonzero;stroke:none"
         id="path380" />
      <path
         d="m 123.7133,164.6493 c 0.648,0 1.1466,0.2316 1.4958,0.6927 0.3493,0.4644 0.5227,1.1229 0.5227,1.9764 0,0.8504 -0.1734,1.5091 -0.5227,1.9681 -0.3492,0.4612 -0.8478,0.6905 -1.4958,0.6905 -0.6508,0 -1.152,-0.2293 -1.5041,-0.6905 -0.3495,-0.459 -0.5252,-1.1177 -0.5252,-1.9681 0,-0.8535 0.1757,-1.512 0.5252,-1.9764 0.3521,-0.4611 0.8533,-0.6927 1.5041,-0.6927 z m 4.3546,2.6767 c 0,-1.2475 -0.36,-2.3167 -1.0775,-3.2026 -0.72,-0.8878 -1.8105,-1.3305 -3.2746,-1.3305 -1.4641,0 -2.5545,0.4427 -3.2745,1.3305 -0.7175,0.8859 -1.0775,1.9551 -1.0775,3.2026 0,1.2269 0.36,2.291 1.0775,3.1898 0.72,0.8983 1.8104,1.3491 3.2745,1.3491 1.4641,0 2.5546,-0.4508 3.2746,-1.3491 0.7175,-0.8988 1.0775,-1.9629 1.0775,-3.1898"
         style="fill:#000004;fill-opacity:1;fill-rule:nonzero;stroke:none"
         id="path382" />
      <path
         d="m 131.9372,163.0809 h -2.2241 v 11.5041 h 2.2241 z"
         style="fill:#000004;fill-opacity:1;fill-rule:nonzero;stroke:none"
         id="path384" />
      <path
         d="m 137.9319,164.6493 c 0.648,0 1.1466,0.2316 1.4958,0.6927 0.3492,0.4644 0.5227,1.1229 0.5227,1.9764 0,0.8504 -0.1735,1.5091 -0.5227,1.9681 -0.3492,0.4612 -0.8478,0.6905 -1.4958,0.6905 -0.6509,0 -1.152,-0.2293 -1.5041,-0.6905 -0.3495,-0.459 -0.5252,-1.1177 -0.5252,-1.9681 0,-0.8535 0.1757,-1.512 0.5252,-1.9764 0.3521,-0.4611 0.8532,-0.6927 1.5041,-0.6927 z m 4.3546,2.6767 c 0,-1.2475 -0.36,-2.3167 -1.0775,-3.2026 -0.72,-0.8878 -1.8105,-1.3305 -3.2746,-1.3305 -1.4641,0 -2.5546,0.4427 -3.2746,1.3305 -0.7174,0.8859 -1.0774,1.9551 -1.0774,3.2026 0,1.2269 0.36,2.291 1.0774,3.1898 0.72,0.8983 1.8105,1.3491 3.2746,1.3491 1.4641,0 2.5546,-0.4508 3.2746,-1.3491 0.7175,-0.8988 1.0775,-1.9629 1.0775,-3.1898"
         style="fill:#000004;fill-opacity:1;fill-rule:nonzero;stroke:none"
         id="path386" />
      <path
         d="m 148.6063,171.8011 c 0.8773,0 1.5948,-0.2322 2.1521,-0.6937 0.5573,-0.4637 0.8373,-1.2262 0.8373,-2.2957 v -5.7308 h -2.2881 v 5.176 c 0,0.4482 -0.0587,0.792 -0.1786,1.0318 -0.216,0.4374 -0.6318,0.6562 -1.2427,0.6562 -0.7492,0 -1.2665,-0.32 -1.544,-0.96 -0.1466,-0.3388 -0.2186,-0.7708 -0.2186,-1.296 v -4.608 h -2.224 v 8.496 h 2.16 v -1.2428 c 0.2854,0.4403 0.5547,0.7577 0.8107,0.9496 0.4561,0.3442 1.0346,0.5174 1.7359,0.5174"
         style="fill:#000004;fill-opacity:1;fill-rule:nonzero;stroke:none"
         id="path388" />
      <path
         d="m 158.3796,171.8011 c 0.8773,0 1.5948,-0.2322 2.1521,-0.6937 0.5572,-0.4637 0.8373,-1.2262 0.8373,-2.2957 v -5.7308 h -2.2881 v 5.176 c 0,0.4482 -0.0587,0.792 -0.1786,1.0318 -0.216,0.4374 -0.6318,0.6562 -1.2427,0.6562 -0.7492,0 -1.2665,-0.32 -1.544,-0.96 -0.1466,-0.3388 -0.2186,-0.7708 -0.2186,-1.296 v -4.608 h -2.2241 v 8.496 h 2.16 v -1.2428 c 0.2855,0.4403 0.5548,0.7577 0.8108,0.9496 0.456,0.3442 1.0346,0.5174 1.7359,0.5174"
         style="fill:#000004;fill-opacity:1;fill-rule:nonzero;stroke:none"
         id="path390" />
      <path
         d="m 166.9555,169.977 c -0.5731,0 -1.0159,-0.1573 -1.3306,-0.4745 -0.3146,-0.315 -0.5147,-0.7441 -0.5947,-1.2856 h 3.8401 c -0.0399,0.576 -0.2372,1.0131 -0.5947,1.3119 -0.3546,0.2991 -0.7945,0.4482 -1.3201,0.4482 z m 0.0134,1.8558 c 0.7415,0 1.4079,-0.1329 2.0001,-0.3971 0.5947,-0.2668 1.0825,-0.6854 1.4692,-1.2589 0.3495,-0.5062 0.576,-1.093 0.6775,-1.7597 0.0612,-0.3892 0.0853,-0.9522 0.0745,-1.6883 h -6.2079 c 0.0346,-0.8587 0.3306,-1.461 0.8907,-1.8051 0.3387,-0.216 0.7466,-0.3226 1.2265,-0.3226 0.5069,0 0.9173,0.1306 1.2348,0.3895 0.1732,0.1408 0.3254,0.3359 0.4586,0.5862 h 2.2853 c -0.0586,-0.5063 -0.3359,-1.0182 -0.824,-1.541 -0.7625,-0.8297 -1.8292,-1.2429 -3.2,-1.2429 -1.1333,0 -2.1331,0.3495 -2.9971,1.0479 -0.8668,0.699 -1.2988,1.8374 -1.2988,3.4132 0,1.4774 0.3894,2.6085 1.1707,3.3973 0.7812,0.7869 1.7946,1.1815 3.0399,1.1815"
         style="fill:#000004;fill-opacity:1;fill-rule:nonzero;stroke:none"
         id="path392" />
      <path
         d="m 178.342,166.5527 c 0,-0.453 0.072,-0.8319 0.2189,-1.1279 0.2692,-0.5491 0.7571,-0.8237 1.4691,-0.8237 0.4349,0 0.8133,0.1494 1.1387,0.4478 0.3226,0.2985 0.4853,0.7305 0.4853,1.2909 0,0.7439 -0.2985,1.2396 -0.8986,1.4902 -0.3413,0.1417 -0.8798,0.2109 -1.6132,0.2109 v 1.6002 c 0.7172,0.0107 1.2187,0.0796 1.5038,0.2106 0.4907,0.2214 0.7362,0.6641 0.7362,1.3331 0,0.432 -0.1253,0.7844 -0.3762,1.0559 -0.2506,0.2722 -0.6052,0.4082 -1.0613,0.4082 -0.5227,0 -0.9065,-0.1681 -1.152,-0.5012 -0.248,-0.3336 -0.3654,-0.7815 -0.3546,-1.3388 h -2.0801 c 0.0216,0.5624 0.1174,1.0959 0.288,1.5999 0.1815,0.4428 0.4695,0.8532 0.8587,1.2269 0.2908,0.2664 0.6346,0.4694 1.0349,0.6105 0.4,0.1415 0.8932,0.2107 1.4746,0.2107 1.08,0 1.9519,-0.2798 2.6132,-0.84 0.6639,-0.5626 0.9947,-1.3147 0.9947,-2.2589 0,-0.6661 -0.1973,-1.2316 -0.5947,-1.6906 -0.2506,-0.2848 -0.5094,-0.4824 -0.7812,-0.5865 0.2027,0 0.4958,-0.1732 0.8745,-0.5227 0.568,-0.5252 0.8535,-1.2427 0.8535,-2.1517 0,-0.9576 -0.3308,-1.8 -0.9947,-2.5254 -0.6642,-0.7254 -1.6455,-1.0882 -2.9441,-1.0882 -1.6027,0 -2.7147,0.5229 -3.3386,1.5706 -0.328,0.5573 -0.5094,1.2884 -0.5465,2.1892 z"
         style="fill:#000004;fill-opacity:1;fill-rule:nonzero;stroke:none"
         id="path394" />
      <path
         d="m 109.6574,122.1917 h 2.384 v -4.7282 l 4.4319,4.7282 h 3.1093 l -4.7038,-4.752 4.9465,-6.768 h -3.0932 l -3.5441,5.0184 -1.1466,-1.165 v -3.8534 h -2.384 z"
         style="fill:#000004;fill-opacity:1;fill-rule:nonzero;stroke:none"
         id="path396" />
      <path
         d="m 124.8094,112.2398 c 0.648,0 1.1467,0.2319 1.4959,0.6931 0.3492,0.464 0.5227,1.1228 0.5227,1.976 0,0.8507 -0.1735,1.5091 -0.5227,1.9681 -0.3492,0.4612 -0.8479,0.6902 -1.4959,0.6902 -0.6508,0 -1.152,-0.229 -1.504,-0.6902 -0.3495,-0.459 -0.5253,-1.1174 -0.5253,-1.9681 0,-0.8532 0.1758,-1.512 0.5253,-1.976 0.352,-0.4612 0.8532,-0.6931 1.504,-0.6931 z m 4.3546,2.6767 c 0,-1.2478 -0.36,-2.3167 -1.0774,-3.2025 -0.72,-0.8879 -1.8105,-1.3303 -3.2746,-1.3303 -1.4641,0 -2.5546,0.4424 -3.2746,1.3303 -0.7174,0.8858 -1.0774,1.9547 -1.0774,3.2025 0,1.2272 0.36,2.2907 1.0774,3.1899 0.72,0.8985 1.8105,1.3493 3.2746,1.3493 1.4641,0 2.5546,-0.4508 3.2746,-1.3493 0.7174,-0.8992 1.0774,-1.9627 1.0774,-3.1899"
         style="fill:#000004;fill-opacity:1;fill-rule:nonzero;stroke:none"
         id="path398" />
      <path
         d="m 133.0333,110.6717 h -2.224 v 11.5035 h 2.224 z"
         style="fill:#000004;fill-opacity:1;fill-rule:nonzero;stroke:none"
         id="path400" />
      <path
         d="m 139.028,112.2398 c 0.648,0 1.1466,0.2319 1.4959,0.6931 0.3492,0.464 0.5227,1.1228 0.5227,1.976 0,0.8507 -0.1735,1.5091 -0.5227,1.9681 -0.3493,0.4612 -0.8479,0.6902 -1.4959,0.6902 -0.6508,0 -1.152,-0.229 -1.504,-0.6902 -0.3495,-0.459 -0.5253,-1.1174 -0.5253,-1.9681 0,-0.8532 0.1758,-1.512 0.5253,-1.976 0.352,-0.4612 0.8532,-0.6931 1.504,-0.6931 z m 4.3546,2.6767 c 0,-1.2478 -0.36,-2.3167 -1.0774,-3.2025 -0.72,-0.8879 -1.8105,-1.3303 -3.2746,-1.3303 -1.4641,0 -2.5546,0.4424 -3.2746,1.3303 -0.7174,0.8858 -1.0774,1.9547 -1.0774,3.2025 0,1.2272 0.36,2.2907 1.0774,3.1899 0.72,0.8985 1.8105,1.3493 3.2746,1.3493 1.4641,0 2.5546,-0.4508 3.2746,-1.3493 0.7174,-0.8992 1.0774,-1.9627 1.0774,-3.1899"
         style="fill:#000004;fill-opacity:1;fill-rule:nonzero;stroke:none"
         id="path402" />
      <path
         d="m 149.7025,119.3916 c 0.8773,0 1.5947,-0.2322 2.152,-0.6936 0.5573,-0.4641 0.8374,-1.2263 0.8374,-2.2958 v -5.7305 h -2.2882 v 5.1757 c 0,0.4482 -0.0586,0.792 -0.1785,1.0318 -0.216,0.4374 -0.6319,0.6563 -1.2427,0.6563 -0.7492,0 -1.2666,-0.3201 -1.5441,-0.9598 -0.1465,-0.3391 -0.2185,-0.7711 -0.2185,-1.296 v -4.608 h -2.2241 v 8.496 h 2.16 v -1.2428 c 0.2855,0.44 0.5548,0.7575 0.8107,0.9494 0.4561,0.3438 1.0347,0.5173 1.736,0.5173"
         style="fill:#000004;fill-opacity:1;fill-rule:nonzero;stroke:none"
         id="path404" />
      <path
         d="m 159.4757,119.3916 c 0.8774,0 1.5948,-0.2322 2.1521,-0.6936 0.5573,-0.4641 0.8374,-1.2263 0.8374,-2.2958 v -5.7305 h -2.2882 v 5.1757 c 0,0.4482 -0.0586,0.792 -0.1785,1.0318 -0.216,0.4374 -0.6319,0.6563 -1.2428,0.6563 -0.7491,0 -1.2665,-0.3201 -1.544,-0.9598 -0.1465,-0.3391 -0.2185,-0.7711 -0.2185,-1.296 v -4.608 h -2.2241 v 8.496 h 2.16 v -1.2428 c 0.2855,0.44 0.5547,0.7575 0.8107,0.9494 0.4561,0.3438 1.0347,0.5173 1.7359,0.5173"
         style="fill:#000004;fill-opacity:1;fill-rule:nonzero;stroke:none"
         id="path406" />
      <path
         d="m 168.0517,117.5672 c -0.5732,0 -1.016,-0.157 -1.3306,-0.4742 -0.3146,-0.315 -0.5148,-0.7441 -0.5947,-1.2853 h 3.8401 c -0.04,0.576 -0.2373,1.0132 -0.5947,1.3116 -0.3546,0.2988 -0.7946,0.4479 -1.3201,0.4479 z m 0.0133,1.8561 c 0.7416,0 1.408,-0.1332 2.0001,-0.3974 0.5947,-0.2664 1.0826,-0.6851 1.4692,-1.2586 0.3495,-0.5062 0.576,-1.0933 0.6775,-1.7597 0.0612,-0.3895 0.0853,-0.9522 0.0746,-1.688 h -6.2079 c 0.0346,-0.8587 0.3305,-1.4616 0.8906,-1.8054 0.3388,-0.216 0.7467,-0.3226 1.2266,-0.3226 0.5068,0 0.9173,0.1307 1.2348,0.3895 0.1732,0.1409 0.3254,0.3359 0.4586,0.5865 h 2.2853 c -0.0587,-0.5069 -0.3359,-1.0185 -0.824,-1.5412 -0.7626,-0.8295 -1.8292,-1.2427 -3.2001,-1.2427 -1.1333,0 -2.133,0.3492 -2.997,1.0476 -0.8669,0.6991 -1.2989,1.8375 -1.2989,3.4132 0,1.4775 0.3895,2.6085 1.1707,3.3976 0.7813,0.7867 1.7946,1.1812 3.0399,1.1812"
         style="fill:#000004;fill-opacity:1;fill-rule:nonzero;stroke:none"
         id="path408" />
      <path
         d="m 177.9344,118.4797 v 1.5196 c 0.7013,0.0324 1.192,0.0774 1.4746,0.1415 0.4453,0.0986 0.8107,0.2959 1.0905,0.5921 0.1922,0.2053 0.3387,0.4746 0.4374,0.813 0.0561,0.203 0.0853,0.3546 0.0853,0.4536 h 1.8561 v -11.3278 h -2.272 v 7.808 z"
         style="fill:#000004;fill-opacity:1;fill-rule:nonzero;stroke:none"
         id="path410" />
      <path
         d="m 108.5533,100.1917 h 2.384 v -4.7285 l 4.4319,4.7285 h 3.1094 l -4.7039,-4.752 4.9465,-6.768 h -3.0932 l -3.5441,5.0184 -1.1466,-1.1653 v -3.8531 h -2.384 z"
         style="fill:#000004;fill-opacity:1;fill-rule:nonzero;stroke:none"
         id="path412" />
      <path
         d="m 123.7054,90.2395 c 0.648,0 1.1466,0.2322 1.4958,0.6934 0.3492,0.4637 0.5227,1.1228 0.5227,1.9757 0,0.851 -0.1735,1.5098 -0.5227,1.9681 -0.3492,0.4612 -0.8478,0.6905 -1.4958,0.6905 -0.6509,0 -1.152,-0.2293 -1.5041,-0.6905 -0.3495,-0.4583 -0.5253,-1.1171 -0.5253,-1.9681 0,-0.8529 0.1758,-1.512 0.5253,-1.9757 0.3521,-0.4612 0.8532,-0.6934 1.5041,-0.6934 z m 4.3545,2.6774 c 0,-1.2481 -0.36,-2.3174 -1.0774,-3.2026 -0.72,-0.8878 -1.8105,-1.3306 -3.2746,-1.3306 -1.4641,0 -2.5546,0.4428 -3.2746,1.3306 -0.7174,0.8852 -1.0774,1.9545 -1.0774,3.2026 0,1.2268 0.36,2.2903 1.0774,3.1892 0.72,0.8989 1.8105,1.3496 3.2746,1.3496 1.4641,0 2.5546,-0.4507 3.2746,-1.3496 0.7174,-0.8989 1.0774,-1.9624 1.0774,-3.1892"
         style="fill:#000004;fill-opacity:1;fill-rule:nonzero;stroke:none"
         id="path414" />
      <path
         d="m 131.9292,88.6717 h -2.224 v 11.5035 h 2.224 z"
         style="fill:#000004;fill-opacity:1;fill-rule:nonzero;stroke:none"
         id="path416" />
      <path
         d="m 137.9239,90.2395 c 0.648,0 1.1467,0.2322 1.4959,0.6934 0.3492,0.4637 0.5227,1.1228 0.5227,1.9757 0,0.851 -0.1735,1.5098 -0.5227,1.9681 -0.3492,0.4612 -0.8479,0.6905 -1.4959,0.6905 -0.6508,0 -1.152,-0.2293 -1.504,-0.6905 -0.3495,-0.4583 -0.5253,-1.1171 -0.5253,-1.9681 0,-0.8529 0.1758,-1.512 0.5253,-1.9757 0.352,-0.4612 0.8532,-0.6934 1.504,-0.6934 z m 4.3546,2.6774 c 0,-1.2481 -0.36,-2.3174 -1.0774,-3.2026 -0.72,-0.8878 -1.8105,-1.3306 -3.2746,-1.3306 -1.4641,0 -2.5546,0.4428 -3.2746,1.3306 -0.7174,0.8852 -1.0774,1.9545 -1.0774,3.2026 0,1.2268 0.36,2.2903 1.0774,3.1892 0.72,0.8989 1.8105,1.3496 3.2746,1.3496 1.4641,0 2.5546,-0.4507 3.2746,-1.3496 0.7174,-0.8989 1.0774,-1.9624 1.0774,-3.1892"
         style="fill:#000004;fill-opacity:1;fill-rule:nonzero;stroke:none"
         id="path418" />
      <path
         d="m 148.5984,97.3913 c 0.8773,0 1.5947,-0.2316 2.152,-0.693 0.5573,-0.4643 0.8374,-1.2269 0.8374,-2.2964 v -5.7302 h -2.2881 v 5.176 c 0,0.4476 -0.0587,0.792 -0.1786,1.0319 -0.216,0.4373 -0.6319,0.6556 -1.2427,0.6556 -0.7492,0 -1.2666,-0.3195 -1.5441,-0.9595 -0.1465,-0.3388 -0.2185,-0.7708 -0.2185,-1.296 v -4.608 h -2.2241 v 8.496 h 2.16 V 95.925 c 0.2855,0.4396 0.5548,0.7571 0.8107,0.949 0.4561,0.3441 1.0347,0.5173 1.736,0.5173"
         style="fill:#000004;fill-opacity:1;fill-rule:nonzero;stroke:none"
         id="path420" />
      <path
         d="m 158.3717,97.3913 c 0.8773,0 1.5947,-0.2316 2.152,-0.693 0.5573,-0.4643 0.8374,-1.2269 0.8374,-2.2964 v -5.7302 h -2.2882 v 5.176 c 0,0.4476 -0.0586,0.792 -0.1785,1.0319 -0.216,0.4373 -0.6319,0.6556 -1.2427,0.6556 -0.7492,0 -1.2666,-0.3195 -1.5441,-0.9595 -0.1465,-0.3388 -0.2185,-0.7708 -0.2185,-1.296 v -4.608 h -2.2241 v 8.496 h 2.16 V 95.925 c 0.2855,0.4396 0.5547,0.7571 0.8107,0.949 0.4561,0.3441 1.0347,0.5173 1.736,0.5173"
         style="fill:#000004;fill-opacity:1;fill-rule:nonzero;stroke:none"
         id="path422" />
      <path
         d="m 166.9476,95.5672 c -0.5732,0 -1.0159,-0.1573 -1.3306,-0.4745 -0.3146,-0.3143 -0.5148,-0.7441 -0.5947,-1.2849 h 3.8401 c -0.04,0.576 -0.2373,1.0131 -0.5947,1.3119 -0.3546,0.2984 -0.7946,0.4475 -1.3201,0.4475 z m 0.0133,1.8565 c 0.7416,0 1.408,-0.1336 2.0001,-0.3977 0.5947,-0.2668 1.0826,-0.6855 1.4692,-1.2583 0.3495,-0.5069 0.576,-1.0937 0.6775,-1.7604 0.0612,-0.3892 0.0853,-0.9516 0.0746,-1.6877 h -6.2079 c 0.0346,-0.8586 0.3305,-1.4616 0.8906,-1.8057 0.3388,-0.216 0.7467,-0.3226 1.2266,-0.3226 0.5068,0 0.9173,0.1307 1.2348,0.3895 0.1732,0.1415 0.3254,0.3359 0.4586,0.5868 h 2.2853 c -0.0587,-0.5068 -0.3359,-1.0188 -0.824,-1.5415 -0.7626,-0.8291 -1.8292,-1.2424 -3.2001,-1.2424 -1.1333,0 -2.133,0.3489 -2.997,1.048 -0.8669,0.6984 -1.2989,1.8374 -1.2989,3.4132 0,1.4774 0.3895,2.6078 1.1707,3.3973 0.7813,0.7869 1.7947,1.1815 3.0399,1.1815"
         style="fill:#000004;fill-opacity:1;fill-rule:nonzero;stroke:none"
         id="path424" />
      <path
         d="m 176.2223,88.6717 c 0.0212,0.8132 0.1973,1.5571 0.5252,2.2292 0.3172,0.7545 1.0693,1.5548 2.2533,2.3947 1.0267,0.7333 1.6934,1.2585 1.9947,1.5757 0.4666,0.4936 0.6988,1.0321 0.6988,1.6215 0,0.4773 -0.1335,0.8744 -0.4,1.1919 -0.2667,0.3172 -0.648,0.4745 -1.1441,0.4745 -0.68,0 -1.144,-0.2531 -1.3892,-0.7571 -0.1415,-0.2905 -0.2242,-0.7517 -0.2509,-1.3864 h -2.16 c 0.0374,0.9623 0.2106,1.741 0.5256,2.3357 0.5918,1.1308 1.6477,1.6963 3.1651,1.6963 1.1999,0 2.1521,-0.3308 2.8613,-0.995 0.7092,-0.6638 1.0641,-1.5415 1.0641,-2.6348 0,-0.837 -0.2508,-1.5811 -0.752,-2.232 -0.328,-0.432 -0.8668,-0.9119 -1.6186,-1.4422 l -0.8909,-0.6325 c -0.5598,-0.3943 -0.9411,-0.6794 -1.1466,-0.8555 -0.2078,-0.1763 -0.3813,-0.3818 -0.5224,-0.6159 h 4.9464 v -1.9681 z"
         style="fill:#000004;fill-opacity:1;fill-rule:nonzero;stroke:none"
         id="path426" />
      <path
         d="m 121.1451,79.4676 h 1.1381 l -0.8921,-4.1961 5.086,4.1961 h 1.612 l -4.318,-3.4702 2.59,-5.1381 h -1.5179 l -2.0982,4.3181 -1.658,-1.3182 -0.6338,-2.9999 h -1.1362 z"
         style="fill:#000004;fill-opacity:1;fill-rule:nonzero;stroke:none"
         id="path428" />
      <path
         d="m 132.1849,74.0993 c 0.1242,0.5862 0.1321,1.0622 0.0221,1.4301 -0.174,0.5783 -0.6259,0.8683 -1.3521,0.8683 -0.6457,0 -1.1659,-0.2483 -1.5619,-0.7402 -0.396,-0.4921 -0.6701,-1.0859 -0.8181,-1.7798 -0.1397,-0.6682 -0.1119,-1.226 0.0862,-1.6705 0.1959,-0.4459 0.614,-0.6675 1.2498,-0.6675 0.7002,0 1.2362,0.2639 1.6081,0.7937 0.3739,0.528 0.6281,1.1179 0.7659,1.7659 z m 1.1061,0.0304 c -0.214,-1.0123 -0.6381,-1.8482 -1.2699,-2.5081 -0.6341,-0.6599 -1.4681,-0.9902 -2.5022,-0.9902 -0.864,0 -1.4859,0.2923 -1.87,0.8759 -0.3818,0.5843 -0.47,1.368 -0.2639,2.3519 0.2279,1.0542 0.6741,1.8942 1.3419,2.52 0.6682,0.6239 1.4542,0.938 2.3562,0.938 0.8079,0 1.434,-0.2695 1.8779,-0.8095 0.4439,-0.5383 0.5539,-1.332 0.33,-2.378"
         style="fill:#000004;fill-opacity:1;fill-rule:nonzero;stroke:none"
         id="path430" />
      <path
         d="m 135.7109,79.4676 h 1.0559 l -1.8277,-8.6083 h -1.0562 z"
         style="fill:#000004;fill-opacity:1;fill-rule:nonzero;stroke:none"
         id="path432" />
      <path
         d="m 141.5248,74.0993 c 0.1241,0.5862 0.1321,1.0622 0.0221,1.4301 -0.174,0.5783 -0.6259,0.8683 -1.3521,0.8683 -0.6458,0 -1.1659,-0.2483 -1.5619,-0.7402 -0.396,-0.4921 -0.6701,-1.0859 -0.8181,-1.7798 -0.1397,-0.6682 -0.112,-1.226 0.0862,-1.6705 0.1959,-0.4459 0.614,-0.6675 1.2498,-0.6675 0.7001,0 1.2362,0.2639 1.6081,0.7937 0.3739,0.528 0.6281,1.1179 0.7659,1.7659 z m 1.1061,0.0304 c -0.214,-1.0123 -0.6381,-1.8482 -1.27,-2.5081 -0.6341,-0.6599 -1.468,-0.9902 -2.5021,-0.9902 -0.864,0 -1.4859,0.2923 -1.87,0.8759 -0.3818,0.5843 -0.47,1.368 -0.2639,2.3519 0.2279,1.0542 0.6741,1.8942 1.3419,2.52 0.6681,0.6239 1.4542,0.938 2.3562,0.938 0.8078,0 1.434,-0.2695 1.8779,-0.8095 0.4439,-0.5383 0.5539,-1.332 0.33,-2.378"
         style="fill:#000004;fill-opacity:1;fill-rule:nonzero;stroke:none"
         id="path434" />
      <path
         d="m 144.5247,77.1352 h 1.002 l -0.1879,-0.8917 c 0.3759,0.3682 0.7461,0.6321 1.1101,0.792 0.3659,0.1598 0.752,0.2401 1.1579,0.2401 0.8901,0 1.4258,-0.3102 1.6058,-0.9324 0.1001,-0.3395 0.0842,-0.826 -0.0479,-1.4575 l -0.856,-4.0264 h -1.0718 l 0.8379,3.9564 c 0.0819,0.3818 0.0918,0.6896 0.0301,0.9238 -0.1061,0.3917 -0.404,0.5862 -0.8961,0.5862 -0.25,0 -0.462,-0.0241 -0.6341,-0.0763 -0.3078,-0.0862 -0.5998,-0.2579 -0.8719,-0.5142 -0.22,-0.2078 -0.3779,-0.4218 -0.4779,-0.6418 -0.1001,-0.2222 -0.1922,-0.536 -0.2781,-0.9462 l -0.6979,-3.2879 h -1.0542 z"
         style="fill:#000004;fill-opacity:1;fill-rule:nonzero;stroke:none"
         id="path436" />
      <path
         d="m 151.1986,77.1352 h 1.002 l -0.1879,-0.8917 c 0.3759,0.3682 0.7461,0.6321 1.11,0.792 0.366,0.1598 0.7521,0.2401 1.158,0.2401 0.8901,0 1.4258,-0.3102 1.6058,-0.9324 0.1001,-0.3395 0.0842,-0.826 -0.0479,-1.4575 l -0.856,-4.0264 h -1.0718 l 0.8379,3.9564 c 0.0819,0.3818 0.0918,0.6896 0.03,0.9238 -0.106,0.3917 -0.4039,0.5862 -0.896,0.5862 -0.25,0 -0.462,-0.0241 -0.6341,-0.0763 -0.3078,-0.0862 -0.5998,-0.2579 -0.8719,-0.5142 -0.22,-0.2078 -0.3779,-0.4218 -0.478,-0.6418 -0.1,-0.2222 -0.1921,-0.536 -0.278,-0.9462 l -0.6979,-3.2879 h -1.0542 z"
         style="fill:#000004;fill-opacity:1;fill-rule:nonzero;stroke:none"
         id="path438" />
      <path
         d="m 162.5244,76.1513 c 0.144,-0.3177 0.2061,-0.6859 0.1882,-1.1077 0.004,-0.29 -0.064,-0.7504 -0.2001,-1.3839 h -4.6001 c -0.1159,-0.6361 -0.0739,-1.1463 0.1262,-1.5321 0.2021,-0.3839 0.5981,-0.576 1.188,-0.576 0.5499,0 1.0258,0.1819 1.4281,0.5436 0.2358,0.2124 0.4198,0.4561 0.5578,0.7322 h 1.0361 c -0.078,-0.2299 -0.2239,-0.4858 -0.436,-0.7699 -0.212,-0.2823 -0.434,-0.5142 -0.6641,-0.6942 -0.3878,-0.3121 -0.83,-0.5241 -1.3261,-0.6321 -0.2678,-0.0638 -0.5638,-0.0935 -0.8838,-0.0935 -0.7821,0 -1.3819,0.2837 -1.804,0.8518 -0.4221,0.568 -0.5241,1.3637 -0.3061,2.3882 0.216,1.008 0.6621,1.8258 1.3422,2.4536 0.68,0.6302 1.4618,0.9443 2.3439,0.9443 0.4459,0 0.8558,-0.1044 1.23,-0.3141 0.3759,-0.2081 0.6358,-0.4779 0.7798,-0.8102 z m -0.9198,-1.654 c 0.0538,0.4584 0.034,0.8241 -0.0641,1.0962 -0.18,0.5079 -0.608,0.7619 -1.2838,0.7619 -0.4842,0 -0.9281,-0.1737 -1.33,-0.5238 -0.4023,-0.3504 -0.6721,-0.7943 -0.8082,-1.3343 z"
         style="fill:#000004;fill-opacity:1;fill-rule:nonzero;stroke:none"
         id="path440" />
      <path
         d="m 167.7107,72.9972 c -0.0581,-0.5998 0.1318,-1.0156 0.574,-1.2478 0.2219,-0.1159 0.4978,-0.1757 0.826,-0.1757 0.6239,0 1.1299,0.1995 1.518,0.5975 0.3858,0.4005 0.6298,0.8405 0.7319,1.3244 0.1238,0.5859 0.0419,1.04 -0.2461,1.3597 -0.29,0.3204 -0.684,0.4799 -1.184,0.4799 -0.362,0 -0.69,-0.07 -0.978,-0.2097 -0.2899,-0.1401 -0.5519,-0.3359 -0.792,-0.5859 l -0.9019,0.0518 1.6001,4.5182 h 4.36 l -0.2183,-1.0199 h -3.568 l -0.8557,-2.3324 c 0.2279,0.1483 0.4359,0.2602 0.6278,0.3339 0.3402,0.1302 0.7141,0.1942 1.124,0.1942 0.7701,0 1.37,-0.2477 1.8,-0.7441 0.43,-0.4958 0.5641,-1.1256 0.4039,-1.8879 -0.1678,-0.792 -0.5618,-1.4918 -1.1798,-2.0962 -0.6199,-0.6055 -1.466,-0.9076 -2.5401,-0.9076 -0.684,0 -1.2478,0.1922 -1.692,0.576 -0.4419,0.3841 -0.612,0.9759 -0.506,1.7716 z"
         style="fill:#000004;fill-opacity:1;fill-rule:nonzero;stroke:none"
         id="path442" />
      <path
         d="m 108.4975,25.7822 h 2.3839 V 21.054 l 4.432,4.7282 h 3.1093 l -4.7038,-4.752 4.9465,-6.768 h -3.0932 l -3.5442,5.0191 -1.1466,-1.1656 v -3.8535 h -2.3839 z"
         style="fill:#000004;fill-opacity:1;fill-rule:nonzero;stroke:none"
         id="path444" />
      <path
         d="m 123.6495,15.8306 c 0.648,0 1.1466,0.2316 1.4959,0.6928 0.3492,0.4643 0.5227,1.1228 0.5227,1.9763 0,0.8504 -0.1735,1.5092 -0.5227,1.9681 -0.3493,0.461 -0.8479,0.6906 -1.4959,0.6906 -0.6508,0 -1.152,-0.2296 -1.5041,-0.6906 -0.3495,-0.4589 -0.5252,-1.1177 -0.5252,-1.9681 0,-0.8535 0.1757,-1.512 0.5252,-1.9763 0.3521,-0.4612 0.8533,-0.6928 1.5041,-0.6928 z m 4.3546,2.6771 c 0,-1.2478 -0.36,-2.3171 -1.0775,-3.2029 -0.72,-0.8875 -1.8104,-1.3306 -3.2745,-1.3306 -1.4641,0 -2.5546,0.4431 -3.2746,1.3306 -0.7175,0.8858 -1.0775,1.9551 -1.0775,3.2029 0,1.2265 0.36,2.2907 1.0775,3.1892 0.72,0.8986 1.8105,1.3493 3.2746,1.3493 1.4641,0 2.5545,-0.4507 3.2745,-1.3493 0.7175,-0.8985 1.0775,-1.9627 1.0775,-3.1892"
         style="fill:#000004;fill-opacity:1;fill-rule:nonzero;stroke:none"
         id="path446" />
      <path
         d="m 131.8734,14.2622 h -2.2241 v 11.5042 h 2.2241 z"
         style="fill:#000004;fill-opacity:1;fill-rule:nonzero;stroke:none"
         id="path448" />
      <path
         d="m 137.8681,15.8306 c 0.648,0 1.1466,0.2316 1.4958,0.6928 0.3493,0.4643 0.5227,1.1228 0.5227,1.9763 0,0.8504 -0.1734,1.5092 -0.5227,1.9681 -0.3492,0.461 -0.8478,0.6906 -1.4958,0.6906 -0.6508,0 -1.152,-0.2296 -1.5041,-0.6906 -0.3495,-0.4589 -0.5252,-1.1177 -0.5252,-1.9681 0,-0.8535 0.1757,-1.512 0.5252,-1.9763 0.3521,-0.4612 0.8533,-0.6928 1.5041,-0.6928 z m 4.3546,2.6771 c 0,-1.2478 -0.36,-2.3171 -1.0775,-3.2029 -0.72,-0.8875 -1.8105,-1.3306 -3.2746,-1.3306 -1.464,0 -2.5545,0.4431 -3.2745,1.3306 -0.7175,0.8858 -1.0775,1.9551 -1.0775,3.2029 0,1.2265 0.36,2.2907 1.0775,3.1892 0.72,0.8986 1.8105,1.3493 3.2745,1.3493 1.4641,0 2.5546,-0.4507 3.2746,-1.3493 0.7175,-0.8985 1.0775,-1.9627 1.0775,-3.1892"
         style="fill:#000004;fill-opacity:1;fill-rule:nonzero;stroke:none"
         id="path450" />
      <path
         d="m 148.5425,22.9825 c 0.8773,0 1.5948,-0.2319 2.1521,-0.6937 0.5573,-0.4637 0.8373,-1.2262 0.8373,-2.296 v -5.7306 h -2.2881 v 5.1764 c 0,0.4479 -0.0587,0.792 -0.1786,1.0315 -0.216,0.4377 -0.6318,0.6559 -1.2427,0.6559 -0.7492,0 -1.2665,-0.3194 -1.544,-0.9598 -0.1466,-0.3384 -0.2186,-0.7704 -0.2186,-1.296 v -4.608 h -2.224 v 8.496 h 2.16 v -1.2427 c 0.2854,0.4402 0.5547,0.7574 0.8107,0.9494 0.4561,0.3444 1.0346,0.5176 1.7359,0.5176"
         style="fill:#000004;fill-opacity:1;fill-rule:nonzero;stroke:none"
         id="path452" />
      <path
         d="m 158.3158,22.9825 c 0.8773,0 1.5948,-0.2319 2.1521,-0.6937 0.5573,-0.4637 0.8373,-1.2262 0.8373,-2.296 v -5.7306 h -2.2881 v 5.1764 c 0,0.4479 -0.0587,0.792 -0.1786,1.0315 -0.216,0.4377 -0.6318,0.6559 -1.2427,0.6559 -0.7492,0 -1.2665,-0.3194 -1.544,-0.9598 -0.1466,-0.3384 -0.2186,-0.7704 -0.2186,-1.296 v -4.608 h -2.224 v 8.496 h 2.16 v -1.2427 c 0.2854,0.4402 0.5547,0.7574 0.8107,0.9494 0.4561,0.3444 1.0346,0.5176 1.7359,0.5176"
         style="fill:#000004;fill-opacity:1;fill-rule:nonzero;stroke:none"
         id="path454" />
      <path
         d="m 166.8917,21.1584 c -0.5731,0 -1.0159,-0.1576 -1.3305,-0.4746 -0.3147,-0.3149 -0.5148,-0.7441 -0.5947,-1.2855 h 3.8401 c -0.04,0.576 -0.2373,1.0131 -0.5948,1.3122 -0.3546,0.2988 -0.7945,0.4479 -1.3201,0.4479 z m 0.0134,1.8561 c 0.7415,0 1.4079,-0.1332 2.0001,-0.3974 0.5947,-0.2671 1.0825,-0.6854 1.4692,-1.2586 0.3495,-0.5068 0.576,-1.0933 0.6775,-1.76 0.0612,-0.3892 0.0853,-0.9519 0.0745,-1.6884 h -6.2078 c 0.0345,-0.8586 0.3305,-1.4609 0.8906,-1.8053 0.3387,-0.216 0.7466,-0.3223 1.2265,-0.3223 0.5069,0 0.9173,0.1304 1.2348,0.3892 0.1732,0.1411 0.3254,0.3361 0.4587,0.5864 h 2.2853 c -0.0587,-0.5062 -0.3359,-1.0184 -0.8241,-1.5412 -0.7625,-0.8294 -1.8292,-1.2427 -3.2,-1.2427 -1.1333,0 -2.1331,0.3495 -2.9971,1.0483 -0.8668,0.6984 -1.2988,1.8371 -1.2988,3.4132 0,1.4771 0.3895,2.6081 1.1707,3.397 0.7812,0.7869 1.7946,1.1818 3.0399,1.1818"
         style="fill:#000004;fill-opacity:1;fill-rule:nonzero;stroke:none"
         id="path456" />
      <path
         d="m 184.0382,16.6944 h -1.2798 v -2.4322 h -2.1762 v 2.4322 h -4.4957 v 1.9465 l 4.1757,6.8857 h 2.4962 v -7.0884 h 1.2798 z m -3.456,1.7438 v 4.8748 l -2.8451,-4.8748 z"
         style="fill:#000004;fill-opacity:1;fill-rule:nonzero;stroke:none"
         id="path458" />
    </g>
    <g
       id="g460" />
    <g
       id="g462" />
    <g
       id="g464" />
    <g
       id="g466" />
    <g
       id="g468" />
    <g
       id="g470" />
    <g
       id="g472" />
    <g
       id="g474" />
    <g
       id="g476" />
  </g>
</svg>
