<?xml version="1.0" encoding="utf-8"?>
<!-- Generator: Adobe Illustrator 27.1.1, SVG Export Plug-In . SVG Version: 6.00 Build 0)  -->
<svg version="1.1" id="Lag_1" xmlns:xodm="http://www.corel.com/coreldraw/odm/2003"
	 xmlns="http://www.w3.org/2000/svg" xmlns:xlink="http://www.w3.org/1999/xlink" x="0px" y="0px" viewBox="0 0 292.5 244.3"
	 style="enable-background:new 0 0 292.5 244.3;" xml:space="preserve">
<style type="text/css">
	.st0{fill:none;stroke:#2B2A29;stroke-width:0.5673;stroke-miterlimit:3.4408;}
	.st1{fill:none;stroke:#000000;stroke-linecap:round;stroke-linejoin:round;stroke-miterlimit:10;}
	.st2{fill:none;}
	.st3{fill:#D9DADA;}
	.st4{fill:none;stroke:#FEFEFE;stroke-width:0.992;stroke-miterlimit:10;}
	.st5{font-family:'Arial-BoldMT';}
	.st6{font-size:8.0301px;}
	.st7{font-family:'Helvetica-Bold';}
	.st8{font-size:18px;}
	.st9{font-family:'Helvetica';}
	.st10{font-size:14px;}
	.st11{font-size:16px;}
</style>
<g id="Layer_x0020_1">
	<g id="_2353784030448">
		<path class="st0" d="M7.6,0.3h277.2c4.1,0,7.4,6.3,7.1,26.6v215.4c0.3-4.6-3,1.7-7.1,1.7H7.6c-4.1,0-7.4-6.3-7.6-1.7V26.9
			C0.3,6.6,3.6,0.3,7.6,0.3z"/>
		<path class="st0" d="M131.4,24.4h7.8c0-3.9,3.2-7.1,7.1-7.1c3.9,0,7.1,3.2,7.1,7.1h7.8c2.7,0,5,2.2,5,5l0,0c0,2.7-2.2,5-5,5h-29.8
			c-2.7,0-5-2.2-5-5l0,0C126.4,26.6,128.7,24.4,131.4,24.4L131.4,24.4z"/>
	</g>
</g>
<path class="st1" d="M217.6,239.7"/>
<path class="st1" d="M8.8,239.7"/>
<path class="st1" d="M283.7,239.7"/>
<path class="st1" d="M8.8,239.7"/>
<path class="st1" d="M283.7,239.7"/>
<path class="st1" d="M9.3,241.3"/>
<path class="st1" d="M284.2,241.3"/>
<path class="st1" d="M9.3,241.3"/>
<path class="st1" d="M9.3,241.3"/>
<path class="st1" d="M284.2,241.3"/>
<polyline class="st2" points="62.4,94.6 62.4,45 12.8,45 12.8,94.6 "/>
<path class="st1" d="M284,142.1"/>
<path class="st1" d="M9,142.1"/>
<path class="st1" d="M284,191.7"/>
<path class="st1" d="M9,191.7"/>
<path class="st1" d="M284,42.9"/>
<path class="st1" d="M284,241.3"/>
<path class="st3" d="M13,56.8c0.4-1.5,1.4-2.2,2.7-2.6c1.2-0.4,2.6-0.4,3.9-0.4c0.3,0,0.6,0,0.9,0c0.3,0,0.6,0,0.8-0.1l0.4-0.1
	c-0.4-0.4-0.8-1-1.1-1.5c-0.5-0.8-0.9-1.8-1.2-2.7c-0.4-1-0.5-2.2-0.6-3.4c0-1.1,0.1-2.2,0.4-3.2c0.2-0.8,0.7-1.5,1.3-2
	c0.7-0.6,1.5-1,2.5-1.3c1.1-0.3,2.2-0.5,3.4-0.5c1.2,0,2.4,0.1,3.4,0.3c0.9,0.2,1.6,0.8,2.2,1.4s0.9,1.5,1.2,2.4
	c0.2,0.8,0.3,1.7,0.5,2.5c0.1,0.6,0.1,1.3,0.1,1.9H34c0.2-0.1,0.4-0.1,0.6-0.1c1.1-0.3,2.4-0.3,3.5-0.2c1,0.1,2,0.3,2.9,0.8l0,0
	c-0.4-0.7-0.8-1.5-1.2-2.2c-0.4-1-0.8-2.1-0.9-3.2c-0.1-1.1-0.1-2.1,0.1-3.2c0.2-0.9,0.6-1.8,1.3-2.7c0.6-0.7,1.3-1.2,2.2-1.6
	c0.9-0.4,2-0.7,3.2-0.8c1.1-0.1,2.3-0.1,3.4,0.2c1.1,0.2,2,0.6,2.8,1.1c0.6,0.4,1.1,1,1.5,1.7c0.4,0.7,0.6,1.5,0.8,2.5
	c0.1,1,0.1,2,0,3.1c-0.1,1.2-0.3,2.4-0.7,3.3c-0.1,0.3-0.2,0.6-0.4,0.9l-0.1,0.3c1-0.2,2-0.3,3.1-0.3c1.1,0,2.2,0.2,3.2,0.6
	c0.7,0.3,1.3,0.7,1.8,1.2c0.5,0.6,0.9,1.3,1.2,2.1c0.3,0.9,0.5,1.9,0.6,2.9c0.1,1.3,0.1,2.5,0,3.5c0,0.5-0.1,1-0.2,1.5
	c-0.1,0.5-0.2,0.9-0.4,1.3c-0.1,0.3-0.3,0.6-0.4,0.8l0,0h0.3c0.6,0,1.2,0,1.8,0.1c0.6,0.1,1.3,0.1,2,0.4c0.6,0.1,1.3,0.4,1.9,0.8
	c0.6,0.4,1.1,0.8,1.5,1.3c0.6,0.8,0.8,1.9,0.9,2.9c0.1,1.1,0,2.1-0.1,2.9v0.1c-0.1,0.9-0.1,2-0.3,3c-0.1,1-0.2,2.1-0.4,3.1
	c-0.1,1-0.3,2.1-0.6,3.1c-0.2,1-0.5,2-0.8,2.9c-0.1,0.3-0.2,0.6-0.3,1l0,0c-0.2,0.6-0.4,1.3-0.6,1.9c-0.3,0.6-0.6,1.1-1,1.6
	c-0.1,0.1-0.1,0.1-0.2,0.1c-0.1,0.1-0.1,0.1-0.3,0.1H20c-0.1,0-0.2-0.1-0.4-0.1l0,0c-0.1-0.1-0.1-0.1-0.2-0.3
	c-0.2-0.6-0.5-1.4-0.8-2.3c-0.4-1-0.7-2.1-1.1-3.2c-0.3-1.2-0.8-2.4-1-3.5c-0.4-1.1-0.6-2-0.7-2.6v-0.1c-0.1-0.1-0.1-0.1-0.1-0.2
	c-0.3-1.4-0.8-2.9-1.3-4.3l0,0c-0.4-1.4-0.8-2.7-1.2-4.1"/>
<path class="st3" d="M29,82.7c0.2,0.8,0.4,1.5,0.8,2.2h16.4c0.6-0.8,0.9-1.8,1.2-2.8c0.1-0.4,0.2-0.7,0.3-1c0.3-0.9,0.6-1.8,0.8-2.8
	c0.2-1,0.4-2,0.6-3c0.1-1,0.3-2,0.4-3.1c0.1-1,0.2-2,0.3-2.9v-0.1c0.1-1.5,0.3-3.8-0.6-5c-0.1-0.1-0.1-0.1-0.2-0.2
	c-0.2-0.2-0.3-0.3-0.6-0.6c-0.1-0.1-0.1-0.1-0.3-0.1l-0.6-0.3c-0.3-0.1-0.7-0.3-1.1-0.3c-0.3-0.1-0.8-0.2-1.2-0.2
	c-0.2,0-0.5-0.1-0.8-0.1c-0.3,0-0.5-0.1-0.7-0.1h-2c-0.1,0-0.4-0.1-0.4-0.1c-0.1-0.1-0.2-0.3-0.2-0.4c0-0.1,0-0.1,0.1-0.2l0,0
	c0-0.1,0.1-0.1,0.1-0.2c0.1-0.1,0.2-0.3,0.3-0.4c0.1-0.1,0.2-0.4,0.3-0.6c0.1-0.2,0.1-0.4,0.2-0.7c0.1-0.3,0.1-0.6,0.2-0.9
	c0.1-0.3,0.1-0.6,0.1-0.9c0.1-0.8,0.2-1.7,0.2-2.6c0-0.8-0.1-1.5-0.2-2.3c-0.1-0.8-0.4-1.5-0.7-2c-0.3-0.5-0.6-1-1-1.3
	c-0.1-0.1-0.1-0.1-0.2-0.1l-0.2-0.1c-0.7-0.3-1.6-0.6-2.6-0.7c-1-0.1-2.1,0-3.1,0.2c-0.2,0.1-0.4,0.1-0.6,0.1
	c-0.2,0.1-0.4,0.1-0.6,0.2c-0.3,0.1-1.3,0.6-1.5,0.8c-0.1,0.1-0.1,0.1-0.3,0.1c-0.1,0.1-0.2,0.1-0.3,0.2c-0.2,0.1-0.4,0.3-0.5,0.5
	c-0.1,0.1-0.3,0.3-0.4,0.6c-0.2,0.4-0.4,1-0.6,1.3c-0.8,3.1,0.1,6.6,2.3,9l0,0c0.1,0.1,0.1,0.2,0.2,0.3l0.1,0.1v0.3
	c0,0.1,0,0.1-0.1,0.2v0.1l0,0v0.1h-0.1v0.1l0,0l0,0l0,0l0,0l0,0l0,0h-0.1l0,0h-0.2l0,0h-0.2l0,0h-0.1l0,0c-0.4,0-0.9,0-1.3,0.1
	c-1.3,0.1-2.5,0.1-3.6,0.3c-1,0.3-1.8,0.8-2,1.8c-0.5,1.7,0.2,3.7,0.8,5.5l0,0c0.3,0.8,0.5,1.5,0.7,2.2c0.3,1.3,0.7,2.6,1,3.8
	c0.4,1.5,0.8,2.9,1.2,4.4c0.1,0.3,0.1,0.6,0.2,0.8C28.9,82.2,28.9,82.5,29,82.7L29,82.7L29,82.7z"/>
<path class="st3" d="M51.7,49.2L51.7,49.2c-0.3,0.1-0.5,0.3-0.7,0.4c-0.2,0.1-0.4,0.3-0.6,0.5l-0.1,0.1c-0.3,0.3-0.4,0.6-0.6,0.9
	C49.4,52,49.2,53,49.2,54c-0.1,1,0.1,2,0.3,3.1c0.2,1,0.6,1.9,1.1,2.7c0.5,0.8,1,1.5,1.7,2c0.1,0.1,0.2,0.3,0.2,0.4
	c0,0.1,0,0.3-0.1,0.4c-0.1,0.1-0.1,0.1-0.2,0.1l0,0c-0.1,0.1-0.1,0.1-0.2,0.1l-0.6,0.1c-0.3,0-0.6,0.1-0.9,0.1h-0.7
	c0.3,0.3,0.4,0.5,0.6,0.8l0,0c0.1,0.2,0.2,0.3,0.3,0.6l0,0l0,0c0.1,0.2,0.1,0.3,0.1,0.5l0,0l0.1,0.2l0,0l0.1,0.3l0,0
	c0,0.2,0.1,0.4,0.1,0.6l0,0V66l0,0c0,0.6,0.1,1,0.1,1.6l0,0c0,0.6-0.1,1.2-0.1,1.8c-0.1,0.9-0.1,2-0.3,3s-0.2,2.1-0.4,3.1
	c-0.1,1.1-0.3,2.1-0.6,3.1c-0.2,1-0.5,2-0.8,2.9L48.6,82c-0.3,0.9-0.6,2.1-1.1,2.9h17.6c0.3-0.4,0.4-0.7,0.6-1.1
	c0.2-0.5,0.4-1,0.6-1.7l0.3-1.1c0.3-0.9,0.6-1.8,0.8-2.8c0.2-1,0.4-2,0.6-3c0.1-1.1,0.3-2,0.4-3.1c0.1-1,0.2-2,0.3-2.9v-0.1
	c0.1-0.8,0.1-1.8,0.1-2.7c-0.1-0.9-0.2-1.8-0.7-2.4c-0.3-0.4-0.7-0.8-1.2-1c-0.5-0.3-1-0.5-1.5-0.6c-0.6-0.1-1.2-0.3-1.7-0.3
	c-0.6-0.1-1.2-0.1-1.7-0.1h-0.8h-0.8c-0.1,0-0.4-0.1-0.4-0.1c-0.1-0.1-0.2-0.3-0.2-0.4c0-0.1,0-0.2,0.1-0.3s0.1-0.1,0.1-0.2
	c0.2-0.2,0.4-0.3,0.6-0.6c0.2-0.2,0.4-0.5,0.5-0.8c0.1-0.3,0.2-0.6,0.3-1.1c0.1-0.4,0.1-0.8,0.1-1.3c0.1-1,0.1-2.2,0-3.3
	c-0.1-0.9-0.2-1.8-0.5-2.6c-0.2-0.6-0.6-1.3-0.9-1.7c-0.3-0.4-0.8-0.7-1.3-0.9c-0.8-0.3-1.8-0.5-2.8-0.5s-2,0.1-2.9,0.4
	c-0.3,0.1-0.5,0.1-0.8,0.2C52.1,49,51.9,49.1,51.7,49.2L51.7,49.2z"/>
<path class="st3" d="M47.8,62.6L47.8,62.6L47.8,62.6z"/>
<path class="st3" d="M42.6,49.6c0.2,0.3,0.4,0.6,0.5,0.8c0.3,0.6,0.5,1.2,0.6,1.8c0.1,0.7,0.3,1.5,0.3,2.2c0.1,0.8,0,1.8-0.1,2.5
	c0,0.3-0.1,0.6-0.1,0.8l0,0c-0.1,0.3-0.1,0.7-0.2,1c-0.1,0.4-0.1,0.7-0.2,1c-0.1,0.3-0.2,0.6-0.3,0.8L43,61c0.6,0,1.1,0,1.7,0.1
	c0.3,0,0.7,0.1,1,0.1c0.4,0.1,0.7,0.1,1,0.2c0.2,0.1,0.4,0.1,0.6,0.2c0.2,0.1,0.3,0.1,0.6,0.2c0.8-0.1,1.7-0.1,2.5-0.1
	c-0.4-0.5-0.8-1-1.1-1.6c-0.5-0.8-0.8-1.8-1.1-2.8c-0.3-1.1-0.3-2.2-0.3-3.4c0.1-1.1,0.3-2.2,0.6-3.2c0.1-0.2,0.3-0.8,0.5-0.9
	c0.3-0.4,0.6-0.7,1-1l0,0c0.3-0.2,0.6-0.4,0.9-0.6c0.1-0.1,0.2-0.2,0.3-0.3c0.1-0.1,0.2-0.3,0.4-0.5c0.1-0.2,0.2-0.4,0.3-0.6
	c0.1-0.2,0.2-0.5,0.3-0.8c0.3-0.8,0.5-2,0.6-3c0.1-0.9,0.1-1.9,0-2.8c-0.1-0.7-0.3-1.4-0.6-2c-0.3-0.5-0.6-0.9-1.1-1.3
	c-0.7-0.4-1.5-0.8-2.5-1c-1-0.2-2-0.3-3.1-0.1c-1,0.1-2,0.3-2.7,0.7c-0.7,0.3-1.3,0.8-1.8,1.3c-0.6,0.7-0.9,1.5-1.1,2.2
	c-0.2,0.8-0.2,1.8-0.1,2.7c0.1,1,0.5,2.1,0.9,3.1c0.5,1.1,1.2,2.2,1.8,3l0,0c0.1,0.1,0.1,0.1,0.1,0.1c0,0.1,0,0.1,0,0.2l0,0
	c0,0.1-0.1,0.3-0.1,0.4C42.7,49.5,42.7,49.5,42.6,49.6L42.6,49.6z"/>
<path class="st3" d="M14.3,63.3c0.1,0.7,0.3,1.3,0.4,2c0.1,0.7,0.4,1.3,0.6,2c0.2,0.6,0.4,1.3,0.6,2c0.2,0.7,0.4,1.3,0.6,2.1
	c0.2,0.7,0.4,1.3,0.6,2l0.1,0.1c0,0.1,0.1,0.1,0.1,0.2l0,0c0.1,0.4,0.3,1.3,0.7,2.5c0.4,1.1,0.7,2.5,1.1,3.8c0.4,1.1,0.7,2.1,1,3.1
	c0.2,0.7,0.5,1.4,0.7,2h7.8c-0.1-0.1-0.1-0.3-0.2-0.4c-0.1-0.2-0.2-0.5-0.3-0.7c-0.1-0.2-0.1-0.5-0.2-0.8c-0.6-2-1.1-4-1.7-6
	c-0.4-1.3-0.8-2.6-1.1-3.9c-0.1-0.6-0.4-1.3-0.6-2.1l0,0c-0.7-2-1.5-4.3-0.8-6.2c0.4-1.5,1.5-2.2,2.7-2.6c1.2-0.4,2.7-0.4,4-0.4h0.5
	c-0.4-0.6-0.8-1.3-1.2-2C29.2,59,28.9,58,28.7,57c-0.4-2.1-0.1-4.3,1-6.2c0.1-0.2,0.3-0.4,0.4-0.6c0.1-0.1,0.3-0.3,0.4-0.4
	c0.1-0.1,0.4-0.3,0.5-0.4c0.3-0.2,0.6-0.4,0.9-0.6c0.3-0.1,0.6-0.3,0.8-0.4c0-0.6-0.1-1.4-0.1-2.1c-0.1-0.8-0.2-1.6-0.4-2.4
	c-0.2-0.7-0.5-1.4-0.9-2c-0.4-0.5-0.9-0.8-1.5-1c-0.9-0.2-2-0.3-3.1-0.3c-1,0-2.1,0.2-3.1,0.5c-0.8,0.3-1.5,0.6-2.1,1.1
	c-0.5,0.4-0.8,0.8-1,1.4c-0.3,0.8-0.4,1.8-0.4,2.8c0,1,0.2,2,0.5,3c0.3,1,0.7,1.9,1.2,2.7c0.5,0.8,1.1,1.4,1.7,1.9
	c0.1,0.1,0.2,0.3,0.2,0.4c0,0.1,0,0.3-0.1,0.4c-0.1,0.1-0.1,0.1-0.2,0.1l0,0c-0.1,0.1-0.1,0.1-0.2,0.1L21.5,55
	c-0.3,0-0.6,0.1-0.9,0.1h-1c-1.2,0-2.4,0.1-3.4,0.4c-0.9,0.3-1.7,0.8-2,1.8"/>
<g>
	<polygon class="st4" points="15.6,62.4 15.6,56.7 16.8,56.7 16.8,61.4 19.6,61.4 19.6,62.4 	"/>
</g>
<g>
	<path id="_x31__00000123419795581193173880000007795495111412869028_" class="st4" d="M20.2,60.3c0-0.4,0.1-0.7,0.3-1
		c0.2-0.4,0.4-0.6,0.8-0.8c0.3-0.2,0.7-0.3,1.1-0.3c0.6,0,1.1,0.2,1.5,0.6c0.4,0.4,0.6,0.9,0.6,1.5c0,0.6-0.2,1.1-0.6,1.5
		c-0.4,0.4-0.9,0.6-1.5,0.6c-0.3,0-0.8-0.1-1.1-0.3c-0.4-0.1-0.6-0.4-0.8-0.8C20.2,61.1,20.2,60.7,20.2,60.3L20.2,60.3z M21.3,60.3
		c0,0.4,0.1,0.7,0.3,1c0.2,0.2,0.4,0.4,0.7,0.4c0.3,0,0.6-0.1,0.7-0.4c0.2-0.2,0.3-0.6,0.3-1s-0.1-0.7-0.3-0.9
		c-0.2-0.2-0.4-0.3-0.7-0.3c-0.3,0-0.6,0.1-0.7,0.3C21.4,59.6,21.3,59.8,21.3,60.3L21.3,60.3z"/>
</g>
<g>
	<path id="_x32__00000132078874029929789270000001687726302929418155_" class="st4" d="M25.2,62.6l1.3,0.1c0,0.1,0.1,0.3,0.1,0.3
		c0.1,0.1,0.3,0.1,0.5,0.1c0.3,0,0.5-0.1,0.6-0.1c0.1-0.1,0.1-0.1,0.2-0.3c0-0.1,0.1-0.3,0.1-0.5v-0.6c-0.4,0.4-0.8,0.7-1.3,0.7
		c-0.6,0-1-0.2-1.3-0.7c-0.3-0.3-0.4-0.8-0.4-1.4c0-0.7,0.1-1.3,0.5-1.6c0.4-0.3,0.8-0.6,1.3-0.6s0.9,0.2,1.3,0.7v-0.6h1v3.7
		c0,0.5-0.1,0.8-0.1,1.1c-0.1,0.2-0.2,0.4-0.4,0.6c-0.1,0.1-0.3,0.3-0.6,0.3c-0.2,0.1-0.6,0.1-0.9,0.1c-0.7,0-1.2-0.1-1.5-0.3
		c-0.3-0.2-0.4-0.6-0.4-0.9C25.2,62.7,25.2,62.7,25.2,62.6L25.2,62.6z M26.2,60.2c0,0.4,0.1,0.8,0.3,1c0.1,0.2,0.4,0.3,0.6,0.3
		c0.3,0,0.5-0.1,0.7-0.3c0.2-0.2,0.3-0.5,0.3-0.9c0-0.4-0.1-0.8-0.3-1c-0.2-0.2-0.4-0.3-0.7-0.3c-0.3,0-0.5,0.1-0.6,0.3
		C26.3,59.5,26.2,59.8,26.2,60.2L26.2,60.2z"/>
</g>
<g>
	<path id="_x33__00000176737699263602290630000007684258186140299944_" class="st4" d="M30,60.3c0-0.4,0.1-0.7,0.3-1
		c0.2-0.4,0.4-0.6,0.8-0.8c0.4-0.2,0.7-0.3,1.1-0.3c0.6,0,1.1,0.2,1.5,0.6c0.4,0.4,0.6,0.9,0.6,1.5c0,0.6-0.2,1.1-0.6,1.5
		c-0.4,0.4-0.9,0.6-1.5,0.6c-0.3,0-0.8-0.1-1.1-0.3c-0.4-0.1-0.6-0.4-0.8-0.8C30.1,61.1,30,60.7,30,60.3L30,60.3z M31.1,60.3
		c0,0.4,0.1,0.7,0.3,1c0.2,0.2,0.4,0.4,0.7,0.4c0.3,0,0.6-0.1,0.7-0.4c0.2-0.2,0.3-0.6,0.3-1s-0.1-0.7-0.3-0.9
		c-0.2-0.2-0.4-0.3-0.7-0.3c-0.3,0-0.6,0.1-0.7,0.3C31.2,59.6,31.1,59.8,31.1,60.3L31.1,60.3z"/>
</g>
<g>
	<polygon id="_x34__00000079474614247867074970000012809474833888864415_" class="st4" points="36.8,62.4 38.2,56.6 39.1,56.6 
		37.6,62.4 	"/>
</g>
<g>
	<path id="_x35__00000172438785454659738820000005243518164728310656_" class="st4" d="M41.9,56.6h2.3c0.5,0,0.8,0,1,0.1
		c0.2,0.1,0.4,0.1,0.6,0.2c0.2,0.1,0.4,0.3,0.4,0.5c0.1,0.2,0.2,0.4,0.2,0.7c0,0.3-0.1,0.5-0.2,0.8c-0.1,0.2-0.3,0.4-0.6,0.5
		c0.3,0.1,0.6,0.3,0.8,0.5c0.2,0.3,0.3,0.6,0.3,0.8s-0.1,0.5-0.2,0.8c-0.1,0.3-0.3,0.4-0.5,0.6c-0.2,0.1-0.5,0.2-0.8,0.3
		c-0.2,0-0.6,0-1.4,0.1h-2L41.9,56.6L41.9,56.6z M43,57.6v1.3h0.8c0.4,0,0.7,0,0.8,0c0.2,0,0.4-0.1,0.5-0.2c0.1-0.1,0.1-0.3,0.1-0.4
		c0-0.2-0.1-0.3-0.1-0.4c-0.1-0.1-0.2-0.2-0.4-0.2c-0.1,0-0.4,0-1,0L43,57.6L43,57.6z M43,59.8v1.5h1c0.4,0,0.7,0,0.8,0
		c0.1,0,0.3-0.1,0.4-0.2c0.1-0.1,0.1-0.3,0.1-0.5c0-0.1-0.1-0.3-0.1-0.4c-0.1-0.1-0.2-0.2-0.4-0.3c-0.1-0.1-0.5-0.1-1-0.1L43,59.8
		L43,59.8z"/>
</g>
<g>
	<path id="_x36__00000162317188710274090380000003966724034162400670_" class="st4" d="M47.6,57.6v-1.1h1.1v1.1H47.6z M47.6,62.4
		v-4.2h1.1v4.2H47.6z"/>
</g>
<g>
	<polygon id="_x37__00000086688985033847438960000004815469166452105606_" class="st4" points="49.9,62.4 49.9,56.6 51,56.6 
		51,62.4 	"/>
</g>
<g>
	<polygon id="_x38__00000089537039967326369860000016924771918448589983_" class="st4" points="52.1,62.4 52.1,56.6 53.2,56.6 
		53.2,62.4 	"/>
</g>
<g>
	<path id="_x39__00000040565036536678885000000006803004351898622623_" class="st4" d="M56.7,61l1.1,0.2c-0.1,0.4-0.3,0.7-0.7,0.9
		c-0.3,0.2-0.7,0.4-1.1,0.4c-0.7,0-1.3-0.2-1.6-0.7C54.1,61.5,54,61,54,60.3c0-0.7,0.2-1.3,0.6-1.6c0.4-0.4,0.8-0.6,1.4-0.6
		c0.6,0,1.1,0.2,1.5,0.6c0.3,0.4,0.6,1,0.5,1.9h-2.7c0,0.4,0.1,0.6,0.3,0.8c0.1,0.2,0.3,0.3,0.6,0.3c0.1,0,0.4-0.1,0.4-0.1
		C56.6,61.4,56.7,61.2,56.7,61z M56.8,59.9c0-0.3-0.1-0.6-0.3-0.7c-0.1-0.1-0.4-0.3-0.6-0.3c-0.2,0-0.4,0.1-0.6,0.3
		c-0.1,0.2-0.2,0.4-0.2,0.7H56.8L56.8,59.9z"/>
</g>
<g>
	<path id="_x31_0_00000105419761653481894720000006450622052361993645_" class="st4" d="M62.6,62.4h-1v-0.6
		c-0.1,0.2-0.3,0.4-0.6,0.6c-0.2,0.1-0.5,0.2-0.7,0.2c-0.5,0-0.9-0.2-1.3-0.6c-0.4-0.4-0.5-0.9-0.5-1.6c0-0.7,0.1-1.3,0.5-1.6
		c0.3-0.3,0.8-0.6,1.3-0.6c0.5,0,0.8,0.2,1.2,0.6v-2.1h1.1L62.6,62.4L62.6,62.4z M59.7,60.2c0,0.4,0.1,0.8,0.2,1
		c0.2,0.3,0.4,0.4,0.8,0.4c0.3,0,0.5-0.1,0.6-0.4c0.2-0.2,0.3-0.6,0.3-1c0-0.5-0.1-0.8-0.3-1c-0.1-0.2-0.4-0.4-0.6-0.4
		c-0.3,0-0.5,0.1-0.6,0.3C59.8,59.5,59.7,59.8,59.7,60.2L59.7,60.2z"/>
</g>
<g>
	<path id="_x31_1_00000165929905248153990510000013215389987651349407_" class="st4" d="M66.1,61l1.1,0.2c-0.1,0.4-0.3,0.7-0.7,0.9
		c-0.3,0.2-0.7,0.4-1.1,0.4c-0.7,0-1.3-0.2-1.6-0.7c-0.3-0.4-0.4-0.8-0.4-1.5c0-0.7,0.2-1.3,0.6-1.6c0.4-0.4,0.8-0.6,1.4-0.6
		c0.6,0,1.1,0.2,1.5,0.6c0.3,0.4,0.6,1,0.5,1.9h-2.7c0,0.4,0.1,0.6,0.3,0.8c0.1,0.2,0.3,0.3,0.6,0.3c0.1,0,0.4-0.1,0.4-0.1
		C66,61.4,66,61.2,66.1,61z M66.2,59.9c0-0.3-0.1-0.6-0.3-0.7c-0.1-0.1-0.3-0.3-0.6-0.3s-0.4,0.1-0.6,0.3c-0.1,0.2-0.2,0.4-0.2,0.7
		H66.2L66.2,59.9z"/>
</g>
<g transform="matrix(0.999999 0 0 0.999999 5404.11 3503.57)">
	
		<text id="_x31_1_00000179619095873290224180000007604831826088105116_" transform="matrix(1 0 0 1 -5389.1616 -3441.2034)" class="st5 st6">Logo / Billede</text>
</g>
<path class="st1" d="M286.2,42.9"/>
<path class="st1" d="M11.3,42.9"/>
<path class="st1" d="M286.2,92.5"/>
<path class="st1" d="M11.3,92.5"/>
<path class="st1" d="M11.3,42.9"/>
<path class="st1" d="M11.3,92.5"/>
<path class="st1" d="M286.2,42.9"/>
<path class="st1" d="M286.2,92.5"/>
<text transform="matrix(1 0 0 1 105.2438 132.0965)" class="st7 st8">Kolonne 1</text>
<text transform="matrix(1 0 0 1 117.2292 150.0965)" class="st9 st10">Kolonne 2</text>
<text transform="matrix(1 0 0 1 110.0778 226.5059)" class="st7 st11">Kolonne 3</text>
<path class="st1" d="M286.2,92.5"/>
<path class="st1" d="M11.3,92.5"/>
<path class="st1" d="M11.3,42.9"/>
<path class="st1" d="M11.3,241.3"/>
<path class="st1" d="M286.2,42.9"/>
<path class="st1" d="M286.2,241.3"/>
</svg>
