<?xml version="1.0" encoding="utf-8"?>
<!-- Generator: Adobe Illustrator 27.1.1, SVG Export Plug-In . SVG Version: 6.00 Build 0)  -->
<svg version="1.1" id="Lag_1" xmlns:xodm="http://www.corel.com/coreldraw/odm/2003"
	 xmlns="http://www.w3.org/2000/svg" xmlns:xlink="http://www.w3.org/1999/xlink" x="0px" y="0px" viewBox="0 0 292.5 244.3"
	 style="enable-background:new 0 0 292.5 244.3;" xml:space="preserve">
<style type="text/css">
	.st0{font-family:'Arial-BoldMT';}
	.st1{font-size:17.9998px;}
	.st2{fill:none;stroke:#0000ff;stroke-width:0.5673;stroke-miterlimit:3.4408;}
	.st3{font-family:'Helvetica-Bold';}
	.st4{font-size:18px;}
	.st5{font-family:'Helvetica';}
	.st6{font-size:14px;}
	.st7{font-size:16px;}
	.st8{fill:#D9DADA;}
	.st9{fill:none;stroke:#FEFEFE;stroke-width:1.4171;stroke-miterlimit:10;}
	.st10{font-size:11.4716px;}
</style>
<g id="Layer_x0020_1">
	<g transform="matrix(0.999999 0 0 0.999999 -4218.93 1664.22)">
		<text transform="matrix(1 0 0 1 4249.8633 -1499.8988)" class="st0 st1"> </text>
	</g>
	<g id="_2353784030448">
		<path class="st2" d="M7.6,0.3h277.2c4.1,0,7.4,6.3,7.1,26.6v215.4c0.3-4.6-3,1.7-7.1,1.7H7.6c-4.1,0-7.4-6.3-7.6-1.7V26.9
			C0.3,6.6,3.6,0.3,7.6,0.3z"/>
		<path class="st2" d="M131.4,24.4h7.8c0-3.9,3.2-7.1,7.1-7.1c3.9,0,7.1,3.2,7.1,7.1h7.8c2.7,0,5,2.2,5,5l0,0c0,2.7-2.2,5-5,5h-29.8
			c-2.7,0-5-2.2-5-5l0,0C126.4,26.6,128.7,24.4,131.4,24.4L131.4,24.4z"/>
	</g>
</g>
<text transform="matrix(1 0 0 1 101.8868 85.1814)" class="st3 st4">Kolonne 1</text>
<text transform="matrix(1 0 0 1 113.8721 103.1814)" class="st5 st6">Kolonne 2</text>
<text transform="matrix(1 0 0 1 106.7208 127.1814)" class="st3 st7">Kolonne 3</text>
<path class="st8" d="M101.4,194.9c0.6-2.1,2-3.1,3.8-3.7c1.7-0.5,3.7-0.6,5.6-0.6c0.4,0,0.9,0,1.3,0c0.4,0,0.8,0,1.2-0.1l0.6-0.1
	c-0.6-0.6-1.1-1.4-1.6-2.2c-0.7-1.2-1.3-2.5-1.7-3.9c-0.5-1.5-0.7-3.2-0.8-4.8c0-1.6,0.1-3.1,0.5-4.5c0.3-1.1,1-2.1,1.9-2.8
	c1-0.8,2.2-1.4,3.6-1.9c1.5-0.5,3.2-0.7,4.8-0.7c1.7,0,3.4,0.1,4.9,0.5c1.3,0.3,2.3,1.1,3.1,2c0.8,0.9,1.3,2.1,1.7,3.4
	c0.3,1.1,0.5,2.4,0.7,3.6c0.1,0.9,0.2,1.8,0.2,2.7h0.1c0.3-0.1,0.6-0.1,0.8-0.2c1.6-0.4,3.4-0.5,5-0.3c1.5,0.1,2.9,0.5,4.1,1.1l0,0
	c-0.6-1-1.2-2.1-1.7-3.2c-0.6-1.5-1.1-3-1.3-4.6c-0.2-1.5-0.2-3,0.2-4.5c0.3-1.3,0.9-2.6,1.8-3.8c0.8-1,1.8-1.7,3.1-2.3
	c1.3-0.6,2.9-1,4.5-1.1c1.6-0.1,3.3-0.1,4.9,0.3c1.5,0.3,2.9,0.8,4,1.6c0.9,0.6,1.6,1.4,2.1,2.4c0.6,1,0.9,2.2,1.1,3.5
	c0.2,1.4,0.2,2.9,0,4.4c-0.2,1.7-0.5,3.4-1,4.7c-0.2,0.5-0.3,0.9-0.5,1.3l-0.2,0.4c1.4-0.3,2.9-0.5,4.4-0.4c1.6,0,3.2,0.3,4.5,0.8
	c1,0.4,1.9,1,2.5,1.7c0.7,0.8,1.3,1.9,1.7,3c0.4,1.3,0.7,2.7,0.8,4.1c0.2,1.8,0.1,3.6,0,5c0,0.7-0.1,1.4-0.3,2.1
	c-0.1,0.7-0.3,1.3-0.6,1.8c-0.2,0.4-0.4,0.8-0.6,1.1l0,0h0.4c0.8,0,1.7,0,2.6,0.1c0.9,0.1,1.9,0.2,2.8,0.5c0.9,0.2,1.9,0.6,2.7,1.1
	c0.8,0.5,1.6,1.1,2.2,1.9c0.9,1.2,1.2,2.7,1.3,4.2c0.1,1.5,0,3-0.1,4.2v0.1c-0.1,1.3-0.2,2.8-0.4,4.3c-0.2,1.5-0.3,3-0.6,4.4
	c-0.2,1.5-0.5,3-0.8,4.4c-0.3,1.5-0.7,2.9-1.2,4.2c-0.2,0.5-0.3,0.9-0.4,1.4l0,0c-0.3,0.9-0.6,1.8-0.9,2.7c-0.4,0.9-0.8,1.6-1.4,2.3
	c-0.1,0.1-0.2,0.2-0.3,0.2c-0.1,0.1-0.2,0.1-0.4,0.1h-64.7c-0.2,0-0.3-0.1-0.5-0.2l0,0c-0.1-0.1-0.2-0.2-0.3-0.4
	c-0.3-0.9-0.7-2-1.2-3.3c-0.5-1.4-1-3-1.5-4.6c-0.5-1.7-1.1-3.5-1.5-5c-0.5-1.6-0.8-2.9-1-3.7v-0.1c-0.1-0.1-0.1-0.2-0.1-0.3
	c-0.4-2-1.1-4.1-1.8-6.2l0,0c-0.6-2-1.2-3.9-1.7-5.9"/>
<path class="st8" d="M124.2,231.9c0.3,1.1,0.6,2.2,1.2,3.2h23.4c0.9-1.2,1.3-2.6,1.7-4c0.1-0.5,0.3-1,0.5-1.4c0.4-1.3,0.8-2.6,1.1-4
	c0.3-1.4,0.6-2.8,0.8-4.3s0.4-2.9,0.6-4.4c0.2-1.4,0.3-2.8,0.4-4.2v-0.1c0.2-2.2,0.5-5.5-0.8-7.2c-0.1-0.1-0.2-0.2-0.3-0.3
	c-0.3-0.3-0.5-0.5-0.8-0.8c-0.1-0.1-0.2-0.2-0.4-0.2l-0.8-0.4c-0.5-0.2-1-0.4-1.6-0.5c-0.5-0.1-1.1-0.3-1.7-0.3
	c-0.3,0-0.7-0.1-1.1-0.1c-0.4,0-0.7-0.1-1-0.1h-2.8c-0.2,0-0.5-0.1-0.6-0.2c-0.2-0.2-0.3-0.4-0.3-0.6c0-0.1,0-0.2,0.1-0.3l0,0
	c0-0.1,0.1-0.2,0.2-0.3c0.2-0.2,0.3-0.4,0.4-0.6c0.1-0.2,0.3-0.5,0.4-0.8c0.1-0.3,0.2-0.6,0.3-1c0.1-0.4,0.2-0.8,0.3-1.3
	c0.1-0.4,0.1-0.8,0.2-1.3c0.2-1.1,0.3-2.4,0.3-3.7c0-1.1-0.1-2.2-0.3-3.3c-0.2-1.1-0.5-2.1-1-2.9c-0.4-0.7-0.9-1.4-1.5-1.8
	c-0.1-0.1-0.2-0.1-0.3-0.2l-0.3-0.2c-1-0.5-2.3-0.9-3.7-1c-1.4-0.1-3,0-4.4,0.3c-0.3,0.1-0.6,0.2-0.9,0.2c-0.3,0.1-0.6,0.2-0.9,0.3
	c-0.5,0.1-1.8,0.8-2.2,1.1c-0.1,0.1-0.2,0.2-0.4,0.2c-0.1,0.1-0.3,0.2-0.4,0.3c-0.3,0.2-0.5,0.5-0.7,0.7s-0.4,0.5-0.5,0.8
	c-0.3,0.5-0.6,1.4-0.8,1.9c-1.2,4.4,0.2,9.4,3.3,12.8l0,0c0.1,0.1,0.2,0.3,0.3,0.4l0.1,0.1v0.4c0,0.1,0,0.2-0.1,0.3v0.1l0,0v0.1
	h-0.1v0.1l0,0l0,0l0,0l0,0l0,0l0,0h-0.2l0,0h-0.3l0,0h-0.3l0,0h-0.2l0,0c-0.6,0-1.3,0-1.9,0.1c-1.8,0.1-3.6,0.1-5.2,0.5
	c-1.4,0.4-2.5,1.1-2.9,2.6c-0.7,2.4,0.3,5.3,1.2,7.9l0,0c0.4,1.1,0.7,2.2,1,3.1c0.4,1.9,1,3.7,1.5,5.5c0.6,2.1,1.2,4.2,1.7,6.3
	c0.1,0.4,0.2,0.8,0.3,1.2C124,231.1,124.1,231.5,124.2,231.9L124.2,231.9L124.2,231.9z"/>
<path class="st8" d="M156.6,184L156.6,184c-0.4,0.2-0.7,0.4-1,0.6s-0.6,0.4-0.8,0.7l-0.2,0.2c-0.4,0.4-0.6,0.8-0.8,1.3
	c-0.5,1.2-0.7,2.6-0.8,4c-0.1,1.5,0.1,2.9,0.4,4.4c0.3,1.4,0.9,2.7,1.6,3.9c0.7,1.1,1.5,2.1,2.4,2.8c0.2,0.1,0.3,0.4,0.3,0.6
	s0,0.4-0.2,0.6c-0.1,0.1-0.2,0.2-0.3,0.2l0,0c-0.1,0.1-0.2,0.1-0.3,0.1l-0.9,0.1c-0.4,0-0.8,0.1-1.3,0.1h-1c0.4,0.4,0.6,0.7,0.9,1.2
	l0,0c0.1,0.3,0.3,0.5,0.4,0.8l0,0l0,0c0.1,0.3,0.2,0.5,0.2,0.7l0,0l0.1,0.3l0,0l0.1,0.5l0,0c0,0.3,0.1,0.5,0.1,0.8l0,0v0.1l0,0
	c0,0.8,0.1,1.5,0.1,2.3l0,0c0,0.8-0.1,1.7-0.2,2.5c-0.1,1.3-0.2,2.8-0.4,4.3s-0.3,3-0.6,4.4c-0.2,1.5-0.5,3-0.8,4.4
	c-0.3,1.5-0.7,2.9-1.2,4.2l-0.2,0.7c-0.4,1.3-0.9,3-1.6,4.2h25.2c0.4-0.5,0.6-1,0.9-1.6c0.3-0.7,0.6-1.5,0.8-2.4l0.5-1.5
	c0.4-1.3,0.8-2.6,1.1-4c0.3-1.4,0.6-2.8,0.8-4.3c0.2-1.5,0.4-2.9,0.6-4.4c0.2-1.4,0.3-2.8,0.4-4.2v-0.1c0.1-1.1,0.2-2.5,0.1-3.9
	c-0.1-1.3-0.3-2.5-1-3.4c-0.4-0.6-1-1.1-1.7-1.4c-0.7-0.4-1.4-0.7-2.2-0.9c-0.8-0.2-1.7-0.4-2.5-0.4c-0.9-0.1-1.7-0.1-2.4-0.1H170
	h-1.2c-0.2,0-0.5-0.1-0.6-0.2c-0.2-0.2-0.3-0.4-0.3-0.6c0-0.1,0-0.3,0.1-0.4c0.1-0.1,0.1-0.2,0.2-0.3c0.3-0.3,0.6-0.5,0.9-0.9
	c0.3-0.3,0.5-0.7,0.7-1.2c0.2-0.4,0.3-0.9,0.5-1.5c0.1-0.6,0.2-1.2,0.2-1.8c0.1-1.4,0.1-3.1,0-4.7c-0.1-1.3-0.3-2.6-0.7-3.7
	c-0.3-0.9-0.8-1.8-1.3-2.4s-1.1-1-1.8-1.3c-1.2-0.4-2.6-0.7-4-0.7s-2.9,0.1-4.2,0.5c-0.4,0.1-0.7,0.2-1.1,0.3
	C157.2,183.7,156.9,183.8,156.6,184L156.6,184z"/>
<path class="st8" d="M151,203.1L151,203.1L151,203.1z"/>
<path class="st8" d="M143.6,184.5c0.3,0.4,0.5,0.8,0.7,1.2c0.4,0.8,0.7,1.7,0.9,2.6c0.2,1,0.4,2.1,0.4,3.2c0.1,1.2,0,2.5-0.1,3.6
	c0,0.4-0.1,0.8-0.1,1.2l0,0c-0.1,0.5-0.2,1-0.3,1.5s-0.2,1-0.3,1.4c-0.1,0.4-0.3,0.8-0.4,1.2l-0.2,0.4c0.8,0,1.6,0,2.4,0.1
	c0.5,0,1,0.1,1.5,0.2c0.5,0.1,1,0.2,1.5,0.3c0.3,0.1,0.6,0.2,0.9,0.3c0.3,0.1,0.5,0.2,0.8,0.3c1.2-0.1,2.4-0.1,3.6-0.1
	c-0.6-0.7-1.1-1.4-1.6-2.3c-0.7-1.2-1.2-2.6-1.6-4c-0.4-1.6-0.5-3.2-0.5-4.9c0.1-1.6,0.4-3.1,0.9-4.5c0.1-0.3,0.5-1.1,0.7-1.3
	c0.5-0.6,0.8-1,1.4-1.4l0,0c0.5-0.3,0.8-0.6,1.3-0.8c0.2-0.1,0.3-0.3,0.4-0.4c0.2-0.2,0.3-0.4,0.5-0.7s0.3-0.6,0.4-0.9
	c0.1-0.3,0.3-0.7,0.4-1.2c0.4-1.2,0.7-2.8,0.9-4.3c0.1-1.3,0.2-2.7,0-4c-0.1-1-0.4-2-0.9-2.9c-0.4-0.7-0.9-1.3-1.6-1.8
	c-1-0.6-2.2-1.1-3.5-1.4c-1.4-0.3-2.9-0.4-4.4-0.2c-1.4,0.1-2.8,0.4-3.9,1c-1,0.5-1.9,1.1-2.5,1.8c-0.8,1-1.3,2.1-1.5,3.2
	c-0.3,1.2-0.3,2.5-0.2,3.8c0.2,1.5,0.7,3,1.3,4.4c0.7,1.6,1.7,3.1,2.6,4.3l0,0c0.1,0.1,0.1,0.2,0.1,0.2c0,0.1,0,0.2,0,0.3l0,0
	c0,0.2-0.1,0.4-0.2,0.6C143.8,184.4,143.7,184.4,143.6,184.5L143.6,184.5z"/>
<path class="st8" d="M103.2,204.1c0.2,1,0.4,1.9,0.6,2.8c0.2,1,0.5,1.9,0.8,2.8c0.3,0.9,0.6,1.9,0.9,2.9c0.3,1,0.6,1.9,0.9,3
	c0.3,1,0.5,1.9,0.8,2.8l0.1,0.1c0,0.1,0.1,0.2,0.1,0.3l0,0c0.1,0.6,0.5,1.9,1,3.6c0.5,1.6,1,3.5,1.6,5.5c0.5,1.5,1,3,1.4,4.4
	c0.3,1,0.7,2,1,2.8h11.2c-0.1-0.2-0.2-0.4-0.3-0.6c-0.1-0.3-0.3-0.7-0.4-1c-0.1-0.3-0.2-0.7-0.3-1.1c-0.8-2.8-1.5-5.7-2.4-8.5
	c-0.6-1.9-1.1-3.7-1.6-5.6c-0.2-0.9-0.6-1.9-0.9-3l0,0c-1-2.9-2.1-6.1-1.2-8.9c0.6-2.1,2.1-3.1,3.9-3.7c1.7-0.5,3.8-0.6,5.7-0.6h0.7
	c-0.6-0.9-1.2-1.8-1.7-2.8c-0.6-1.3-1.1-2.7-1.3-4.2c-0.5-3-0.2-6.1,1.4-8.8c0.2-0.3,0.4-0.5,0.6-0.8c0.2-0.2,0.4-0.4,0.6-0.6
	c0.2-0.2,0.5-0.4,0.7-0.6c0.4-0.3,0.9-0.6,1.3-0.9c0.4-0.2,0.8-0.4,1.2-0.6c0-0.9-0.1-2-0.2-3c-0.1-1.2-0.3-2.3-0.6-3.4
	c-0.3-1-0.7-2-1.3-2.8c-0.6-0.7-1.3-1.2-2.2-1.5c-1.3-0.3-2.8-0.5-4.4-0.5c-1.5,0-3,0.3-4.4,0.7c-1.2,0.4-2.2,0.9-3,1.5
	c-0.7,0.6-1.2,1.2-1.4,2c-0.4,1.2-0.5,2.6-0.5,4c0,1.4,0.3,2.9,0.7,4.3s1,2.7,1.7,3.8c0.7,1.1,1.5,2,2.4,2.7
	c0.2,0.1,0.3,0.4,0.3,0.6s0,0.4-0.2,0.6c-0.1,0.1-0.2,0.2-0.3,0.2l0,0c-0.1,0.1-0.2,0.1-0.3,0.1l-2.4,0.2c-0.4,0-0.9,0.1-1.3,0.1
	h-1.4c-1.7,0-3.5,0.1-4.9,0.5c-1.3,0.4-2.4,1.1-2.8,2.5"/>
<g>
	<polygon class="st9" points="105,202.8 105,194.7 106.7,194.7 106.7,201.4 110.8,201.4 110.8,202.8 	"/>
</g>
<g>
	<path id="_x31__00000123419795581193173880000007795495111412869028_" class="st9" d="M111.6,199.8c0-0.5,0.1-1,0.4-1.5
		c0.3-0.5,0.6-0.9,1.1-1.1c0.5-0.3,1-0.4,1.6-0.4c0.9,0,1.6,0.3,2.2,0.9c0.6,0.6,0.9,1.3,0.9,2.2s-0.3,1.6-0.9,2.2
		c-0.6,0.6-1.3,0.9-2.2,0.9c-0.5,0-1.1-0.1-1.6-0.4c-0.5-0.2-0.9-0.6-1.1-1.1C111.7,201,111.6,200.4,111.6,199.8L111.6,199.8z
		 M113.2,199.8c0,0.6,0.1,1,0.4,1.4c0.3,0.3,0.6,0.5,1,0.5s0.8-0.2,1-0.5c0.3-0.3,0.4-0.8,0.4-1.4c0-0.6-0.1-1-0.4-1.3
		c-0.3-0.3-0.6-0.5-1-0.5s-0.8,0.2-1,0.5C113.4,198.8,113.2,199.2,113.2,199.8L113.2,199.8z"/>
</g>
<g>
	<path id="_x32__00000132078874029929789270000001687726302929418155_" class="st9" d="M118.8,203.2l1.8,0.2c0,0.2,0.1,0.4,0.2,0.4
		c0.2,0.1,0.4,0.2,0.7,0.2c0.4,0,0.7-0.1,0.9-0.2c0.1-0.1,0.2-0.2,0.3-0.4c0-0.1,0.1-0.4,0.1-0.7v-0.9c-0.5,0.6-1.1,1-1.8,1
		c-0.8,0-1.4-0.3-1.9-1c-0.4-0.5-0.6-1.2-0.6-2c0-1,0.2-1.8,0.7-2.3s1.1-0.8,1.8-0.8s1.3,0.3,1.8,1v-0.8h1.5v5.3
		c0,0.7-0.1,1.2-0.2,1.6c-0.1,0.3-0.3,0.6-0.5,0.8c-0.2,0.2-0.5,0.4-0.8,0.5c-0.3,0.1-0.8,0.2-1.3,0.2c-1,0-1.7-0.2-2.1-0.5
		c-0.4-0.3-0.6-0.8-0.6-1.3C118.8,203.3,118.8,203.3,118.8,203.2L118.8,203.2z M120.2,199.7c0,0.6,0.1,1.1,0.4,1.4
		c0.2,0.3,0.5,0.4,0.9,0.4s0.7-0.2,1-0.5s0.4-0.7,0.4-1.3s-0.1-1.1-0.4-1.4c-0.3-0.3-0.6-0.4-1-0.4s-0.7,0.1-0.9,0.4
		C120.4,198.7,120.2,199.1,120.2,199.7L120.2,199.7z"/>
</g>
<g>
	<path id="_x33__00000176737699263602290630000007684258186140299944_" class="st9" d="M125.6,199.8c0-0.5,0.1-1,0.4-1.5
		c0.3-0.5,0.6-0.9,1.1-1.1c0.5-0.3,1-0.4,1.6-0.4c0.9,0,1.6,0.3,2.2,0.9c0.6,0.6,0.9,1.3,0.9,2.2s-0.3,1.6-0.9,2.2
		c-0.6,0.6-1.3,0.9-2.2,0.9c-0.5,0-1.1-0.1-1.6-0.4c-0.5-0.2-0.9-0.6-1.1-1.1C125.8,201,125.6,200.4,125.6,199.8L125.6,199.8z
		 M127.2,199.8c0,0.6,0.1,1,0.4,1.4c0.3,0.3,0.6,0.5,1,0.5s0.8-0.2,1-0.5c0.3-0.3,0.4-0.8,0.4-1.4c0-0.6-0.1-1-0.4-1.3
		c-0.3-0.3-0.6-0.5-1-0.5s-0.8,0.2-1,0.5C127.4,198.8,127.2,199.2,127.2,199.8L127.2,199.8z"/>
</g>
<g>
	<polygon id="_x34__00000079474614247867074970000012809474833888864415_" class="st9" points="135.3,202.9 137.4,194.5 
		138.6,194.5 136.5,202.9 	"/>
</g>
<g>
	<path id="_x35__00000172438785454659738820000005243518164728310656_" class="st9" d="M142.6,194.6h3.3c0.7,0,1.1,0,1.5,0.1
		c0.3,0.1,0.6,0.2,0.9,0.3c0.3,0.2,0.5,0.4,0.6,0.7c0.2,0.3,0.3,0.6,0.3,1c0,0.4-0.1,0.7-0.3,1.1c-0.2,0.3-0.5,0.6-0.8,0.7
		c0.5,0.1,0.9,0.4,1.2,0.7c0.3,0.4,0.4,0.8,0.4,1.2c0,0.4-0.1,0.7-0.3,1.1c-0.2,0.4-0.4,0.6-0.7,0.8c-0.3,0.2-0.7,0.3-1.1,0.4
		c-0.3,0-0.9,0-2,0.1h-2.8L142.6,194.6L142.6,194.6z M144.2,196v1.9h1.1c0.6,0,1,0,1.2,0c0.3,0,0.5-0.1,0.7-0.3
		c0.2-0.2,0.2-0.4,0.2-0.6c0-0.3-0.1-0.5-0.2-0.6c-0.1-0.2-0.3-0.3-0.6-0.3c-0.2,0-0.6,0-1.4,0L144.2,196L144.2,196z M144.2,199.2
		v2.2h1.5c0.6,0,1,0,1.1,0c0.2,0,0.4-0.2,0.6-0.3c0.2-0.2,0.2-0.4,0.2-0.7c0-0.2-0.1-0.5-0.2-0.6c-0.1-0.2-0.3-0.3-0.5-0.4
		c-0.2-0.1-0.7-0.1-1.5-0.1L144.2,199.2L144.2,199.2z"/>
</g>
<g>
	<path id="_x36__00000162317188710274090380000003966724034162400670_" class="st9" d="M150.8,196v-1.5h1.6v1.5H150.8z M150.8,202.8
		v-6h1.6v6H150.8z"/>
</g>
<g>
	<polygon id="_x37__00000086688985033847438960000004815469166452105606_" class="st9" points="154,202.8 154,194.6 155.6,194.6 
		155.6,202.8 	"/>
</g>
<g>
	<polygon id="_x38__00000089537039967326369860000016924771918448589983_" class="st9" points="157.2,202.8 157.2,194.6 
		158.8,194.6 158.8,202.8 	"/>
</g>
<g>
	<path id="_x39__00000040565036536678885000000006803004351898622623_" class="st9" d="M163.8,200.9l1.6,0.3c-0.2,0.6-0.5,1-1,1.3
		c-0.4,0.3-1,0.5-1.6,0.5c-1,0-1.8-0.3-2.3-1c-0.4-0.5-0.6-1.2-0.6-2.1c0-1,0.3-1.8,0.8-2.3c0.5-0.6,1.2-0.8,2-0.8
		c0.9,0,1.6,0.3,2.1,0.9c0.5,0.6,0.8,1.5,0.7,2.7h-3.9c0,0.5,0.1,0.8,0.4,1.1c0.2,0.3,0.5,0.4,0.9,0.4c0.2,0,0.5-0.1,0.6-0.2
		C163.6,201.4,163.8,201.2,163.8,200.9z M163.9,199.3c0-0.5-0.1-0.8-0.4-1c-0.2-0.2-0.5-0.4-0.8-0.4s-0.6,0.1-0.8,0.4
		s-0.3,0.6-0.3,1H163.9L163.9,199.3z"/>
</g>
<g>
	<path id="_x31_0_00000105419761653481894720000006450622052361993645_" class="st9" d="M172.2,202.8h-1.4v-0.9
		c-0.2,0.3-0.5,0.6-0.9,0.8c-0.3,0.2-0.7,0.3-1,0.3c-0.7,0-1.3-0.3-1.8-0.8c-0.5-0.6-0.7-1.3-0.7-2.3s0.2-1.8,0.7-2.3
		s1.1-0.8,1.8-0.8c0.7,0,1.2,0.3,1.7,0.8v-3h1.6L172.2,202.8L172.2,202.8z M168,199.7c0,0.6,0.1,1.1,0.3,1.4
		c0.3,0.4,0.6,0.6,1.1,0.6c0.4,0,0.7-0.2,0.9-0.5c0.3-0.3,0.4-0.8,0.4-1.4c0-0.7-0.1-1.2-0.4-1.5c-0.2-0.3-0.6-0.5-0.9-0.5
		c-0.4,0-0.7,0.1-0.9,0.4C168.2,198.7,168,199.1,168,199.7L168,199.7z"/>
</g>
<g>
	<path id="_x31_1_00000165929905248153990510000013215389987651349407_" class="st9" d="M177.2,200.9l1.6,0.3c-0.2,0.6-0.5,1-1,1.3
		c-0.4,0.3-1,0.5-1.6,0.5c-1,0-1.8-0.3-2.3-1c-0.4-0.5-0.6-1.2-0.6-2.1c0-1,0.3-1.8,0.8-2.3c0.5-0.6,1.2-0.8,2-0.8
		c0.9,0,1.6,0.3,2.1,0.9c0.5,0.6,0.8,1.5,0.7,2.7H175c0,0.5,0.1,0.8,0.4,1.1c0.2,0.3,0.5,0.4,0.9,0.4c0.2,0,0.5-0.1,0.6-0.2
		C177,201.4,177.1,201.2,177.2,200.9z M177.3,199.3c0-0.5-0.1-0.8-0.4-1c-0.2-0.2-0.5-0.4-0.8-0.4s-0.6,0.1-0.8,0.4
		c-0.2,0.3-0.3,0.6-0.3,1H177.3L177.3,199.3z"/>
</g>
<g transform="matrix(0.999999 0 0 0.999999 5404.11 3503.57)">
	
		<text id="_x31_1_00000179619095873290224180000007604831826088105116_" transform="matrix(1 0 0 1 -5300.001 -3300.8176)" class="st0 st10">Logo / Billede</text>
</g>
</svg>
