<?xml version="1.0" encoding="utf-8"?>
<!-- Generator: Adobe Illustrator 27.1.1, SVG Export Plug-In . SVG Version: 6.00 Build 0)  -->
<svg version="1.1" id="Lag_1" xmlns:xodm="http://www.corel.com/coreldraw/odm/2003"
	 xmlns="http://www.w3.org/2000/svg" xmlns:xlink="http://www.w3.org/1999/xlink" x="0px" y="0px" viewBox="0 0 292.5 244.3"
	 style="enable-background:new 0 0 292.5 244.3;" xml:space="preserve">
<style type="text/css">
	.st0{font-family:'Arial-BoldMT';}
	.st1{font-size:17.9998px;}
	.st2{fill:none;stroke:#ff0000;stroke-width:0.5673;stroke-miterlimit:3.4408;}
	.st3{font-family:'Helvetica-Bold';}
	.st4{font-size:18px;}
	.st5{font-family:'Helvetica';}
	.st6{font-size:14px;}
	.st7{font-size:16px;}
	.st8{fill:none;stroke:#000000;stroke-linecap:round;stroke-linejoin:round;stroke-miterlimit:10;}
</style>
<g id="Layer_x0020_1">
	<g transform="matrix(0.999999 0 0 0.999999 -4218.93 1664.22)">
		<text transform="matrix(1 0 0 1 4250.1426 -1512.3716)" class="st0 st1"> </text>
	</g>
	<g id="_2353784030448">
		<path class="st2" d="M7.6,0.3h277.2c4.1,0,7.4,6.3,7.4,14.2v215.4c0,7.8-3.3,14.2-7.4,14.2H7.6c-4.1,0-7.4-6.3-7.4-14.2V14.5
			C0.3,6.6,3.6,0.3,7.6,0.3z"/>
		<path class="st2" d="M131.4,24.4h7.8c0-3.9,3.2-7.1,7.1-7.1c3.9,0,7.1,3.2,7.1,7.1h7.8c2.7,0,5,2.2,5,5l0,0c0,2.7-2.2,5-5,5h-29.8
			c-2.7,0-5-2.2-5-5l0,0C126.4,26.6,128.7,24.4,131.4,24.4L131.4,24.4z"/>
	</g>
</g>
<text transform="matrix(1 0 0 1 102.7639 108.6032)" class="st3 st4">Kolonne 1</text>
<text transform="matrix(1 0 0 1 114.7492 126.6032)" class="st5 st6">Kolonne 2</text>
<text transform="matrix(1 0 0 1 107.5977 181.7449)" class="st3 st7">Kolonne 3</text>
<path class="st8" d="M8.8,165.7"/>
</svg>
