<?xml version="1.0" encoding="utf-8"?>
<!-- Generator: Adobe Illustrator 27.1.1, SVG Export Plug-In . SVG Version: 6.00 Build 0)  -->
<svg version="1.1" id="Lag_1" xmlns:xodm="http://www.corel.com/coreldraw/odm/2003"
	 xmlns="http://www.w3.org/2000/svg" xmlns:xlink="http://www.w3.org/1999/xlink" x="0px" y="0px" viewBox="0 0 292.5 244.3"
	 style="enable-background:new 0 0 292.5 244.3;" xml:space="preserve">
<style type="text/css">
	.st0{font-family:'Arial-BoldMT';}
	.st1{font-size:17.9998px;}
	.st2{fill:none;stroke:#ff0000;stroke-width:0.5673;stroke-miterlimit:3.4408;}
	.st3{font-family:'Helvetica-Bold';}
	.st4{font-size:16px;}
	.st5{font-size:18px;}
	.st6{font-family:'Helvetica';}
	.st7{font-size:14px;}
	.st8{fill:#D9DADA;}
	.st9{fill:none;stroke:#FEFEFE;stroke-width:1.4171;stroke-miterlimit:10;}
	.st10{font-size:11.4716px;}
</style>
<g id="Layer_x0020_1">
	<g transform="matrix(0.999999 0 0 0.999999 -4218.93 1664.22)">
		<text transform="matrix(1 0 0 1 4250.1426 -1512.3716)" class="st0 st1"> </text>
		<text transform="matrix(1 0 0 1 4383.6724 -1512.3716)" class="st0 st1">  </text>
	</g>
	<g id="_2353784030448">
		<path class="st2" d="M7.6,0.3h277.2c4.1,0,7.4,6.3,7.4,14.2v215.4c0,7.8-3.3,14.2-7.4,14.2H7.6c-4.1,0-7.4-6.3-7.4-14.2V14.5
			C0.3,6.6,3.6,0.3,7.6,0.3z"/>
		<path class="st2" d="M131.4,24.4h7.8c0-3.9,3.2-7.1,7.1-7.1c3.9,0,7.1,3.2,7.1,7.1h7.8c2.7,0,5,2.2,5,5l0,0c0,2.7-2.2,5-5,5h-29.8
			c-2.7,0-5-2.2-5-5l0,0C126.4,26.6,128.7,24.4,131.4,24.4L131.4,24.4z"/>
	</g>
</g>
<text transform="matrix(1 0 0 1 74.5269 80.8838)" class="st3 st4">Kolonne 3</text>
<text transform="matrix(1 0 0 1 102.7637 151.0965)" class="st3 st5">Kolonne 1</text>
<text transform="matrix(1 0 0 1 114.7491 169.0965)" class="st6 st7">Kolonne 2</text>
<path class="st8" d="M195,62.9c0.6-2.1,2-3.1,3.8-3.7c1.7-0.5,3.7-0.6,5.6-0.6c0.4,0,0.9,0,1.3,0c0.4,0,0.8,0,1.2-0.1l0.6-0.1
	c-0.6-0.6-1.1-1.4-1.6-2.2c-0.7-1.2-1.3-2.5-1.7-3.9c-0.5-1.5-0.7-3.2-0.8-4.8c0-1.6,0.1-3.1,0.5-4.5c0.3-1.1,1-2.1,1.9-2.8
	c1-0.8,2.2-1.4,3.6-1.9c1.5-0.5,3.2-0.7,4.8-0.7c1.7,0,3.4,0.1,4.9,0.5c1.3,0.3,2.3,1.1,3.1,2s1.3,2.1,1.7,3.4
	c0.3,1.1,0.5,2.4,0.7,3.6c0.1,0.9,0.2,1.8,0.2,2.7h0.1c0.3-0.1,0.6-0.1,0.8-0.2c1.6-0.4,3.4-0.5,5-0.3c1.5,0.1,2.9,0.5,4.1,1.1l0,0
	c-0.6-1-1.2-2.1-1.7-3.2c-0.6-1.5-1.1-3-1.3-4.6c-0.2-1.5-0.2-3,0.2-4.5c0.3-1.3,0.9-2.6,1.8-3.8c0.8-1,1.8-1.7,3.1-2.3
	c1.3-0.6,2.9-1,4.5-1.1s3.3-0.1,4.9,0.3c1.5,0.3,2.9,0.8,4,1.6c0.9,0.6,1.6,1.4,2.1,2.4c0.6,1,0.9,2.2,1.1,3.5
	c0.2,1.4,0.2,2.9,0,4.4c-0.2,1.7-0.5,3.4-1,4.7c-0.2,0.5-0.3,0.9-0.5,1.3l-0.2,0.4c1.4-0.3,2.9-0.5,4.4-0.4c1.6,0,3.2,0.3,4.5,0.8
	c1,0.4,1.9,1,2.5,1.7c0.7,0.8,1.3,1.9,1.7,3c0.4,1.3,0.7,2.7,0.8,4.1c0.2,1.8,0.1,3.6,0,5c0,0.7-0.1,1.4-0.3,2.1
	c-0.1,0.7-0.3,1.3-0.6,1.8c-0.2,0.4-0.4,0.8-0.6,1.1l0,0h0.4c0.8,0,1.7,0,2.6,0.1s1.9,0.2,2.8,0.5c0.9,0.2,1.9,0.6,2.7,1.1
	c0.8,0.5,1.6,1.1,2.2,1.9c0.9,1.2,1.2,2.7,1.3,4.2c0.1,1.5,0,3-0.1,4.2v0.1c-0.1,1.3-0.2,2.8-0.4,4.3c-0.2,1.5-0.3,3-0.6,4.4
	c-0.2,1.5-0.5,3-0.8,4.4c-0.3,1.5-0.7,2.9-1.2,4.2c-0.2,0.5-0.3,0.9-0.4,1.4l0,0c-0.3,0.9-0.6,1.8-0.9,2.7c-0.4,0.9-0.8,1.6-1.4,2.3
	c-0.1,0.1-0.2,0.2-0.3,0.2c-0.1,0.1-0.2,0.1-0.4,0.1H205c-0.2,0-0.3-0.1-0.5-0.2l0,0c-0.1-0.1-0.2-0.2-0.3-0.4
	c-0.3-0.9-0.7-2-1.2-3.3c-0.5-1.4-1-3-1.5-4.6c-0.5-1.7-1.1-3.5-1.5-5c-0.5-1.6-0.8-2.9-1-3.7v-0.1c-0.1-0.1-0.1-0.2-0.1-0.3
	c-0.4-2-1.1-4.1-1.8-6.2l0,0c-0.6-2-1.2-3.9-1.7-5.9"/>
<path class="st8" d="M217.8,99.9c0.3,1.1,0.6,2.2,1.2,3.2h23.4c0.9-1.2,1.3-2.6,1.7-4c0.1-0.5,0.3-1,0.5-1.4c0.4-1.3,0.8-2.6,1.1-4
	s0.6-2.8,0.8-4.3s0.4-2.9,0.6-4.4c0.2-1.4,0.3-2.8,0.4-4.2v-0.1c0.2-2.2,0.5-5.5-0.8-7.2c-0.1-0.1-0.2-0.2-0.3-0.3
	c-0.3-0.3-0.5-0.5-0.8-0.8c-0.1-0.1-0.2-0.2-0.4-0.2l-0.8-0.4c-0.5-0.2-1-0.4-1.6-0.5c-0.5-0.1-1.1-0.3-1.7-0.3
	c-0.3,0-0.7-0.1-1.1-0.1c-0.4,0-0.7-0.1-1-0.1h-2.8c-0.2,0-0.5-0.1-0.6-0.2c-0.2-0.2-0.3-0.4-0.3-0.6c0-0.1,0-0.2,0.1-0.3l0,0
	c0-0.1,0.1-0.2,0.2-0.3c0.2-0.2,0.3-0.4,0.4-0.6c0.1-0.2,0.3-0.5,0.4-0.8c0.1-0.3,0.2-0.6,0.3-1s0.2-0.8,0.3-1.3
	c0.1-0.4,0.1-0.8,0.2-1.3c0.2-1.1,0.3-2.4,0.3-3.7c0-1.1-0.1-2.2-0.3-3.3c-0.2-1.1-0.5-2.1-1-2.9c-0.4-0.7-0.9-1.4-1.5-1.8
	c-0.1-0.1-0.2-0.1-0.3-0.2l-0.3-0.2c-1-0.5-2.3-0.9-3.7-1s-3,0-4.4,0.3c-0.3,0.1-0.6,0.2-0.9,0.2c-0.3,0.1-0.6,0.2-0.9,0.3
	c-0.5,0.1-1.8,0.8-2.2,1.1c-0.1,0.1-0.2,0.2-0.4,0.2c-0.1,0.1-0.3,0.2-0.4,0.3c-0.3,0.2-0.5,0.5-0.7,0.7s-0.4,0.5-0.5,0.8
	c-0.3,0.5-0.6,1.4-0.8,1.9c-1.2,4.4,0.2,9.4,3.3,12.8l0,0c0.1,0.1,0.2,0.3,0.3,0.4l0.1,0.1v0.4c0,0.1,0,0.2-0.1,0.3v0.1l0,0v0.1
	h-0.1v0.1l0,0l0,0l0,0l0,0l0,0l0,0h-0.2l0,0h-0.3l0,0h-0.3l0,0h-0.2l0,0c-0.6,0-1.3,0-1.9,0.1c-1.8,0.1-3.6,0.1-5.2,0.5
	c-1.4,0.4-2.5,1.1-2.9,2.6c-0.7,2.4,0.3,5.3,1.2,7.9l0,0c0.4,1.1,0.7,2.2,1,3.1c0.4,1.9,1,3.7,1.5,5.5c0.6,2.1,1.2,4.2,1.7,6.3
	c0.1,0.4,0.2,0.8,0.3,1.2C217.6,99.1,217.7,99.5,217.8,99.9L217.8,99.9L217.8,99.9z"/>
<path class="st8" d="M250.2,52L250.2,52c-0.4,0.2-0.7,0.4-1,0.6c-0.3,0.2-0.6,0.4-0.8,0.7l-0.2,0.2c-0.4,0.4-0.6,0.8-0.8,1.3
	c-0.5,1.2-0.7,2.6-0.8,4c-0.1,1.5,0.1,2.9,0.4,4.4c0.3,1.4,0.9,2.7,1.6,3.9c0.7,1.1,1.5,2.1,2.4,2.8c0.2,0.1,0.3,0.4,0.3,0.6
	s0,0.4-0.2,0.6c-0.1,0.1-0.2,0.2-0.3,0.2l0,0c-0.1,0.1-0.2,0.1-0.3,0.1l-0.9,0.1c-0.4,0-0.8,0.1-1.3,0.1h-1c0.4,0.4,0.6,0.7,0.9,1.2
	l0,0c0.1,0.3,0.3,0.5,0.4,0.8l0,0l0,0c0.1,0.3,0.2,0.5,0.2,0.7l0,0l0.1,0.3l0,0l0.1,0.5l0,0c0,0.3,0.1,0.5,0.1,0.8l0,0V76l0,0
	c0,0.8,0.1,1.5,0.1,2.3l0,0c0,0.8-0.1,1.7-0.2,2.5c-0.1,1.3-0.2,2.8-0.4,4.3s-0.3,3-0.6,4.4c-0.2,1.5-0.5,3-0.8,4.4
	c-0.3,1.5-0.7,2.9-1.2,4.2l-0.2,0.7c-0.4,1.3-0.9,3-1.6,4.2h25.2c0.4-0.5,0.6-1,0.9-1.6c0.3-0.7,0.6-1.5,0.8-2.4l0.5-1.5
	c0.4-1.3,0.8-2.6,1.1-4c0.3-1.4,0.6-2.8,0.8-4.3c0.2-1.5,0.4-2.9,0.6-4.4c0.2-1.4,0.3-2.8,0.4-4.2v-0.1c0.1-1.1,0.2-2.5,0.1-3.9
	c-0.1-1.3-0.3-2.5-1-3.4c-0.4-0.6-1-1.1-1.7-1.4c-0.7-0.4-1.4-0.7-2.2-0.9c-0.8-0.2-1.7-0.4-2.5-0.4c-0.9-0.1-1.7-0.1-2.4-0.1h-1.2
	h-1.2c-0.2,0-0.5-0.1-0.6-0.2c-0.2-0.2-0.3-0.4-0.3-0.6c0-0.1,0-0.3,0.1-0.4s0.1-0.2,0.2-0.3c0.3-0.3,0.6-0.5,0.9-0.9
	c0.3-0.3,0.5-0.7,0.7-1.2c0.2-0.4,0.3-0.9,0.5-1.5c0.1-0.6,0.2-1.2,0.2-1.8c0.1-1.4,0.1-3.1,0-4.7c-0.1-1.3-0.3-2.6-0.7-3.7
	c-0.3-0.9-0.8-1.8-1.3-2.4c-0.5-0.6-1.1-1-1.8-1.3c-1.2-0.4-2.6-0.7-4-0.7c-1.4,0-2.9,0.1-4.2,0.5c-0.4,0.1-0.7,0.2-1.1,0.3
	C250.8,51.7,250.5,51.8,250.2,52L250.2,52z"/>
<path class="st8" d="M244.6,71.1L244.6,71.1L244.6,71.1z"/>
<path class="st8" d="M237.2,52.5c0.3,0.4,0.5,0.8,0.7,1.2c0.4,0.8,0.7,1.7,0.9,2.6c0.2,1,0.4,2.1,0.4,3.2c0.1,1.2,0,2.5-0.1,3.6
	c0,0.4-0.1,0.8-0.1,1.2l0,0c-0.1,0.5-0.2,1-0.3,1.5s-0.2,1-0.3,1.4s-0.3,0.8-0.4,1.2l-0.2,0.4c0.8,0,1.6,0,2.4,0.1
	c0.5,0,1,0.1,1.5,0.2s1,0.2,1.5,0.3c0.3,0.1,0.6,0.2,0.9,0.3c0.3,0.1,0.5,0.2,0.8,0.3c1.2-0.1,2.4-0.1,3.6-0.1
	c-0.6-0.7-1.1-1.4-1.6-2.3c-0.7-1.2-1.2-2.6-1.6-4c-0.4-1.6-0.5-3.2-0.5-4.9c0.1-1.6,0.4-3.1,0.9-4.5c0.1-0.3,0.5-1.1,0.7-1.3
	c0.5-0.6,0.8-1,1.4-1.4l0,0c0.5-0.3,0.8-0.6,1.3-0.8c0.2-0.1,0.3-0.3,0.4-0.4c0.2-0.2,0.3-0.4,0.5-0.7s0.3-0.6,0.4-0.9
	c0.1-0.3,0.3-0.7,0.4-1.2c0.4-1.2,0.7-2.8,0.9-4.3c0.1-1.3,0.2-2.7,0-4c-0.1-1-0.4-2-0.9-2.9c-0.4-0.7-0.9-1.3-1.6-1.8
	c-1-0.6-2.2-1.1-3.5-1.4c-1.4-0.3-2.9-0.4-4.4-0.2c-1.4,0.1-2.8,0.4-3.9,1c-1,0.5-1.9,1.1-2.5,1.8c-0.8,1-1.3,2.1-1.5,3.2
	c-0.3,1.2-0.3,2.5-0.2,3.8c0.2,1.5,0.7,3,1.3,4.4c0.7,1.6,1.7,3.1,2.6,4.3l0,0c0.1,0.1,0.1,0.2,0.1,0.2c0,0.1,0,0.2,0,0.3l0,0
	c0,0.2-0.1,0.4-0.2,0.6C237.4,52.4,237.3,52.4,237.2,52.5L237.2,52.5z"/>
<path class="st8" d="M196.8,72.1c0.2,1,0.4,1.9,0.6,2.8c0.2,1,0.5,1.9,0.8,2.8s0.6,1.9,0.9,2.9c0.3,1,0.6,1.9,0.9,3
	c0.3,1,0.5,1.9,0.8,2.8l0.1,0.1c0,0.1,0.1,0.2,0.1,0.3l0,0c0.1,0.6,0.5,1.9,1,3.6c0.5,1.6,1,3.5,1.6,5.5c0.5,1.5,1,3,1.4,4.4
	c0.3,1,0.7,2,1,2.8h11.2c-0.1-0.2-0.2-0.4-0.3-0.6c-0.1-0.3-0.3-0.7-0.4-1c-0.1-0.3-0.2-0.7-0.3-1.1c-0.8-2.8-1.5-5.7-2.4-8.5
	c-0.6-1.9-1.1-3.7-1.6-5.6c-0.2-0.9-0.6-1.9-0.9-3l0,0c-1-2.9-2.1-6.1-1.2-8.9c0.6-2.1,2.1-3.1,3.9-3.7c1.7-0.5,3.8-0.6,5.7-0.6h0.7
	c-0.6-0.9-1.2-1.8-1.7-2.8c-0.6-1.3-1.1-2.7-1.3-4.2c-0.5-3-0.2-6.1,1.4-8.8c0.2-0.3,0.4-0.5,0.6-0.8c0.2-0.2,0.4-0.4,0.6-0.6
	c0.2-0.2,0.5-0.4,0.7-0.6c0.4-0.3,0.9-0.6,1.3-0.9c0.4-0.2,0.8-0.4,1.2-0.6c0-0.9-0.1-2-0.2-3c-0.1-1.2-0.3-2.3-0.6-3.4
	c-0.3-1-0.7-2-1.3-2.8c-0.6-0.7-1.3-1.2-2.2-1.5c-1.3-0.3-2.8-0.5-4.4-0.5c-1.5,0-3,0.3-4.4,0.7c-1.2,0.4-2.2,0.9-3,1.5
	c-0.7,0.6-1.2,1.2-1.4,2c-0.4,1.2-0.5,2.6-0.5,4s0.3,2.9,0.7,4.3c0.4,1.4,1,2.7,1.7,3.8s1.5,2,2.4,2.7c0.2,0.1,0.3,0.4,0.3,0.6
	s0,0.4-0.2,0.6c-0.1,0.1-0.2,0.2-0.3,0.2l0,0c-0.1,0.1-0.2,0.1-0.3,0.1l-2.4,0.2c-0.4,0-0.9,0.1-1.3,0.1h-1.4
	c-1.7,0-3.5,0.1-4.9,0.5c-1.3,0.4-2.4,1.1-2.8,2.5"/>
<g>
	<polygon class="st9" points="198.6,70.8 198.6,62.7 200.3,62.7 200.3,69.4 204.4,69.4 204.4,70.8 	"/>
</g>
<g>
	<path id="_x31__00000123419795581193173880000007795495111412869028_" class="st9" d="M205.2,67.8c0-0.5,0.1-1,0.4-1.5
		c0.3-0.5,0.6-0.9,1.1-1.1c0.5-0.3,1-0.4,1.6-0.4c0.9,0,1.6,0.3,2.2,0.9c0.6,0.6,0.9,1.3,0.9,2.2c0,0.9-0.3,1.6-0.9,2.2
		c-0.6,0.6-1.3,0.9-2.2,0.9c-0.5,0-1.1-0.1-1.6-0.4c-0.5-0.2-0.9-0.6-1.1-1.1C205.3,69,205.2,68.4,205.2,67.8L205.2,67.8z
		 M206.8,67.8c0,0.6,0.1,1,0.4,1.4c0.3,0.3,0.6,0.5,1,0.5s0.8-0.2,1-0.5c0.3-0.3,0.4-0.8,0.4-1.4s-0.1-1-0.4-1.3
		c-0.3-0.3-0.6-0.5-1-0.5s-0.8,0.2-1,0.5C207,66.8,206.8,67.2,206.8,67.8L206.8,67.8z"/>
</g>
<g>
	<path id="_x32__00000132078874029929789270000001687726302929418155_" class="st9" d="M212.4,71.2l1.8,0.2c0,0.2,0.1,0.4,0.2,0.4
		c0.2,0.1,0.4,0.2,0.7,0.2c0.4,0,0.7-0.1,0.9-0.2c0.1-0.1,0.2-0.2,0.3-0.4c0-0.1,0.1-0.4,0.1-0.7v-0.9c-0.5,0.6-1.1,1-1.8,1
		c-0.8,0-1.4-0.3-1.9-1c-0.4-0.5-0.6-1.2-0.6-2c0-1,0.2-1.8,0.7-2.3s1.1-0.8,1.8-0.8s1.3,0.3,1.8,1v-0.8h1.5v5.3
		c0,0.7-0.1,1.2-0.2,1.6c-0.1,0.3-0.3,0.6-0.5,0.8c-0.2,0.2-0.5,0.4-0.8,0.5s-0.8,0.2-1.3,0.2c-1,0-1.7-0.2-2.1-0.5
		c-0.4-0.3-0.6-0.8-0.6-1.3C212.4,71.3,212.4,71.3,212.4,71.2L212.4,71.2z M213.8,67.7c0,0.6,0.1,1.1,0.4,1.4
		c0.2,0.3,0.5,0.4,0.9,0.4s0.7-0.2,1-0.5s0.4-0.7,0.4-1.3c0-0.6-0.1-1.1-0.4-1.4c-0.3-0.3-0.6-0.4-1-0.4s-0.7,0.1-0.9,0.4
		C214,66.7,213.8,67.1,213.8,67.7L213.8,67.7z"/>
</g>
<g>
	<path id="_x33__00000176737699263602290630000007684258186140299944_" class="st9" d="M219.2,67.8c0-0.5,0.1-1,0.4-1.5
		c0.3-0.5,0.6-0.9,1.1-1.1c0.5-0.3,1-0.4,1.6-0.4c0.9,0,1.6,0.3,2.2,0.9c0.6,0.6,0.9,1.3,0.9,2.2c0,0.9-0.3,1.6-0.9,2.2
		c-0.6,0.6-1.3,0.9-2.2,0.9c-0.5,0-1.1-0.1-1.6-0.4c-0.5-0.2-0.9-0.6-1.1-1.1C219.4,69,219.2,68.4,219.2,67.8L219.2,67.8z
		 M220.8,67.8c0,0.6,0.1,1,0.4,1.4c0.3,0.3,0.6,0.5,1,0.5s0.8-0.2,1-0.5c0.3-0.3,0.4-0.8,0.4-1.4s-0.1-1-0.4-1.3
		c-0.3-0.3-0.6-0.5-1-0.5s-0.8,0.2-1,0.5C221,66.8,220.8,67.2,220.8,67.8L220.8,67.8z"/>
</g>
<g>
	<polygon id="_x34__00000079474614247867074970000012809474833888864415_" class="st9" points="228.9,70.9 231,62.5 232.2,62.5 
		230.1,70.9 	"/>
</g>
<g>
	<path id="_x35__00000172438785454659738820000005243518164728310656_" class="st9" d="M236.2,62.6h3.3c0.7,0,1.1,0,1.5,0.1
		c0.3,0.1,0.6,0.2,0.9,0.3c0.3,0.2,0.5,0.4,0.6,0.7c0.2,0.3,0.3,0.6,0.3,1s-0.1,0.7-0.3,1.1c-0.2,0.3-0.5,0.6-0.8,0.7
		c0.5,0.1,0.9,0.4,1.2,0.7c0.3,0.4,0.4,0.8,0.4,1.2c0,0.4-0.1,0.7-0.3,1.1s-0.4,0.6-0.7,0.8c-0.3,0.2-0.7,0.3-1.1,0.4
		c-0.3,0-0.9,0-2,0.1h-2.8L236.2,62.6L236.2,62.6z M237.8,64v1.9h1.1c0.6,0,1,0,1.2,0c0.3,0,0.5-0.1,0.7-0.3s0.2-0.4,0.2-0.6
		c0-0.3-0.1-0.5-0.2-0.6c-0.1-0.2-0.3-0.3-0.6-0.3c-0.2,0-0.6,0-1.4,0L237.8,64L237.8,64z M237.8,67.2v2.2h1.5c0.6,0,1,0,1.1,0
		c0.2,0,0.4-0.2,0.6-0.3c0.2-0.2,0.2-0.4,0.2-0.7c0-0.2-0.1-0.5-0.2-0.6c-0.1-0.2-0.3-0.3-0.5-0.4s-0.7-0.1-1.5-0.1L237.8,67.2
		L237.8,67.2z"/>
</g>
<g>
	<path id="_x36__00000162317188710274090380000003966724034162400670_" class="st9" d="M244.4,64v-1.5h1.6V64H244.4z M244.4,70.8v-6
		h1.6v6H244.4z"/>
</g>
<g>
	<polygon id="_x37__00000086688985033847438960000004815469166452105606_" class="st9" points="247.6,70.8 247.6,62.6 249.2,62.6 
		249.2,70.8 	"/>
</g>
<g>
	<polygon id="_x38__00000089537039967326369860000016924771918448589983_" class="st9" points="250.8,70.8 250.8,62.6 252.4,62.6 
		252.4,70.8 	"/>
</g>
<g>
	<path id="_x39__00000040565036536678885000000006803004351898622623_" class="st9" d="M257.4,68.9l1.6,0.3c-0.2,0.6-0.5,1-1,1.3
		c-0.4,0.3-1,0.5-1.6,0.5c-1,0-1.8-0.3-2.3-1c-0.4-0.5-0.6-1.2-0.6-2.1c0-1,0.3-1.8,0.8-2.3c0.5-0.6,1.2-0.8,2-0.8
		c0.9,0,1.6,0.3,2.1,0.9s0.8,1.5,0.7,2.7h-3.9c0,0.5,0.1,0.8,0.4,1.1c0.2,0.3,0.5,0.4,0.9,0.4c0.2,0,0.5-0.1,0.6-0.2
		C257.2,69.4,257.4,69.2,257.4,68.9z M257.5,67.3c0-0.5-0.1-0.8-0.4-1c-0.2-0.2-0.5-0.4-0.8-0.4c-0.3,0-0.6,0.1-0.8,0.4
		s-0.3,0.6-0.3,1H257.5L257.5,67.3z"/>
</g>
<g>
	<path id="_x31_0_00000105419761653481894720000006450622052361993645_" class="st9" d="M265.8,70.8h-1.4v-0.9
		c-0.2,0.3-0.5,0.6-0.9,0.8c-0.3,0.2-0.7,0.3-1,0.3c-0.7,0-1.3-0.3-1.8-0.8c-0.5-0.6-0.7-1.3-0.7-2.3s0.2-1.8,0.7-2.3
		s1.1-0.8,1.8-0.8c0.7,0,1.2,0.3,1.7,0.8v-3h1.6L265.8,70.8L265.8,70.8z M261.6,67.7c0,0.6,0.1,1.1,0.3,1.4c0.3,0.4,0.6,0.6,1.1,0.6
		c0.4,0,0.7-0.2,0.9-0.5c0.3-0.3,0.4-0.8,0.4-1.4c0-0.7-0.1-1.2-0.4-1.5c-0.2-0.3-0.6-0.5-0.9-0.5c-0.4,0-0.7,0.1-0.9,0.4
		C261.8,66.7,261.6,67.1,261.6,67.7L261.6,67.7z"/>
</g>
<g>
	<path id="_x31_1_00000165929905248153990510000013215389987651349407_" class="st9" d="M270.8,68.9l1.6,0.3c-0.2,0.6-0.5,1-1,1.3
		c-0.4,0.3-1,0.5-1.6,0.5c-1,0-1.8-0.3-2.3-1c-0.4-0.5-0.6-1.2-0.6-2.1c0-1,0.3-1.8,0.8-2.3c0.5-0.6,1.2-0.8,2-0.8
		c0.9,0,1.6,0.3,2.1,0.9s0.8,1.5,0.7,2.7h-3.9c0,0.5,0.1,0.8,0.4,1.1c0.2,0.3,0.5,0.4,0.9,0.4c0.2,0,0.5-0.1,0.6-0.2
		C270.6,69.4,270.7,69.2,270.8,68.9z M270.9,67.3c0-0.5-0.1-0.8-0.4-1c-0.2-0.2-0.5-0.4-0.8-0.4s-0.6,0.1-0.8,0.4
		c-0.2,0.3-0.3,0.6-0.3,1H270.9L270.9,67.3z"/>
</g>
<g transform="matrix(0.999999 0 0 0.999999 5404.11 3503.57)">
	
		<text id="_x31_1_00000179619095873290224180000007604831826088105116_" transform="matrix(1 0 0 1 -5206.4009 -3432.7676)" class="st0 st10">Logo / Billede</text>
</g>
</svg>
