<?xml version="1.0" encoding="utf-8"?>
<!-- Generator: Adobe Illustrator 27.1.1, SVG Export Plug-In . SVG Version: 6.00 Build 0)  -->
<svg version="1.1" id="Lag_1" xmlns:xodm="http://www.corel.com/coreldraw/odm/2003"
	 xmlns="http://www.w3.org/2000/svg" xmlns:xlink="http://www.w3.org/1999/xlink" x="0px" y="0px" viewBox="0 0 292.5 244.3"
	 style="enable-background:new 0 0 292.5 244.3;" xml:space="preserve">
<style type="text/css">
	.st0{font-family:'Arial-BoldMT';}
	.st1{font-size:17.9998px;}
	.st2{fill:none;stroke:#ff0000;stroke-width:0.5673;stroke-miterlimit:3.4408;}
	.st3{fill:none;}
	.st4{fill:none;stroke:#FEFEFE;stroke-width:1.4171;stroke-miterlimit:10;}
	.st5{fill:none;stroke:#000000;stroke-linecap:round;stroke-linejoin:round;stroke-miterlimit:10;}
	.st6{font-family:'Helvetica-Bold';}
	.st7{font-size:18px;}
	.st8{font-family:'Helvetica';}
	.st9{font-size:14px;}
	.st10{font-size:16px;}
	.st11{fill:#D9DADA;}
	.st12{font-size:11.4716px;}
</style>
<g id="Layer_x0020_1">
	<g transform="matrix(0.999999 0 0 0.999999 -4218.93 1664.22)">
		<text transform="matrix(1 0 0 1 4382.6528 -1492.7084)" class="st0 st1">  </text>
	</g>
	<g id="_2353784030448">
		<path class="st2" d="M7.6,0.3h277.2c4.1,0,7.4,6.3,7.1,26.6v215.4c0.3-4.6-3,1.7-7.1,1.7H7.6c-4.1,0-7.4-6.3-7.6-1.7V26.9
			C0.3,6.6,3.6,0.3,7.6,0.3z"/>
		<path class="st2" d="M131.4,24.4h7.8c0-3.9,3.2-7.1,7.1-7.1c3.9,0,7.1,3.2,7.1,7.1h7.8c2.7,0,5,2.2,5,5l0,0c0,2.7-2.2,5-5,5h-29.8
			c-2.7,0-5-2.2-5-5l0,0C126.4,26.6,128.7,24.4,131.4,24.4L131.4,24.4z"/>
	</g>
</g>
<line class="st3" x1="283.5" y1="116.4" x2="277.8" y2="56.1"/>
<g>
	<path id="_x31_1_00000144309537416237552510000002608446248851798447_" class="st4" d="M272.4,200.3l1.6,0.3c-0.2,0.6-0.5,1-1,1.3
		c-0.4,0.3-1,0.5-1.6,0.5c-1,0-1.8-0.3-2.3-1c-0.4-0.5-0.6-1.2-0.6-2.1c0-1,0.3-1.8,0.8-2.3c0.5-0.6,1.2-0.8,2-0.8
		c0.9,0,1.6,0.3,2.1,0.9c0.5,0.6,0.8,1.5,0.7,2.7h-3.9c0,0.5,0.1,0.8,0.4,1.1c0.2,0.3,0.5,0.4,0.9,0.4c0.2,0,0.5-0.1,0.6-0.2
		C272.2,200.8,272.3,200.6,272.4,200.3z M272.5,198.7c0-0.5-0.1-0.8-0.4-1c-0.2-0.2-0.5-0.4-0.8-0.4s-0.6,0.1-0.8,0.4
		c-0.2,0.3-0.3,0.6-0.3,1H272.5L272.5,198.7z"/>
</g>
<path class="st5" d="M217.6,239.7"/>
<path class="st5" d="M8.8,239.7"/>
<path class="st5" d="M283.7,239.7"/>
<path class="st5" d="M8.8,239.7"/>
<path class="st5" d="M283.7,41.3"/>
<path class="st5" d="M283.7,239.7"/>
<text transform="matrix(1 0 0 1 102.2537 169.3224)" class="st6 st7">Kolonne 1</text>
<text transform="matrix(1 0 0 1 114.2391 187.3224)" class="st8 st9">Kolonne 2</text>
<text transform="matrix(1 0 0 1 107.0877 211.3224)" class="st6 st10">Kolonne 3</text>
<path class="st11" d="M104.4,88.3c0.6-2.1,2-3.1,3.8-3.7c1.7-0.5,3.7-0.6,5.6-0.6c0.4,0,0.9,0,1.3,0c0.4,0,0.8,0,1.2-0.1l0.6-0.1
	c-0.6-0.6-1.1-1.4-1.6-2.2c-0.7-1.2-1.3-2.5-1.7-3.9c-0.5-1.5-0.7-3.2-0.8-4.8c0-1.6,0.1-3.1,0.5-4.5c0.3-1.1,1-2.1,1.9-2.8
	c1-0.8,2.2-1.4,3.6-1.9c1.5-0.5,3.2-0.7,4.8-0.7c1.7,0,3.4,0.1,4.9,0.5c1.3,0.3,2.3,1.1,3.1,2s1.3,2.1,1.7,3.4
	c0.3,1.1,0.5,2.4,0.7,3.6c0.1,0.9,0.2,1.8,0.2,2.7h0.1c0.3-0.1,0.6-0.1,0.8-0.2c1.6-0.4,3.4-0.5,5-0.3c1.5,0.1,2.9,0.5,4.1,1.1l0,0
	c-0.6-1-1.2-2.1-1.7-3.2c-0.6-1.5-1.1-3-1.3-4.6c-0.2-1.5-0.2-3,0.2-4.5c0.3-1.3,0.9-2.6,1.8-3.8c0.8-1,1.8-1.7,3.1-2.3
	s2.9-1,4.5-1.1s3.3-0.1,4.9,0.3c1.5,0.3,2.9,0.8,4,1.6c0.9,0.6,1.6,1.4,2.1,2.4c0.6,1,0.9,2.2,1.1,3.5c0.2,1.4,0.2,2.9,0,4.4
	c-0.2,1.7-0.5,3.4-1,4.7c-0.2,0.5-0.3,0.9-0.5,1.3l-0.2,0.4c1.4-0.3,2.9-0.5,4.4-0.4c1.6,0,3.2,0.3,4.5,0.8c1,0.4,1.9,1,2.5,1.7
	c0.7,0.8,1.3,1.9,1.7,3c0.4,1.3,0.7,2.7,0.8,4.1c0.2,1.8,0.1,3.6,0,5c0,0.7-0.1,1.4-0.3,2.1c-0.1,0.7-0.3,1.3-0.6,1.8
	c-0.2,0.4-0.4,0.8-0.6,1.1l0,0h0.4c0.8,0,1.7,0,2.6,0.1s1.9,0.2,2.8,0.5c0.9,0.2,1.9,0.6,2.7,1.1c0.8,0.5,1.6,1.1,2.2,1.9
	c0.9,1.2,1.2,2.7,1.3,4.2c0.1,1.5,0,3-0.1,4.2v0.1c-0.1,1.3-0.2,2.8-0.4,4.3c-0.2,1.5-0.3,3-0.6,4.4c-0.2,1.5-0.5,3-0.8,4.4
	c-0.3,1.5-0.7,2.9-1.2,4.2c-0.2,0.5-0.3,0.9-0.4,1.4l0,0c-0.3,0.9-0.6,1.8-0.9,2.7c-0.4,0.9-0.8,1.6-1.4,2.3
	c-0.1,0.1-0.2,0.2-0.3,0.2c-0.1,0.1-0.2,0.1-0.4,0.1h-64.7c-0.2,0-0.3-0.1-0.5-0.2l0,0c-0.1-0.1-0.2-0.2-0.3-0.4
	c-0.3-0.9-0.7-2-1.2-3.3c-0.5-1.4-1-3-1.5-4.6c-0.5-1.7-1.1-3.5-1.5-5c-0.5-1.6-0.8-2.9-1-3.7v-0.1c-0.1-0.1-0.1-0.2-0.1-0.3
	c-0.4-2-1.1-4.1-1.8-6.2l0,0c-0.6-2-1.2-3.9-1.7-5.9"/>
<path class="st11" d="M127.2,125.3c0.3,1.1,0.6,2.2,1.2,3.2h23.4c0.9-1.2,1.3-2.6,1.7-4c0.1-0.5,0.3-1,0.5-1.4
	c0.4-1.3,0.8-2.6,1.1-4s0.6-2.8,0.8-4.3s0.4-2.9,0.6-4.4c0.2-1.4,0.3-2.8,0.4-4.2v-0.1c0.2-2.2,0.5-5.5-0.8-7.2
	c-0.1-0.1-0.2-0.2-0.3-0.3c-0.3-0.3-0.5-0.5-0.8-0.8c-0.1-0.1-0.2-0.2-0.4-0.2l-0.8-0.4c-0.5-0.2-1-0.4-1.6-0.5
	c-0.5-0.1-1.1-0.3-1.7-0.3c-0.3,0-0.7-0.1-1.1-0.1c-0.4,0-0.7-0.1-1-0.1h-2.8c-0.2,0-0.5-0.1-0.6-0.2c-0.2-0.2-0.3-0.4-0.3-0.6
	c0-0.1,0-0.2,0.1-0.3l0,0c0-0.1,0.1-0.2,0.2-0.3c0.2-0.2,0.3-0.4,0.4-0.6c0.1-0.2,0.3-0.5,0.4-0.8c0.1-0.3,0.2-0.6,0.3-1
	s0.2-0.8,0.3-1.3c0.1-0.4,0.1-0.8,0.2-1.3c0.2-1.1,0.3-2.4,0.3-3.7c0-1.1-0.1-2.2-0.3-3.3c-0.2-1.1-0.5-2.1-1-2.9
	c-0.4-0.7-0.9-1.4-1.5-1.8c-0.1-0.1-0.2-0.1-0.3-0.2l-0.3-0.2c-1-0.5-2.3-0.9-3.7-1s-3,0-4.4,0.3c-0.3,0.1-0.6,0.2-0.9,0.2
	c-0.3,0.1-0.6,0.2-0.9,0.3c-0.5,0.1-1.8,0.8-2.2,1.1c-0.1,0.1-0.2,0.2-0.4,0.2c-0.1,0.1-0.3,0.2-0.4,0.3c-0.3,0.2-0.5,0.5-0.7,0.7
	c-0.2,0.2-0.4,0.5-0.5,0.8c-0.3,0.5-0.6,1.4-0.8,1.9c-1.2,4.4,0.2,9.4,3.3,12.8l0,0c0.1,0.1,0.2,0.3,0.3,0.4l0.1,0.1v0.4
	c0,0.1,0,0.2-0.1,0.3v0.1l0,0v0.1h-0.1v0.1l0,0l0,0l0,0l0,0l0,0l0,0h-0.2l0,0h-0.3l0,0h-0.3l0,0h-0.2l0,0c-0.6,0-1.3,0-1.9,0.1
	c-1.8,0.1-3.6,0.1-5.2,0.5c-1.4,0.4-2.5,1.1-2.9,2.6c-0.7,2.4,0.3,5.3,1.2,7.9l0,0c0.4,1.1,0.7,2.2,1,3.1c0.4,1.9,1,3.7,1.5,5.5
	c0.6,2.1,1.2,4.2,1.7,6.3c0.1,0.4,0.2,0.8,0.3,1.2C127,124.5,127.1,124.9,127.2,125.3L127.2,125.3L127.2,125.3z"/>
<path class="st11" d="M159.6,77.4L159.6,77.4c-0.4,0.2-0.7,0.4-1,0.6s-0.6,0.4-0.8,0.7l-0.2,0.2c-0.4,0.4-0.6,0.8-0.8,1.3
	c-0.5,1.2-0.7,2.6-0.8,4c-0.1,1.5,0.1,2.9,0.4,4.4c0.3,1.4,0.9,2.7,1.6,3.9c0.7,1.1,1.5,2.1,2.4,2.8c0.2,0.1,0.3,0.4,0.3,0.6
	s0,0.4-0.2,0.6c-0.1,0.1-0.2,0.2-0.3,0.2l0,0c-0.1,0.1-0.2,0.1-0.3,0.1l-0.9,0.1c-0.4,0-0.8,0.1-1.3,0.1h-1c0.4,0.4,0.6,0.7,0.9,1.2
	l0,0c0.1,0.3,0.3,0.5,0.4,0.8l0,0l0,0c0.1,0.3,0.2,0.5,0.2,0.7l0,0l0.1,0.3l0,0l0.1,0.5l0,0c0,0.3,0.1,0.5,0.1,0.8l0,0v0.1l0,0
	c0,0.8,0.1,1.5,0.1,2.3l0,0c0,0.8-0.1,1.7-0.2,2.5c-0.1,1.3-0.2,2.8-0.4,4.3s-0.3,3-0.6,4.4c-0.2,1.5-0.5,3-0.8,4.4
	c-0.3,1.5-0.7,2.9-1.2,4.2l-0.2,0.7c-0.4,1.3-0.9,3-1.6,4.2h25.2c0.4-0.5,0.6-1,0.9-1.6c0.3-0.7,0.6-1.5,0.8-2.4l0.5-1.5
	c0.4-1.3,0.8-2.6,1.1-4c0.3-1.4,0.6-2.8,0.8-4.3c0.2-1.5,0.4-2.9,0.6-4.4c0.2-1.4,0.3-2.8,0.4-4.2v-0.1c0.1-1.1,0.2-2.5,0.1-3.9
	c-0.1-1.3-0.3-2.5-1-3.4c-0.4-0.6-1-1.1-1.7-1.4c-0.7-0.4-1.4-0.7-2.2-0.9c-0.8-0.2-1.7-0.4-2.5-0.4c-0.9-0.1-1.7-0.1-2.4-0.1H173
	h-1.2c-0.2,0-0.5-0.1-0.6-0.2c-0.2-0.2-0.3-0.4-0.3-0.6c0-0.1,0-0.3,0.1-0.4s0.1-0.2,0.2-0.3c0.3-0.3,0.6-0.5,0.9-0.9
	c0.3-0.3,0.5-0.7,0.7-1.2c0.2-0.4,0.3-0.9,0.5-1.5c0.1-0.6,0.2-1.2,0.2-1.8c0.1-1.4,0.1-3.1,0-4.7c-0.1-1.3-0.3-2.6-0.7-3.7
	c-0.3-0.9-0.8-1.8-1.3-2.4c-0.5-0.6-1.1-1-1.8-1.3c-1.2-0.4-2.6-0.7-4-0.7s-2.9,0.1-4.2,0.5c-0.4,0.1-0.7,0.2-1.1,0.3
	C160.2,77.1,159.9,77.2,159.6,77.4L159.6,77.4z"/>
<path class="st11" d="M154,96.5L154,96.5L154,96.5z"/>
<path class="st11" d="M146.6,77.9c0.3,0.4,0.5,0.8,0.7,1.2c0.4,0.8,0.7,1.7,0.9,2.6c0.2,1,0.4,2.1,0.4,3.2c0.1,1.2,0,2.5-0.1,3.6
	c0,0.4-0.1,0.8-0.1,1.2l0,0c-0.1,0.5-0.2,1-0.3,1.5s-0.2,1-0.3,1.4s-0.3,0.8-0.4,1.2l-0.2,0.4c0.8,0,1.6,0,2.4,0.1
	c0.5,0,1,0.1,1.5,0.2s1,0.2,1.5,0.3c0.3,0.1,0.6,0.2,0.9,0.3c0.3,0.1,0.5,0.2,0.8,0.3c1.2-0.1,2.4-0.1,3.6-0.1
	c-0.6-0.7-1.1-1.4-1.6-2.3c-0.7-1.2-1.2-2.6-1.6-4c-0.4-1.6-0.5-3.2-0.5-4.9c0.1-1.6,0.4-3.1,0.9-4.5c0.1-0.3,0.5-1.1,0.7-1.3
	c0.5-0.6,0.8-1,1.4-1.4l0,0c0.5-0.3,0.8-0.6,1.3-0.8c0.2-0.1,0.3-0.3,0.4-0.4c0.2-0.2,0.3-0.4,0.5-0.7c0.2-0.3,0.3-0.6,0.4-0.9
	c0.1-0.3,0.3-0.7,0.4-1.2c0.4-1.2,0.7-2.8,0.9-4.3c0.1-1.3,0.2-2.7,0-4c-0.1-1-0.4-2-0.9-2.9c-0.4-0.7-0.9-1.3-1.6-1.8
	c-1-0.6-2.2-1.1-3.5-1.4c-1.4-0.3-2.9-0.4-4.4-0.2c-1.4,0.1-2.8,0.4-3.9,1c-1,0.5-1.9,1.1-2.5,1.8c-0.8,1-1.3,2.1-1.5,3.2
	c-0.3,1.2-0.3,2.5-0.2,3.8c0.2,1.5,0.7,3,1.3,4.4c0.7,1.6,1.7,3.1,2.6,4.3l0,0c0.1,0.1,0.1,0.2,0.1,0.2c0,0.1,0,0.2,0,0.3l0,0
	c0,0.2-0.1,0.4-0.2,0.6C146.8,77.8,146.7,77.8,146.6,77.9L146.6,77.9z"/>
<path class="st11" d="M106.2,97.5c0.2,1,0.4,1.9,0.6,2.8c0.2,1,0.5,1.9,0.8,2.8s0.6,1.9,0.9,2.9c0.3,1,0.6,1.9,0.9,3
	c0.3,1,0.5,1.9,0.8,2.8l0.1,0.1c0,0.1,0.1,0.2,0.1,0.3l0,0c0.1,0.6,0.5,1.9,1,3.6c0.5,1.6,1,3.5,1.6,5.5c0.5,1.5,1,3,1.4,4.4
	c0.3,1,0.7,2,1,2.8h11.2c-0.1-0.2-0.2-0.4-0.3-0.6c-0.1-0.3-0.3-0.7-0.4-1c-0.1-0.3-0.2-0.7-0.3-1.1c-0.8-2.8-1.5-5.7-2.4-8.5
	c-0.6-1.9-1.1-3.7-1.6-5.6c-0.2-0.9-0.6-1.9-0.9-3l0,0c-1-2.9-2.1-6.1-1.2-8.9c0.6-2.1,2.1-3.1,3.9-3.7c1.7-0.5,3.8-0.6,5.7-0.6h0.7
	c-0.6-0.9-1.2-1.8-1.7-2.8c-0.6-1.3-1.1-2.7-1.3-4.2c-0.5-3-0.2-6.1,1.4-8.8c0.2-0.3,0.4-0.5,0.6-0.8c0.2-0.2,0.4-0.4,0.6-0.6
	c0.2-0.2,0.5-0.4,0.7-0.6c0.4-0.3,0.9-0.6,1.3-0.9c0.4-0.2,0.8-0.4,1.2-0.6c0-0.9-0.1-2-0.2-3c-0.1-1.2-0.3-2.3-0.6-3.4
	c-0.3-1-0.7-2-1.3-2.8c-0.6-0.7-1.3-1.2-2.2-1.5c-1.3-0.3-2.8-0.5-4.4-0.5c-1.5,0-3,0.3-4.4,0.7c-1.2,0.4-2.2,0.9-3,1.5
	c-0.7,0.6-1.2,1.2-1.4,2c-0.4,1.2-0.5,2.6-0.5,4s0.3,2.9,0.7,4.3c0.4,1.4,1,2.7,1.7,3.8s1.5,2,2.4,2.7c0.2,0.1,0.3,0.4,0.3,0.6
	s0,0.4-0.2,0.6c-0.1,0.1-0.2,0.2-0.3,0.2l0,0c-0.1,0.1-0.2,0.1-0.3,0.1l-2.4,0.2c-0.4,0-0.9,0.1-1.3,0.1h-1.4
	c-1.7,0-3.5,0.1-4.9,0.5c-1.3,0.4-2.4,1.1-2.8,2.5"/>
<g>
	<polygon class="st4" points="108,96.2 108,88.1 109.7,88.1 109.7,94.8 113.8,94.8 113.8,96.2 	"/>
</g>
<g>
	<path id="_x31__00000123419795581193173880000007795495111412869028_" class="st4" d="M114.6,93.2c0-0.5,0.1-1,0.4-1.5
		c0.3-0.5,0.6-0.9,1.1-1.1c0.5-0.3,1-0.4,1.6-0.4c0.9,0,1.6,0.3,2.2,0.9c0.6,0.6,0.9,1.3,0.9,2.2c0,0.9-0.3,1.6-0.9,2.2
		c-0.6,0.6-1.3,0.9-2.2,0.9c-0.5,0-1.1-0.1-1.6-0.4c-0.5-0.2-0.9-0.6-1.1-1.1C114.7,94.4,114.6,93.8,114.6,93.2L114.6,93.2z
		 M116.2,93.2c0,0.6,0.1,1,0.4,1.4c0.3,0.3,0.6,0.5,1,0.5s0.8-0.2,1-0.5c0.3-0.3,0.4-0.8,0.4-1.4s-0.1-1-0.4-1.3
		c-0.3-0.3-0.6-0.5-1-0.5s-0.8,0.2-1,0.5C116.4,92.2,116.2,92.6,116.2,93.2L116.2,93.2z"/>
</g>
<g>
	<path id="_x32__00000132078874029929789270000001687726302929418155_" class="st4" d="M121.8,96.6l1.8,0.2c0,0.2,0.1,0.4,0.2,0.4
		c0.2,0.1,0.4,0.2,0.7,0.2c0.4,0,0.7-0.1,0.9-0.2c0.1-0.1,0.2-0.2,0.3-0.4c0-0.1,0.1-0.4,0.1-0.7v-0.9c-0.5,0.6-1.1,1-1.8,1
		c-0.8,0-1.4-0.3-1.9-1c-0.4-0.5-0.6-1.2-0.6-2c0-1,0.2-1.8,0.7-2.3s1.1-0.8,1.8-0.8s1.3,0.3,1.8,1v-0.8h1.5v5.3
		c0,0.7-0.1,1.2-0.2,1.6c-0.1,0.3-0.3,0.6-0.5,0.8c-0.2,0.2-0.5,0.4-0.8,0.5s-0.8,0.2-1.3,0.2c-1,0-1.7-0.2-2.1-0.5
		c-0.4-0.3-0.6-0.8-0.6-1.3C121.8,96.7,121.8,96.7,121.8,96.6L121.8,96.6z M123.2,93.1c0,0.6,0.1,1.1,0.4,1.4
		c0.2,0.3,0.5,0.4,0.9,0.4s0.7-0.2,1-0.5s0.4-0.7,0.4-1.3c0-0.6-0.1-1.1-0.4-1.4c-0.3-0.3-0.6-0.4-1-0.4s-0.7,0.1-0.9,0.4
		C123.4,92.1,123.2,92.5,123.2,93.1L123.2,93.1z"/>
</g>
<g>
	<path id="_x33__00000176737699263602290630000007684258186140299944_" class="st4" d="M128.6,93.2c0-0.5,0.1-1,0.4-1.5
		c0.3-0.5,0.6-0.9,1.1-1.1c0.5-0.3,1-0.4,1.6-0.4c0.9,0,1.6,0.3,2.2,0.9c0.6,0.6,0.9,1.3,0.9,2.2c0,0.9-0.3,1.6-0.9,2.2
		c-0.6,0.6-1.3,0.9-2.2,0.9c-0.5,0-1.1-0.1-1.6-0.4c-0.5-0.2-0.9-0.6-1.1-1.1C128.8,94.4,128.6,93.8,128.6,93.2L128.6,93.2z
		 M130.2,93.2c0,0.6,0.1,1,0.4,1.4c0.3,0.3,0.6,0.5,1,0.5s0.8-0.2,1-0.5c0.3-0.3,0.4-0.8,0.4-1.4s-0.1-1-0.4-1.3
		c-0.3-0.3-0.6-0.5-1-0.5s-0.8,0.2-1,0.5C130.4,92.2,130.2,92.6,130.2,93.2L130.2,93.2z"/>
</g>
<g>
	<polygon id="_x34__00000079474614247867074970000012809474833888864415_" class="st4" points="138.3,96.3 140.4,87.9 141.6,87.9 
		139.5,96.3 	"/>
</g>
<g>
	<path id="_x35__00000172438785454659738820000005243518164728310656_" class="st4" d="M145.6,88h3.3c0.7,0,1.1,0,1.5,0.1
		c0.3,0.1,0.6,0.2,0.9,0.3c0.3,0.2,0.5,0.4,0.6,0.7c0.2,0.3,0.3,0.6,0.3,1s-0.1,0.7-0.3,1.1c-0.2,0.3-0.5,0.6-0.8,0.7
		c0.5,0.1,0.9,0.4,1.2,0.7c0.3,0.4,0.4,0.8,0.4,1.2c0,0.4-0.1,0.7-0.3,1.1s-0.4,0.6-0.7,0.8c-0.3,0.2-0.7,0.3-1.1,0.4
		c-0.3,0-0.9,0-2,0.1h-2.8L145.6,88L145.6,88z M147.2,89.4v1.9h1.1c0.6,0,1,0,1.2,0c0.3,0,0.5-0.1,0.7-0.3s0.2-0.4,0.2-0.6
		c0-0.3-0.1-0.5-0.2-0.6c-0.1-0.2-0.3-0.3-0.6-0.3c-0.2,0-0.6,0-1.4,0L147.2,89.4L147.2,89.4z M147.2,92.6v2.2h1.5c0.6,0,1,0,1.1,0
		c0.2,0,0.4-0.2,0.6-0.3c0.2-0.2,0.2-0.4,0.2-0.7c0-0.2-0.1-0.5-0.2-0.6c-0.1-0.2-0.3-0.3-0.5-0.4s-0.7-0.1-1.5-0.1L147.2,92.6
		L147.2,92.6z"/>
</g>
<g>
	<path id="_x36__00000162317188710274090380000003966724034162400670_" class="st4" d="M153.8,89.4v-1.5h1.6v1.5H153.8z M153.8,96.2
		v-6h1.6v6H153.8z"/>
</g>
<g>
	<polygon id="_x37__00000086688985033847438960000004815469166452105606_" class="st4" points="157,96.2 157,88 158.6,88 
		158.6,96.2 	"/>
</g>
<g>
	<polygon id="_x38__00000089537039967326369860000016924771918448589983_" class="st4" points="160.2,96.2 160.2,88 161.8,88 
		161.8,96.2 	"/>
</g>
<g>
	<path id="_x39__00000040565036536678885000000006803004351898622623_" class="st4" d="M166.8,94.3l1.6,0.3c-0.2,0.6-0.5,1-1,1.3
		c-0.4,0.3-1,0.5-1.6,0.5c-1,0-1.8-0.3-2.3-1c-0.4-0.5-0.6-1.2-0.6-2.1c0-1,0.3-1.8,0.8-2.3c0.5-0.6,1.2-0.8,2-0.8
		c0.9,0,1.6,0.3,2.1,0.9s0.8,1.5,0.7,2.7h-3.9c0,0.5,0.1,0.8,0.4,1.1c0.2,0.3,0.5,0.4,0.9,0.4c0.2,0,0.5-0.1,0.6-0.2
		C166.6,94.8,166.8,94.6,166.8,94.3z M166.9,92.7c0-0.5-0.1-0.8-0.4-1c-0.2-0.2-0.5-0.4-0.8-0.4s-0.6,0.1-0.8,0.4s-0.3,0.6-0.3,1
		H166.9L166.9,92.7z"/>
</g>
<g>
	<path id="_x31_0_00000105419761653481894720000006450622052361993645_" class="st4" d="M175.2,96.2h-1.4v-0.9
		c-0.2,0.3-0.5,0.6-0.9,0.8c-0.3,0.2-0.7,0.3-1,0.3c-0.7,0-1.3-0.3-1.8-0.8c-0.5-0.6-0.7-1.3-0.7-2.3s0.2-1.8,0.7-2.3
		s1.1-0.8,1.8-0.8c0.7,0,1.2,0.3,1.7,0.8v-3h1.6L175.2,96.2L175.2,96.2z M171,93.1c0,0.6,0.1,1.1,0.3,1.4c0.3,0.4,0.6,0.6,1.1,0.6
		c0.4,0,0.7-0.2,0.9-0.5c0.3-0.3,0.4-0.8,0.4-1.4c0-0.7-0.1-1.2-0.4-1.5c-0.2-0.3-0.6-0.5-0.9-0.5c-0.4,0-0.7,0.1-0.9,0.4
		C171.2,92.1,171,92.5,171,93.1L171,93.1z"/>
</g>
<g>
	<path id="_x31_1_00000165929905248153990510000013215389987651349407_" class="st4" d="M180.2,94.3l1.6,0.3c-0.2,0.6-0.5,1-1,1.3
		c-0.4,0.3-1,0.5-1.6,0.5c-1,0-1.8-0.3-2.3-1c-0.4-0.5-0.6-1.2-0.6-2.1c0-1,0.3-1.8,0.8-2.3c0.5-0.6,1.2-0.8,2-0.8
		c0.9,0,1.6,0.3,2.1,0.9s0.8,1.5,0.7,2.7H178c0,0.5,0.1,0.8,0.4,1.1c0.2,0.3,0.5,0.4,0.9,0.4c0.2,0,0.5-0.1,0.6-0.2
		C180,94.8,180.1,94.6,180.2,94.3z M180.3,92.7c0-0.5-0.1-0.8-0.4-1c-0.2-0.2-0.5-0.4-0.8-0.4s-0.6,0.1-0.8,0.4
		c-0.2,0.3-0.3,0.6-0.3,1H180.3L180.3,92.7z"/>
</g>
<g transform="matrix(0.999999 0 0 0.999999 5404.11 3503.57)">
	
		<text id="_x31_1_00000179619095873290224180000007604831826088105116_" transform="matrix(1 0 0 1 -5296.9941 -3407.344)" class="st0 st12">Logo / Billede</text>
</g>
</svg>
