<?xml version="1.0" encoding="UTF-8"?>
<!DOCTYPE svg PUBLIC "-//W3C//DTD SVG 1.1//EN" "http://www.w3.org/Graphics/SVG/1.1/DTD/svg11.dtd">
<!-- Creator: CorelDRAW 2021 (64-Bit) -->
<svg xmlns="http://www.w3.org/2000/svg" xml:space="preserve" width="100.5mm" height="60.5mm" version="1.1" style="shape-rendering:geometricPrecision; text-rendering:geometricPrecision; image-rendering:optimizeQuality; fill-rule:evenodd; clip-rule:evenodd"
viewBox="0 0 10046.94 6048.16"
 xmlns:xlink="http://www.w3.org/1999/xlink"
 xmlns:xodm="http://www.corel.com/coreldraw/odm/2003">
 <defs>
  <style type="text/css">
   <![CDATA[
    .str0 {stroke:#2B2A29;stroke-width:49.98;stroke-miterlimit:22.9256}
    .str1 {stroke:white;stroke-width:35.27;stroke-linecap:round;stroke-linejoin:round;stroke-miterlimit:10}
    .fil2 {fill:none;fill-rule:nonzero}
    .fil0 {fill:#FEFEFE}
    .fil1 {fill:black;fill-rule:nonzero}
   ]]>
  </style>
 </defs>
 <g id="Layer_x0020_1">
  <metadata id="CorelCorpID_0Corel-Layer"/>
  <rect class="fil0 str0" x="24.99" y="24.99" width="9996.96" height="5998.17" rx="232.48" ry="114.16"/>
  <path class="fil1" d="M3549.02 1028.91l94.58 0 0 187.58 175.85 -187.58 123.36 0 -186.63 188.53 196.26 268.53 -122.73 0 -140.61 -199.12 -45.5 46.24 0 152.88 -94.58 0 0 -457.06zm601.9 394.85c25.71,0 45.5,-9.21 59.36,-27.51 13.86,-18.4 20.73,-44.54 20.73,-78.4 0,-33.75 -6.88,-59.88 -20.73,-78.08 -13.87,-18.3 -33.65,-27.41 -59.36,-27.41 -25.81,0 -45.71,9.11 -59.67,27.41 -13.86,18.19 -20.83,44.33 -20.83,78.08 0,33.86 6.98,59.99 20.83,78.4 13.97,18.3 33.86,27.51 59.67,27.51zm172.78 -106.23c0,49.51 -14.29,91.94 -42.75,127.07 -28.56,35.23 -71.84,52.79 -129.92,52.79 -58.08,0 -101.36,-17.56 -129.92,-52.79 -28.46,-35.13 -42.75,-77.56 -42.75,-127.07 0,-48.67 14.29,-90.88 42.75,-126.53 28.56,-35.66 71.84,-53.54 129.92,-53.54 58.08,0 101.36,17.88 129.92,53.54 28.46,35.65 42.75,77.87 42.75,126.53zm153.52 168.44l-88.24 0 0 -456.43 88.24 0 0 456.43zm237.83 -62.21c25.71,0 45.5,-9.21 59.36,-27.51 13.86,-18.4 20.73,-44.54 20.73,-78.4 0,-33.75 -6.88,-59.88 -20.73,-78.08 -13.87,-18.3 -33.65,-27.41 -59.36,-27.41 -25.81,0 -45.71,9.11 -59.67,27.41 -13.86,18.19 -20.83,44.33 -20.83,78.08 0,33.86 6.98,59.99 20.83,78.4 13.97,18.3 33.86,27.51 59.67,27.51zm172.78 -106.23c0,49.51 -14.29,91.94 -42.75,127.07 -28.56,35.23 -71.84,52.79 -129.92,52.79 -58.08,0 -101.36,-17.56 -129.92,-52.79 -28.46,-35.13 -42.75,-77.56 -42.75,-127.07 0,-48.67 14.29,-90.88 42.75,-126.53 28.56,-35.66 71.84,-53.54 129.92,-53.54 58.08,0 101.36,17.88 129.92,53.54 28.46,35.65 42.75,77.87 42.75,126.53zm250.75 -177.54c34.81,0 63.26,9.21 85.37,27.51 22.11,18.41 33.23,48.67 33.23,91.09l0 227.37 -90.78 0 0 -205.36c0,-17.77 -2.33,-31.43 -7.09,-40.95 -8.57,-17.35 -25.07,-26.03 -49.3,-26.03 -29.73,0 -50.25,12.7 -61.26,38.09 -5.82,13.45 -8.67,30.58 -8.67,51.42l0 182.82 -88.24 0 0 -337.09 85.7 0 0 49.3c11.32,-17.45 22,-30.04 32.16,-37.66 18.09,-13.66 41.05,-20.53 68.88,-20.53zm387.12 0c34.81,0 63.26,9.21 85.37,27.51 22.11,18.41 33.23,48.67 33.23,91.09l0 227.37 -90.78 0 0 -205.36c0,-17.77 -2.33,-31.43 -7.09,-40.95 -8.57,-17.35 -25.07,-26.03 -49.3,-26.03 -29.73,0 -50.25,12.7 -61.26,38.09 -5.82,13.45 -8.67,30.58 -8.67,51.42l0 182.82 -88.24 0 0 -337.09 85.7 0 0 49.3c11.32,-17.45 22,-30.04 32.16,-37.66 18.09,-13.66 41.05,-20.53 68.88,-20.53zm339.62 72.37c-22.75,0 -40.32,6.25 -52.79,18.83 -12.49,12.49 -20.42,29.52 -23.59,50.99l152.35 0c-1.59,-22.85 -9.42,-40.2 -23.6,-52.05 -14.07,-11.85 -31.52,-17.77 -52.36,-17.77zm0.53 -73.64c29.41,0 55.86,5.3 79.35,15.77 23.59,10.59 42.96,27.19 58.3,49.94 13.86,20.1 22.85,43.38 26.87,69.83 2.43,15.45 3.38,37.77 2.96,66.97l-246.31 0c1.38,34.07 13.12,57.98 35.34,71.63 13.44,8.57 29.62,12.8 48.67,12.8 20.1,0 36.4,-5.18 48.99,-15.45 6.88,-5.61 12.91,-13.33 18.2,-23.27l90.67 0c-2.33,20.1 -13.34,40.42 -32.7,61.15 -30.26,32.91 -72.58,49.3 -126.96,49.3 -44.97,0 -84.63,-13.86 -118.91,-41.58 -34.39,-27.72 -51.52,-72.9 -51.52,-135.43 0,-58.61 15.45,-103.47 46.45,-134.79 31,-31.21 71.2,-46.88 120.61,-46.88zm406.81 37.46l0 -60.31c27.82,-1.27 47.29,-3.06 58.5,-5.6 17.67,-3.92 32.16,-11.75 43.28,-23.49 7.62,-8.15 13.44,-18.83 17.34,-32.27 2.23,-8.04 3.39,-14.07 3.39,-17.98l73.64 0 0 449.44 -90.14 0 0 -309.79 -106.01 0z"/>
  <path class="fil1" d="M3959.14 2048.75l46.74 0 0 172.65 172.64 -172.65 66.33 0 -147.3 142.78 151.4 211.4 -62.45 0 -123.92 -177.66 -56.7 54.22 0 123.43 -46.74 0 0 -354.17zm426.01 326.19c28.71,0 48.47,-10.86 59.16,-32.66 10.7,-21.73 16.05,-46.01 16.05,-72.67 0,-24.11 -3.87,-43.7 -11.61,-58.83 -12.18,-23.78 -33.24,-35.72 -63.11,-35.72 -26.58,0 -45.84,10.21 -57.85,30.45 -12.1,20.24 -18.1,44.69 -18.1,73.24 0,27.48 6.01,50.44 18.1,68.71 12.02,18.35 31.19,27.48 57.36,27.48zm1.64 -237.73c33.33,0 61.39,11.11 84.43,33.33 22.95,22.13 34.47,54.8 34.47,97.84 0,41.64 -10.12,76.04 -30.36,103.19 -20.32,27.15 -51.67,40.73 -94.3,40.73 -35.55,0 -63.69,-12.01 -84.59,-36.04 -20.9,-24.03 -31.35,-56.28 -31.35,-96.77 0,-43.37 11.03,-77.93 33,-103.68 22.05,-25.68 51.59,-38.6 88.7,-38.6zm171.66 -88.46l43.45 0 0 354.17 -43.45 0 0 -354.17zm210.99 326.19c28.71,0 48.47,-10.86 59.16,-32.66 10.7,-21.73 16.05,-46.01 16.05,-72.67 0,-24.11 -3.87,-43.7 -11.61,-58.83 -12.18,-23.78 -33.24,-35.72 -63.11,-35.72 -26.58,0 -45.84,10.21 -57.85,30.45 -12.1,20.24 -18.1,44.69 -18.1,73.24 0,27.48 6.01,50.44 18.1,68.71 12.02,18.35 31.19,27.48 57.36,27.48zm1.64 -237.73c33.33,0 61.39,11.11 84.43,33.33 22.95,22.13 34.47,54.8 34.47,97.84 0,41.64 -10.12,76.04 -30.36,103.19 -20.32,27.15 -51.67,40.73 -94.3,40.73 -35.55,0 -63.69,-12.01 -84.59,-36.04 -20.9,-24.03 -31.35,-56.28 -31.35,-96.77 0,-43.37 11.03,-77.93 33,-103.68 22.05,-25.68 51.59,-38.6 88.7,-38.6zm170.51 7.49l41.22 0 0 36.7c12.19,-15.14 25.1,-26 38.76,-32.58 13.67,-6.59 28.89,-9.88 45.6,-9.88 36.61,0 61.38,12.76 74.22,38.35 7.08,13.99 10.62,33.98 10.62,59.98l0 165.65 -44.11 0 0 -162.77c0,-15.72 -2.3,-28.38 -7,-38.01 -7.73,-16.14 -21.63,-24.11 -41.88,-24.11 -10.29,0 -18.76,0.99 -25.35,3.13 -11.93,3.54 -22.38,10.61 -31.35,21.14 -7.24,8.56 -11.93,17.36 -14.07,26.41 -2.23,9.14 -3.3,22.05 -3.3,38.93l0 135.28 -43.36 0 0 -258.22zm274.6 0l41.22 0 0 36.7c12.19,-15.14 25.1,-26 38.76,-32.58 13.67,-6.59 28.89,-9.88 45.6,-9.88 36.61,0 61.38,12.76 74.22,38.35 7.08,13.99 10.62,33.98 10.62,59.98l0 165.65 -44.11 0 0 -162.77c0,-15.72 -2.3,-28.38 -7,-38.01 -7.73,-16.14 -21.63,-24.11 -41.88,-24.11 -10.29,0 -18.76,0.99 -25.35,3.13 -11.93,3.54 -22.38,10.61 -31.35,21.14 -7.24,8.56 -11.93,17.36 -14.07,26.41 -2.23,9.14 -3.3,22.05 -3.3,38.93l0 135.28 -43.36 0 0 -258.22zm382.06 -5.76c18.34,0 36.12,4.28 53.32,12.92 17.19,8.56 30.28,19.66 39.25,33.33 8.72,13.09 14.49,28.22 17.36,45.59 2.63,11.94 3.87,30.86 3.87,56.94l-189.26 0c0.82,26.17 6.99,47.16 18.59,63.03 11.6,15.81 29.46,23.7 53.73,23.7 22.71,0 40.73,-7.49 54.31,-22.38 7.65,-8.72 13.17,-18.76 16.38,-30.12l42.62 0c-1.07,9.47 -4.85,20 -11.19,31.68 -6.34,11.61 -13.5,21.15 -21.31,28.56 -13.17,12.84 -29.54,21.55 -48.97,26 -10.45,2.63 -22.21,3.87 -35.46,3.87 -32.1,0 -59.33,-11.69 -81.72,-35.06 -22.3,-23.37 -33.49,-56.12 -33.49,-98.25 0,-41.48 11.28,-75.13 33.74,-100.97 22.54,-25.92 51.92,-38.84 88.21,-38.84zm69.2 114.3c-1.73,-18.84 -5.84,-33.9 -12.26,-45.1 -11.94,-20.89 -31.77,-31.35 -59.58,-31.35 -19.91,0 -36.62,7.16 -50.11,21.56 -13.5,14.4 -20.65,32.67 -21.47,54.88l143.43 0zm218.72 149.68c1.57,-29.71 7.74,-55.62 18.43,-77.6 10.7,-22.05 31.52,-42.05 62.54,-60.07l46.25 -26.74c20.73,-12.1 35.3,-22.38 43.7,-30.86 13.17,-13.33 19.74,-28.63 19.74,-45.84 0,-20.07 -6,-36.04 -18.09,-47.81 -12.02,-11.86 -28.15,-17.77 -48.23,-17.77 -29.7,0 -50.27,11.28 -61.71,33.82 -6.1,12.02 -9.47,28.72 -10.13,50.11l-44.11 0c0.49,-30.04 6.01,-54.56 16.62,-73.57 18.84,-33.41 52,-50.11 99.57,-50.11 39.58,0 68.46,10.7 86.64,32.09 18.27,21.31 27.4,45.1 27.4,71.35 0,27.65 -9.71,51.26 -29.21,70.85 -11.19,11.44 -31.35,25.26 -60.48,41.48l-33 18.34c-15.8,8.65 -28.14,16.95 -37.11,24.77 -16.13,13.99 -26.25,29.54 -30.44,46.58l188.51 0 0 40.98 -236.91 0z"/>
  <path class="fil1" d="M4177.05 2945.74l40.14 0 -31.46 147.98 179.37 -147.98 56.85 0 -152.28 122.37 91.34 181.2 -53.53 0 -74 -152.28 -58.47 46.49 -22.35 105.8 -40.07 0 64.47 -303.58zm389.34 189.31c4.38,-20.66 4.66,-37.45 0.78,-50.43 -6.14,-20.38 -22.07,-30.61 -47.69,-30.61 -22.77,0 -41.12,8.75 -55.08,26.1 -13.97,17.35 -23.63,38.3 -28.85,62.77 -4.93,23.56 -3.95,43.24 3.04,58.9 6.91,15.73 21.65,23.55 44.08,23.55 24.69,0 43.6,-9.31 56.71,-28 13.19,-18.62 22.15,-39.43 27.01,-62.28zm39.01 -1.06c-7.55,35.69 -22.5,65.18 -44.79,88.45 -22.36,23.27 -51.77,34.91 -88.24,34.91 -30.47,0 -52.4,-10.3 -65.95,-30.89 -13.47,-20.59 -16.57,-48.25 -9.31,-82.94 8.04,-37.17 23.77,-66.8 47.33,-88.87 23.56,-22 51.28,-33.08 83.09,-33.08 28.49,0 50.57,9.52 66.23,28.56 15.66,18.97 19.53,46.98 11.64,83.86zm85.34 -188.25l37.24 0 -64.46 303.58 -37.25 0 64.47 -303.58zm205.04 189.31c4.38,-20.66 4.66,-37.45 0.78,-50.43 -6.14,-20.38 -22.07,-30.61 -47.69,-30.61 -22.77,0 -41.12,8.75 -55.08,26.1 -13.97,17.35 -23.63,38.3 -28.85,62.77 -4.93,23.56 -3.95,43.24 3.04,58.9 6.91,15.73 21.65,23.55 44.08,23.55 24.69,0 43.6,-9.31 56.71,-28 13.19,-18.62 22.15,-39.43 27.01,-62.28zm39.01 -1.06c-7.55,35.69 -22.5,65.18 -44.79,88.45 -22.36,23.27 -51.77,34.91 -88.24,34.91 -30.47,0 -52.4,-10.3 -65.95,-30.89 -13.47,-20.59 -16.57,-48.25 -9.31,-82.94 8.04,-37.17 23.77,-66.8 47.33,-88.87 23.56,-22 51.28,-33.08 83.09,-33.08 28.49,0 50.57,9.52 66.23,28.56 15.66,18.97 19.53,46.98 11.64,83.86zm66.79 -106.01l35.34 0 -6.63 31.46c13.26,-12.99 26.31,-22.29 39.15,-27.93 12.91,-5.65 26.52,-8.47 40.84,-8.47 31.39,0 50.28,10.94 56.63,32.87 3.53,11.99 2.97,29.13 -1.69,51.41l-30.19 141.99 -37.8 0 29.55 -139.52c2.89,-13.47 3.24,-24.33 1.06,-32.58 -3.74,-13.83 -14.25,-20.67 -31.6,-20.67 -8.82,0 -16.3,0.85 -22.36,2.68 -10.86,3.04 -21.15,9.11 -30.75,18.13 -7.76,7.33 -13.33,14.88 -16.85,22.64 -3.53,7.83 -6.78,18.89 -9.81,33.36l-24.61 115.95 -37.18 0 46.91 -221.33zm235.37 0l35.34 0 -6.63 31.46c13.26,-12.99 26.31,-22.29 39.15,-27.93 12.91,-5.65 26.52,-8.47 40.84,-8.47 31.39,0 50.28,10.94 56.63,32.87 3.53,11.99 2.97,29.13 -1.69,51.41l-30.19 141.99 -37.8 0 29.55 -139.52c2.89,-13.47 3.24,-24.33 1.06,-32.58 -3.74,-13.83 -14.25,-20.67 -31.6,-20.67 -8.82,0 -16.3,0.85 -22.36,2.68 -10.86,3.04 -21.15,9.11 -30.75,18.13 -7.76,7.33 -13.33,14.88 -16.85,22.64 -3.53,7.83 -6.78,18.89 -9.81,33.36l-24.61 115.95 -37.18 0 46.91 -221.33zm399.43 34.7c5.08,11.22 7.27,24.19 6.64,39.08 0.14,10.23 -2.26,26.45 -7.06,48.81l-162.23 0c-4.09,22.43 -2.61,40.42 4.45,54.03 7.13,13.54 21.09,20.31 41.9,20.31 19.39,0 36.18,-6.42 50.36,-19.18 8.32,-7.48 14.81,-16.09 19.67,-25.82l36.54 0c-2.75,8.12 -7.9,17.14 -15.38,27.16 -7.48,9.95 -15.31,18.12 -23.42,24.47 -13.68,11.01 -29.27,18.48 -46.77,22.29 -9.45,2.25 -19.88,3.31 -31.17,3.31 -27.58,0 -48.74,-10.02 -63.62,-30.04 -14.89,-20.03 -18.48,-48.11 -10.8,-84.22 7.62,-35.55 23.35,-64.39 47.34,-86.54 23.98,-22.21 51.55,-33.29 82.66,-33.29 15.73,0 30.18,3.67 43.38,11.08 13.26,7.33 22.42,16.85 27.5,28.56zm-32.44 58.33c1.9,-16.16 1.2,-29.06 -2.26,-38.65 -6.35,-17.91 -21.44,-26.88 -45.28,-26.88 -17.07,0 -32.73,6.14 -46.91,18.48 -14.19,12.35 -23.7,28 -28.5,47.05l122.94 0zm309.15 23.56l28.5 -134.16 -123.36 134.16 94.86 0zm-21.5 104.74l15.31 -72.3 -129.79 0 7.7 -36.4 175.63 -188.03 31.38 0 -40.91 191.99 43.6 0 -6.85 32.44 -43.59 0 -15.24 72.3 -37.24 0z"/>
  <path class="fil1" d="M3713.92 4109.61l84.07 0 0 166.75 156.3 -166.75 109.66 0 -165.89 167.59 174.45 238.69 -109.09 0 -124.99 -177 -40.44 41.1 0 135.9 -84.07 0 0 -406.28zm535.03 350.97c22.85,0 40.44,-8.18 52.75,-24.44 12.32,-16.37 18.43,-39.6 18.43,-69.69 0,-30 -6.12,-53.23 -18.43,-69.41 -12.32,-16.27 -29.9,-24.35 -52.75,-24.35 -22.95,0 -40.63,8.09 -53.04,24.35 -12.33,16.18 -18.52,39.41 -18.52,69.41 0,30.09 6.2,53.32 18.52,69.69 12.42,16.27 30.09,24.44 53.04,24.44zm153.57 -94.41c0,44.01 -12.7,81.72 -38,112.95 -25.39,31.31 -63.85,46.93 -115.48,46.93 -51.63,0 -90.09,-15.62 -115.48,-46.93 -25.3,-31.23 -38,-68.94 -38,-112.95 0,-43.27 12.7,-80.79 38,-112.49 25.39,-31.69 63.85,-47.59 115.48,-47.59 51.63,0 90.09,15.9 115.48,47.59 25.3,31.7 38,69.22 38,112.49zm136.46 149.71l-78.44 0 0 -405.71 78.44 0 0 405.71zm211.42 -55.3c22.85,0 40.44,-8.18 52.75,-24.44 12.32,-16.37 18.43,-39.6 18.43,-69.69 0,-30 -6.12,-53.23 -18.43,-69.41 -12.32,-16.27 -29.9,-24.35 -52.75,-24.35 -22.95,0 -40.63,8.09 -53.04,24.35 -12.33,16.18 -18.52,39.41 -18.52,69.41 0,30.09 6.2,53.32 18.52,69.69 12.42,16.27 30.09,24.44 53.04,24.44zm153.57 -94.41c0,44.01 -12.7,81.72 -38,112.95 -25.39,31.31 -63.85,46.93 -115.48,46.93 -51.63,0 -90.09,-15.62 -115.48,-46.93 -25.3,-31.23 -38,-68.94 -38,-112.95 0,-43.27 12.7,-80.79 38,-112.49 25.39,-31.69 63.85,-47.59 115.48,-47.59 51.63,0 90.09,15.9 115.48,47.59 25.3,31.7 38,69.22 38,112.49zm222.88 -157.81c30.94,0 56.24,8.18 75.9,24.45 19.65,16.37 29.53,43.26 29.53,80.98l0 202.1 -80.7 0 0 -182.54c0,-15.8 -2.07,-27.93 -6.3,-36.39 -7.62,-15.43 -22.28,-23.13 -43.83,-23.13 -26.42,0 -44.67,11.28 -54.45,33.85 -5.17,11.95 -7.71,27.18 -7.71,45.71l0 162.51 -78.44 0 0 -299.63 76.18 0 0 43.83c10.07,-15.52 19.56,-26.71 28.59,-33.48 16.09,-12.14 36.49,-18.24 61.22,-18.24zm344.11 0c30.94,0 56.24,8.18 75.9,24.45 19.65,16.37 29.53,43.26 29.53,80.98l0 202.1 -80.7 0 0 -182.54c0,-15.8 -2.07,-27.93 -6.3,-36.39 -7.62,-15.43 -22.28,-23.13 -43.83,-23.13 -26.42,0 -44.67,11.28 -54.45,33.85 -5.17,11.95 -7.71,27.18 -7.71,45.71l0 162.51 -78.44 0 0 -299.63 76.18 0 0 43.83c10.07,-15.52 19.56,-26.71 28.59,-33.48 16.09,-12.14 36.49,-18.24 61.22,-18.24zm301.88 64.33c-20.21,0 -35.83,5.55 -46.93,16.73 -11.1,11.1 -18.15,26.24 -20.97,45.33l135.43 0c-1.41,-20.31 -8.37,-35.73 -20.97,-46.27 -12.51,-10.54 -28.02,-15.8 -46.56,-15.8zm0.47 -65.46c26.15,0 49.65,4.7 70.54,14.02 20.97,9.41 38.18,24.17 51.81,44.39 12.33,17.86 20.31,38.56 23.89,62.07 2.16,13.73 3.01,33.57 2.63,59.53l-218.93 0c1.22,30.28 11.66,51.53 31.41,63.67 11.95,7.62 26.33,11.38 43.26,11.38 17.87,0 32.35,-4.61 43.55,-13.74 6.11,-4.98 11.48,-11.85 16.18,-20.68l80.6 0c-2.07,17.86 -11.85,35.92 -29.06,54.35 -26.89,29.25 -64.51,43.83 -112.86,43.83 -39.97,0 -75.23,-12.32 -105.7,-36.96 -30.57,-24.64 -45.81,-64.8 -45.81,-120.37 0,-52.1 13.74,-91.98 41.29,-119.81 27.55,-27.75 63.29,-41.67 107.21,-41.67zm414.64 186.21c0,15.99 2.54,29.34 7.72,39.78 9.5,19.37 26.7,29.06 51.81,29.06 15.34,0 28.68,-5.27 40.16,-15.81 11.38,-10.53 17.11,-25.76 17.11,-45.52 0,-26.23 -10.53,-43.73 -31.69,-52.56 -12.04,-4.99 -31.03,-7.44 -56.89,-7.44l0 -56.42c25.29,-0.38 42.98,-2.82 53.03,-7.43 17.3,-7.81 25.96,-23.42 25.96,-47.03 0,-15.24 -4.42,-27.65 -13.27,-37.24 -8.84,-9.6 -21.34,-14.4 -37.43,-14.4 -18.43,0 -31.97,5.93 -40.63,17.68 -8.75,11.76 -12.89,27.55 -12.51,47.22l-73.36 0c0.76,-19.84 4.14,-38.66 10.16,-56.43 6.4,-15.61 16.55,-30.09 30.28,-43.26 10.26,-9.41 22.38,-16.55 36.5,-21.54 14.11,-4.98 31.5,-7.43 52,-7.43 38.09,0 68.84,9.88 92.16,29.63 23.41,19.84 35.08,46.36 35.08,79.66 0,23.5 -6.96,43.45 -20.97,59.62 -8.84,10.06 -17.96,17.02 -27.55,20.68 7.15,0 17.48,6.12 30.84,18.43 20.03,18.53 30.1,43.83 30.1,75.9 0,33.76 -11.67,63.48 -35.08,89.06 -23.42,25.58 -58.03,38.37 -103.83,38.37 -56.52,0 -95.74,-18.43 -117.74,-55.39 -11.57,-19.65 -17.96,-45.43 -19.27,-77.21l77.3 0z"/>
  <line class="fil2 str1" x1="234.65" y1="3951.61" x2="9831.74" y2= "3951.61" />
  <line class="fil2 str1" x1="234.65" y1="219.41" x2="9831.74" y2= "219.41" />
  <line class="fil2 str1" x1="234.65" y1="5817.71" x2="9831.74" y2= "5817.71" />
  <line class="fil2 str1" x1="234.65" y1="5817.71" x2="234.65" y2= "219.41" />
  <line class="fil2 str1" x1="9831.74" y1="5817.71" x2="9831.74" y2= "219.41" />
 </g>
</svg>
