<?xml version="1.0" encoding="UTF-8"?>
<!DOCTYPE svg PUBLIC "-//W3C//DTD SVG 1.1//EN" "http://www.w3.org/Graphics/SVG/1.1/DTD/svg11.dtd">
<!-- Creator: CorelDRAW 2021 (64-Bit) -->
<svg xmlns="http://www.w3.org/2000/svg" xml:space="preserve" width="100.5mm" height="60.5mm" version="1.1" style="shape-rendering:geometricPrecision; text-rendering:geometricPrecision; image-rendering:optimizeQuality; fill-rule:evenodd; clip-rule:evenodd"
viewBox="0 0 10046.94 6048.16"
 xmlns:xlink="http://www.w3.org/1999/xlink"
 xmlns:xodm="http://www.corel.com/coreldraw/odm/2003">
 <defs>
  <style type="text/css">
   <![CDATA[
    .str0 {stroke:#2B2A29;stroke-width:49.98;stroke-miterlimit:22.9256}
    .str1 {stroke:white;stroke-width:35.27;stroke-linecap:round;stroke-linejoin:round;stroke-miterlimit:10}
    .fil2 {fill:none;fill-rule:nonzero}
    .fil0 {fill:#FEFEFE}
    .fil1 {fill:black;fill-rule:nonzero}
   ]]>
  </style>
 </defs>
 <g id="Layer_x0020_1">
  <metadata id="CorelCorpID_0Corel-Layer"/>
  <rect class="fil0 str0" x="24.99" y="24.99" width="9996.96" height="5998.17" rx="232.48" ry="114.16"/>
  <path class="fil1" d="M3549.02 1452.12l94.58 0 0 187.58 175.85 -187.58 123.36 0 -186.63 188.53 196.26 268.53 -122.73 0 -140.61 -199.12 -45.5 46.24 0 152.88 -94.58 0 0 -457.06zm601.9 394.85c25.71,0 45.5,-9.21 59.36,-27.51 13.86,-18.4 20.73,-44.54 20.73,-78.4 0,-33.75 -6.88,-59.88 -20.73,-78.08 -13.87,-18.3 -33.65,-27.41 -59.36,-27.41 -25.81,0 -45.71,9.11 -59.67,27.41 -13.86,18.19 -20.83,44.33 -20.83,78.08 0,33.86 6.98,59.99 20.83,78.4 13.97,18.3 33.86,27.51 59.67,27.51zm172.78 -106.23c0,49.51 -14.29,91.94 -42.75,127.07 -28.56,35.23 -71.84,52.79 -129.92,52.79 -58.08,0 -101.36,-17.56 -129.92,-52.79 -28.46,-35.13 -42.75,-77.56 -42.75,-127.07 0,-48.67 14.29,-90.88 42.75,-126.53 28.56,-35.66 71.84,-53.54 129.92,-53.54 58.08,0 101.36,17.88 129.92,53.54 28.46,35.65 42.75,77.87 42.75,126.53zm153.52 168.44l-88.24 0 0 -456.43 88.24 0 0 456.43zm237.83 -62.21c25.71,0 45.5,-9.21 59.36,-27.51 13.86,-18.4 20.73,-44.54 20.73,-78.4 0,-33.75 -6.88,-59.88 -20.73,-78.08 -13.87,-18.3 -33.65,-27.41 -59.36,-27.41 -25.81,0 -45.71,9.11 -59.67,27.41 -13.86,18.19 -20.83,44.33 -20.83,78.08 0,33.86 6.98,59.99 20.83,78.4 13.97,18.3 33.86,27.51 59.67,27.51zm172.78 -106.23c0,49.51 -14.29,91.94 -42.75,127.07 -28.56,35.23 -71.84,52.79 -129.92,52.79 -58.08,0 -101.36,-17.56 -129.92,-52.79 -28.46,-35.13 -42.75,-77.56 -42.75,-127.07 0,-48.67 14.29,-90.88 42.75,-126.53 28.56,-35.66 71.84,-53.54 129.92,-53.54 58.08,0 101.36,17.88 129.92,53.54 28.46,35.65 42.75,77.87 42.75,126.53zm250.75 -177.54c34.81,0 63.26,9.21 85.37,27.51 22.11,18.41 33.23,48.67 33.23,91.09l0 227.37 -90.78 0 0 -205.36c0,-17.77 -2.33,-31.43 -7.09,-40.95 -8.57,-17.35 -25.07,-26.03 -49.3,-26.03 -29.73,0 -50.25,12.7 -61.26,38.09 -5.82,13.45 -8.67,30.58 -8.67,51.42l0 182.82 -88.24 0 0 -337.09 85.7 0 0 49.3c11.32,-17.45 22,-30.04 32.16,-37.66 18.09,-13.66 41.05,-20.53 68.88,-20.53zm387.12 0c34.81,0 63.26,9.21 85.37,27.51 22.11,18.41 33.23,48.67 33.23,91.09l0 227.37 -90.78 0 0 -205.36c0,-17.77 -2.33,-31.43 -7.09,-40.95 -8.57,-17.35 -25.07,-26.03 -49.3,-26.03 -29.73,0 -50.25,12.7 -61.26,38.09 -5.82,13.45 -8.67,30.58 -8.67,51.42l0 182.82 -88.24 0 0 -337.09 85.7 0 0 49.3c11.32,-17.45 22,-30.04 32.16,-37.66 18.09,-13.66 41.05,-20.53 68.88,-20.53zm339.62 72.37c-22.75,0 -40.32,6.25 -52.79,18.83 -12.49,12.49 -20.42,29.52 -23.59,50.99l152.35 0c-1.59,-22.85 -9.42,-40.2 -23.6,-52.05 -14.07,-11.85 -31.52,-17.77 -52.36,-17.77zm0.53 -73.64c29.41,0 55.86,5.3 79.35,15.77 23.59,10.59 42.96,27.19 58.3,49.94 13.86,20.1 22.85,43.38 26.87,69.83 2.43,15.45 3.38,37.77 2.96,66.97l-246.31 0c1.38,34.07 13.12,57.98 35.34,71.63 13.44,8.57 29.62,12.8 48.67,12.8 20.1,0 36.4,-5.18 48.99,-15.45 6.88,-5.61 12.91,-13.33 18.2,-23.27l90.67 0c-2.33,20.1 -13.34,40.42 -32.7,61.15 -30.26,32.91 -72.58,49.3 -126.96,49.3 -44.97,0 -84.63,-13.86 -118.91,-41.58 -34.39,-27.72 -51.52,-72.9 -51.52,-135.43 0,-58.61 15.45,-103.47 46.45,-134.79 31,-31.21 71.2,-46.88 120.61,-46.88zm406.81 37.46l0 -60.31c27.82,-1.27 47.29,-3.06 58.5,-5.6 17.67,-3.92 32.16,-11.75 43.28,-23.49 7.62,-8.15 13.44,-18.83 17.34,-32.27 2.23,-8.04 3.39,-14.07 3.39,-17.98l73.64 0 0 449.44 -90.14 0 0 -309.79 -106.01 0z"/>
  <path class="fil1" d="M3959.14 2471.95l46.74 0 0 172.65 172.64 -172.65 66.33 0 -147.3 142.78 151.4 211.4 -62.45 0 -123.92 -177.66 -56.7 54.22 0 123.43 -46.74 0 0 -354.17zm426.01 326.19c28.71,0 48.47,-10.86 59.16,-32.66 10.7,-21.73 16.05,-46.01 16.05,-72.67 0,-24.11 -3.87,-43.7 -11.61,-58.83 -12.18,-23.78 -33.24,-35.72 -63.11,-35.72 -26.58,0 -45.84,10.21 -57.85,30.45 -12.1,20.24 -18.1,44.69 -18.1,73.24 0,27.48 6.01,50.44 18.1,68.71 12.02,18.35 31.19,27.48 57.36,27.48zm1.64 -237.73c33.33,0 61.39,11.11 84.43,33.33 22.95,22.13 34.47,54.8 34.47,97.84 0,41.64 -10.12,76.04 -30.36,103.19 -20.32,27.15 -51.67,40.73 -94.3,40.73 -35.55,0 -63.69,-12.01 -84.59,-36.04 -20.9,-24.03 -31.35,-56.28 -31.35,-96.77 0,-43.37 11.03,-77.93 33,-103.68 22.05,-25.68 51.59,-38.6 88.7,-38.6zm171.66 -88.46l43.45 0 0 354.17 -43.45 0 0 -354.17zm210.99 326.19c28.71,0 48.47,-10.86 59.16,-32.66 10.7,-21.73 16.05,-46.01 16.05,-72.67 0,-24.11 -3.87,-43.7 -11.61,-58.83 -12.18,-23.78 -33.24,-35.72 -63.11,-35.72 -26.58,0 -45.84,10.21 -57.85,30.45 -12.1,20.24 -18.1,44.69 -18.1,73.24 0,27.48 6.01,50.44 18.1,68.71 12.02,18.35 31.19,27.48 57.36,27.48zm1.64 -237.73c33.33,0 61.39,11.11 84.43,33.33 22.95,22.13 34.47,54.8 34.47,97.84 0,41.64 -10.12,76.04 -30.36,103.19 -20.32,27.15 -51.67,40.73 -94.3,40.73 -35.55,0 -63.69,-12.01 -84.59,-36.04 -20.9,-24.03 -31.35,-56.28 -31.35,-96.77 0,-43.37 11.03,-77.93 33,-103.68 22.05,-25.68 51.59,-38.6 88.7,-38.6zm170.51 7.49l41.22 0 0 36.7c12.19,-15.14 25.1,-26 38.76,-32.58 13.67,-6.59 28.89,-9.88 45.6,-9.88 36.61,0 61.38,12.76 74.22,38.35 7.08,13.99 10.62,33.98 10.62,59.98l0 165.65 -44.11 0 0 -162.77c0,-15.72 -2.3,-28.38 -7,-38.01 -7.73,-16.14 -21.63,-24.11 -41.88,-24.11 -10.29,0 -18.76,0.99 -25.35,3.13 -11.93,3.54 -22.38,10.61 -31.35,21.14 -7.24,8.56 -11.93,17.36 -14.07,26.41 -2.23,9.14 -3.3,22.05 -3.3,38.93l0 135.28 -43.36 0 0 -258.22zm274.6 0l41.22 0 0 36.7c12.19,-15.14 25.1,-26 38.76,-32.58 13.67,-6.59 28.89,-9.88 45.6,-9.88 36.61,0 61.38,12.76 74.22,38.35 7.08,13.99 10.62,33.98 10.62,59.98l0 165.65 -44.11 0 0 -162.77c0,-15.72 -2.3,-28.38 -7,-38.01 -7.73,-16.14 -21.63,-24.11 -41.88,-24.11 -10.29,0 -18.76,0.99 -25.35,3.13 -11.93,3.54 -22.38,10.61 -31.35,21.14 -7.24,8.56 -11.93,17.36 -14.07,26.41 -2.23,9.14 -3.3,22.05 -3.3,38.93l0 135.28 -43.36 0 0 -258.22zm382.06 -5.76c18.34,0 36.12,4.28 53.32,12.92 17.19,8.56 30.28,19.66 39.25,33.33 8.72,13.09 14.49,28.22 17.36,45.59 2.63,11.94 3.87,30.86 3.87,56.94l-189.26 0c0.82,26.17 6.99,47.16 18.59,63.03 11.6,15.81 29.46,23.7 53.73,23.7 22.71,0 40.73,-7.49 54.31,-22.38 7.65,-8.72 13.17,-18.76 16.38,-30.12l42.62 0c-1.07,9.47 -4.85,20 -11.19,31.68 -6.34,11.61 -13.5,21.15 -21.31,28.56 -13.17,12.84 -29.54,21.55 -48.97,26 -10.45,2.63 -22.21,3.87 -35.46,3.87 -32.1,0 -59.33,-11.69 -81.72,-35.06 -22.3,-23.37 -33.49,-56.12 -33.49,-98.25 0,-41.48 11.28,-75.13 33.74,-100.97 22.54,-25.92 51.92,-38.84 88.21,-38.84zm69.2 114.3c-1.73,-18.84 -5.84,-33.9 -12.26,-45.1 -11.94,-20.89 -31.77,-31.35 -59.58,-31.35 -19.91,0 -36.62,7.16 -50.11,21.56 -13.5,14.4 -20.65,32.67 -21.47,54.88l143.43 0zm218.72 149.68c1.57,-29.71 7.74,-55.62 18.43,-77.6 10.7,-22.05 31.52,-42.05 62.54,-60.07l46.25 -26.74c20.73,-12.1 35.3,-22.38 43.7,-30.86 13.17,-13.33 19.74,-28.63 19.74,-45.84 0,-20.07 -6,-36.04 -18.09,-47.81 -12.02,-11.86 -28.15,-17.77 -48.23,-17.77 -29.7,0 -50.27,11.28 -61.71,33.82 -6.1,12.02 -9.47,28.72 -10.13,50.11l-44.11 0c0.49,-30.04 6.01,-54.56 16.62,-73.57 18.84,-33.41 52,-50.11 99.57,-50.11 39.58,0 68.46,10.7 86.64,32.09 18.27,21.31 27.4,45.1 27.4,71.35 0,27.65 -9.71,51.26 -29.21,70.85 -11.19,11.44 -31.35,25.26 -60.48,41.48l-33 18.34c-15.8,8.65 -28.14,16.95 -37.11,24.77 -16.13,13.99 -26.25,29.54 -30.44,46.58l188.51 0 0 40.98 -236.91 0z"/>
  <line class="fil2 str1" x1="234.65" y1="3951.61" x2="9831.74" y2= "3951.61" />
  <line class="fil2 str1" x1="234.65" y1="219.41" x2="9831.74" y2= "219.41" />
  <line class="fil2 str1" x1="234.65" y1="5817.71" x2="9831.74" y2= "5817.71" />
  <line class="fil2 str1" x1="234.65" y1="5817.71" x2="234.65" y2= "219.41" />
  <line class="fil2 str1" x1="9831.74" y1="5817.71" x2="9831.74" y2= "219.41" />
 </g>
</svg>
