<?xml version="1.0" encoding="UTF-8"?>
<!DOCTYPE svg PUBLIC "-//W3C//DTD SVG 1.1//EN" "http://www.w3.org/Graphics/SVG/1.1/DTD/svg11.dtd">
<!-- Creator: CorelDRAW 2021 (64-Bit) -->
<svg xmlns="http://www.w3.org/2000/svg" xml:space="preserve" width="100.5mm" height="60.5mm" version="1.1" style="shape-rendering:geometricPrecision; text-rendering:geometricPrecision; image-rendering:optimizeQuality; fill-rule:evenodd; clip-rule:evenodd"
viewBox="0 0 10046.94 6048.16"
 xmlns:xlink="http://www.w3.org/1999/xlink"
 xmlns:xodm="http://www.corel.com/coreldraw/odm/2003">
 <defs>
  <style type="text/css">
   <![CDATA[
    .str0 {stroke:#2B2A29;stroke-width:49.98;stroke-miterlimit:22.9256}
    .str1 {stroke:white;stroke-width:35.27;stroke-linecap:round;stroke-linejoin:round;stroke-miterlimit:10}
    .fil2 {fill:none;fill-rule:nonzero}
    .fil0 {fill:#FEFEFE}
    .fil1 {fill:black;fill-rule:nonzero}
   ]]>
  </style>
 </defs>
 <g id="Layer_x0020_1">
  <metadata id="CorelCorpID_0Corel-Layer"/>
  <rect class="fil0 str0" x="24.99" y="24.99" width="9996.96" height="5998.17" rx="232.48" ry="114.16"/>
  <path class="fil1" d="M3549.02 1910.59l94.58 0 0 187.58 175.85 -187.58 123.36 0 -186.63 188.53 196.26 268.53 -122.73 0 -140.61 -199.12 -45.5 46.24 0 152.88 -94.58 0 0 -457.06zm601.9 394.85c25.71,0 45.5,-9.21 59.36,-27.51 13.86,-18.4 20.73,-44.54 20.73,-78.4 0,-33.75 -6.88,-59.88 -20.73,-78.08 -13.87,-18.3 -33.65,-27.41 -59.36,-27.41 -25.81,0 -45.71,9.11 -59.67,27.41 -13.86,18.19 -20.83,44.33 -20.83,78.08 0,33.86 6.98,59.99 20.83,78.4 13.97,18.3 33.86,27.51 59.67,27.51zm172.78 -106.23c0,49.51 -14.29,91.94 -42.75,127.07 -28.56,35.23 -71.84,52.79 -129.92,52.79 -58.08,0 -101.36,-17.56 -129.92,-52.79 -28.46,-35.13 -42.75,-77.56 -42.75,-127.07 0,-48.67 14.29,-90.88 42.75,-126.53 28.56,-35.66 71.84,-53.54 129.92,-53.54 58.08,0 101.36,17.88 129.92,53.54 28.46,35.65 42.75,77.87 42.75,126.53zm153.52 168.44l-88.24 0 0 -456.43 88.24 0 0 456.43zm237.83 -62.21c25.71,0 45.5,-9.21 59.36,-27.51 13.86,-18.4 20.73,-44.54 20.73,-78.4 0,-33.75 -6.88,-59.88 -20.73,-78.08 -13.87,-18.3 -33.65,-27.41 -59.36,-27.41 -25.81,0 -45.71,9.11 -59.67,27.41 -13.86,18.19 -20.83,44.33 -20.83,78.08 0,33.86 6.98,59.99 20.83,78.4 13.97,18.3 33.86,27.51 59.67,27.51zm172.78 -106.23c0,49.51 -14.29,91.94 -42.75,127.07 -28.56,35.23 -71.84,52.79 -129.92,52.79 -58.08,0 -101.36,-17.56 -129.92,-52.79 -28.46,-35.13 -42.75,-77.56 -42.75,-127.07 0,-48.67 14.29,-90.88 42.75,-126.53 28.56,-35.66 71.84,-53.54 129.92,-53.54 58.08,0 101.36,17.88 129.92,53.54 28.46,35.65 42.75,77.87 42.75,126.53zm250.75 -177.54c34.81,0 63.26,9.21 85.37,27.51 22.11,18.41 33.23,48.67 33.23,91.09l0 227.37 -90.78 0 0 -205.36c0,-17.77 -2.33,-31.43 -7.09,-40.95 -8.57,-17.35 -25.07,-26.03 -49.3,-26.03 -29.73,0 -50.25,12.7 -61.26,38.09 -5.82,13.45 -8.67,30.58 -8.67,51.42l0 182.82 -88.24 0 0 -337.09 85.7 0 0 49.3c11.32,-17.45 22,-30.04 32.16,-37.66 18.09,-13.66 41.05,-20.53 68.88,-20.53zm387.12 0c34.81,0 63.26,9.21 85.37,27.51 22.11,18.41 33.23,48.67 33.23,91.09l0 227.37 -90.78 0 0 -205.36c0,-17.77 -2.33,-31.43 -7.09,-40.95 -8.57,-17.35 -25.07,-26.03 -49.3,-26.03 -29.73,0 -50.25,12.7 -61.26,38.09 -5.82,13.45 -8.67,30.58 -8.67,51.42l0 182.82 -88.24 0 0 -337.09 85.7 0 0 49.3c11.32,-17.45 22,-30.04 32.16,-37.66 18.09,-13.66 41.05,-20.53 68.88,-20.53zm339.62 72.37c-22.75,0 -40.32,6.25 -52.79,18.83 -12.49,12.49 -20.42,29.52 -23.59,50.99l152.35 0c-1.59,-22.85 -9.42,-40.2 -23.6,-52.05 -14.07,-11.85 -31.52,-17.77 -52.36,-17.77zm0.53 -73.64c29.41,0 55.86,5.3 79.35,15.77 23.59,10.59 42.96,27.19 58.3,49.94 13.86,20.1 22.85,43.38 26.87,69.83 2.43,15.45 3.38,37.77 2.96,66.97l-246.31 0c1.38,34.07 13.12,57.98 35.34,71.63 13.44,8.57 29.62,12.8 48.67,12.8 20.1,0 36.4,-5.18 48.99,-15.45 6.88,-5.61 12.91,-13.33 18.2,-23.27l90.67 0c-2.33,20.1 -13.34,40.42 -32.7,61.15 -30.26,32.91 -72.58,49.3 -126.96,49.3 -44.97,0 -84.63,-13.86 -118.91,-41.58 -34.39,-27.72 -51.52,-72.9 -51.52,-135.43 0,-58.61 15.45,-103.47 46.45,-134.79 31,-31.21 71.2,-46.88 120.61,-46.88zm406.81 37.46l0 -60.31c27.82,-1.27 47.29,-3.06 58.5,-5.6 17.67,-3.92 32.16,-11.75 43.28,-23.49 7.62,-8.15 13.44,-18.83 17.34,-32.27 2.23,-8.04 3.39,-14.07 3.39,-17.98l73.64 0 0 449.44 -90.14 0 0 -309.79 -106.01 0z"/>
  <line class="fil2 str1" x1="234.65" y1="3951.61" x2="9831.74" y2= "3951.61" />
  <line class="fil2 str1" x1="234.65" y1="219.41" x2="9831.74" y2= "219.41" />
  <line class="fil2 str1" x1="234.65" y1="5817.71" x2="9831.74" y2= "5817.71" />
  <line class="fil2 str1" x1="234.65" y1="5817.71" x2="234.65" y2= "219.41" />
  <line class="fil2 str1" x1="9831.74" y1="5817.71" x2="9831.74" y2= "219.41" />
 </g>
</svg>
