<?xml version="1.0" encoding="utf-8"?>
<!-- Generator: Adobe Illustrator 27.1.1, SVG Export Plug-In . SVG Version: 6.00 Build 0)  -->
<svg version="1.1" id="Lag_1" xmlns:xodm="http://www.corel.com/coreldraw/odm/2003"
	 xmlns="http://www.w3.org/2000/svg" xmlns:xlink="http://www.w3.org/1999/xlink" x="0px" y="0px" viewBox="0 0 292.5 244.3"
	 style="enable-background:new 0 0 292.5 244.3;" xml:space="preserve">
<style type="text/css">
	.st0{font-family:'Arial-BoldMT';}
	.st1{font-size:17.9998px;}
	.st2{fill:none;stroke:#2B2A29;stroke-width:0.5673;stroke-miterlimit:3.4408;}
	.st3{fill:none;}
	.st4{fill:#D9DADA;}
	.st5{fill:none;stroke:#FEFEFE;stroke-width:1.4171;stroke-miterlimit:10;}
	.st6{font-size:11.4716px;}
	.st7{font-family:'Helvetica-Bold';}
	.st8{font-size:18px;}
	.st9{font-family:'Helvetica';}
	.st10{font-size:14px;}
	.st11{font-size:16px;}
	.st12{fill:none;stroke:#000000;stroke-linecap:round;stroke-linejoin:round;stroke-miterlimit:10;}
</style>
<g id="Layer_x0020_1">
	<g transform="matrix(0.999999 0 0 0.999999 -4218.93 1664.22)">
		<text transform="matrix(1 0 0 1 4383.3931 -1499.8988)" class="st0 st1">  </text>
	</g>
	<g id="_2353784030448">
		<path class="st2" d="M7.6,0.3h277.2c4.1,0,7.4,6.3,7.1,26.6v215.4c0.3-4.6-3,1.7-7.1,1.7H7.6c-4.1,0-7.4-6.3-7.6-1.7V26.9
			C0.3,6.6,3.6,0.3,7.6,0.3z"/>
		<path class="st2" d="M131.4,24.4h7.8c0-3.9,3.2-7.1,7.1-7.1c3.9,0,7.1,3.2,7.1,7.1h7.8c2.7,0,5,2.2,5,5l0,0c0,2.7-2.2,5-5,5h-29.8
			c-2.7,0-5-2.2-5-5l0,0C126.4,26.6,128.7,24.4,131.4,24.4L131.4,24.4z"/>
	</g>
</g>
<line class="st3" x1="283.5" y1="116.4" x2="277.8" y2="56.1"/>
<path class="st4" d="M196.6,194.3c0.6-2.1,2-3.1,3.8-3.7c1.7-0.5,3.7-0.6,5.6-0.6c0.4,0,0.9,0,1.3,0c0.4,0,0.8,0,1.2-0.1l0.6-0.1
	c-0.6-0.6-1.1-1.4-1.6-2.2c-0.7-1.2-1.3-2.5-1.7-3.9c-0.5-1.5-0.7-3.2-0.8-4.8c0-1.6,0.1-3.1,0.5-4.5c0.3-1.1,1-2.1,1.9-2.8
	c1-0.8,2.2-1.4,3.6-1.9c1.5-0.5,3.2-0.7,4.8-0.7c1.7,0,3.4,0.1,4.9,0.5c1.3,0.3,2.3,1.1,3.1,2c0.8,0.9,1.3,2.1,1.7,3.4
	c0.3,1.1,0.5,2.4,0.7,3.6c0.1,0.9,0.2,1.8,0.2,2.7h0.1c0.3-0.1,0.6-0.1,0.8-0.2c1.6-0.4,3.4-0.5,5-0.3c1.5,0.1,2.9,0.5,4.1,1.1l0,0
	c-0.6-1-1.2-2.1-1.7-3.2c-0.6-1.5-1.1-3-1.3-4.6c-0.2-1.5-0.2-3,0.2-4.5c0.3-1.3,0.9-2.6,1.8-3.8c0.8-1,1.8-1.7,3.1-2.3
	c1.3-0.6,2.9-1,4.5-1.1c1.6-0.1,3.3-0.1,4.9,0.3c1.5,0.3,2.9,0.8,4,1.6c0.9,0.6,1.6,1.4,2.1,2.4c0.6,1,0.9,2.2,1.1,3.5
	c0.2,1.4,0.2,2.9,0,4.4c-0.2,1.7-0.5,3.4-1,4.7c-0.2,0.5-0.3,0.9-0.5,1.3l-0.2,0.4c1.4-0.3,2.9-0.5,4.4-0.4c1.6,0,3.2,0.3,4.5,0.8
	c1,0.4,1.9,1,2.5,1.7c0.7,0.8,1.3,1.9,1.7,3c0.4,1.3,0.7,2.7,0.8,4.1c0.2,1.8,0.1,3.6,0,5c0,0.7-0.1,1.4-0.3,2.1
	c-0.1,0.7-0.3,1.3-0.6,1.8c-0.2,0.4-0.4,0.8-0.6,1.1l0,0h0.4c0.8,0,1.7,0,2.6,0.1c0.9,0.1,1.9,0.2,2.8,0.5c0.9,0.2,1.9,0.6,2.7,1.1
	c0.8,0.5,1.6,1.1,2.2,1.9c0.9,1.2,1.2,2.7,1.3,4.2c0.1,1.5,0,3-0.1,4.2v0.1c-0.1,1.3-0.2,2.8-0.4,4.3c-0.2,1.5-0.3,3-0.6,4.4
	c-0.2,1.5-0.5,3-0.8,4.4c-0.3,1.5-0.7,2.9-1.2,4.2c-0.2,0.5-0.3,0.9-0.4,1.4l0,0c-0.3,0.9-0.6,1.8-0.9,2.7c-0.4,0.9-0.8,1.6-1.4,2.3
	c-0.1,0.1-0.2,0.2-0.3,0.2c-0.1,0.1-0.2,0.1-0.4,0.1h-64.7c-0.2,0-0.3-0.1-0.5-0.2l0,0c-0.1-0.1-0.2-0.2-0.3-0.4
	c-0.3-0.9-0.7-2-1.2-3.3c-0.5-1.4-1-3-1.5-4.6c-0.5-1.7-1.1-3.5-1.5-5c-0.5-1.6-0.8-2.9-1-3.7v-0.1c-0.1-0.1-0.1-0.2-0.1-0.3
	c-0.4-2-1.1-4.1-1.8-6.2l0,0c-0.6-2-1.2-3.9-1.7-5.9"/>
<path class="st4" d="M219.4,231.3c0.3,1.1,0.6,2.2,1.2,3.2H244c0.9-1.2,1.3-2.6,1.7-4c0.1-0.5,0.3-1,0.5-1.4c0.4-1.3,0.8-2.6,1.1-4
	c0.3-1.4,0.6-2.8,0.8-4.3s0.4-2.9,0.6-4.4c0.2-1.4,0.3-2.8,0.4-4.2v-0.1c0.2-2.2,0.5-5.5-0.8-7.2c-0.1-0.1-0.2-0.2-0.3-0.3
	c-0.3-0.3-0.5-0.5-0.8-0.8c-0.1-0.1-0.2-0.2-0.4-0.2l-0.8-0.4c-0.5-0.2-1-0.4-1.6-0.5c-0.5-0.1-1.1-0.3-1.7-0.3
	c-0.3,0-0.7-0.1-1.1-0.1c-0.4,0-0.7-0.1-1-0.1h-2.8c-0.2,0-0.5-0.1-0.6-0.2c-0.2-0.2-0.3-0.4-0.3-0.6c0-0.1,0-0.2,0.1-0.3l0,0
	c0-0.1,0.1-0.2,0.2-0.3c0.2-0.2,0.3-0.4,0.4-0.6c0.1-0.2,0.3-0.5,0.4-0.8c0.1-0.3,0.2-0.6,0.3-1c0.1-0.4,0.2-0.8,0.3-1.3
	c0.1-0.4,0.1-0.8,0.2-1.3c0.2-1.1,0.3-2.4,0.3-3.7c0-1.1-0.1-2.2-0.3-3.3c-0.2-1.1-0.5-2.1-1-2.9c-0.4-0.7-0.9-1.4-1.5-1.8
	c-0.1-0.1-0.2-0.1-0.3-0.2l-0.3-0.2c-1-0.5-2.3-0.9-3.7-1c-1.4-0.1-3,0-4.4,0.3c-0.3,0.1-0.6,0.2-0.9,0.2c-0.3,0.1-0.6,0.2-0.9,0.3
	c-0.5,0.1-1.8,0.8-2.2,1.1c-0.1,0.1-0.2,0.2-0.4,0.2c-0.1,0.1-0.3,0.2-0.4,0.3c-0.3,0.2-0.5,0.5-0.7,0.7s-0.4,0.5-0.5,0.8
	c-0.3,0.5-0.6,1.4-0.8,1.9c-1.2,4.4,0.2,9.4,3.3,12.8l0,0c0.1,0.1,0.2,0.3,0.3,0.4l0.1,0.1v0.4c0,0.1,0,0.2-0.1,0.3v0.1l0,0v0.1
	h-0.1v0.1l0,0l0,0l0,0l0,0l0,0l0,0h-0.2l0,0h-0.3l0,0h-0.3l0,0h-0.2l0,0c-0.6,0-1.3,0-1.9,0.1c-1.8,0.1-3.6,0.1-5.2,0.5
	c-1.4,0.4-2.5,1.1-2.9,2.6c-0.7,2.4,0.3,5.3,1.2,7.9l0,0c0.4,1.1,0.7,2.2,1,3.1c0.4,1.9,1,3.7,1.5,5.5c0.6,2.1,1.2,4.2,1.7,6.3
	c0.1,0.4,0.2,0.8,0.3,1.2C219.2,230.5,219.3,230.9,219.4,231.3L219.4,231.3L219.4,231.3z"/>
<path class="st4" d="M251.8,183.4L251.8,183.4c-0.4,0.2-0.7,0.4-1,0.6s-0.6,0.4-0.8,0.7l-0.2,0.2c-0.4,0.4-0.6,0.8-0.8,1.3
	c-0.5,1.2-0.7,2.6-0.8,4c-0.1,1.5,0.1,2.9,0.4,4.4c0.3,1.4,0.9,2.7,1.6,3.9c0.7,1.1,1.5,2.1,2.4,2.8c0.2,0.1,0.3,0.4,0.3,0.6
	s0,0.4-0.2,0.6c-0.1,0.1-0.2,0.2-0.3,0.2l0,0c-0.1,0.1-0.2,0.1-0.3,0.1l-0.9,0.1c-0.4,0-0.8,0.1-1.3,0.1h-1c0.4,0.4,0.6,0.7,0.9,1.2
	l0,0c0.1,0.3,0.3,0.5,0.4,0.8l0,0l0,0c0.1,0.3,0.2,0.5,0.2,0.7l0,0l0.1,0.3l0,0l0.1,0.5l0,0c0,0.3,0.1,0.5,0.1,0.8l0,0v0.1l0,0
	c0,0.8,0.1,1.5,0.1,2.3l0,0c0,0.8-0.1,1.7-0.2,2.5c-0.1,1.3-0.2,2.8-0.4,4.3s-0.3,3-0.6,4.4c-0.2,1.5-0.5,3-0.8,4.4
	c-0.3,1.5-0.7,2.9-1.2,4.2l-0.2,0.7c-0.4,1.3-0.9,3-1.6,4.2H271c0.4-0.5,0.6-1,0.9-1.6c0.3-0.7,0.6-1.5,0.8-2.4l0.5-1.5
	c0.4-1.3,0.8-2.6,1.1-4c0.3-1.4,0.6-2.8,0.8-4.3c0.2-1.5,0.4-2.9,0.6-4.4c0.2-1.4,0.3-2.8,0.4-4.2v-0.1c0.1-1.1,0.2-2.5,0.1-3.9
	c-0.1-1.3-0.3-2.5-1-3.4c-0.4-0.6-1-1.1-1.7-1.4c-0.7-0.4-1.4-0.7-2.2-0.9c-0.8-0.2-1.7-0.4-2.5-0.4c-0.9-0.1-1.7-0.1-2.4-0.1h-1.2
	H264c-0.2,0-0.5-0.1-0.6-0.2c-0.2-0.2-0.3-0.4-0.3-0.6c0-0.1,0-0.3,0.1-0.4c0.1-0.1,0.1-0.2,0.2-0.3c0.3-0.3,0.6-0.5,0.9-0.9
	c0.3-0.3,0.5-0.7,0.7-1.2c0.2-0.4,0.3-0.9,0.5-1.5c0.1-0.6,0.2-1.2,0.2-1.8c0.1-1.4,0.1-3.1,0-4.7c-0.1-1.3-0.3-2.6-0.7-3.7
	c-0.3-0.9-0.8-1.8-1.3-2.4s-1.1-1-1.8-1.3c-1.2-0.4-2.6-0.7-4-0.7s-2.9,0.1-4.2,0.5c-0.4,0.1-0.7,0.2-1.1,0.3
	C252.4,183.1,252.1,183.2,251.8,183.4L251.8,183.4z"/>
<path class="st4" d="M246.2,202.5L246.2,202.5L246.2,202.5z"/>
<path class="st4" d="M238.8,183.9c0.3,0.4,0.5,0.8,0.7,1.2c0.4,0.8,0.7,1.7,0.9,2.6c0.2,1,0.4,2.1,0.4,3.2c0.1,1.2,0,2.5-0.1,3.6
	c0,0.4-0.1,0.8-0.1,1.2l0,0c-0.1,0.5-0.2,1-0.3,1.5s-0.2,1-0.3,1.4c-0.1,0.4-0.3,0.8-0.4,1.2l-0.2,0.4c0.8,0,1.6,0,2.4,0.1
	c0.5,0,1,0.1,1.5,0.2c0.5,0.1,1,0.2,1.5,0.3c0.3,0.1,0.6,0.2,0.9,0.3c0.3,0.1,0.5,0.2,0.8,0.3c1.2-0.1,2.4-0.1,3.6-0.1
	c-0.6-0.7-1.1-1.4-1.6-2.3c-0.7-1.2-1.2-2.6-1.6-4c-0.4-1.6-0.5-3.2-0.5-4.9c0.1-1.6,0.4-3.1,0.9-4.5c0.1-0.3,0.5-1.1,0.7-1.3
	c0.5-0.6,0.8-1,1.4-1.4l0,0c0.5-0.3,0.8-0.6,1.3-0.8c0.2-0.1,0.3-0.3,0.4-0.4c0.2-0.2,0.3-0.4,0.5-0.7s0.3-0.6,0.4-0.9
	c0.1-0.3,0.3-0.7,0.4-1.2c0.4-1.2,0.7-2.8,0.9-4.3c0.1-1.3,0.2-2.7,0-4c-0.1-1-0.4-2-0.9-2.9c-0.4-0.7-0.9-1.3-1.6-1.8
	c-1-0.6-2.2-1.1-3.5-1.4c-1.4-0.3-2.9-0.4-4.4-0.2c-1.4,0.1-2.8,0.4-3.9,1c-1,0.5-1.9,1.1-2.5,1.8c-0.8,1-1.3,2.1-1.5,3.2
	c-0.3,1.2-0.3,2.5-0.2,3.8c0.2,1.5,0.7,3,1.3,4.4c0.7,1.6,1.7,3.1,2.6,4.3l0,0c0.1,0.1,0.1,0.2,0.1,0.2c0,0.1,0,0.2,0,0.3l0,0
	c0,0.2-0.1,0.4-0.2,0.6C239,183.8,238.9,183.8,238.8,183.9L238.8,183.9z"/>
<path class="st4" d="M198.4,203.5c0.2,1,0.4,1.9,0.6,2.8c0.2,1,0.5,1.9,0.8,2.8c0.3,0.9,0.6,1.9,0.9,2.9c0.3,1,0.6,1.9,0.9,3
	c0.3,1,0.5,1.9,0.8,2.8l0.1,0.1c0,0.1,0.1,0.2,0.1,0.3l0,0c0.1,0.6,0.5,1.9,1,3.6c0.5,1.6,1,3.5,1.6,5.5c0.5,1.5,1,3,1.4,4.4
	c0.3,1,0.7,2,1,2.8h11.2c-0.1-0.2-0.2-0.4-0.3-0.6c-0.1-0.3-0.3-0.7-0.4-1c-0.1-0.3-0.2-0.7-0.3-1.1c-0.8-2.8-1.5-5.7-2.4-8.5
	c-0.6-1.9-1.1-3.7-1.6-5.6c-0.2-0.9-0.6-1.9-0.9-3l0,0c-1-2.9-2.1-6.1-1.2-8.9c0.6-2.1,2.1-3.1,3.9-3.7c1.7-0.5,3.8-0.6,5.7-0.6h0.7
	c-0.6-0.9-1.2-1.8-1.7-2.8c-0.6-1.3-1.1-2.7-1.3-4.2c-0.5-3-0.2-6.1,1.4-8.8c0.2-0.3,0.4-0.5,0.6-0.8c0.2-0.2,0.4-0.4,0.6-0.6
	c0.2-0.2,0.5-0.4,0.7-0.6c0.4-0.3,0.9-0.6,1.3-0.9c0.4-0.2,0.8-0.4,1.2-0.6c0-0.9-0.1-2-0.2-3c-0.1-1.2-0.3-2.3-0.6-3.4
	c-0.3-1-0.7-2-1.3-2.8c-0.6-0.7-1.3-1.2-2.2-1.5c-1.3-0.3-2.8-0.5-4.4-0.5c-1.5,0-3,0.3-4.4,0.7c-1.2,0.4-2.2,0.9-3,1.5
	c-0.7,0.6-1.2,1.2-1.4,2c-0.4,1.2-0.5,2.6-0.5,4c0,1.4,0.3,2.9,0.7,4.3s1,2.7,1.7,3.8c0.7,1.1,1.5,2,2.4,2.7
	c0.2,0.1,0.3,0.4,0.3,0.6s0,0.4-0.2,0.6c-0.1,0.1-0.2,0.2-0.3,0.2l0,0c-0.1,0.1-0.2,0.1-0.3,0.1l-2.4,0.2c-0.4,0-0.9,0.1-1.3,0.1
	H206c-1.7,0-3.5,0.1-4.9,0.5c-1.3,0.4-2.4,1.1-2.8,2.5"/>
<g>
	<polygon class="st5" points="200.2,202.2 200.2,194.1 201.9,194.1 201.9,200.8 206,200.8 206,202.2 	"/>
</g>
<g>
	<path id="_x31__00000132069963907190042360000012727915970419851444_" class="st5" d="M206.8,199.2c0-0.5,0.1-1,0.4-1.5
		c0.3-0.5,0.6-0.9,1.1-1.1c0.5-0.3,1-0.4,1.6-0.4c0.9,0,1.6,0.3,2.2,0.9c0.6,0.6,0.9,1.3,0.9,2.2s-0.3,1.6-0.9,2.2
		c-0.6,0.6-1.3,0.9-2.2,0.9c-0.5,0-1.1-0.1-1.6-0.4c-0.5-0.2-0.9-0.6-1.1-1.1C206.9,200.4,206.8,199.8,206.8,199.2L206.8,199.2z
		 M208.4,199.2c0,0.6,0.1,1,0.4,1.4c0.3,0.3,0.6,0.5,1,0.5s0.8-0.2,1-0.5c0.3-0.3,0.4-0.8,0.4-1.4c0-0.6-0.1-1-0.4-1.3
		c-0.3-0.3-0.6-0.5-1-0.5s-0.8,0.2-1,0.5C208.6,198.2,208.4,198.6,208.4,199.2L208.4,199.2z"/>
</g>
<g>
	<path id="_x32__00000024686159899627600710000002382653964818707389_" class="st5" d="M214,202.6l1.8,0.2c0,0.2,0.1,0.4,0.2,0.4
		c0.2,0.1,0.4,0.2,0.7,0.2c0.4,0,0.7-0.1,0.9-0.2c0.1-0.1,0.2-0.2,0.3-0.4c0-0.1,0.1-0.4,0.1-0.7v-0.9c-0.5,0.6-1.1,1-1.8,1
		c-0.8,0-1.4-0.3-1.9-1c-0.4-0.5-0.6-1.2-0.6-2c0-1,0.2-1.8,0.7-2.3s1.1-0.8,1.8-0.8s1.3,0.3,1.8,1v-0.8h1.5v5.3
		c0,0.7-0.1,1.2-0.2,1.6c-0.1,0.3-0.3,0.6-0.5,0.8c-0.2,0.2-0.5,0.4-0.8,0.5c-0.3,0.1-0.8,0.2-1.3,0.2c-1,0-1.7-0.2-2.1-0.5
		c-0.4-0.3-0.6-0.8-0.6-1.3C214,202.7,214,202.7,214,202.6L214,202.6z M215.4,199.1c0,0.6,0.1,1.1,0.4,1.4c0.2,0.3,0.5,0.4,0.9,0.4
		s0.7-0.2,1-0.5s0.4-0.7,0.4-1.3s-0.1-1.1-0.4-1.4c-0.3-0.3-0.6-0.4-1-0.4s-0.7,0.1-0.9,0.4C215.6,198.1,215.4,198.5,215.4,199.1
		L215.4,199.1z"/>
</g>
<g>
	<path id="_x33__00000019662482152495927290000003473870485476508554_" class="st5" d="M220.8,199.2c0-0.5,0.1-1,0.4-1.5
		c0.3-0.5,0.6-0.9,1.1-1.1c0.5-0.3,1-0.4,1.6-0.4c0.9,0,1.6,0.3,2.2,0.9c0.6,0.6,0.9,1.3,0.9,2.2s-0.3,1.6-0.9,2.2
		c-0.6,0.6-1.3,0.9-2.2,0.9c-0.5,0-1.1-0.1-1.6-0.4c-0.5-0.2-0.9-0.6-1.1-1.1C221,200.4,220.8,199.8,220.8,199.2L220.8,199.2z
		 M222.4,199.2c0,0.6,0.1,1,0.4,1.4c0.3,0.3,0.6,0.5,1,0.5s0.8-0.2,1-0.5c0.3-0.3,0.4-0.8,0.4-1.4c0-0.6-0.1-1-0.4-1.3
		c-0.3-0.3-0.6-0.5-1-0.5s-0.8,0.2-1,0.5C222.6,198.2,222.4,198.6,222.4,199.2L222.4,199.2z"/>
</g>
<g>
	<polygon id="_x34__00000111155362341860423220000000428711861546705293_" class="st5" points="230.5,202.3 232.6,193.9 
		233.8,193.9 231.7,202.3 	"/>
</g>
<g>
	<path id="_x35__00000034072881137321095160000009480942569000608919_" class="st5" d="M237.8,194h3.3c0.7,0,1.1,0,1.5,0.1
		c0.3,0.1,0.6,0.2,0.9,0.3c0.3,0.2,0.5,0.4,0.6,0.7c0.2,0.3,0.3,0.6,0.3,1c0,0.4-0.1,0.7-0.3,1.1c-0.2,0.3-0.5,0.6-0.8,0.7
		c0.5,0.1,0.9,0.4,1.2,0.7c0.3,0.4,0.4,0.8,0.4,1.2c0,0.4-0.1,0.7-0.3,1.1c-0.2,0.4-0.4,0.6-0.7,0.8c-0.3,0.2-0.7,0.3-1.1,0.4
		c-0.3,0-0.9,0-2,0.1H238L237.8,194L237.8,194z M239.4,195.4v1.9h1.1c0.6,0,1,0,1.2,0c0.3,0,0.5-0.1,0.7-0.3
		c0.2-0.2,0.2-0.4,0.2-0.6c0-0.3-0.1-0.5-0.2-0.6c-0.1-0.2-0.3-0.3-0.6-0.3c-0.2,0-0.6,0-1.4,0L239.4,195.4L239.4,195.4z
		 M239.4,198.6v2.2h1.5c0.6,0,1,0,1.1,0c0.2,0,0.4-0.2,0.6-0.3c0.2-0.2,0.2-0.4,0.2-0.7c0-0.2-0.1-0.5-0.2-0.6
		c-0.1-0.2-0.3-0.3-0.5-0.4c-0.2-0.1-0.7-0.1-1.5-0.1L239.4,198.6L239.4,198.6z"/>
</g>
<g>
	<path id="_x36__00000132805327432610385360000008345584362755493253_" class="st5" d="M246,195.4v-1.5h1.6v1.5H246z M246,202.2v-6
		h1.6v6H246z"/>
</g>
<g>
	<polygon id="_x37__00000102546092875551141090000012067933488170499235_" class="st5" points="249.2,202.2 249.2,194 250.8,194 
		250.8,202.2 	"/>
</g>
<g>
	<polygon id="_x38__00000009574140060913318580000001918687459375710383_" class="st5" points="252.4,202.2 252.4,194 254,194 
		254,202.2 	"/>
</g>
<g>
	<path id="_x39__00000094584895270551593440000003373926782485591714_" class="st5" d="M259,200.3l1.6,0.3c-0.2,0.6-0.5,1-1,1.3
		c-0.4,0.3-1,0.5-1.6,0.5c-1,0-1.8-0.3-2.3-1c-0.4-0.5-0.6-1.2-0.6-2.1c0-1,0.3-1.8,0.8-2.3c0.5-0.6,1.2-0.8,2-0.8
		c0.9,0,1.6,0.3,2.1,0.9c0.5,0.6,0.8,1.5,0.7,2.7h-3.9c0,0.5,0.1,0.8,0.4,1.1c0.2,0.3,0.5,0.4,0.9,0.4c0.2,0,0.5-0.1,0.6-0.2
		C258.8,200.8,259,200.6,259,200.3z M259.1,198.7c0-0.5-0.1-0.8-0.4-1c-0.2-0.2-0.5-0.4-0.8-0.4c-0.3,0-0.6,0.1-0.8,0.4
		c-0.2,0.3-0.3,0.6-0.3,1H259.1L259.1,198.7z"/>
</g>
<g>
	<path id="_x31_0_00000174586166437201987470000008059505765571039930_" class="st5" d="M267.4,202.2H266v-0.9
		c-0.2,0.3-0.5,0.6-0.9,0.8c-0.3,0.2-0.7,0.3-1,0.3c-0.7,0-1.3-0.3-1.8-0.8c-0.5-0.6-0.7-1.3-0.7-2.3s0.2-1.8,0.7-2.3
		s1.1-0.8,1.8-0.8c0.7,0,1.2,0.3,1.7,0.8v-3h1.6L267.4,202.2L267.4,202.2z M263.2,199.1c0,0.6,0.1,1.1,0.3,1.4
		c0.3,0.4,0.6,0.6,1.1,0.6c0.4,0,0.7-0.2,0.9-0.5c0.3-0.3,0.4-0.8,0.4-1.4c0-0.7-0.1-1.2-0.4-1.5c-0.2-0.3-0.6-0.5-0.9-0.5
		c-0.4,0-0.7,0.1-0.9,0.4C263.4,198.1,263.2,198.5,263.2,199.1L263.2,199.1z"/>
</g>
<g>
	<path id="_x31_1_00000144309537416237552510000002608446248851798447_" class="st5" d="M272.4,200.3l1.6,0.3c-0.2,0.6-0.5,1-1,1.3
		c-0.4,0.3-1,0.5-1.6,0.5c-1,0-1.8-0.3-2.3-1c-0.4-0.5-0.6-1.2-0.6-2.1c0-1,0.3-1.8,0.8-2.3c0.5-0.6,1.2-0.8,2-0.8
		c0.9,0,1.6,0.3,2.1,0.9c0.5,0.6,0.8,1.5,0.7,2.7h-3.9c0,0.5,0.1,0.8,0.4,1.1c0.2,0.3,0.5,0.4,0.9,0.4c0.2,0,0.5-0.1,0.6-0.2
		C272.2,200.8,272.3,200.6,272.4,200.3z M272.5,198.7c0-0.5-0.1-0.8-0.4-1c-0.2-0.2-0.5-0.4-0.8-0.4s-0.6,0.1-0.8,0.4
		c-0.2,0.3-0.3,0.6-0.3,1H272.5L272.5,198.7z"/>
</g>
<g transform="matrix(0.999999 0 0 0.999999 5404.11 3503.57)">
	
		<text id="_x31_1_00000135660842733762899050000012223770738419500167_" transform="matrix(1 0 0 1 -5204.8218 -3301.3953)" class="st0 st6">Logo / Billede</text>
</g>
<text transform="matrix(1 0 0 1 102.7438 107.4002)" class="st7 st8">Kolonne 1</text>
<text transform="matrix(1 0 0 1 114.7291 125.4002)" class="st9 st10">Kolonne 2</text>
<text transform="matrix(1 0 0 1 74.507 216.6673)" class="st7 st11">Kolonne 3</text>
<path class="st12" d="M217.6,239.7"/>
<path class="st12" d="M8.8,239.7"/>
<path class="st12" d="M283.7,239.7"/>
<path class="st12" d="M8.8,239.7"/>
<path class="st12" d="M283.7,41.3"/>
<path class="st12" d="M283.7,239.7"/>
</svg>
