<?xml version="1.0" encoding="UTF-8" standalone="no"?>
<!-- Created with Inkscape (http://www.inkscape.org/) -->

<svg
   version="1.1"
   id="svg2"
   width="392.71387"
   height="328.46201"
   viewBox="0 0 392.71387 328.46201"
   xmlns="http://www.w3.org/2000/svg"
   xmlns:svg="http://www.w3.org/2000/svg">
  <defs
     id="defs6" />
  <g
     id="g8"
     transform="matrix(1.3333333,0,0,-1.3333333,1.3333333,327.12867)">
    <g
       id="g10">
      <g
         id="g12" />
    </g>
    <g
       id="g14">
      <g
         id="g16" />
    </g>
    <g
       id="g18">
      <g
         id="g20" />
      <g
         id="g22" />
    </g>
    <g
       id="g24">
      <g
         id="g26" />
      <g
         id="g28" />
    </g>
    <g
       id="g30">
      <g
         id="g32" />
      <g
         id="g34" />
    </g>
    <g
       id="g36">
      <g
         id="g38" />
      <g
         id="g40" />
    </g>
    <g
       id="g42">
      <g
         id="g44" />
      <g
         id="g46" />
    </g>
    <g
       id="g48">
      <g
         id="g50" />
      <g
         id="g52" />
    </g>
    <g
       id="g54">
      <g
         id="g56" />
      <g
         id="g58" />
    </g>
    <g
       id="g60">
      <g
         id="g62" />
      <g
         id="g64" />
    </g>
    <g
       id="g66">
      <g
         id="g68" />
    </g>
    <g
       id="g70">
      <g
         id="g72" />
      <g
         id="g74" />
    </g>
    <g
       id="g76">
      <g
         id="g78" />
      <g
         id="g80" />
    </g>
    <g
       id="g82">
      <g
         id="g84" />
      <g
         id="g86" />
    </g>
    <g
       id="g88">
      <g
         id="g90">
        <path
           d="m 14.4567,244.063 h 263.622 c 7.7953,0 14.1733,-6.3777 14.1733,-14.1735 V 14.457 c 0,-7.7959 -6.378,-14.1735 -14.1733,-14.1735 H 14.4567 C 6.6614,0.2835 0.2835,6.6611 0.2835,14.457 v 215.4325 c 0,7.7958 6.3779,14.1735 14.1732,14.1735 z"
           style="fill:none;stroke:#1a1a18;stroke-width:0.5669;stroke-linecap:butt;stroke-linejoin:miter;stroke-miterlimit:22.9256;stroke-dasharray:none;stroke-opacity:1"
           id="path92" />
        <path
           d="m 131.3861,219.9685 h 7.795 c 0,3.9141 3.1725,7.0866 7.0866,7.0866 3.9141,0 7.0866,-3.1725 7.0866,-7.0866 h 7.7953 c 2.7284,0 4.9606,-2.2323 4.9606,-4.9606 v 0 c 0,-2.7284 -2.2322,-4.9607 -4.9606,-4.9607 h -29.7635 c -2.7286,0 -4.9609,2.2323 -4.9609,4.9607 v 0 c 0,2.7283 2.2323,4.9606 4.9609,4.9606 z"
           style="fill:none;stroke:#1a1a18;stroke-width:0.5669;stroke-linecap:butt;stroke-linejoin:miter;stroke-miterlimit:22.9256;stroke-dasharray:none;stroke-opacity:1"
           id="path94" />
      </g>
      <g
         id="g96">
        <path
           d="m 109.0653,138.4707 h 2.3839 v -4.7281 l 4.432,4.7281 h 3.1093 l -4.7038,-4.752 4.9464,-6.768 H 116.14 l -3.5442,5.0188 -1.1466,-1.1653 v -3.8535 h -2.3839 z"
           style="fill:#000003;fill-opacity:1;fill-rule:nonzero;stroke:none"
           id="path98" />
        <path
           d="m 124.2173,128.5189 c 0.648,0 1.1466,0.2318 1.4958,0.693 0.3493,0.4641 0.5227,1.1228 0.5227,1.9761 0,0.8506 -0.1734,1.5094 -0.5227,1.9681 -0.3492,0.4612 -0.8478,0.6905 -1.4958,0.6905 -0.6508,0 -1.152,-0.2293 -1.5041,-0.6905 -0.3495,-0.4587 -0.5252,-1.1175 -0.5252,-1.9681 0,-0.8533 0.1757,-1.512 0.5252,-1.9761 0.3521,-0.4612 0.8533,-0.693 1.5041,-0.693 z m 4.3546,2.677 c 0,-1.2478 -0.36,-2.317 -1.0775,-3.2026 -0.72,-0.8878 -1.8105,-1.3306 -3.2746,-1.3306 -1.4641,0 -2.5545,0.4428 -3.2745,1.3306 -0.7175,0.8856 -1.0775,1.9548 -1.0775,3.2026 0,1.2268 0.36,2.2907 1.0775,3.1895 0.72,0.8986 1.8104,1.3493 3.2745,1.3493 1.4641,0 2.5546,-0.4507 3.2746,-1.3493 0.7175,-0.8988 1.0775,-1.9627 1.0775,-3.1895"
           style="fill:#000003;fill-opacity:1;fill-rule:nonzero;stroke:none"
           id="path100" />
        <path
           d="m 132.4412,126.9507 h -2.2241 v 11.5039 h 2.2241 z"
           style="fill:#000003;fill-opacity:1;fill-rule:nonzero;stroke:none"
           id="path102" />
        <path
           d="m 138.4359,128.5189 c 0.648,0 1.1466,0.2318 1.4958,0.693 0.3492,0.4641 0.5227,1.1228 0.5227,1.9761 0,0.8506 -0.1735,1.5094 -0.5227,1.9681 -0.3492,0.4612 -0.8478,0.6905 -1.4958,0.6905 -0.6509,0 -1.152,-0.2293 -1.5041,-0.6905 -0.3495,-0.4587 -0.5252,-1.1175 -0.5252,-1.9681 0,-0.8533 0.1757,-1.512 0.5252,-1.9761 0.3521,-0.4612 0.8532,-0.693 1.5041,-0.693 z m 4.3546,2.677 c 0,-1.2478 -0.36,-2.317 -1.0775,-3.2026 -0.72,-0.8878 -1.8105,-1.3306 -3.2746,-1.3306 -1.4641,0 -2.5546,0.4428 -3.2746,1.3306 -0.7174,0.8856 -1.0774,1.9548 -1.0774,3.2026 0,1.2268 0.36,2.2907 1.0774,3.1895 0.72,0.8986 1.8105,1.3493 3.2746,1.3493 1.4641,0 2.5546,-0.4507 3.2746,-1.3493 0.7175,-0.8988 1.0775,-1.9627 1.0775,-3.1895"
           style="fill:#000003;fill-opacity:1;fill-rule:nonzero;stroke:none"
           id="path104" />
        <path
           d="m 149.1103,135.6707 c 0.8773,0 1.5948,-0.2319 2.1521,-0.6934 0.5573,-0.464 0.8373,-1.2265 0.8373,-2.296 v -5.7306 h -2.2881 v 5.1761 c 0,0.4479 -0.0587,0.792 -0.1786,1.0318 -0.216,0.4374 -0.6318,0.656 -1.2427,0.656 -0.7492,0 -1.2665,-0.3198 -1.544,-0.9599 -0.1466,-0.3387 -0.2186,-0.7707 -0.2186,-1.296 v -4.608 h -2.224 v 8.496 h 2.16 v -1.2427 c 0.2854,0.44 0.5547,0.7574 0.8107,0.9494 0.4561,0.3441 1.0346,0.5173 1.7359,0.5173"
           style="fill:#000003;fill-opacity:1;fill-rule:nonzero;stroke:none"
           id="path106" />
        <path
           d="m 158.8836,135.6707 c 0.8773,0 1.5948,-0.2319 2.1521,-0.6934 0.5572,-0.464 0.8373,-1.2265 0.8373,-2.296 v -5.7306 h -2.2881 v 5.1761 c 0,0.4479 -0.0587,0.792 -0.1786,1.0318 -0.216,0.4374 -0.6318,0.656 -1.2427,0.656 -0.7492,0 -1.2665,-0.3198 -1.544,-0.9599 -0.1466,-0.3387 -0.2186,-0.7707 -0.2186,-1.296 v -4.608 h -2.2241 v 8.496 h 2.16 v -1.2427 c 0.2855,0.44 0.5548,0.7574 0.8108,0.9494 0.456,0.3441 1.0346,0.5173 1.7359,0.5173"
           style="fill:#000003;fill-opacity:1;fill-rule:nonzero;stroke:none"
           id="path108" />
        <path
           d="m 167.4595,133.8466 c -0.5731,0 -1.0159,-0.1573 -1.3306,-0.4745 -0.3146,-0.3147 -0.5147,-0.7441 -0.5947,-1.2853 h 3.8401 c -0.0399,0.576 -0.2372,1.0131 -0.5947,1.3119 -0.3546,0.2988 -0.7945,0.4479 -1.3201,0.4479 z m 0.0134,1.8561 c 0.7415,0 1.4079,-0.1332 2.0001,-0.3974 0.5947,-0.2667 1.0825,-0.6854 1.4692,-1.2586 0.3495,-0.5065 0.576,-1.0933 0.6775,-1.76 0.0612,-0.3892 0.0853,-0.9519 0.0745,-1.6881 h -6.2079 c 0.0346,-0.8586 0.3306,-1.4612 0.8907,-1.8053 0.3387,-0.216 0.7466,-0.3226 1.2265,-0.3226 0.5069,0 0.9173,0.1307 1.2348,0.3895 0.1732,0.1411 0.3254,0.3359 0.4586,0.5864 h 2.2853 c -0.0586,-0.5065 -0.3359,-1.0184 -0.824,-1.5412 -0.7625,-0.8294 -1.8292,-1.2427 -3.2,-1.2427 -1.1333,0 -2.1331,0.3493 -2.9971,1.048 -0.8668,0.6987 -1.2988,1.8374 -1.2988,3.4132 0,1.4774 0.3894,2.6082 1.1707,3.3973 0.7812,0.7869 1.7946,1.1815 3.0399,1.1815"
           style="fill:#000003;fill-opacity:1;fill-rule:nonzero;stroke:none"
           id="path110" />
        <path
           d="m 177.3422,134.7588 v 1.5199 c 0.7013,0.032 1.192,0.0774 1.4746,0.1412 0.4453,0.0989 0.8107,0.2962 1.0905,0.5921 0.1922,0.2053 0.3387,0.4746 0.4374,0.8133 0.0561,0.2027 0.0853,0.3546 0.0853,0.4533 h 1.8561 v -11.3279 h -2.2719 v 7.8081 z"
           style="fill:#000003;fill-opacity:1;fill-rule:nonzero;stroke:none"
           id="path112" />
      </g>
    </g>
    <g
       id="g114">
      <g
         id="g116" />
    </g>
    <g
       id="g118">
      <g
         id="g120" />
      <g
         id="g122" />
    </g>
    <g
       id="g124">
      <g
         id="g126" />
      <g
         id="g128" />
    </g>
    <g
       id="g130">
      <g
         id="g132" />
      <g
         id="g134" />
    </g>
    <g
       id="g136">
      <g
         id="g138" />
      <g
         id="g140" />
    </g>
    <g
       id="g142">
      <g
         id="g144" />
    </g>
    <g
       id="g146">
      <g
         id="g148" />
      <g
         id="g150" />
    </g>
    <g
       id="g152">
      <g
         id="g154" />
      <g
         id="g156" />
    </g>
    <g
       id="g158">
      <g
         id="g160" />
      <g
         id="g162" />
    </g>
    <g
       id="g164">
      <g
         id="g166" />
      <g
         id="g168" />
    </g>
    <g
       id="g170">
      <g
         id="g172" />
    </g>
    <g
       id="g174">
      <g
         id="g176" />
      <g
         id="g178" />
    </g>
    <g
       id="g180">
      <g
         id="g182" />
      <g
         id="g184" />
    </g>
    <g
       id="g186">
      <g
         id="g188" />
      <g
         id="g190" />
    </g>
    <g
       id="g192">
      <g
         id="g194" />
      <g
         id="g196" />
    </g>
    <g
       id="g198">
      <g
         id="g200" />
    </g>
    <g
       id="g202">
      <g
         id="g204" />
      <g
         id="g206" />
    </g>
    <g
       id="g208">
      <g
         id="g210" />
      <g
         id="g212" />
    </g>
    <g
       id="g214">
      <g
         id="g216" />
      <g
         id="g218" />
    </g>
    <g
       id="g220">
      <g
         id="g222" />
      <g
         id="g224" />
    </g>
    <g
       id="g226">
      <g
         id="g228" />
      <g
         id="g230" />
    </g>
    <g
       id="g232" />
    <g
       id="g234">
      <g
         id="g236" />
      <g
         id="g238" />
    </g>
    <g
       id="g240">
      <g
         id="g242" />
      <g
         id="g244" />
    </g>
    <g
       id="g246">
      <g
         id="g248" />
      <g
         id="g250" />
    </g>
    <g
       id="g252">
      <g
         id="g254" />
    </g>
    <g
       id="g256">
      <g
         id="g258" />
      <g
         id="g260" />
    </g>
    <g
       id="g262">
      <g
         id="g264" />
      <g
         id="g266" />
    </g>
    <g
       id="g268">
      <g
         id="g270" />
      <g
         id="g272" />
    </g>
    <g
       id="g274">
      <g
         id="g276" />
      <g
         id="g278" />
    </g>
    <g
       id="g280">
      <g
         id="g282" />
    </g>
    <g
       id="g284">
      <g
         id="g286" />
      <g
         id="g288" />
    </g>
    <g
       id="g290">
      <g
         id="g292" />
      <g
         id="g294" />
    </g>
    <g
       id="g296">
      <g
         id="g298" />
      <g
         id="g300" />
    </g>
    <g
       id="g302">
      <g
         id="g304" />
      <g
         id="g306" />
    </g>
    <g
       id="g308">
      <g
         id="g310" />
      <g
         id="g312" />
    </g>
    <g
       id="g314">
      <g
         id="g316" />
      <g
         id="g318" />
      <g
         id="g320" />
    </g>
    <g
       id="g322">
      <g
         id="g324" />
      <g
         id="g326" />
      <g
         id="g328" />
    </g>
    <g
       id="g330">
      <g
         id="g332" />
      <g
         id="g334" />
      <g
         id="g336" />
    </g>
    <g
       id="g338">
      <g
         id="g340" />
      <g
         id="g342" />
      <g
         id="g344" />
    </g>
    <g
       id="g346">
      <g
         id="g348" />
      <g
         id="g350" />
    </g>
    <g
       id="g352">
      <g
         id="g354" />
      <g
         id="g356" />
      <g
         id="g358" />
    </g>
    <g
       id="g360">
      <g
         id="g362" />
      <g
         id="g364" />
      <g
         id="g366" />
    </g>
    <g
       id="g368">
      <g
         id="g370" />
      <g
         id="g372" />
      <g
         id="g374" />
    </g>
    <g
       id="g376">
      <g
         id="g378" />
      <g
         id="g380" />
      <g
         id="g382" />
    </g>
  </g>
</svg>
