<?xml version="1.0" encoding="UTF-8" standalone="no"?>
<!-- Created with Inkscape (http://www.inkscape.org/) -->

<svg
   version="1.1"
   id="svg2"
   width="392.71387"
   height="328.46201"
   viewBox="0 0 392.71387 328.46201"
   xmlns="http://www.w3.org/2000/svg"
   xmlns:svg="http://www.w3.org/2000/svg">
  <defs
     id="defs6" />
  <g
     id="g8"
     transform="matrix(1.3333333,0,0,-1.3333333,1.3333333,327.12867)">
    <g
       id="g10">
      <g
         id="g12" />
    </g>
    <g
       id="g14">
      <g
         id="g16" />
    </g>
    <g
       id="g18">
      <g
         id="g20" />
      <g
         id="g22" />
    </g>
    <g
       id="g24">
      <g
         id="g26">
        <path
           d="m 14.4567,244.063 h 263.622 c 7.7953,0 14.1733,-6.3777 14.1733,-14.1735 V 14.457 c 0,-7.7959 -6.378,-14.1735 -14.1733,-14.1735 H 14.4567 C 6.6614,0.2835 0.2835,6.6611 0.2835,14.457 v 215.4325 c 0,7.7958 6.3779,14.1735 14.1732,14.1735 z"
           style="fill:none;stroke:#000003;stroke-width:0.5669;stroke-linecap:butt;stroke-linejoin:miter;stroke-miterlimit:22.9256;stroke-dasharray:none;stroke-opacity:1"
           id="path28" />
        <path
           d="m 131.3861,219.9685 h 7.795 c 0,3.9141 3.1725,7.0866 7.0866,7.0866 3.9141,0 7.0866,-3.1725 7.0866,-7.0866 h 7.7953 c 2.7284,0 4.9606,-2.2323 4.9606,-4.9606 v 0 c 0,-2.7284 -2.2322,-4.9607 -4.9606,-4.9607 h -29.7635 c -2.7286,0 -4.9609,2.2323 -4.9609,4.9607 v 0 c 0,2.7283 2.2323,4.9606 4.9609,4.9606 z"
           style="fill:none;stroke:#000003;stroke-width:0.5669;stroke-linecap:butt;stroke-linejoin:miter;stroke-miterlimit:22.9256;stroke-dasharray:none;stroke-opacity:1"
           id="path30" />
      </g>
      <g
         id="g32">
        <path
           d="m 109.0264,127.3691 h 2.384 v -4.7282 l 4.4319,4.7282 h 3.1094 l -4.7039,-4.752 4.9465,-6.768 h -3.0932 l -3.5441,5.0188 -1.1466,-1.1653 v -3.8535 h -2.384 z"
           style="fill:#000003;fill-opacity:1;fill-rule:nonzero;stroke:none"
           id="path34" />
        <path
           d="m 124.1785,117.4173 c 0.648,0 1.1466,0.2318 1.4958,0.693 0.3492,0.4641 0.5227,1.1228 0.5227,1.9761 0,0.8506 -0.1735,1.5094 -0.5227,1.9681 -0.3492,0.4612 -0.8478,0.6905 -1.4958,0.6905 -0.6509,0 -1.152,-0.2293 -1.5041,-0.6905 -0.3495,-0.4587 -0.5253,-1.1175 -0.5253,-1.9681 0,-0.8533 0.1758,-1.512 0.5253,-1.9761 0.3521,-0.4612 0.8532,-0.693 1.5041,-0.693 z m 4.3545,2.677 c 0,-1.2478 -0.36,-2.317 -1.0774,-3.2026 -0.72,-0.8878 -1.8105,-1.3306 -3.2746,-1.3306 -1.4641,0 -2.5546,0.4428 -3.2746,1.3306 -0.7174,0.8856 -1.0774,1.9548 -1.0774,3.2026 0,1.2268 0.36,2.2907 1.0774,3.1895 0.72,0.8986 1.8105,1.3493 3.2746,1.3493 1.4641,0 2.5546,-0.4507 3.2746,-1.3493 0.7174,-0.8988 1.0774,-1.9627 1.0774,-3.1895"
           style="fill:#000003;fill-opacity:1;fill-rule:nonzero;stroke:none"
           id="path36" />
        <path
           d="m 132.4023,115.8491 h -2.224 v 11.5039 h 2.224 z"
           style="fill:#000003;fill-opacity:1;fill-rule:nonzero;stroke:none"
           id="path38" />
        <path
           d="m 138.397,117.4173 c 0.648,0 1.1467,0.2318 1.4959,0.693 0.3492,0.4641 0.5227,1.1228 0.5227,1.9761 0,0.8506 -0.1735,1.5094 -0.5227,1.9681 -0.3492,0.4612 -0.8479,0.6905 -1.4959,0.6905 -0.6508,0 -1.152,-0.2293 -1.504,-0.6905 -0.3495,-0.4587 -0.5253,-1.1175 -0.5253,-1.9681 0,-0.8533 0.1758,-1.512 0.5253,-1.9761 0.352,-0.4612 0.8532,-0.693 1.504,-0.693 z m 4.3546,2.677 c 0,-1.2478 -0.36,-2.317 -1.0774,-3.2026 -0.72,-0.8878 -1.8105,-1.3306 -3.2746,-1.3306 -1.4641,0 -2.5546,0.4428 -3.2746,1.3306 -0.7174,0.8856 -1.0774,1.9548 -1.0774,3.2026 0,1.2268 0.36,2.2907 1.0774,3.1895 0.72,0.8986 1.8105,1.3493 3.2746,1.3493 1.4641,0 2.5546,-0.4507 3.2746,-1.3493 0.7174,-0.8988 1.0774,-1.9627 1.0774,-3.1895"
           style="fill:#000003;fill-opacity:1;fill-rule:nonzero;stroke:none"
           id="path40" />
        <path
           d="m 149.0715,124.5691 c 0.8773,0 1.5947,-0.2319 2.152,-0.6934 0.5573,-0.464 0.8374,-1.2265 0.8374,-2.296 v -5.7306 h -2.2881 v 5.1761 c 0,0.4479 -0.0587,0.792 -0.1786,1.0318 -0.216,0.4374 -0.6319,0.6559 -1.2427,0.6559 -0.7492,0 -1.2666,-0.3197 -1.5441,-0.9598 -0.1465,-0.3387 -0.2185,-0.7707 -0.2185,-1.296 v -4.608 h -2.2241 v 8.496 h 2.16 v -1.2427 c 0.2855,0.44 0.5548,0.7574 0.8107,0.9493 0.4561,0.3442 1.0347,0.5174 1.736,0.5174"
           style="fill:#000003;fill-opacity:1;fill-rule:nonzero;stroke:none"
           id="path42" />
        <path
           d="m 158.8448,124.5691 c 0.8773,0 1.5947,-0.2319 2.152,-0.6934 0.5573,-0.464 0.8374,-1.2265 0.8374,-2.296 v -5.7306 h -2.2882 v 5.1761 c 0,0.4479 -0.0586,0.792 -0.1785,1.0318 -0.216,0.4374 -0.6319,0.6559 -1.2427,0.6559 -0.7492,0 -1.2666,-0.3197 -1.5441,-0.9598 -0.1465,-0.3387 -0.2185,-0.7707 -0.2185,-1.296 v -4.608 h -2.2241 v 8.496 h 2.16 v -1.2427 c 0.2855,0.44 0.5548,0.7574 0.8107,0.9493 0.4561,0.3442 1.0347,0.5174 1.736,0.5174"
           style="fill:#000003;fill-opacity:1;fill-rule:nonzero;stroke:none"
           id="path44" />
        <path
           d="m 167.4207,122.745 c -0.5732,0 -1.0159,-0.1573 -1.3306,-0.4745 -0.3146,-0.3147 -0.5148,-0.7441 -0.5947,-1.2853 h 3.8401 c -0.04,0.576 -0.2373,1.0131 -0.5947,1.3119 -0.3546,0.2988 -0.7946,0.4479 -1.3201,0.4479 z m 0.0133,1.8561 c 0.7416,0 1.408,-0.1332 2.0001,-0.3974 0.5948,-0.2668 1.0826,-0.6854 1.4692,-1.2586 0.3496,-0.5065 0.576,-1.0933 0.6775,-1.76 0.0612,-0.3892 0.0853,-0.9519 0.0746,-1.6881 h -6.2079 c 0.0346,-0.8586 0.3305,-1.4612 0.8906,-1.8053 0.3388,-0.216 0.7467,-0.3226 1.2266,-0.3226 0.5068,0 0.9173,0.1306 1.2348,0.3895 0.1732,0.1411 0.3254,0.3359 0.4586,0.5864 h 2.2853 c -0.0587,-0.5065 -0.3359,-1.0184 -0.824,-1.5412 -0.7625,-0.8294 -1.8292,-1.2427 -3.2001,-1.2427 -1.1333,0 -2.133,0.3493 -2.997,1.048 -0.8669,0.6987 -1.2989,1.8374 -1.2989,3.4132 0,1.4774 0.3895,2.6082 1.1707,3.3973 0.7813,0.7869 1.7947,1.1815 3.0399,1.1815"
           style="fill:#000003;fill-opacity:1;fill-rule:nonzero;stroke:none"
           id="path46" />
        <path
           d="m 177.3034,123.6572 v 1.5199 c 0.7013,0.032 1.192,0.0774 1.4746,0.1412 0.4453,0.0989 0.8107,0.2962 1.0905,0.5921 0.1922,0.2053 0.3387,0.4745 0.4374,0.8133 0.0561,0.2027 0.0853,0.3546 0.0853,0.4532 h 1.8561 v -11.3278 h -2.272 v 7.8081 z"
           style="fill:#000003;fill-opacity:1;fill-rule:nonzero;stroke:none"
           id="path48" />
        <path
           d="m 107.9223,105.4236 h 2.384 v -4.7282 l 4.4319,4.7282 h 3.1094 l -4.7039,-4.752 4.9465,-6.768 h -3.0932 l -3.5441,5.0187 -1.1466,-1.1653 v -3.8534 h -2.384 z"
           style="fill:#000003;fill-opacity:1;fill-rule:nonzero;stroke:none"
           id="path50" />
        <path
           d="m 123.0744,95.4717 c 0.648,0 1.1466,0.2319 1.4958,0.6931 0.3492,0.464 0.5227,1.1228 0.5227,1.976 0,0.8507 -0.1735,1.5095 -0.5227,1.9681 -0.3492,0.4612 -0.8478,0.6905 -1.4958,0.6905 -0.6509,0 -1.152,-0.2293 -1.5041,-0.6905 -0.3495,-0.4586 -0.5253,-1.1174 -0.5253,-1.9681 0,-0.8532 0.1758,-1.512 0.5253,-1.976 0.3521,-0.4612 0.8532,-0.6931 1.5041,-0.6931 z m 4.3545,2.6771 c 0,-1.2479 -0.36,-2.3171 -1.0774,-3.2026 -0.72,-0.8878 -1.8105,-1.3306 -3.2746,-1.3306 -1.4641,0 -2.5546,0.4428 -3.2746,1.3306 -0.7174,0.8855 -1.0774,1.9547 -1.0774,3.2026 0,1.2268 0.36,2.2906 1.0774,3.1895 0.72,0.8986 1.8105,1.3493 3.2746,1.3493 1.4641,0 2.5546,-0.4507 3.2746,-1.3493 0.7174,-0.8989 1.0774,-1.9627 1.0774,-3.1895"
           style="fill:#000003;fill-opacity:1;fill-rule:nonzero;stroke:none"
           id="path52" />
        <path
           d="m 131.2982,93.9036 h -2.224 v 11.5038 h 2.224 z"
           style="fill:#000003;fill-opacity:1;fill-rule:nonzero;stroke:none"
           id="path54" />
        <path
           d="m 137.2929,95.4717 c 0.648,0 1.1467,0.2319 1.4959,0.6931 0.3492,0.464 0.5227,1.1228 0.5227,1.976 0,0.8507 -0.1735,1.5095 -0.5227,1.9681 -0.3492,0.4612 -0.8479,0.6905 -1.4959,0.6905 -0.6508,0 -1.152,-0.2293 -1.504,-0.6905 -0.3495,-0.4586 -0.5253,-1.1174 -0.5253,-1.9681 0,-0.8532 0.1758,-1.512 0.5253,-1.976 0.352,-0.4612 0.8532,-0.6931 1.504,-0.6931 z m 4.3546,2.6771 c 0,-1.2479 -0.36,-2.3171 -1.0774,-3.2026 -0.72,-0.8878 -1.8105,-1.3306 -3.2746,-1.3306 -1.4641,0 -2.5546,0.4428 -3.2746,1.3306 -0.7174,0.8855 -1.0774,1.9547 -1.0774,3.2026 0,1.2268 0.36,2.2906 1.0774,3.1895 0.72,0.8986 1.8105,1.3493 3.2746,1.3493 1.4641,0 2.5546,-0.4507 3.2746,-1.3493 0.7174,-0.8989 1.0774,-1.9627 1.0774,-3.1895"
           style="fill:#000003;fill-opacity:1;fill-rule:nonzero;stroke:none"
           id="path56" />
        <path
           d="m 147.9674,102.6235 c 0.8773,0 1.5947,-0.2318 2.152,-0.6933 0.5573,-0.4641 0.8374,-1.2266 0.8374,-2.2961 v -5.7305 h -2.2881 v 5.1761 c 0,0.4478 -0.0587,0.792 -0.1786,1.0318 -0.216,0.4374 -0.6319,0.6559 -1.2427,0.6559 -0.7492,0 -1.2665,-0.3197 -1.5441,-0.9598 -0.1465,-0.3387 -0.2185,-0.7707 -0.2185,-1.296 v -4.608 h -2.2241 v 8.496 h 2.16 v -1.2427 c 0.2855,0.4399 0.5548,0.7574 0.8107,0.9493 0.4561,0.3441 1.0347,0.5173 1.736,0.5173"
           style="fill:#000003;fill-opacity:1;fill-rule:nonzero;stroke:none"
           id="path58" />
        <path
           d="m 157.7407,102.6235 c 0.8773,0 1.5947,-0.2318 2.152,-0.6933 0.5573,-0.4641 0.8374,-1.2266 0.8374,-2.2961 v -5.7305 h -2.2881 v 5.1761 c 0,0.4478 -0.0587,0.792 -0.1786,1.0318 -0.216,0.4374 -0.6319,0.6559 -1.2427,0.6559 -0.7492,0 -1.2666,-0.3197 -1.5441,-0.9598 -0.1465,-0.3387 -0.2185,-0.7707 -0.2185,-1.296 v -4.608 h -2.2241 v 8.496 h 2.16 v -1.2427 c 0.2855,0.4399 0.5548,0.7574 0.8107,0.9493 0.4561,0.3441 1.0347,0.5173 1.736,0.5173"
           style="fill:#000003;fill-opacity:1;fill-rule:nonzero;stroke:none"
           id="path60" />
        <path
           d="m 166.3166,100.7994 c -0.5732,0 -1.0159,-0.1573 -1.3306,-0.4745 -0.3146,-0.3146 -0.5148,-0.7441 -0.5947,-1.2852 h 3.8401 c -0.04,0.576 -0.2373,1.0131 -0.5947,1.3119 -0.3546,0.2987 -0.7946,0.4478 -1.3201,0.4478 z m 0.0133,1.8562 c 0.7416,0 1.408,-0.1333 2.0001,-0.3975 0.5948,-0.2667 1.0826,-0.6854 1.4692,-1.2585 0.3496,-0.5066 0.576,-1.0934 0.6775,-1.7601 0.0613,-0.3892 0.0853,-0.9518 0.0746,-1.688 h -6.2079 c 0.0346,-0.8586 0.3305,-1.4613 0.8906,-1.8054 0.3388,-0.216 0.7467,-0.3226 1.2266,-0.3226 0.5068,0 0.9173,0.1307 1.2348,0.3895 0.1732,0.1412 0.3254,0.3359 0.4586,0.5865 h 2.2853 c -0.0587,-0.5066 -0.3359,-1.0185 -0.824,-1.5412 -0.7625,-0.8294 -1.8292,-1.2427 -3.2001,-1.2427 -1.1332,0 -2.133,0.3492 -2.997,1.048 -0.8669,0.6987 -1.2989,1.8374 -1.2989,3.4132 0,1.4774 0.3895,2.6081 1.1707,3.3973 0.7813,0.7869 1.7947,1.1815 3.0399,1.1815"
           style="fill:#000003;fill-opacity:1;fill-rule:nonzero;stroke:none"
           id="path62" />
        <path
           d="m 175.5913,93.9036 c 0.0212,0.8133 0.1973,1.5573 0.5252,2.2294 0.3172,0.7546 1.0693,1.5546 2.2533,2.3945 1.0267,0.7333 1.6934,1.2588 1.9947,1.576 0.4666,0.4933 0.6988,1.0321 0.6988,1.6214 0,0.4774 -0.1335,0.8745 -0.4,1.192 -0.2667,0.3172 -0.648,0.4745 -1.1441,0.4745 -0.68,0 -1.144,-0.2531 -1.3892,-0.7571 -0.1415,-0.2908 -0.2242,-0.752 -0.2509,-1.3867 h -2.16 c 0.0374,0.9626 0.2106,1.7413 0.5256,2.336 0.5918,1.1305 1.6477,1.696 3.1651,1.696 1.1999,0 2.1521,-0.3308 2.8613,-0.9947 0.7092,-0.6641 1.0641,-1.5415 1.0641,-2.6348 0,-0.8373 -0.2508,-1.5812 -0.752,-2.232 -0.328,-0.432 -0.8668,-0.9119 -1.6186,-1.4425 l -0.8909,-0.6322 c -0.5598,-0.3945 -0.9411,-0.6797 -1.1466,-0.8557 -0.2078,-0.1761 -0.3813,-0.3816 -0.5224,-0.616 h 4.9464 v -1.9681 z"
           style="fill:#000003;fill-opacity:1;fill-rule:nonzero;stroke:none"
           id="path64" />
        <path
           d="m 107.9303,83.431 h 2.3839 v -4.7282 l 4.432,4.7282 h 3.1093 l -4.7038,-4.752 4.9464,-6.768 h -3.0931 l -3.5442,5.0187 -1.1466,-1.1653 V 71.911 h -2.3839 z"
           style="fill:#000003;fill-opacity:1;fill-rule:nonzero;stroke:none"
           id="path66" />
        <path
           d="m 123.0823,73.4791 c 0.648,0 1.1466,0.2319 1.4958,0.6931 0.3493,0.464 0.5228,1.1228 0.5228,1.976 0,0.8507 -0.1735,1.5095 -0.5228,1.9681 -0.3492,0.4612 -0.8478,0.6905 -1.4958,0.6905 -0.6508,0 -1.152,-0.2293 -1.5041,-0.6905 -0.3495,-0.4586 -0.5252,-1.1174 -0.5252,-1.9681 0,-0.8532 0.1757,-1.512 0.5252,-1.976 0.3521,-0.4612 0.8533,-0.6931 1.5041,-0.6931 z m 4.3546,2.6771 c 0,-1.2479 -0.36,-2.3171 -1.0775,-3.2026 -0.72,-0.8878 -1.8105,-1.3306 -3.2745,-1.3306 -1.4641,0 -2.5546,0.4428 -3.2746,1.3306 -0.7175,0.8855 -1.0775,1.9547 -1.0775,3.2026 0,1.2268 0.36,2.2906 1.0775,3.1895 0.72,0.8986 1.8105,1.3493 3.2746,1.3493 1.464,0 2.5545,-0.4507 3.2745,-1.3493 0.7175,-0.8989 1.0775,-1.9627 1.0775,-3.1895"
           style="fill:#000003;fill-opacity:1;fill-rule:nonzero;stroke:none"
           id="path68" />
        <path
           d="m 131.3062,71.911 h -2.2241 v 11.5038 h 2.2241 z"
           style="fill:#000003;fill-opacity:1;fill-rule:nonzero;stroke:none"
           id="path70" />
        <path
           d="m 137.3009,73.4791 c 0.648,0 1.1466,0.2319 1.4958,0.6931 0.3493,0.464 0.5227,1.1228 0.5227,1.976 0,0.8507 -0.1734,1.5095 -0.5227,1.9681 -0.3492,0.4612 -0.8478,0.6905 -1.4958,0.6905 -0.6509,0 -1.152,-0.2293 -1.5041,-0.6905 -0.3495,-0.4586 -0.5252,-1.1174 -0.5252,-1.9681 0,-0.8532 0.1757,-1.512 0.5252,-1.976 0.3521,-0.4612 0.8532,-0.6931 1.5041,-0.6931 z m 4.3546,2.6771 c 0,-1.2479 -0.36,-2.3171 -1.0775,-3.2026 -0.72,-0.8878 -1.8105,-1.3306 -3.2746,-1.3306 -1.4641,0 -2.5545,0.4428 -3.2745,1.3306 -0.7175,0.8855 -1.0775,1.9547 -1.0775,3.2026 0,1.2268 0.36,2.2906 1.0775,3.1895 0.72,0.8986 1.8104,1.3493 3.2745,1.3493 1.4641,0 2.5546,-0.4507 3.2746,-1.3493 0.7175,-0.8989 1.0775,-1.9627 1.0775,-3.1895"
           style="fill:#000003;fill-opacity:1;fill-rule:nonzero;stroke:none"
           id="path72" />
        <path
           d="m 147.9753,80.6309 c 0.8773,0 1.5948,-0.2318 2.1521,-0.6933 0.5573,-0.4641 0.8373,-1.2266 0.8373,-2.2961 V 71.911 h -2.2881 v 5.1761 c 0,0.4478 -0.0587,0.792 -0.1786,1.0318 -0.216,0.4374 -0.6318,0.6559 -1.2427,0.6559 -0.7492,0 -1.2665,-0.3197 -1.544,-0.9598 -0.1466,-0.3387 -0.2186,-0.7707 -0.2186,-1.296 v -4.608 h -2.224 v 8.496 h 2.16 v -1.2427 c 0.2854,0.4399 0.5547,0.7574 0.8107,0.9493 0.4561,0.3441 1.0346,0.5173 1.7359,0.5173"
           style="fill:#000003;fill-opacity:1;fill-rule:nonzero;stroke:none"
           id="path74" />
        <path
           d="m 157.7486,80.6309 c 0.8773,0 1.5948,-0.2318 2.1521,-0.6933 0.5573,-0.4641 0.8373,-1.2266 0.8373,-2.2961 V 71.911 h -2.2881 v 5.1761 c 0,0.4478 -0.0587,0.792 -0.1786,1.0318 -0.216,0.4374 -0.6318,0.6559 -1.2427,0.6559 -0.7492,0 -1.2665,-0.3197 -1.544,-0.9598 -0.1466,-0.3387 -0.2186,-0.7707 -0.2186,-1.296 v -4.608 h -2.224 v 8.496 h 2.16 v -1.2427 c 0.2854,0.4399 0.5547,0.7574 0.8107,0.9493 0.4561,0.3441 1.0346,0.5173 1.7359,0.5173"
           style="fill:#000003;fill-opacity:1;fill-rule:nonzero;stroke:none"
           id="path76" />
        <path
           d="m 166.3245,78.8068 c -0.5731,0 -1.0159,-0.1573 -1.3305,-0.4745 -0.3147,-0.3146 -0.5148,-0.7441 -0.5948,-1.2852 h 3.8401 c -0.0399,0.576 -0.2372,1.0131 -0.5947,1.3119 -0.3546,0.2987 -0.7945,0.4478 -1.3201,0.4478 z m 0.0134,1.8562 c 0.7415,0 1.4079,-0.1333 2.0001,-0.3975 0.5947,-0.2667 1.0825,-0.6854 1.4692,-1.2585 0.3495,-0.5066 0.576,-1.0934 0.6775,-1.7601 0.0612,-0.3892 0.0853,-0.9518 0.0745,-1.688 h -6.2079 c 0.0346,-0.8586 0.3306,-1.4613 0.8907,-1.8054 0.3387,-0.216 0.7466,-0.3226 1.2265,-0.3226 0.5069,0 0.9173,0.1307 1.2348,0.3895 0.1732,0.1412 0.3254,0.3359 0.4587,0.5865 h 2.2852 c -0.0586,-0.5066 -0.3359,-1.0185 -0.824,-1.5412 -0.7625,-0.8294 -1.8292,-1.2427 -3.2,-1.2427 -1.1333,0 -2.1331,0.3492 -2.9971,1.048 -0.8668,0.6987 -1.2988,1.8374 -1.2988,3.4132 0,1.4774 0.3895,2.6081 1.1707,3.3973 0.7812,0.7869 1.7946,1.1815 3.0399,1.1815"
           style="fill:#000003;fill-opacity:1;fill-rule:nonzero;stroke:none"
           id="path78" />
        <path
           d="m 177.711,75.3829 c 0,-0.4533 0.072,-0.832 0.2189,-1.1279 0.2692,-0.5494 0.7571,-0.8241 1.4692,-0.8241 0.4348,0 0.8132,0.1494 1.1386,0.4482 0.3226,0.2985 0.4853,0.7305 0.4853,1.2906 0,0.7438 -0.2985,1.2399 -0.8986,1.4905 -0.3413,0.1414 -0.8798,0.2109 -1.6132,0.2109 v 1.5998 c 0.7172,0.0108 1.2187,0.08 1.5038,0.2106 0.4907,0.2214 0.7362,0.6642 0.7362,1.3335 0,0.432 -0.1253,0.784 -0.3762,1.0559 -0.2506,0.2721 -0.6052,0.4082 -1.0613,0.4082 -0.5227,0 -0.9065,-0.1681 -1.152,-0.5015 -0.248,-0.3333 -0.3654,-0.7812 -0.3546,-1.3388 h -2.08 c 0.0215,0.5627 0.1173,1.0962 0.288,1.6002 0.1814,0.4424 0.4694,0.8532 0.8586,1.2265 0.2908,0.2668 0.6346,0.4694 1.0349,0.6109 0.4,0.1411 0.8932,0.2106 1.4746,0.2106 1.08,0 1.9519,-0.2801 2.6132,-0.8402 0.6639,-0.5627 0.9947,-1.3144 0.9947,-2.2586 0,-0.6665 -0.1973,-1.232 -0.5947,-1.6906 -0.2506,-0.2852 -0.5094,-0.4828 -0.7812,-0.5865 0.2027,0 0.4958,-0.1735 0.8745,-0.5227 0.568,-0.5256 0.8535,-1.2427 0.8535,-2.1521 0,-0.9572 -0.3308,-1.8 -0.9947,-2.5254 -0.6642,-0.7254 -1.6455,-1.0879 -2.9441,-1.0879 -1.6027,0 -2.7147,0.5227 -3.3386,1.5707 -0.328,0.5573 -0.5094,1.288 -0.5465,2.1892 z"
           style="fill:#000003;fill-opacity:1;fill-rule:nonzero;stroke:none"
           id="path80" />
      </g>
    </g>
    <g
       id="g82">
      <g
         id="g84" />
      <g
         id="g86" />
    </g>
    <g
       id="g88">
      <g
         id="g90" />
      <g
         id="g92" />
    </g>
    <g
       id="g94">
      <g
         id="g96" />
      <g
         id="g98" />
    </g>
    <g
       id="g100">
      <g
         id="g102" />
      <g
         id="g104" />
    </g>
    <g
       id="g106">
      <g
         id="g108" />
      <g
         id="g110" />
    </g>
    <g
       id="g112">
      <g
         id="g114" />
      <g
         id="g116" />
    </g>
    <g
       id="g118">
      <g
         id="g120" />
    </g>
    <g
       id="g122">
      <g
         id="g124" />
      <g
         id="g126" />
    </g>
    <g
       id="g128">
      <g
         id="g130" />
      <g
         id="g132" />
    </g>
    <g
       id="g134">
      <g
         id="g136" />
      <g
         id="g138" />
    </g>
    <g
       id="g140">
      <g
         id="g142" />
      <g
         id="g144" />
    </g>
    <g
       id="g146">
      <g
         id="g148" />
    </g>
    <g
       id="g150">
      <g
         id="g152" />
      <g
         id="g154" />
    </g>
    <g
       id="g156">
      <g
         id="g158" />
      <g
         id="g160" />
    </g>
    <g
       id="g162">
      <g
         id="g164" />
      <g
         id="g166" />
    </g>
    <g
       id="g168">
      <g
         id="g170" />
      <g
         id="g172" />
    </g>
    <g
       id="g174">
      <g
         id="g176" />
    </g>
    <g
       id="g178">
      <g
         id="g180" />
      <g
         id="g182" />
    </g>
    <g
       id="g184">
      <g
         id="g186" />
      <g
         id="g188" />
    </g>
    <g
       id="g190">
      <g
         id="g192" />
      <g
         id="g194" />
    </g>
    <g
       id="g196">
      <g
         id="g198" />
      <g
         id="g200" />
    </g>
    <g
       id="g202">
      <g
         id="g204" />
    </g>
    <g
       id="g206">
      <g
         id="g208" />
      <g
         id="g210" />
    </g>
    <g
       id="g212">
      <g
         id="g214" />
      <g
         id="g216" />
    </g>
    <g
       id="g218">
      <g
         id="g220" />
      <g
         id="g222" />
    </g>
    <g
       id="g224">
      <g
         id="g226" />
      <g
         id="g228" />
    </g>
    <g
       id="g230">
      <g
         id="g232" />
    </g>
    <g
       id="g234">
      <g
         id="g236" />
      <g
         id="g238" />
    </g>
    <g
       id="g240">
      <g
         id="g242" />
      <g
         id="g244" />
    </g>
    <g
       id="g246">
      <g
         id="g248" />
      <g
         id="g250" />
    </g>
    <g
       id="g252">
      <g
         id="g254" />
      <g
         id="g256" />
    </g>
    <g
       id="g258">
      <g
         id="g260" />
      <g
         id="g262" />
    </g>
    <g
       id="g264" />
    <g
       id="g266">
      <g
         id="g268" />
      <g
         id="g270" />
    </g>
    <g
       id="g272">
      <g
         id="g274" />
      <g
         id="g276" />
    </g>
    <g
       id="g278">
      <g
         id="g280" />
      <g
         id="g282" />
    </g>
    <g
       id="g284">
      <g
         id="g286" />
    </g>
    <g
       id="g288">
      <g
         id="g290" />
      <g
         id="g292" />
    </g>
    <g
       id="g294">
      <g
         id="g296" />
      <g
         id="g298" />
    </g>
    <g
       id="g300">
      <g
         id="g302" />
      <g
         id="g304" />
    </g>
    <g
       id="g306">
      <g
         id="g308" />
      <g
         id="g310" />
    </g>
    <g
       id="g312">
      <g
         id="g314" />
    </g>
    <g
       id="g316">
      <g
         id="g318" />
      <g
         id="g320" />
    </g>
    <g
       id="g322">
      <g
         id="g324" />
      <g
         id="g326" />
    </g>
    <g
       id="g328">
      <g
         id="g330" />
      <g
         id="g332" />
    </g>
    <g
       id="g334">
      <g
         id="g336" />
      <g
         id="g338" />
    </g>
    <g
       id="g340">
      <g
         id="g342" />
      <g
         id="g344" />
    </g>
    <g
       id="g346">
      <g
         id="g348" />
      <g
         id="g350" />
      <g
         id="g352" />
    </g>
    <g
       id="g354">
      <g
         id="g356" />
      <g
         id="g358" />
      <g
         id="g360" />
    </g>
    <g
       id="g362">
      <g
         id="g364" />
      <g
         id="g366" />
      <g
         id="g368" />
    </g>
    <g
       id="g370">
      <g
         id="g372" />
      <g
         id="g374" />
      <g
         id="g376" />
    </g>
    <g
       id="g378">
      <g
         id="g380" />
      <g
         id="g382" />
    </g>
    <g
       id="g384">
      <g
         id="g386" />
      <g
         id="g388" />
      <g
         id="g390" />
    </g>
    <g
       id="g392">
      <g
         id="g394" />
      <g
         id="g396" />
      <g
         id="g398" />
    </g>
    <g
       id="g400">
      <g
         id="g402" />
      <g
         id="g404" />
      <g
         id="g406" />
    </g>
    <g
       id="g408">
      <g
         id="g410" />
      <g
         id="g412" />
      <g
         id="g414" />
    </g>
  </g>
</svg>
