<?xml version="1.0" encoding="utf-8"?>
<!-- Generator: Adobe Illustrator 27.1.1, SVG Export Plug-In . SVG Version: 6.00 Build 0)  -->
<svg version="1.1" id="Lag_1" xmlns:xodm="http://www.corel.com/coreldraw/odm/2003"
	 xmlns="http://www.w3.org/2000/svg" xmlns:xlink="http://www.w3.org/1999/xlink" x="0px" y="0px" viewBox="0 0 292.5 244.3"
	 style="enable-background:new 0 0 292.5 244.3;" xml:space="preserve">
<style type="text/css">
	.st0{fill:none;stroke:#2B2A29;stroke-width:0.5673;stroke-miterlimit:3.4408;}
	.st1{fill:none;stroke:#000000;stroke-linecap:round;stroke-linejoin:round;stroke-miterlimit:10;}
	.st2{fill:#D9DADA;}
	.st3{fill:none;stroke:#FEFEFE;stroke-width:1.4171;stroke-miterlimit:10;}
	.st4{font-family:'Arial-BoldMT';}
	.st5{font-size:11.4716px;}
	.st6{font-family:'Helvetica-Bold';}
	.st7{font-size:16px;}
	.st8{font-size:18px;}
	.st9{font-family:'Helvetica';}
	.st10{font-size:14px;}
</style>
<g id="Layer_x0020_1">
	<g id="_2353784030448">
		<path class="st0" d="M7.6,0.3h277.2c4.1,0,7.4,6.3,7.1,26.6v215.4c0.3-4.6-3,1.7-7.1,1.7H7.6c-4.1,0-7.4-6.3-7.6-1.7V26.9
			C0.3,6.6,3.6,0.3,7.6,0.3z"/>
		<path class="st0" d="M131.4,24.4h7.8c0-3.9,3.2-7.1,7.1-7.1c3.9,0,7.1,3.2,7.1,7.1h7.8c2.7,0,5,2.2,5,5l0,0c0,2.7-2.2,5-5,5h-29.8
			c-2.7,0-5-2.2-5-5l0,0C126.4,26.6,128.7,24.4,131.4,24.4L131.4,24.4z"/>
	</g>
</g>
<path class="st1" d="M217.6,239.7"/>
<path class="st1" d="M8.8,239.7"/>
<path class="st1" d="M283.7,239.7"/>
<path class="st1" d="M8.8,239.7"/>
<path class="st1" d="M283.7,239.7"/>
<path class="st2" d="M197.6,69.4c0.6-2.1,2-3.1,3.8-3.7c1.7-0.5,3.7-0.6,5.6-0.6c0.4,0,0.9,0,1.3,0c0.4,0,0.8,0,1.2-0.1l0.6-0.1
	c-0.6-0.6-1.1-1.4-1.6-2.2c-0.7-1.2-1.3-2.5-1.7-3.9c-0.5-1.5-0.7-3.2-0.8-4.8c0-1.6,0.1-3.1,0.5-4.5c0.3-1.1,1-2.1,1.9-2.8
	c1-0.8,2.2-1.4,3.6-1.9c1.5-0.5,3.2-0.7,4.8-0.7c1.7,0,3.4,0.1,4.9,0.5c1.3,0.3,2.3,1.1,3.1,2s1.3,2.1,1.7,3.4
	c0.3,1.1,0.5,2.4,0.7,3.6c0.1,0.9,0.2,1.8,0.2,2.7h0.1c0.3-0.1,0.6-0.1,0.8-0.2c1.6-0.4,3.4-0.5,5-0.3c1.5,0.1,2.9,0.5,4.1,1.1l0,0
	c-0.6-1-1.2-2.1-1.7-3.2c-0.6-1.5-1.1-3-1.3-4.6c-0.2-1.5-0.2-3,0.2-4.5c0.3-1.3,0.9-2.6,1.8-3.8c0.8-1,1.8-1.7,3.1-2.3
	s2.9-1,4.5-1.1s3.3-0.1,4.9,0.3c1.5,0.3,2.9,0.8,4,1.6c0.9,0.6,1.6,1.4,2.1,2.4c0.6,1,0.9,2.2,1.1,3.5c0.2,1.4,0.2,2.9,0,4.4
	c-0.2,1.7-0.5,3.4-1,4.7c-0.2,0.5-0.3,0.9-0.5,1.3l-0.2,0.4c1.4-0.3,2.9-0.5,4.4-0.4c1.6,0,3.2,0.3,4.5,0.8c1,0.4,1.9,1,2.5,1.7
	c0.7,0.8,1.3,1.9,1.7,3c0.4,1.3,0.7,2.7,0.8,4.1c0.2,1.8,0.1,3.6,0,5c0,0.7-0.1,1.4-0.3,2.1c-0.1,0.7-0.3,1.3-0.6,1.8
	c-0.2,0.4-0.4,0.8-0.6,1.1l0,0h0.4c0.8,0,1.7,0,2.6,0.1s1.9,0.2,2.8,0.5c0.9,0.2,1.9,0.6,2.7,1.1c0.8,0.5,1.6,1.1,2.2,1.9
	c0.9,1.2,1.2,2.7,1.3,4.2c0.1,1.5,0,3-0.1,4.2v0.1c-0.1,1.3-0.2,2.8-0.4,4.3c-0.2,1.5-0.3,3-0.6,4.4c-0.2,1.5-0.5,3-0.8,4.4
	c-0.3,1.5-0.7,2.9-1.2,4.2c-0.2,0.5-0.3,0.9-0.4,1.4l0,0c-0.3,0.9-0.6,1.8-0.9,2.7c-0.4,0.9-0.8,1.6-1.4,2.3
	c-0.1,0.1-0.2,0.2-0.3,0.2c-0.1,0.1-0.2,0.1-0.4,0.1h-64.7c-0.2,0-0.3-0.1-0.5-0.2l0,0c-0.1-0.1-0.2-0.2-0.3-0.4
	c-0.3-0.9-0.7-2-1.2-3.3c-0.5-1.4-1-3-1.5-4.6c-0.5-1.7-1.1-3.5-1.5-5c-0.5-1.6-0.8-2.9-1-3.7V94c-0.1-0.1-0.1-0.2-0.1-0.3
	c-0.4-2-1.1-4.1-1.8-6.2l0,0c-0.6-2-1.2-3.9-1.7-5.9"/>
<path class="st2" d="M220.4,106.4c0.3,1.1,0.6,2.2,1.2,3.2H245c0.9-1.2,1.3-2.6,1.7-4c0.1-0.5,0.3-1,0.5-1.4c0.4-1.3,0.8-2.6,1.1-4
	s0.6-2.8,0.8-4.3s0.4-2.9,0.6-4.4c0.2-1.4,0.3-2.8,0.4-4.2v-0.1c0.2-2.2,0.5-5.5-0.8-7.2c-0.1-0.1-0.2-0.2-0.3-0.3
	c-0.3-0.3-0.5-0.5-0.8-0.8c-0.1-0.1-0.2-0.2-0.4-0.2l-0.8-0.4c-0.5-0.2-1-0.4-1.6-0.5c-0.5-0.1-1.1-0.3-1.7-0.3
	c-0.3,0-0.7-0.1-1.1-0.1c-0.4,0-0.7-0.1-1-0.1h-2.8c-0.2,0-0.5-0.1-0.6-0.2c-0.2-0.2-0.3-0.4-0.3-0.6c0-0.1,0-0.2,0.1-0.3l0,0
	c0-0.1,0.1-0.2,0.2-0.3c0.2-0.2,0.3-0.4,0.4-0.6c0.1-0.2,0.3-0.5,0.4-0.8c0.1-0.3,0.2-0.6,0.3-1s0.2-0.8,0.3-1.3
	c0.1-0.4,0.1-0.8,0.2-1.3c0.2-1.1,0.3-2.4,0.3-3.7c0-1.1-0.1-2.2-0.3-3.3c-0.2-1.1-0.5-2.1-1-2.9c-0.4-0.7-0.9-1.4-1.5-1.8
	c-0.1-0.1-0.2-0.1-0.3-0.2l-0.3-0.2c-1-0.5-2.3-0.9-3.7-1s-3,0-4.4,0.3c-0.3,0.1-0.6,0.2-0.9,0.2c-0.3,0.1-0.6,0.2-0.9,0.3
	c-0.5,0.1-1.8,0.8-2.2,1.1c-0.1,0.1-0.2,0.2-0.4,0.2c-0.1,0.1-0.3,0.2-0.4,0.3c-0.3,0.2-0.5,0.5-0.7,0.7s-0.4,0.5-0.5,0.8
	c-0.3,0.5-0.6,1.4-0.8,1.9c-1.2,4.4,0.2,9.4,3.3,12.8l0,0c0.1,0.1,0.2,0.3,0.3,0.4l0.1,0.1v0.4c0,0.1,0,0.2-0.1,0.3v0.1l0,0v0.1
	h-0.1v0.1l0,0l0,0l0,0l0,0l0,0l0,0h-0.2l0,0h-0.3l0,0h-0.3l0,0h-0.2l0,0c-0.6,0-1.3,0-1.9,0.1c-1.8,0.1-3.6,0.1-5.2,0.5
	c-1.4,0.4-2.5,1.1-2.9,2.6c-0.7,2.4,0.3,5.3,1.2,7.9l0,0c0.4,1.1,0.7,2.2,1,3.1c0.4,1.9,1,3.7,1.5,5.5c0.6,2.1,1.2,4.2,1.7,6.3
	c0.1,0.4,0.2,0.8,0.3,1.2C220.2,105.6,220.3,106,220.4,106.4L220.4,106.4L220.4,106.4z"/>
<path class="st2" d="M252.8,58.5L252.8,58.5c-0.4,0.2-0.7,0.4-1,0.6c-0.3,0.2-0.6,0.4-0.8,0.7l-0.2,0.2c-0.4,0.4-0.6,0.8-0.8,1.3
	c-0.5,1.2-0.7,2.6-0.8,4c-0.1,1.5,0.1,2.9,0.4,4.4c0.3,1.4,0.9,2.7,1.6,3.9c0.7,1.1,1.5,2.1,2.4,2.8c0.2,0.1,0.3,0.4,0.3,0.6
	s0,0.4-0.2,0.6c-0.1,0.1-0.2,0.2-0.3,0.2l0,0c-0.1,0.1-0.2,0.1-0.3,0.1l-0.9,0.1c-0.4,0-0.8,0.1-1.3,0.1h-1c0.4,0.4,0.6,0.7,0.9,1.2
	l0,0c0.1,0.3,0.3,0.5,0.4,0.8l0,0l0,0c0.1,0.3,0.2,0.5,0.2,0.7l0,0l0.1,0.3l0,0l0.1,0.5l0,0c0,0.3,0.1,0.5,0.1,0.8l0,0v0.1l0,0
	c0,0.8,0.1,1.5,0.1,2.3l0,0c0,0.8-0.1,1.7-0.2,2.5c-0.1,1.3-0.2,2.8-0.4,4.3s-0.3,3-0.6,4.4c-0.2,1.5-0.5,3-0.8,4.4
	c-0.3,1.5-0.7,2.9-1.2,4.2l-0.2,0.7c-0.4,1.3-0.9,3-1.6,4.2H272c0.4-0.5,0.6-1,0.9-1.6c0.3-0.7,0.6-1.5,0.8-2.4l0.5-1.5
	c0.4-1.3,0.8-2.6,1.1-4c0.3-1.4,0.6-2.8,0.8-4.3c0.2-1.5,0.4-2.9,0.6-4.4c0.2-1.4,0.3-2.8,0.4-4.2V87c0.1-1.1,0.2-2.5,0.1-3.9
	c-0.1-1.3-0.3-2.5-1-3.4c-0.4-0.6-1-1.1-1.7-1.4c-0.7-0.4-1.4-0.7-2.2-0.9c-0.8-0.2-1.7-0.4-2.5-0.4c-0.9-0.1-1.7-0.1-2.4-0.1h-1.2
	H265c-0.2,0-0.5-0.1-0.6-0.2c-0.2-0.2-0.3-0.4-0.3-0.6c0-0.1,0-0.3,0.1-0.4s0.1-0.2,0.2-0.3c0.3-0.3,0.6-0.5,0.9-0.9
	c0.3-0.3,0.5-0.7,0.7-1.2c0.2-0.4,0.3-0.9,0.5-1.5c0.1-0.6,0.2-1.2,0.2-1.8c0.1-1.4,0.1-3.1,0-4.7c-0.1-1.3-0.3-2.6-0.7-3.7
	c-0.3-0.9-0.8-1.8-1.3-2.4c-0.5-0.6-1.1-1-1.8-1.3c-1.2-0.4-2.6-0.7-4-0.7s-2.9,0.1-4.2,0.5c-0.4,0.1-0.7,0.2-1.1,0.3
	C253.4,58.2,253.1,58.3,252.8,58.5L252.8,58.5z"/>
<path class="st2" d="M247.2,77.6L247.2,77.6L247.2,77.6z"/>
<path class="st2" d="M239.8,59c0.3,0.4,0.5,0.8,0.7,1.2c0.4,0.8,0.7,1.7,0.9,2.6c0.2,1,0.4,2.1,0.4,3.2c0.1,1.2,0,2.5-0.1,3.6
	c0,0.4-0.1,0.8-0.1,1.2l0,0c-0.1,0.5-0.2,1-0.3,1.5s-0.2,1-0.3,1.4s-0.3,0.8-0.4,1.2l-0.2,0.4c0.8,0,1.6,0,2.4,0.1
	c0.5,0,1,0.1,1.5,0.2s1,0.2,1.5,0.3c0.3,0.1,0.6,0.2,0.9,0.3c0.3,0.1,0.5,0.2,0.8,0.3c1.2-0.1,2.4-0.1,3.6-0.1
	c-0.6-0.7-1.1-1.4-1.6-2.3c-0.7-1.2-1.2-2.6-1.6-4c-0.4-1.6-0.5-3.2-0.5-4.9c0.1-1.6,0.4-3.1,0.9-4.5c0.1-0.3,0.5-1.1,0.7-1.3
	c0.5-0.6,0.8-1,1.4-1.4l0,0c0.5-0.3,0.8-0.6,1.3-0.8c0.2-0.1,0.3-0.3,0.4-0.4c0.2-0.2,0.3-0.4,0.5-0.7s0.3-0.6,0.4-0.9
	c0.1-0.3,0.3-0.7,0.4-1.2c0.4-1.2,0.7-2.8,0.9-4.3c0.1-1.3,0.2-2.7,0-4c-0.1-1-0.4-2-0.9-2.9c-0.4-0.7-0.9-1.3-1.6-1.8
	c-1-0.6-2.2-1.1-3.5-1.4c-1.4-0.3-2.9-0.4-4.4-0.2c-1.4,0.1-2.8,0.4-3.9,1c-1,0.5-1.9,1.1-2.5,1.8c-0.8,1-1.3,2.1-1.5,3.2
	c-0.3,1.2-0.3,2.5-0.2,3.8c0.2,1.5,0.7,3,1.3,4.4c0.7,1.6,1.7,3.1,2.6,4.3l0,0c0.1,0.1,0.1,0.2,0.1,0.2c0,0.1,0,0.2,0,0.3l0,0
	c0,0.2-0.1,0.4-0.2,0.6C240,58.9,239.9,58.9,239.8,59L239.8,59z"/>
<path class="st2" d="M199.4,78.6c0.2,1,0.4,1.9,0.6,2.8c0.2,1,0.5,1.9,0.8,2.8s0.6,1.9,0.9,2.9c0.3,1,0.6,1.9,0.9,3
	c0.3,1,0.5,1.9,0.8,2.8l0.1,0.1c0,0.1,0.1,0.2,0.1,0.3l0,0c0.1,0.6,0.5,1.9,1,3.6c0.5,1.6,1,3.5,1.6,5.5c0.5,1.5,1,3,1.4,4.4
	c0.3,1,0.7,2,1,2.8h11.2c-0.1-0.2-0.2-0.4-0.3-0.6c-0.1-0.3-0.3-0.7-0.4-1c-0.1-0.3-0.2-0.7-0.3-1.1c-0.8-2.8-1.5-5.7-2.4-8.5
	c-0.6-1.9-1.1-3.7-1.6-5.6c-0.2-0.9-0.6-1.9-0.9-3l0,0c-1-2.9-2.1-6.1-1.2-8.9c0.6-2.1,2.1-3.1,3.9-3.7c1.7-0.5,3.8-0.6,5.7-0.6h0.7
	c-0.6-0.9-1.2-1.8-1.7-2.8c-0.6-1.3-1.1-2.7-1.3-4.2c-0.5-3-0.2-6.1,1.4-8.8c0.2-0.3,0.4-0.5,0.6-0.8c0.2-0.2,0.4-0.4,0.6-0.6
	c0.2-0.2,0.5-0.4,0.7-0.6c0.4-0.3,0.9-0.6,1.3-0.9c0.4-0.2,0.8-0.4,1.2-0.6c0-0.9-0.1-2-0.2-3c-0.1-1.2-0.3-2.3-0.6-3.4
	c-0.3-1-0.7-2-1.3-2.8c-0.6-0.7-1.3-1.2-2.2-1.5c-1.3-0.3-2.8-0.5-4.4-0.5c-1.5,0-3,0.3-4.4,0.7c-1.2,0.4-2.2,0.9-3,1.5
	c-0.7,0.6-1.2,1.2-1.4,2c-0.4,1.2-0.5,2.6-0.5,4s0.3,2.9,0.7,4.3c0.4,1.4,1,2.7,1.7,3.8s1.5,2,2.4,2.7c0.2,0.1,0.3,0.4,0.3,0.6
	s0,0.4-0.2,0.6c-0.1,0.1-0.2,0.2-0.3,0.2l0,0c-0.1,0.1-0.2,0.1-0.3,0.1l-2.4,0.2c-0.4,0-0.9,0.1-1.3,0.1H207c-1.7,0-3.5,0.1-4.9,0.5
	c-1.3,0.4-2.4,1.1-2.8,2.5"/>
<g>
	<polygon class="st3" points="201.2,77.3 201.2,69.2 202.9,69.2 202.9,75.9 207,75.9 207,77.3 	"/>
</g>
<g>
	<path id="_x31__00000123419795581193173880000007795495111412869028_" class="st3" d="M207.8,74.3c0-0.5,0.1-1,0.4-1.5
		c0.3-0.5,0.6-0.9,1.1-1.1c0.5-0.3,1-0.4,1.6-0.4c0.9,0,1.6,0.3,2.2,0.9c0.6,0.6,0.9,1.3,0.9,2.2c0,0.9-0.3,1.6-0.9,2.2
		c-0.6,0.6-1.3,0.9-2.2,0.9c-0.5,0-1.1-0.1-1.6-0.4c-0.5-0.2-0.9-0.6-1.1-1.1C207.9,75.5,207.8,74.9,207.8,74.3L207.8,74.3z
		 M209.4,74.3c0,0.6,0.1,1,0.4,1.4c0.3,0.3,0.6,0.5,1,0.5s0.8-0.2,1-0.5c0.3-0.3,0.4-0.8,0.4-1.4s-0.1-1-0.4-1.3
		c-0.3-0.3-0.6-0.5-1-0.5s-0.8,0.2-1,0.5C209.6,73.3,209.4,73.7,209.4,74.3L209.4,74.3z"/>
</g>
<g>
	<path id="_x32__00000132078874029929789270000001687726302929418155_" class="st3" d="M215,77.7l1.8,0.2c0,0.2,0.1,0.4,0.2,0.4
		c0.2,0.1,0.4,0.2,0.7,0.2c0.4,0,0.7-0.1,0.9-0.2c0.1-0.1,0.2-0.2,0.3-0.4c0-0.1,0.1-0.4,0.1-0.7v-0.9c-0.5,0.6-1.1,1-1.8,1
		c-0.8,0-1.4-0.3-1.9-1c-0.4-0.5-0.6-1.2-0.6-2c0-1,0.2-1.8,0.7-2.3s1.1-0.8,1.8-0.8s1.3,0.3,1.8,1v-0.8h1.5v5.3
		c0,0.7-0.1,1.2-0.2,1.6c-0.1,0.3-0.3,0.6-0.5,0.8c-0.2,0.2-0.5,0.4-0.8,0.5s-0.8,0.2-1.3,0.2c-1,0-1.7-0.2-2.1-0.5
		c-0.4-0.3-0.6-0.8-0.6-1.3C215,77.8,215,77.8,215,77.7L215,77.7z M216.4,74.2c0,0.6,0.1,1.1,0.4,1.4c0.2,0.3,0.5,0.4,0.9,0.4
		s0.7-0.2,1-0.5s0.4-0.7,0.4-1.3c0-0.6-0.1-1.1-0.4-1.4c-0.3-0.3-0.6-0.4-1-0.4s-0.7,0.1-0.9,0.4C216.6,73.2,216.4,73.6,216.4,74.2
		L216.4,74.2z"/>
</g>
<g>
	<path id="_x33__00000176737699263602290630000007684258186140299944_" class="st3" d="M221.8,74.3c0-0.5,0.1-1,0.4-1.5
		c0.3-0.5,0.6-0.9,1.1-1.1c0.5-0.3,1-0.4,1.6-0.4c0.9,0,1.6,0.3,2.2,0.9c0.6,0.6,0.9,1.3,0.9,2.2c0,0.9-0.3,1.6-0.9,2.2
		c-0.6,0.6-1.3,0.9-2.2,0.9c-0.5,0-1.1-0.1-1.6-0.4c-0.5-0.2-0.9-0.6-1.1-1.1C222,75.5,221.8,74.9,221.8,74.3L221.8,74.3z
		 M223.4,74.3c0,0.6,0.1,1,0.4,1.4c0.3,0.3,0.6,0.5,1,0.5s0.8-0.2,1-0.5c0.3-0.3,0.4-0.8,0.4-1.4s-0.1-1-0.4-1.3
		c-0.3-0.3-0.6-0.5-1-0.5s-0.8,0.2-1,0.5C223.6,73.3,223.4,73.7,223.4,74.3L223.4,74.3z"/>
</g>
<g>
	<polygon id="_x34__00000079474614247867074970000012809474833888864415_" class="st3" points="231.5,77.4 233.6,69 234.8,69 
		232.7,77.4 	"/>
</g>
<g>
	<path id="_x35__00000172438785454659738820000005243518164728310656_" class="st3" d="M238.8,69.1h3.3c0.7,0,1.1,0,1.5,0.1
		c0.3,0.1,0.6,0.2,0.9,0.3c0.3,0.2,0.5,0.4,0.6,0.7c0.2,0.3,0.3,0.6,0.3,1s-0.1,0.7-0.3,1.1c-0.2,0.3-0.5,0.6-0.8,0.7
		c0.5,0.1,0.9,0.4,1.2,0.7c0.3,0.4,0.4,0.8,0.4,1.2c0,0.4-0.1,0.7-0.3,1.1s-0.4,0.6-0.7,0.8c-0.3,0.2-0.7,0.3-1.1,0.4
		c-0.3,0-0.9,0-2,0.1H239L238.8,69.1L238.8,69.1z M240.4,70.5v1.9h1.1c0.6,0,1,0,1.2,0c0.3,0,0.5-0.1,0.7-0.3s0.2-0.4,0.2-0.6
		c0-0.3-0.1-0.5-0.2-0.6c-0.1-0.2-0.3-0.3-0.6-0.3c-0.2,0-0.6,0-1.4,0L240.4,70.5L240.4,70.5z M240.4,73.7v2.2h1.5c0.6,0,1,0,1.1,0
		c0.2,0,0.4-0.2,0.6-0.3c0.2-0.2,0.2-0.4,0.2-0.7c0-0.2-0.1-0.5-0.2-0.6c-0.1-0.2-0.3-0.3-0.5-0.4s-0.7-0.1-1.5-0.1L240.4,73.7
		L240.4,73.7z"/>
</g>
<g>
	<path id="_x36__00000162317188710274090380000003966724034162400670_" class="st3" d="M247,70.5V69h1.6v1.5H247z M247,77.3v-6h1.6
		v6H247z"/>
</g>
<g>
	<polygon id="_x37__00000086688985033847438960000004815469166452105606_" class="st3" points="250.2,77.3 250.2,69.1 251.8,69.1 
		251.8,77.3 	"/>
</g>
<g>
	<polygon id="_x38__00000089537039967326369860000016924771918448589983_" class="st3" points="253.4,77.3 253.4,69.1 255,69.1 
		255,77.3 	"/>
</g>
<g>
	<path id="_x39__00000040565036536678885000000006803004351898622623_" class="st3" d="M260,75.4l1.6,0.3c-0.2,0.6-0.5,1-1,1.3
		c-0.4,0.3-1,0.5-1.6,0.5c-1,0-1.8-0.3-2.3-1c-0.4-0.5-0.6-1.2-0.6-2.1c0-1,0.3-1.8,0.8-2.3c0.5-0.6,1.2-0.8,2-0.8
		c0.9,0,1.6,0.3,2.1,0.9s0.8,1.5,0.7,2.7h-3.9c0,0.5,0.1,0.8,0.4,1.1c0.2,0.3,0.5,0.4,0.9,0.4c0.2,0,0.5-0.1,0.6-0.2
		C259.8,75.9,260,75.7,260,75.4z M260.1,73.8c0-0.5-0.1-0.8-0.4-1c-0.2-0.2-0.5-0.4-0.8-0.4c-0.3,0-0.6,0.1-0.8,0.4s-0.3,0.6-0.3,1
		H260.1L260.1,73.8z"/>
</g>
<g>
	<path id="_x31_0_00000105419761653481894720000006450622052361993645_" class="st3" d="M268.4,77.3H267v-0.9
		c-0.2,0.3-0.5,0.6-0.9,0.8c-0.3,0.2-0.7,0.3-1,0.3c-0.7,0-1.3-0.3-1.8-0.8c-0.5-0.6-0.7-1.3-0.7-2.3s0.2-1.8,0.7-2.3
		s1.1-0.8,1.8-0.8c0.7,0,1.2,0.3,1.7,0.8v-3h1.6L268.4,77.3L268.4,77.3z M264.2,74.2c0,0.6,0.1,1.1,0.3,1.4c0.3,0.4,0.6,0.6,1.1,0.6
		c0.4,0,0.7-0.2,0.9-0.5c0.3-0.3,0.4-0.8,0.4-1.4c0-0.7-0.1-1.2-0.4-1.5c-0.2-0.3-0.6-0.5-0.9-0.5c-0.4,0-0.7,0.1-0.9,0.4
		C264.4,73.2,264.2,73.6,264.2,74.2L264.2,74.2z"/>
</g>
<g>
	<path id="_x31_1_00000165929905248153990510000013215389987651349407_" class="st3" d="M273.4,75.4l1.6,0.3c-0.2,0.6-0.5,1-1,1.3
		c-0.4,0.3-1,0.5-1.6,0.5c-1,0-1.8-0.3-2.3-1c-0.4-0.5-0.6-1.2-0.6-2.1c0-1,0.3-1.8,0.8-2.3c0.5-0.6,1.2-0.8,2-0.8
		c0.9,0,1.6,0.3,2.1,0.9s0.8,1.5,0.7,2.7h-3.9c0,0.5,0.1,0.8,0.4,1.1c0.2,0.3,0.5,0.4,0.9,0.4c0.2,0,0.5-0.1,0.6-0.2
		C273.2,75.9,273.3,75.7,273.4,75.4z M273.5,73.8c0-0.5-0.1-0.8-0.4-1c-0.2-0.2-0.5-0.4-0.8-0.4s-0.6,0.1-0.8,0.4
		c-0.2,0.3-0.3,0.6-0.3,1H273.5L273.5,73.8z"/>
</g>
<g transform="matrix(0.999999 0 0 0.999999 5404.11 3503.57)">
	
		<text id="_x31_1_00000179619095873290224180000007604831826088105116_" transform="matrix(1 0 0 1 -5203.7803 -3426.2954)" class="st4 st5">Logo / Billede</text>
</g>
<path class="st1" d="M256.3,42.5"/>
<path class="st1" d="M256.3,108.6"/>
<path class="st1" d="M9.3,241.3"/>
<path class="st1" d="M284.2,241.3"/>
<text transform="matrix(1 0 0 1 75.007 85.9547)" class="st6 st7">Kolonne 3</text>
<text transform="matrix(1 0 0 1 103.2438 170.1675)" class="st6 st8">Kolonne 1</text>
<text transform="matrix(1 0 0 1 115.2292 188.1675)" class="st9 st10">Kolonne 2</text>
<path class="st1" d="M9.3,241.3"/>
</svg>
