<?xml version="1.0" encoding="utf-8"?>
<!-- Generator: Adobe Illustrator 27.1.1, SVG Export Plug-In . SVG Version: 6.00 Build 0)  -->
<svg version="1.1" id="Lag_1" xmlns:xodm="http://www.corel.com/coreldraw/odm/2003"
	 xmlns="http://www.w3.org/2000/svg" xmlns:xlink="http://www.w3.org/1999/xlink" x="0px" y="0px" viewBox="0 0 292.5 244.3"
	 style="enable-background:new 0 0 292.5 244.3;" xml:space="preserve">
<style type="text/css">
	.st0{fill:none;stroke:#2B2A29;stroke-width:0.5673;stroke-miterlimit:3.4408;}
	.st1{fill:none;stroke:#000000;stroke-linecap:round;stroke-linejoin:round;stroke-miterlimit:10;}
	.st2{fill:none;}
	.st3{fill:#D9DADA;}
	.st4{fill:none;stroke:#FEFEFE;stroke-width:0.992;stroke-miterlimit:10;}
	.st5{font-family:'Arial-BoldMT';}
	.st6{font-size:8.0301px;}
	.st7{font-family:'Helvetica-Bold';}
	.st8{font-size:18px;}
	.st9{font-family:'Helvetica';}
	.st10{font-size:14px;}
	.st11{font-size:16px;}
</style>
<g id="Layer_x0020_1">
	<g id="_2353784030448">
		<path class="st0" d="M7.6,0.3h277.2c4.1,0,7.4,6.3,7.1,26.6v215.4c0.3-4.6-3,1.7-7.1,1.7H7.6c-4.1,0-7.4-6.3-7.6-1.7V26.9
			C0.3,6.6,3.6,0.3,7.6,0.3z"/>
		<path class="st0" d="M131.4,24.4h7.8c0-3.9,3.2-7.1,7.1-7.1c3.9,0,7.1,3.2,7.1,7.1h7.8c2.7,0,5,2.2,5,5l0,0c0,2.7-2.2,5-5,5h-29.8
			c-2.7,0-5-2.2-5-5l0,0C126.4,26.6,128.7,24.4,131.4,24.4L131.4,24.4z"/>
	</g>
</g>
<path class="st1" d="M217.6,239.7"/>
<path class="st1" d="M8.8,239.7"/>
<path class="st1" d="M283.7,239.7"/>
<path class="st1" d="M8.8,239.7"/>
<path class="st1" d="M283.7,239.7"/>
<path class="st1" d="M9.3,241.3"/>
<path class="st1" d="M284.2,241.3"/>
<path class="st1" d="M9.3,241.3"/>
<path class="st1" d="M9.3,241.3"/>
<path class="st1" d="M284.2,241.3"/>
<polyline class="st2" points="277,243.1 277,193.5 227.4,193.5 227.4,243.1 "/>
<path class="st1" d="M284,142.1"/>
<path class="st1" d="M9,142.1"/>
<path class="st1" d="M284,191.7"/>
<path class="st1" d="M227.1,190.8"/>
<path class="st1" d="M284,42.9"/>
<path class="st1" d="M284,241.3"/>
<path class="st3" d="M227.6,205.3c0.4-1.5,1.4-2.2,2.7-2.6c1.2-0.3,2.6-0.4,3.9-0.4c0.3,0,0.6,0,0.9,0s0.6,0,0.8-0.1h0.5
	c-0.4-0.4-0.8-1-1.1-1.5c-0.5-0.8-0.9-1.7-1.2-2.7s-0.5-2.2-0.6-3.4c0-1.1,0.1-2.2,0.3-3.2c0.2-0.8,0.7-1.5,1.3-2
	c0.7-0.6,1.5-1,2.5-1.3s2.2-0.5,3.4-0.5s2.4,0.1,3.4,0.4c0.9,0.2,1.6,0.8,2.2,1.4s0.9,1.5,1.2,2.4c0.2,0.8,0.3,1.7,0.5,2.5
	c0.1,0.6,0.1,1.3,0.1,1.9h0.1c0.2-0.1,0.4-0.1,0.6-0.1c1.1-0.3,2.4-0.3,3.5-0.2c1.1,0.1,2,0.3,2.9,0.8l0,0c-0.4-0.7-0.8-1.5-1.2-2.2
	c-0.4-1-0.8-2.1-0.9-3.2c-0.1-1-0.1-2.1,0.1-3.1c0.2-0.9,0.6-1.8,1.3-2.7c0.6-0.7,1.3-1.2,2.2-1.6s2-0.7,3.1-0.8
	c1.1-0.1,2.3-0.1,3.4,0.2c1,0.2,2,0.6,2.8,1.1c0.6,0.4,1.1,1,1.5,1.7c0.4,0.7,0.6,1.5,0.8,2.5c0.1,1,0.1,2,0,3.1
	c-0.1,1.2-0.4,2.4-0.7,3.3c-0.1,0.4-0.2,0.6-0.3,0.9l-0.1,0.3c1-0.2,2-0.3,3.1-0.3s2.2,0.2,3.2,0.6c0.7,0.3,1.3,0.7,1.8,1.2
	c0.5,0.6,0.9,1.3,1.2,2.1c0.3,0.9,0.5,1.9,0.6,2.9c0.1,1.3,0.1,2.5,0,3.5c0,0.5-0.1,1-0.2,1.5s-0.2,0.9-0.4,1.3
	c-0.1,0.3-0.3,0.6-0.4,0.8l0,0h0.3c0.6,0,1.2,0,1.8,0.1c0.6,0.1,1.3,0.1,2,0.3c0.6,0.1,1.3,0.4,1.9,0.8c0.6,0.3,1.1,0.8,1.5,1.3
	c0.6,0.8,0.8,1.9,0.9,2.9c0.1,1.1,0,2.1-0.1,2.9v0.1c-0.1,0.9-0.1,2-0.3,3c-0.1,1-0.2,2.1-0.4,3.1c-0.1,1-0.3,2.1-0.6,3.1
	c-0.2,1-0.5,2-0.8,2.9c-0.1,0.3-0.2,0.6-0.3,1l0,0c-0.2,0.6-0.4,1.3-0.6,1.9c-0.3,0.6-0.6,1.1-1,1.6c-0.1,0.1-0.1,0.1-0.2,0.1
	c-0.1,0.1-0.1,0.1-0.3,0.1h-45.3c-0.1,0-0.2-0.1-0.3-0.1l0,0c-0.1-0.1-0.1-0.1-0.2-0.3c-0.2-0.6-0.5-1.4-0.8-2.3
	c-0.3-1-0.7-2.1-1-3.2c-0.4-1.2-0.8-2.4-1.1-3.5c-0.3-1.1-0.6-2-0.7-2.6v-0.1c-0.1-0.1-0.1-0.1-0.1-0.2c-0.3-1.4-0.8-2.9-1.3-4.3
	l0,0c-0.4-1.4-0.8-2.7-1.2-4.1"/>
<path class="st3" d="M243.6,231.2c0.2,0.8,0.4,1.5,0.8,2.2h16.4c0.6-0.8,0.9-1.8,1.2-2.8c0.1-0.4,0.2-0.7,0.4-1
	c0.3-0.9,0.6-1.8,0.8-2.8c0.2-1,0.4-2,0.6-3c0.1-1,0.3-2,0.4-3.1c0.1-1,0.2-2,0.3-2.9v-0.1c0.1-1.5,0.4-3.8-0.6-5
	c-0.1-0.1-0.1-0.1-0.2-0.2c-0.2-0.2-0.4-0.3-0.6-0.6c-0.1-0.1-0.1-0.1-0.3-0.1l-0.6-0.3c-0.4-0.1-0.7-0.3-1.1-0.3
	c-0.4-0.1-0.8-0.2-1.2-0.2c-0.2,0-0.5-0.1-0.8-0.1c-0.3,0-0.5-0.1-0.7-0.1h-2c-0.1,0-0.3-0.1-0.4-0.1c-0.1-0.1-0.2-0.3-0.2-0.4
	c0-0.1,0-0.1,0.1-0.2l0,0c0-0.1,0.1-0.1,0.1-0.2c0.1-0.1,0.2-0.3,0.3-0.4c0.1-0.1,0.2-0.3,0.3-0.6c0.1-0.2,0.1-0.4,0.2-0.7
	s0.1-0.6,0.2-0.9c0.1-0.3,0.1-0.6,0.1-0.9c0.1-0.8,0.2-1.7,0.2-2.6c0-0.8-0.1-1.5-0.2-2.3s-0.4-1.5-0.7-2c-0.3-0.5-0.6-1-1.1-1.3
	c-0.1-0.1-0.1-0.1-0.2-0.1l-0.2-0.1c-0.7-0.3-1.6-0.6-2.6-0.7c-1-0.1-2.1,0-3.1,0.2c-0.2,0.1-0.4,0.1-0.6,0.1
	c-0.2,0.1-0.4,0.1-0.6,0.2c-0.4,0.1-1.3,0.6-1.5,0.8c-0.1,0.1-0.1,0.1-0.3,0.1c-0.1,0.1-0.2,0.1-0.3,0.2c-0.2,0.1-0.3,0.3-0.5,0.5
	s-0.3,0.3-0.4,0.6c-0.2,0.3-0.4,1-0.6,1.3c-0.8,3.1,0.1,6.6,2.3,9l0,0c0.1,0.1,0.1,0.2,0.2,0.3l0.1,0.1v0.3c0,0.1,0,0.1-0.1,0.2l0,0
	l0,0l0,0h-0.1v0.1l0,0l0,0l0,0l0,0l0,0l0,0h-0.1l0,0h-0.2l0,0h-0.2l0,0h-0.1l0,0c-0.4,0-0.9,0-1.3,0.1c-1.3,0.1-2.5,0.1-3.6,0.4
	c-1,0.3-1.8,0.8-2,1.8c-0.5,1.7,0.2,3.7,0.8,5.5l0,0c0.3,0.8,0.5,1.5,0.7,2.2c0.3,1.3,0.7,2.6,1.1,3.8c0.4,1.5,0.8,2.9,1.2,4.4
	c0.1,0.3,0.1,0.6,0.2,0.8C243.5,230.7,243.5,231,243.6,231.2L243.6,231.2L243.6,231.2z"/>
<path class="st3" d="M266.3,197.7L266.3,197.7c-0.3,0.1-0.5,0.3-0.7,0.4c-0.2,0.1-0.4,0.3-0.6,0.5l-0.1,0.1
	c-0.3,0.3-0.4,0.6-0.6,0.9c-0.3,0.8-0.5,1.8-0.6,2.8c-0.1,1.1,0.1,2,0.3,3.1c0.2,1,0.6,1.9,1.1,2.7s1.1,1.5,1.7,2
	c0.1,0.1,0.2,0.3,0.2,0.4c0,0.1,0,0.3-0.1,0.4c-0.1,0.1-0.1,0.1-0.2,0.1l0,0c-0.1,0.1-0.1,0.1-0.2,0.1l-0.6,0.1
	c-0.3,0-0.6,0.1-0.9,0.1h-0.7c0.3,0.3,0.4,0.5,0.6,0.8l0,0c0.1,0.2,0.2,0.3,0.3,0.6l0,0l0,0c0.1,0.2,0.1,0.3,0.1,0.5l0,0l0.1,0.2
	l0,0l0.1,0.3l0,0c0,0.2,0.1,0.4,0.1,0.6l0,0v0.1l0,0c0,0.6,0.1,1,0.1,1.6l0,0c0,0.6-0.1,1.2-0.1,1.8c-0.1,0.9-0.1,2-0.3,3
	c-0.2,1-0.2,2.1-0.4,3.1c-0.1,1.1-0.4,2.1-0.6,3.1c-0.2,1-0.5,2-0.8,2.9l-0.1,0.5c-0.3,0.9-0.6,2.1-1.1,2.9h17.6
	c0.3-0.4,0.4-0.7,0.6-1.1c0.2-0.5,0.4-1,0.6-1.7l0.3-1.1c0.3-0.9,0.6-1.8,0.8-2.8c0.2-1,0.4-2,0.6-3c0.1-1.1,0.3-2,0.4-3.1
	c0.1-1,0.2-2,0.3-2.9v-0.1c0.1-0.8,0.1-1.8,0.1-2.7c-0.1-0.9-0.2-1.8-0.7-2.4c-0.3-0.4-0.7-0.8-1.2-1c-0.5-0.3-1-0.5-1.5-0.6
	c-0.6-0.1-1.2-0.3-1.8-0.3c-0.6-0.1-1.2-0.1-1.7-0.1h-0.8h-0.8c-0.1,0-0.3-0.1-0.4-0.1c-0.1-0.1-0.2-0.3-0.2-0.4
	c0-0.1,0-0.2,0.1-0.3s0.1-0.1,0.1-0.2c0.2-0.2,0.4-0.3,0.6-0.6c0.2-0.2,0.3-0.5,0.5-0.8c0.1-0.3,0.2-0.6,0.4-1.1
	c0.1-0.4,0.1-0.8,0.1-1.3c0.1-1,0.1-2.2,0-3.3c-0.1-0.9-0.2-1.8-0.5-2.6c-0.2-0.6-0.6-1.3-0.9-1.7c-0.4-0.4-0.8-0.7-1.3-0.9
	c-0.8-0.3-1.8-0.5-2.8-0.5s-2,0.1-2.9,0.4c-0.3,0.1-0.5,0.1-0.8,0.2C266.7,197.5,266.5,197.6,266.3,197.7L266.3,197.7z"/>
<path class="st3" d="M262.4,211.1L262.4,211.1L262.4,211.1z"/>
<path class="st3" d="M257.2,198.1c0.2,0.3,0.4,0.6,0.5,0.8c0.3,0.6,0.5,1.2,0.6,1.8c0.1,0.7,0.3,1.5,0.3,2.2c0.1,0.8,0,1.8-0.1,2.5
	c0,0.3-0.1,0.6-0.1,0.8l0,0c-0.1,0.4-0.1,0.7-0.2,1.1c-0.1,0.4-0.1,0.7-0.2,1c-0.1,0.3-0.2,0.6-0.3,0.8l-0.1,0.3
	c0.6,0,1.1,0,1.7,0.1c0.3,0,0.7,0.1,1,0.1c0.4,0.1,0.7,0.1,1.1,0.2c0.2,0.1,0.4,0.1,0.6,0.2c0.2,0.1,0.3,0.1,0.6,0.2
	c0.8-0.1,1.7-0.1,2.5-0.1c-0.4-0.5-0.8-1-1.1-1.6c-0.5-0.8-0.8-1.8-1.1-2.8c-0.3-1.1-0.4-2.2-0.4-3.4c0.1-1.1,0.3-2.2,0.6-3.1
	c0.1-0.2,0.4-0.8,0.5-0.9c0.4-0.4,0.6-0.7,1-1l0,0c0.4-0.2,0.6-0.4,0.9-0.6c0.1-0.1,0.2-0.2,0.3-0.3c0.1-0.1,0.2-0.3,0.3-0.5
	c0.1-0.2,0.2-0.4,0.3-0.6s0.2-0.5,0.3-0.8c0.3-0.8,0.5-2,0.6-3c0.1-0.9,0.1-1.9,0-2.8c-0.1-0.7-0.3-1.4-0.6-2
	c-0.3-0.5-0.6-0.9-1.1-1.3c-0.7-0.4-1.5-0.8-2.4-1c-1-0.2-2-0.3-3.1-0.1c-1,0.1-2,0.3-2.7,0.7c-0.7,0.3-1.3,0.8-1.8,1.3
	c-0.6,0.7-0.9,1.5-1,2.2c-0.2,0.8-0.2,1.8-0.1,2.7c0.1,1.1,0.5,2.1,0.9,3.1c0.5,1.1,1.2,2.2,1.8,3l0,0c0.1,0.1,0.1,0.1,0.1,0.1
	c0,0.1,0,0.1,0,0.2l0,0c0,0.1-0.1,0.3-0.1,0.4C257.3,198,257.2,198,257.2,198.1L257.2,198.1z"/>
<path class="st3" d="M228.9,211.8c0.1,0.7,0.3,1.3,0.4,2c0.1,0.7,0.4,1.3,0.6,2c0.2,0.6,0.4,1.3,0.6,2s0.4,1.3,0.6,2.1
	c0.2,0.7,0.3,1.3,0.6,2l0.1,0.1c0,0.1,0.1,0.1,0.1,0.2l0,0c0.1,0.4,0.4,1.3,0.7,2.5c0.3,1.1,0.7,2.5,1.1,3.8c0.3,1.1,0.7,2.1,1,3.1
	c0.2,0.7,0.5,1.4,0.7,2h7.8c-0.1-0.1-0.1-0.3-0.2-0.4c-0.1-0.2-0.2-0.5-0.3-0.7s-0.1-0.5-0.2-0.8c-0.6-2-1.1-4-1.7-6
	c-0.4-1.3-0.8-2.6-1.1-3.9c-0.1-0.6-0.4-1.3-0.6-2.1l0,0c-0.7-2-1.5-4.3-0.8-6.2c0.4-1.5,1.5-2.2,2.7-2.6c1.2-0.3,2.7-0.4,4-0.4h0.5
	c-0.4-0.6-0.8-1.3-1.2-2c-0.4-0.9-0.8-1.9-0.9-2.9c-0.3-2.1-0.1-4.3,1-6.2c0.1-0.2,0.3-0.4,0.4-0.6c0.1-0.1,0.3-0.3,0.4-0.4
	c0.1-0.1,0.4-0.3,0.5-0.4c0.3-0.2,0.6-0.4,0.9-0.6c0.3-0.1,0.6-0.3,0.8-0.4c0-0.6-0.1-1.4-0.1-2.1c-0.1-0.8-0.2-1.6-0.4-2.4
	c-0.2-0.7-0.5-1.4-0.9-2c-0.4-0.5-0.9-0.8-1.5-1c-0.9-0.2-2-0.3-3.1-0.3c-1,0-2.1,0.2-3.1,0.5c-0.8,0.3-1.5,0.6-2.1,1
	c-0.5,0.4-0.8,0.8-1,1.4c-0.3,0.8-0.3,1.8-0.3,2.8s0.2,2,0.5,3s0.7,1.9,1.2,2.7s1,1.4,1.7,1.9c0.1,0.1,0.2,0.3,0.2,0.4
	c0,0.1,0,0.3-0.1,0.4c-0.1,0.1-0.1,0.1-0.2,0.1l0,0c-0.1,0.1-0.1,0.1-0.2,0.1l-1.7,0.1c-0.3,0-0.6,0.1-0.9,0.1h-1
	c-1.2,0-2.5,0.1-3.4,0.3c-0.9,0.3-1.7,0.8-2,1.8"/>
<g>
	<polygon class="st4" points="230.2,210.9 230.2,205.2 231.3,205.2 231.3,209.9 234.2,209.9 234.2,210.9 	"/>
</g>
<g>
	<path id="_x31__00000123419795581193173880000007795495111412869028_" class="st4" d="M234.8,208.8c0-0.3,0.1-0.7,0.3-1.1
		c0.2-0.3,0.4-0.6,0.8-0.8c0.4-0.2,0.7-0.3,1.1-0.3c0.6,0,1.1,0.2,1.5,0.6c0.4,0.4,0.6,0.9,0.6,1.5c0,0.6-0.2,1.1-0.6,1.5
		c-0.4,0.4-0.9,0.6-1.5,0.6c-0.4,0-0.8-0.1-1.1-0.3c-0.3-0.1-0.6-0.4-0.8-0.8C234.8,209.6,234.8,209.2,234.8,208.8L234.8,208.8z
		 M235.9,208.8c0,0.4,0.1,0.7,0.3,1c0.2,0.2,0.4,0.3,0.7,0.3s0.6-0.1,0.7-0.3c0.2-0.2,0.3-0.6,0.3-1c0-0.4-0.1-0.7-0.3-0.9
		s-0.4-0.3-0.7-0.3c-0.3,0-0.6,0.1-0.7,0.3C236,208.1,235.9,208.4,235.9,208.8L235.9,208.8z"/>
</g>
<g>
	<path id="_x32__00000132078874029929789270000001687726302929418155_" class="st4" d="M239.8,211.2l1.3,0.1c0,0.1,0.1,0.3,0.1,0.3
		c0.1,0.1,0.3,0.1,0.5,0.1c0.3,0,0.5-0.1,0.6-0.1c0.1-0.1,0.1-0.1,0.2-0.3c0-0.1,0.1-0.3,0.1-0.5v-0.6c-0.4,0.4-0.8,0.7-1.3,0.7
		c-0.6,0-1-0.2-1.3-0.7c-0.3-0.4-0.4-0.8-0.4-1.4c0-0.7,0.1-1.3,0.5-1.6c0.4-0.4,0.8-0.6,1.3-0.6s0.9,0.2,1.3,0.7v-0.6h1.1v3.7
		c0,0.5-0.1,0.8-0.1,1.1c-0.1,0.2-0.2,0.4-0.4,0.6s-0.3,0.3-0.6,0.4c-0.2,0.1-0.6,0.1-0.9,0.1c-0.7,0-1.2-0.1-1.5-0.3
		s-0.4-0.6-0.4-0.9C239.8,211.2,239.8,211.2,239.8,211.2L239.8,211.2z M240.8,208.7c0,0.4,0.1,0.8,0.3,1c0.1,0.2,0.4,0.3,0.6,0.3
		c0.3,0,0.5-0.1,0.7-0.3s0.3-0.5,0.3-0.9c0-0.4-0.1-0.8-0.3-1s-0.4-0.3-0.7-0.3s-0.5,0.1-0.6,0.3C240.9,208,240.8,208.3,240.8,208.7
		L240.8,208.7z"/>
</g>
<g>
	<path id="_x33__00000176737699263602290630000007684258186140299944_" class="st4" d="M244.6,208.8c0-0.3,0.1-0.7,0.3-1.1
		c0.2-0.4,0.4-0.6,0.8-0.8c0.3-0.2,0.7-0.3,1.1-0.3c0.6,0,1.1,0.2,1.5,0.6c0.4,0.4,0.6,0.9,0.6,1.5c0,0.6-0.2,1.1-0.6,1.5
		c-0.4,0.4-0.9,0.6-1.5,0.6c-0.3,0-0.8-0.1-1.1-0.3c-0.4-0.1-0.6-0.4-0.8-0.8C244.7,209.6,244.6,209.2,244.6,208.8L244.6,208.8z
		 M245.7,208.8c0,0.4,0.1,0.7,0.3,1c0.2,0.2,0.4,0.3,0.7,0.3s0.6-0.1,0.7-0.3c0.2-0.2,0.3-0.6,0.3-1c0-0.4-0.1-0.7-0.3-0.9
		s-0.4-0.3-0.7-0.3s-0.6,0.1-0.7,0.3C245.8,208.1,245.7,208.4,245.7,208.8L245.7,208.8z"/>
</g>
<g>
	<polygon id="_x34__00000079474614247867074970000012809474833888864415_" class="st4" points="251.4,210.9 252.8,205.1 
		253.7,205.1 252.2,210.9 	"/>
</g>
<g>
	<path id="_x35__00000172438785454659738820000005243518164728310656_" class="st4" d="M256.5,205.1h2.3c0.5,0,0.8,0,1.1,0.1
		c0.2,0.1,0.4,0.1,0.6,0.2c0.2,0.1,0.3,0.3,0.4,0.5c0.1,0.2,0.2,0.4,0.2,0.7s-0.1,0.5-0.2,0.8c-0.1,0.2-0.4,0.4-0.6,0.5
		c0.3,0.1,0.6,0.3,0.8,0.5c0.2,0.3,0.3,0.6,0.3,0.8c0,0.3-0.1,0.5-0.2,0.8c-0.1,0.3-0.3,0.4-0.5,0.6c-0.2,0.1-0.5,0.2-0.8,0.3
		c-0.2,0-0.6,0-1.4,0.1h-2V205.1L256.5,205.1z M257.6,206.1v1.3h0.8c0.4,0,0.7,0,0.8,0c0.2,0,0.4-0.1,0.5-0.2
		c0.1-0.1,0.1-0.3,0.1-0.4c0-0.2-0.1-0.3-0.1-0.4c-0.1-0.1-0.2-0.2-0.4-0.2c-0.1,0-0.4,0-1,0L257.6,206.1L257.6,206.1z M257.6,208.4
		v1.5h1.1c0.4,0,0.7,0,0.8,0s0.3-0.1,0.4-0.2c0.1-0.1,0.1-0.3,0.1-0.5c0-0.1-0.1-0.3-0.1-0.4c-0.1-0.1-0.2-0.2-0.3-0.3
		c-0.1-0.1-0.5-0.1-1.1-0.1H257.6L257.6,208.4z"/>
</g>
<g>
	<path id="_x36__00000162317188710274090380000003966724034162400670_" class="st4" d="M262.2,206.1V205h1.1v1.1H262.2z
		 M262.2,210.9v-4.2h1.1v4.2H262.2z"/>
</g>
<g>
	<polygon id="_x37__00000086688985033847438960000004815469166452105606_" class="st4" points="264.5,210.9 264.5,205.1 
		265.6,205.1 265.6,210.9 	"/>
</g>
<g>
	<polygon id="_x38__00000089537039967326369860000016924771918448589983_" class="st4" points="266.7,210.9 266.7,205.1 
		267.8,205.1 267.8,210.9 	"/>
</g>
<g>
	<path id="_x39__00000040565036536678885000000006803004351898622623_" class="st4" d="M271.3,209.5l1.1,0.2
		c-0.1,0.4-0.4,0.7-0.7,0.9c-0.3,0.2-0.7,0.3-1.1,0.3c-0.7,0-1.3-0.2-1.6-0.7c-0.3-0.3-0.4-0.8-0.4-1.5s0.2-1.3,0.6-1.6
		c0.3-0.4,0.8-0.6,1.4-0.6c0.6,0,1.1,0.2,1.5,0.6c0.4,0.4,0.6,1,0.5,1.9h-2.7c0,0.3,0.1,0.6,0.3,0.8c0.1,0.2,0.3,0.3,0.6,0.3
		c0.1,0,0.4-0.1,0.4-0.1C271.2,209.9,271.3,209.8,271.3,209.5z M271.4,208.4c0-0.4-0.1-0.6-0.3-0.7c-0.1-0.1-0.3-0.3-0.6-0.3
		c-0.3,0-0.4,0.1-0.6,0.3c-0.1,0.2-0.2,0.4-0.2,0.7H271.4L271.4,208.4z"/>
</g>
<g>
	<path id="_x31_0_00000105419761653481894720000006450622052361993645_" class="st4" d="M277.2,210.9h-1v-0.7
		c-0.1,0.2-0.4,0.4-0.6,0.6c-0.2,0.1-0.5,0.2-0.7,0.2c-0.5,0-0.9-0.2-1.3-0.6c-0.3-0.4-0.5-0.9-0.5-1.6s0.1-1.3,0.5-1.6
		c0.4-0.4,0.8-0.6,1.3-0.6s0.8,0.2,1.2,0.6v-2.1h1.1V210.9L277.2,210.9z M274.3,208.7c0,0.4,0.1,0.8,0.2,1c0.2,0.3,0.4,0.4,0.8,0.4
		c0.3,0,0.5-0.1,0.6-0.3c0.2-0.2,0.3-0.6,0.3-1c0-0.5-0.1-0.8-0.3-1.1c-0.1-0.2-0.4-0.3-0.6-0.3c-0.3,0-0.5,0.1-0.6,0.3
		C274.4,208,274.3,208.3,274.3,208.7L274.3,208.7z"/>
</g>
<g>
	<path id="_x31_1_00000165929905248153990510000013215389987651349407_" class="st4" d="M280.7,209.5l1.1,0.2
		c-0.1,0.4-0.3,0.7-0.7,0.9c-0.3,0.2-0.7,0.3-1.1,0.3c-0.7,0-1.3-0.2-1.6-0.7c-0.3-0.3-0.4-0.8-0.4-1.5s0.2-1.3,0.6-1.6
		c0.4-0.4,0.8-0.6,1.4-0.6s1.1,0.2,1.5,0.6c0.3,0.4,0.6,1,0.5,1.9h-2.7c0,0.3,0.1,0.6,0.3,0.8c0.1,0.2,0.3,0.3,0.6,0.3
		c0.1,0,0.4-0.1,0.4-0.1C280.6,209.9,280.6,209.8,280.7,209.5z M280.8,208.4c0-0.4-0.1-0.6-0.3-0.7c-0.1-0.1-0.4-0.3-0.6-0.3
		s-0.4,0.1-0.6,0.3c-0.1,0.2-0.2,0.4-0.2,0.7H280.8L280.8,208.4z"/>
</g>
<g transform="matrix(0.999999 0 0 0.999999 5404.11 3503.57)">
	
		<text id="_x31_1_00000179619095873290224180000007604831826088105116_" transform="matrix(1 0 0 1 -5174.5806 -3292.7139)" class="st5 st6">Logo / Billede</text>
</g>
<text transform="matrix(1 0 0 1 102.1157 91.4936)" class="st7 st8">Kolonne 1</text>
<text transform="matrix(1 0 0 1 114.101 109.4936)" class="st9 st10">Kolonne 2</text>
<text transform="matrix(1 0 0 1 108.1081 176.9032)" class="st7 st11">Kolonne 3</text>
<polyline class="st2" points="277,240.4 277,190.8 227.4,190.8 227.4,240.4 "/>
</svg>
